<?xml version="1.0" encoding="UTF-8" standalone="no"?>
<svg
   xmlns:dc="http://purl.org/dc/elements/1.1/"
   xmlns:cc="http://creativecommons.org/ns#"
   xmlns:rdf="http://www.w3.org/1999/02/22-rdf-syntax-ns#"
   xmlns:svg="http://www.w3.org/2000/svg"
   xmlns="http://www.w3.org/2000/svg"
   viewBox="0 0 2512.52 1913.36"
   height="1913.36"
   width="2512.52"
   xml:space="preserve"
   id="svg2"
   version="1.1"><metadata
     id="metadata8"><rdf:RDF><cc:Work
         rdf:about=""><dc:format>image/svg+xml</dc:format><dc:type
           rdf:resource="http://purl.org/dc/dcmitype/StillImage" /></cc:Work></rdf:RDF></metadata><defs
     id="defs6" /><g
     transform="matrix(1.3333333,0,0,-1.3333333,0,1913.36)"
     id="g10"><g
       transform="scale(0.1)"
       id="g12"><path
         id="path14"
         style="fill:#519ea2;fill-opacity:1;fill-rule:nonzero;stroke:none"
         d="M 6041.15,793.398 V 159.699 H 4773.02 v 633.699 c 0,142.301 47.12,273.702 126.06,379.502 57.11,76.4 131.37,139.8 216.87,183.8 87.06,45.2 186.29,70.8 291.14,70.8 175.05,0 333.57,-70.8 448.4,-185.7 114.52,-114.8 185.66,-273.3 185.66,-448.402" /><path
         id="path16"
         style="fill:#519ea2;fill-opacity:1;fill-rule:nonzero;stroke:none"
         d="m 4888.43,979.301 c 0,0 -552.09,753.499 -194.85,1422.499 0,0 584.56,-396.2 545.59,-1201.7 L 4888.43,979.301" /><path
         id="path18"
         style="fill:#ee284b;fill-opacity:1;fill-rule:nonzero;stroke:none"
         d="m 5115.95,1356.7 c -85.5,-44 -159.76,-107.4 -216.87,-183.8 -101.72,200.3 -319.53,700.5 -158.2,1031.9 0,0 315.47,-234.6 375.07,-848.1" /><path
         id="path20"
         style="fill:#519ea2;fill-opacity:1;fill-rule:nonzero;stroke:none"
         d="m 5924.02,979.301 c 0,0 552.09,753.499 194.86,1422.499 0,0 -584.57,-396.2 -545.6,-1201.7 l 350.74,-220.799" /><path
         id="path22"
         style="fill:#ee284b;fill-opacity:1;fill-rule:nonzero;stroke:none"
         d="m 5696.5,1356.7 c 85.5,-44 159.77,-107.4 216.87,-183.8 101.73,200.3 319.53,700.5 158.21,1031.9 0,0 -315.48,-234.6 -375.08,-848.1" /><path
         id="path24"
         style="fill:#f57a5d;fill-opacity:1;fill-rule:nonzero;stroke:none"
         d="m 5595.87,718.199 c 0,-15.898 -2.18,-31.199 -6.24,-45.5 -118.89,22.801 -235.28,40.203 -349.17,53.301 4.05,94.898 81.75,170.102 177.55,170.102 98.29,0 177.86,-79.602 177.86,-177.903" /><path
         id="path26"
         style="fill:#171514;fill-opacity:1;fill-rule:nonzero;stroke:none"
         d="m 5706.46,966.699 c 0,-32.199 -26.03,-58.199 -58.14,-58.199 -32.12,0 -58.15,26 -58.15,58.199 0,32.102 26.03,58.101 58.15,58.101 32.11,0 58.14,-25.999 58.14,-58.101" /><path
         id="path28"
         style="fill:#171514;fill-opacity:1;fill-rule:nonzero;stroke:none"
         d="m 5252.16,980 c 0,-32.098 -26.04,-58.098 -58.15,-58.098 -32.12,0 -58.15,26 -58.15,58.098 0,32.1 26.03,58.2 58.15,58.2 32.11,0 58.15,-26.1 58.15,-58.2" /><path
         id="path30"
         style="fill:#519ea2;fill-opacity:1;fill-rule:nonzero;stroke:none"
         d="m 4859.71,1022.7 -242.89,-111.098 112.89,-24 -109.47,-59.903 183.03,-61.5 56.44,256.501" /><path
         id="path32"
         style="fill:#519ea2;fill-opacity:1;fill-rule:nonzero;stroke:none"
         d="m 5928.32,1022.7 242.89,-111.098 -112.89,-24 109.47,-59.903 -183.02,-61.5 -56.45,256.501" /><g
         transform="scale(1.06755)"
         id="g34"><path
           id="path36"
           style="fill:#2e2d3f;fill-opacity:1;fill-rule:nonzero;stroke:none"
           d="M 14462.8,2415.34 16038.3,7.68039 H 16300 L 14645.4,2539.64 l -182.6,-124.3" /></g><g
         transform="scale(1.06871)"
         id="g38"><path
           id="path40"
           style="fill:#2e2d3f;fill-opacity:1;fill-rule:nonzero;stroke:none"
           d="M 16300,2412.73 14927.7,3.83788 h -289.4 L 16137.8,2538.21 16300,2412.73" /></g><path
         id="path42"
         style="fill:#3e3e52;fill-opacity:1;fill-rule:nonzero;stroke:none"
         d="M 7896.32,2578.5 9578.28,8.19922 h 279.33 L 8091.23,2711.2 7896.32,2578.5" /><path
         id="path44"
         style="fill:#3e3e52;fill-opacity:1;fill-rule:nonzero;stroke:none"
         d="M 9876.49,2578.5 8409.84,4.10156 H 8100.57 L 9703.18,2712.6 9876.49,2578.5" /><g
         transform="scale(1.05777)"
         id="g46"><path
           id="path48"
           style="fill:#f39c13;fill-opacity:1;fill-rule:nonzero;stroke:none"
           d="M 16300,4163.66 V 2860.07 h -457.5 V 4441.1 l 457.5,-277.44" /></g><path
         id="path50"
         style="fill:#f39c13;fill-opacity:1;fill-rule:nonzero;stroke:none"
         d="M 9554.44,4404.21 V 3025.3 h -483.9 v 1672.37 l 483.9,-293.46" /><path
         id="path52"
         style="fill:#2e2d3f;fill-opacity:1;fill-rule:nonzero;stroke:none"
         d="m 14817.9,23.5 c 0,0 -39.7,1616 278.2,2247.4 0,0 -706.5,-353.2 -340,-2242.9977 l 61.8,-4.4023" /><path
         id="path54"
         style="fill:#2e2d3f;fill-opacity:1;fill-rule:nonzero;stroke:none"
         d="m 14960,47.3008 c 0,0 138.6,748.3012 406.5,1053.0992 0,0 -554.3,-170.9 -471.2,-1062.2984 l 64.7,9.1992" /><path
         id="path56"
         style="fill:#2e2d3f;fill-opacity:1;fill-rule:nonzero;stroke:none"
         d="m 14661.8,36.8008 c 0,0 -367.7,898.8012 -316.6,1450.3992 0,0 -350.7,-534.598 248.5,-1453.8016 l 68.1,3.4024" /><g
         transform="scale(1.06871)"
         id="g58"><path
           id="path60"
           style="fill:#f8b633;fill-opacity:1;fill-rule:nonzero;stroke:none"
           d="M 16300,6119.72 V 4121.12 H 8049.81 v 1998.6 H 16300" /></g><g
         transform="scale(1.06871)"
         id="g62"><path
           id="path64"
           style="fill:#f8b633;fill-opacity:1;fill-rule:nonzero;stroke:none"
           d="M 7334.78,2830.9 V 2412.73 H 16300 V 2830.9 H 7334.78" /></g><g
         transform="scale(1.06871)"
         id="g66"><path
           id="path68"
           style="fill:#f39c13;fill-opacity:1;fill-rule:nonzero;stroke:none"
           d="M 14447.2,2830.9 V 2412.73 H 16300 v 418.17 h -1852.8" /></g><g
         transform="scale(1.06871)"
         id="g70"><path
           id="path72"
           style="fill:#f39c13;fill-opacity:1;fill-rule:nonzero;stroke:none"
           d="M 16300,6119.75 V 4121.14 h -377.5 v 1998.61 h 377.5" /></g><g
         transform="scale(1.04396)"
         id="g74"><path
           id="path76"
           style="fill:#f39c13;fill-opacity:1;fill-rule:nonzero;stroke:none"
           d="M 16300,4218.84 H 8240.69 V 6264.83 H 10935.9 L 16300,4218.84" /></g><g
         transform="scale(1.07144)"
         id="g78"><path
           id="path80"
           style="fill:#f8d49f;fill-opacity:1;fill-rule:nonzero;stroke:none"
           d="m 971.164,53.4804 c 0,0 536.856,616.8346 1827.586,262.7316 1290.73,-354.1029 1599.14,1062.218 3049.78,91.371 1450.64,-970.937 2650,536.853 5551.27,-342.7167 0,0 1953.2,308.4647 2809.9,-11.3859 0,0 1484.9,194.1316 2090.3,11.3859 L 971.164,53.4804" /></g><path
         id="path82"
         style="fill:#f57a5d;fill-opacity:1;fill-rule:nonzero;stroke:none"
         d="m 1419.02,59.4023 c 0,0 440.68,354.5977 829.71,-10.3007 l -829.71,10.3007" /><path
         id="path84"
         style="fill:#3e3e52;fill-opacity:1;fill-rule:nonzero;stroke:none"
         d="m 4258.95,22.6016 c 0,0 72.9,2964.5984 -510.3,4122.8984 0,0 1296.01,-648 623.7,-4114.8008 l -113.4,-8.0976" /><path
         id="path86"
         style="fill:#3e3e52;fill-opacity:1;fill-rule:nonzero;stroke:none"
         d="m 3998.24,66.3008 c 0,0 -254.2,1372.6992 -745.65,1931.8992 0,0 1016.8,-313.5 864.28,-1948.7977 l -118.63,16.8985" /><path
         id="path88"
         style="fill:#3e3e52;fill-opacity:1;fill-rule:nonzero;stroke:none"
         d="m 4545.27,46.9023 c 0,0 674.57,1648.9977 580.88,2660.7977 0,0 643.34,-980.6 -455.96,-2667.0008 l -124.92,6.2031" /><path
         id="path90"
         style="fill:#f57a5d;fill-opacity:1;fill-rule:nonzero;stroke:none"
         d="M 5479.39,39.8984 6165.92,296.699 6612.45,39.8984 Z" /><path
         id="path92"
         style="fill:#f57a5d;fill-opacity:1;fill-rule:nonzero;stroke:none"
         d="m 2478.98,25.1016 c 0,0 269.83,467.0004 1214.25,612.2964 C 4637.64,782.699 5390.06,35.5 5390.06,35.5 L 2478.98,25.1016" /><path
         id="path94"
         style="fill:#f57a5d;fill-opacity:1;fill-rule:nonzero;stroke:none"
         d="m 11251.8,48.1992 -757.3,790.9998 -376,-106.398 -724.86,1125.899 -58.35,-1.3 -195.31,-4.3 c -149.11,-3.2 -282.25,-94.2 -339.53,-231.9 v 0 L 8306.17,1125.4 8231.68,971.699 7543.98,708.102 7393.46,398.199 6454.88,26.3008 7796.81,74.6992 7778.51,37 11251.8,48.1992" /><path
         id="path96"
         style="fill:#f04a25;fill-opacity:1;fill-rule:nonzero;stroke:none"
         d="M 11251.8,48.1992 7778.51,37 l 527.66,1088.4 494.28,495.8 v 0 c 57.28,137.7 190.42,228.7 339.53,231.9 l 195.31,4.3 482.41,-1124.298 300.8,-0.301 376,106.398 -82,-222.797 839.3,-568.2028" /><g
         transform="scale(1.03111)"
         id="g98"><path
           id="path100"
           style="fill:#2e2d3f;fill-opacity:1;fill-rule:nonzero;stroke:none"
           d="m 16300,1192.6 c 0,-188.05 -124.3,-340.507 -277.8,-340.507 -153.4,0 -277.7,152.457 -277.7,340.507 0,187.95 124.3,340.41 277.7,340.41 153.5,0 277.8,-152.46 277.8,-340.41" /></g><g
         transform="scale(1.14224)"
         id="g102"><path
           id="path104"
           style="fill:#ee284b;fill-opacity:1;fill-rule:nonzero;stroke:none"
           d="m 16300,2614.25 -22.9,-178.42 -8.9,-68.99 -297.1,-2319.3011 h -1618.9 l -129.5,1010.9111 -84.2,657.21 -115.2,898.59 H 16300" /></g><g
         transform="scale(1.14063)"
         id="g106"><path
           id="path108"
           style="fill:#df1c3e;fill-opacity:1;fill-rule:nonzero;stroke:none"
           d="m 16300,2439.26 -8.9,-69.08 -297.5,-2322.5741 h -516.4 V 2515.89 c 355,59.44 622.5,22.35 822.8,-76.63" /></g><g
         transform="scale(1.15607)"
         id="g110"><path
           id="path112"
           style="fill:#ee284b;fill-opacity:1;fill-rule:nonzero;stroke:none"
           d="m 16300,2832.71 v -249.73 h -2639.5 v 249.73 H 16300" /></g><g
         transform="scale(1.14224)"
         id="g114"><path
           id="path116"
           style="fill:#2e2d3f;fill-opacity:1;fill-rule:nonzero;stroke:none"
           d="m 16300,2614.25 -31.8,-247.41 -2244.9,247.41 H 16300" /></g><g
         transform="scale(1.15607)"
         id="g118"><path
           id="path120"
           style="fill:#df1c3e;fill-opacity:1;fill-rule:nonzero;stroke:none"
           d="m 16300,2832.71 v -249.73 h -1254.6 l -299.6,249.73 H 16300" /></g><g
         transform="scale(1.05009)"
         id="g122"><path
           id="path124"
           style="fill:#f8b633;fill-opacity:1;fill-rule:nonzero;stroke:none"
           d="m 16300,1555.11 c 0,-283.4 -229.8,-513 -513.2,-513 -119.2,0 -228.8,40.57 -316,109.22 l -91.6,714.9 c 93.5,122.65 241.3,201.79 407.6,201.79 283.4,0 513.2,-229.6 513.2,-512.91" /></g><path
         id="path126"
         style="fill:#f04a25;fill-opacity:1;fill-rule:nonzero;stroke:none"
         d="m 11506.3,34.4023 579.3,426.9997 595.4,243 578.5,-641.7028 -1753.2,-28.2969" /><g
         transform="scale(1.15282)"
         id="g128"><path
           id="path130"
           style="fill:#f8d49f;fill-opacity:1;fill-rule:nonzero;stroke:none"
           d="M 16259.4,0 H 40.6001 C 18.1789,0 0,18.2162 0,40.5967 v 0 C 0,63.062 18.1789,81.1934 40.6001,81.1934 H 16259.4 c 22.5,0 40.6,-18.1314 40.6,-40.5967 v 0 C 16300,18.2162 16281.9,0 16259.4,0" /></g><path
         id="path132"
         style="fill:#f8d49f;fill-opacity:1;fill-rule:nonzero;stroke:none"
         d="m 13641.3,3379.4 c -242.8,0 -440.4,-197.5 -440.4,-440.4 0,-242.6 197.6,-440.1 440.4,-440.1 242.8,0 440.4,197.5 440.4,440.1 0,242.9 -197.6,440.4 -440.4,440.4" /><path
         id="path134"
         style="fill:#1e1f2f;fill-opacity:1;fill-rule:nonzero;stroke:none"
         d="m 13906.3,2939.1 c 0,-145.4 -117.9,-263.2 -263.3,-263.2 -145.3,0 -263.2,117.8 -263.2,263.2 0,145.4 117.9,263.2 263.2,263.2 145.4,0 263.3,-117.8 263.3,-263.2" /><g
         transform="scale(1.01128)"
         id="g136"><path
           id="path138"
           style="fill:#1e1f2f;fill-opacity:1;fill-rule:nonzero;stroke:none"
           d="m 13490.9,417.198 c -1372.4,0 -2489.2,1116.702 -2489.2,2489.032 0,1372.62 1116.8,2489.35 2489.2,2489.35 1372.6,0 2489.3,-1116.73 2489.3,-2489.35 0,-1372.33 -1116.7,-2489.032 -2489.3,-2489.032 z m 0,5298.222 c -1548.8,0 -2808.9,-1260.19 -2808.9,-2809.19 0,-1548.74 1260.1,-2808.9287 2808.9,-2808.9287 1548.9,0 2809.1,1260.1887 2809.1,2808.9287 0,1549 -1260.2,2809.19 -2809.1,2809.19" /></g><path
         id="path140"
         style="fill:#1e1f2f;fill-opacity:1;fill-rule:nonzero;stroke:none"
         d="M 5086.91,421.902 C 3699.06,421.902 2569.75,1551.2 2569.75,2939 c 0,1388.1 1129.31,2517.42 2517.16,2517.42 1388.07,0 2517.38,-1129.32 2517.38,-2517.42 0,-1387.8 -1129.31,-2517.098 -2517.38,-2517.098 z m 0,5357.968 C 3520.71,5779.87 2246.3,4505.47 2246.3,2939 2246.3,1372.8 3520.71,98.3984 5086.91,98.3984 6653.34,98.3984 7927.74,1372.8 7927.74,2939 c 0,1566.47 -1274.4,2840.87 -2840.83,2840.87" /><path
         id="path142"
         style="fill:#f8d49f;fill-opacity:1;fill-rule:nonzero;stroke:none"
         d="m 13643,421.902 c -1387.9,0 -2517.2,1129.298 -2517.2,2517.098 0,1388.1 1129.3,2517.42 2517.2,2517.42 1388.1,0 2517.4,-1129.32 2517.4,-2517.42 0,-1387.8 -1129.3,-2517.098 -2517.4,-2517.098 z m 0,5160.428 c -1457.4,0 -2643.1,-1185.68 -2643.1,-2643.33 0,-1457.4 1185.7,-2643 2643.1,-2643 1457.6,0 2643.3,1185.6 2643.3,2643 0,1457.65 -1185.7,2643.33 -2643.3,2643.33" /><path
         id="path144"
         style="fill:#f8d49f;fill-opacity:1;fill-rule:nonzero;stroke:none"
         d="m 3330.76,4231.7 c 350.36,474.75 888.07,803.13 1503.12,874.51 27.39,3.17 48.23,25.95 48.23,53.52 v 1.29 c 0,32.51 -28.5,57.32 -60.8,53.57 -646.34,-74.95 -1211.54,-419.98 -1579.42,-918.99 -19.28,-26.2 -10.34,-63.3 18.1,-79 0.47,-0.2 0.94,-0.5 1.41,-0.7 23.72,-13.1 53.27,-6 69.36,15.8" /><path
         id="path146"
         style="fill:#f8d49f;fill-opacity:1;fill-rule:nonzero;stroke:none"
         d="m 3212.94,1739 c 19.11,17.7 23.03,46 9.51,68.2 -201.23,330.2 -317.29,717.7 -317.29,1131.8 0,334.1 75.57,650.8 210.35,934.1 12.37,26 2.72,56.9 -22.43,70.9 -0.39,0.3 -0.77,0.5 -1.16,0.7 -26.88,15 -61.22,4.3 -74.46,-23.5 -141.92,-297.8 -221.43,-630.8 -221.43,-982.2 0,-435 121.98,-842 333.41,-1188.8 17.72,-29.1 57.59,-35.1 82.61,-12 0.3,0.3 0.59,0.6 0.89,0.8" /><path
         id="path148"
         style="fill:#f8d49f;fill-opacity:1;fill-rule:nonzero;stroke:none"
         d="m 7268.75,2939 c 0,-493.2 -164.72,-948.6 -441.86,-1314.5 -17.08,-22.5 -14.6,-54.4 6.61,-73.1 0.3,-0.3 0.59,-0.5 0.89,-0.8 23.48,-20.7 59.8,-17.8 78.71,7.1 291.49,384.3 464.78,862.9 464.78,1381.3 0,1203.5 -932.5,2193.04 -2112.94,2284.2 -31.6,2.44 -58.74,-22.1 -58.74,-53.78 v -1.37 c 0,-28.38 22.03,-51.53 50.33,-53.72 C 6380.62,5027.46 7268.75,4085 7268.75,2939" /><path
         id="path150"
         style="fill:#f8d49f;fill-opacity:1;fill-rule:nonzero;stroke:none"
         d="m 6540.86,1314 c -100.97,-90.4 -210.34,-171.7 -326.86,-242.3 -25.15,-15.3 -33.95,-47.4 -19.56,-73.001 0.19,-0.301 0.39,-0.699 0.58,-1 14.78,-26.398 48.62,-35.699 74.46,-20 122.71,74.301 237.83,159.901 344.12,255.101 24.27,21.8 24.74,59.8 0.12,81.1 -0.29,0.3 -0.59,0.5 -0.89,0.8 -20.79,18 -51.45,17.7 -71.97,-0.7" /><path
         id="path152"
         style="fill:#f8d49f;fill-opacity:1;fill-rule:nonzero;stroke:none"
         d="m 5899.92,865.801 c -13.12,22.898 -40.9,32.597 -65.71,23.5 C 5600.97,804 5349.26,757.398 5086.85,757.398 c -638.21,0 -1213.34,275.502 -1612.67,713.802 -20.63,22.7 -55.37,24 -77.73,3.1 -0.26,-0.3 -0.53,-0.5 -0.79,-0.8 -21.17,-19.8 -22.43,-53.4 -2.89,-74.9 419.32,-460.698 1023.5,-750.401 1694.08,-750.401 275.6,0 539.96,49 784.9,138.602 31.69,11.597 45.58,48.5 28.84,77.801 -0.23,0.398 -0.45,0.8 -0.67,1.199" /><path
         id="path154"
         style="fill:#f8d49f;fill-opacity:1;fill-rule:nonzero;stroke:none"
         d="m 11931.9,4231.7 c 350.3,474.75 888,803.13 1503.1,874.51 27.4,3.17 48.2,25.95 48.2,53.52 v 1.29 c 0,32.51 -28.5,57.32 -60.8,53.57 -646.3,-74.95 -1211.5,-419.98 -1579.4,-918.99 -19.3,-26.2 -10.3,-63.3 18.1,-79 0.5,-0.2 0.9,-0.5 1.4,-0.7 23.7,-13.1 53.3,-6 69.4,15.8" /><path
         id="path156"
         style="fill:#f8d49f;fill-opacity:1;fill-rule:nonzero;stroke:none"
         d="m 11814,1739 c 19.2,17.7 23.1,46 9.6,68.2 -201.3,330.2 -317.3,717.7 -317.3,1131.8 0,334.1 75.5,650.8 210.3,934.1 12.4,26 2.7,56.9 -22.4,70.9 -0.4,0.3 -0.8,0.5 -1.2,0.7 -26.9,15 -61.2,4.3 -74.4,-23.5 -142,-297.8 -221.5,-630.8 -221.5,-982.2 0,-435 122,-842 333.4,-1188.8 17.8,-29.1 57.6,-35.1 82.7,-12 0.3,0.3 0.5,0.6 0.8,0.8" /><path
         id="path158"
         style="fill:#f8d49f;fill-opacity:1;fill-rule:nonzero;stroke:none"
         d="m 15869.9,2939 c 0,-493.2 -164.8,-948.6 -441.9,-1314.5 -17.1,-22.5 -14.6,-54.4 6.6,-73.1 0.3,-0.3 0.6,-0.5 0.9,-0.8 23.5,-20.7 59.8,-17.8 78.7,7.1 291.5,384.3 464.8,862.9 464.8,1381.3 0,1203.5 -932.5,2193.04 -2113,2284.2 -31.6,2.44 -58.7,-22.1 -58.7,-53.78 v -1.37 c 0,-28.38 22,-51.53 50.3,-53.72 C 14981.7,5027.46 15869.9,4085 15869.9,2939" /><path
         id="path160"
         style="fill:#f8d49f;fill-opacity:1;fill-rule:nonzero;stroke:none"
         d="m 15142,1314 c -101,-90.4 -210.4,-171.7 -326.9,-242.3 -25.1,-15.3 -33.9,-47.4 -19.6,-73.001 0.2,-0.301 0.4,-0.699 0.6,-1 14.8,-26.398 48.6,-35.699 74.5,-20 122.7,74.301 237.8,159.901 344.1,255.101 24.3,21.8 24.7,59.8 0.1,81.1 -0.3,0.3 -0.6,0.5 -0.9,0.8 -20.8,18 -51.4,17.7 -71.9,-0.7" /><path
         id="path162"
         style="fill:#f8d49f;fill-opacity:1;fill-rule:nonzero;stroke:none"
         d="m 14501,865.801 c -13.1,22.898 -40.9,32.597 -65.7,23.5 C 14202.1,804 13950.4,757.398 13688,757.398 c -638.3,0 -1213.4,275.502 -1612.7,713.802 -20.6,22.7 -55.4,24 -77.7,3.1 -0.3,-0.3 -0.6,-0.5 -0.8,-0.8 -21.2,-19.8 -22.5,-53.4 -2.9,-74.9 419.3,-460.698 1023.5,-750.401 1694.1,-750.401 275.6,0 539.9,49 784.9,138.602 31.6,11.597 45.5,48.5 28.8,77.801 -0.2,0.398 -0.5,0.8 -0.7,1.199" /><path
         id="path164"
         style="fill:#f8d49f;fill-opacity:1;fill-rule:nonzero;stroke:none"
         d="m 13128.4,4675.75 c 470.3,151.26 996.4,111.42 1449.4,-140.95 20.2,-11.23 45.5,-5.95 59,12.79 l 0.6,0.87 c 15.9,22.1 8.7,52.91 -15.1,66.16 -476,265.24 -1029,307.22 -1523.1,148.01 -25.9,-8.34 -38,-37.94 -26.3,-62.53 0.2,-0.41 0.3,-0.81 0.5,-1.22 9.8,-20.5 33.4,-30.08 55,-23.13" /><path
         id="path166"
         style="fill:#f8d49f;fill-opacity:1;fill-rule:nonzero;stroke:none"
         d="m 11828.9,3039.1 c 21.6,2.6 38.1,20 39.8,41.7 24.7,322.9 135.4,643 338,924.5 163.4,227.1 369.7,405.35 599.9,531.97 21.1,11.62 29.7,37.36 19.5,59.21 -0.2,0.33 -0.3,0.67 -0.5,1.01 -10.9,23.35 -39.5,32.89 -62.1,20.48 -242.1,-133 -459.1,-320.47 -631,-559.27 -212.8,-295.7 -329,-632 -354.9,-971.2 -2.2,-28.4 22,-52 50.3,-48.5 0.3,0 0.6,0.1 1,0.1" /><path
         id="path168"
         style="fill:#f8d49f;fill-opacity:1;fill-rule:nonzero;stroke:none"
         d="m 15172.6,1870.7 c -241.3,-335.2 -576,-564.2 -943.4,-677.3 -22.6,-7 -36.5,-29.9 -31.3,-53 0.1,-0.3 0.2,-0.6 0.3,-0.9 5.8,-25.6 31.9,-41.4 56.9,-33.7 386.2,118.6 738.1,359.1 991.7,711.5 588.7,818 439,1946.7 -318.8,2586.16 -20.3,17.11 -50.7,13.71 -66.2,-7.82 l -0.7,-0.93 c -13.9,-19.29 -10.2,-45.81 7.9,-61.11 721.6,-609 864.2,-1684 303.6,-2462.9" /><path
         id="path170"
         style="fill:#f8d49f;fill-opacity:1;fill-rule:nonzero;stroke:none"
         d="m 13882.9,1122.3 c -112.8,-12.1 -226.9,-13.9 -340.7,-4.9 -24.5,2 -46.2,-15.5 -49,-40 0,-0.3 -0.1,-0.7 -0.1,-1 -2.8,-25.1 15.6,-48 40.8,-50 119.8,-9.5 239.9,-7.7 358.7,5.1 27.2,2.9 46.1,28.5 39.8,55 -0.1,0.4 -0.2,0.7 -0.2,1 -5.3,22.5 -26.3,37.2 -49.3,34.8" /><path
         id="path172"
         style="fill:#f8d49f;fill-opacity:1;fill-rule:nonzero;stroke:none"
         d="m 13228,1131.1 c 2.3,22.1 -11.8,42.2 -33.1,48.2 -200.3,56.1 -394.2,147.5 -572.6,275.9 -433.8,312.2 -689.9,780.8 -746.9,1274.1 -2.9,25.5 -25.9,43.4 -51.3,40.1 -0.3,0 -0.6,-0.1 -0.9,-0.1 -24.1,-3.2 -41.4,-25.4 -38.6,-49.5 59.6,-518.3 328.6,-1010.8 784.3,-1338.8 187.4,-134.8 391,-230.9 601.3,-289.8 27.2,-7.6 54.7,10.7 57.7,38.8 0,0.4 0.1,0.8 0.1,1.1" /><path
         id="path174"
         style="fill:#f8d49f;fill-opacity:1;fill-rule:nonzero;stroke:none"
         d="m 4522.7,4675.75 c 470.36,151.26 996.48,111.42 1449.44,-140.95 20.17,-11.23 45.48,-5.95 58.97,12.79 l 0.63,0.87 c 15.9,22.1 8.67,52.91 -15.12,66.16 -475.98,265.24 -1028.92,307.22 -1523.09,148.01 -25.89,-8.34 -37.97,-37.94 -26.32,-62.53 0.19,-0.41 0.38,-0.81 0.57,-1.22 9.73,-20.5 33.32,-30.08 54.92,-23.13" /><path
         id="path176"
         style="fill:#f8d49f;fill-opacity:1;fill-rule:nonzero;stroke:none"
         d="m 3223.22,3039.1 c 21.61,2.6 38.14,20 39.8,41.7 24.77,322.9 135.45,643 338.04,924.5 163.41,227.1 369.69,405.35 599.89,531.97 21.13,11.62 29.69,37.36 19.47,59.21 -0.16,0.33 -0.32,0.67 -0.48,1.01 -10.92,23.35 -39.48,32.89 -62.08,20.48 -242.14,-133 -459.12,-320.47 -630.98,-559.27 -212.81,-295.7 -329.02,-632 -354.96,-971.2 -2.17,-28.4 22,-52 50.29,-48.5 0.34,0 0.67,0.1 1.01,0.1" /><path
         id="path178"
         style="fill:#f8d49f;fill-opacity:1;fill-rule:nonzero;stroke:none"
         d="m 6566.95,1870.7 c -241.28,-335.2 -576.03,-564.2 -943.36,-677.3 -22.64,-7 -36.56,-29.9 -31.3,-53 0.08,-0.3 0.15,-0.6 0.22,-0.9 5.84,-25.6 31.92,-41.4 56.97,-33.7 386.12,118.6 738.04,359.1 991.65,711.5 588.71,818 438.97,1946.7 -318.77,2586.16 -20.28,17.11 -50.74,13.71 -66.24,-7.82 l -0.66,-0.93 c -13.89,-19.29 -10.24,-45.81 7.93,-61.11 721.53,-609 864.17,-1684 303.56,-2462.9" /><path
         id="path180"
         style="fill:#f8d49f;fill-opacity:1;fill-rule:nonzero;stroke:none"
         d="m 5277.28,1122.3 c -112.88,-12.1 -226.98,-13.9 -340.73,-4.9 -24.55,2 -46.23,-15.5 -48.99,-40 -0.04,-0.3 -0.08,-0.7 -0.12,-1 -2.84,-25.1 15.63,-48 40.85,-50 119.74,-9.5 239.85,-7.7 358.69,5.1 27.13,2.9 46.04,28.5 39.76,55 -0.07,0.4 -0.15,0.7 -0.22,1 -5.31,22.5 -26.3,37.2 -49.24,34.8" /><path
         id="path182"
         style="fill:#f8d49f;fill-opacity:1;fill-rule:nonzero;stroke:none"
         d="m 4622.36,1131.1 c 2.3,22.1 -11.86,42.2 -33.16,48.2 -200.27,56.1 -394.17,147.5 -572.52,275.9 -433.79,312.2 -689.92,780.8 -746.91,1274.1 -2.94,25.5 -25.89,43.4 -51.33,40.1 -0.3,0 -0.6,-0.1 -0.91,-0.1 -24.1,-3.2 -41.39,-25.4 -38.61,-49.5 59.62,-518.3 328.58,-1010.8 784.37,-1338.8 187.32,-134.8 390.95,-230.9 601.26,-289.8 27.21,-7.6 54.74,10.7 57.69,38.8 0.04,0.4 0.08,0.8 0.12,1.1" /><path
         id="path184"
         style="fill:#f8d49f;fill-opacity:1;fill-rule:nonzero;stroke:none"
         d="m 5086.91,3379.4 c -242.83,0 -440.36,-197.5 -440.36,-440.4 0,-242.6 197.53,-440.1 440.36,-440.1 242.81,0 440.36,197.5 440.36,440.1 0,242.9 -197.55,440.4 -440.36,440.4" /><path
         id="path186"
         style="fill:#f8d49f;fill-opacity:1;fill-rule:nonzero;stroke:none"
         d="M 5086.91,421.902 C 3699.06,421.902 2569.75,1551.2 2569.75,2939 c 0,1388.1 1129.31,2517.42 2517.16,2517.42 1388.07,0 2517.38,-1129.32 2517.38,-2517.42 0,-1387.8 -1129.31,-2517.098 -2517.38,-2517.098 z m 0,5160.428 c -1457.39,0 -2643.07,-1185.68 -2643.07,-2643.33 0,-1457.4 1185.68,-2643 2643.07,-2643 1457.61,0 2643.3,1185.6 2643.3,2643 0,1457.65 -1185.69,2643.33 -2643.3,2643.33" /><path
         id="path188"
         style="fill:#1e1f2f;fill-opacity:1;fill-rule:nonzero;stroke:none"
         d="M 8526.44,2699.4 5239.81,3017.5 7565.52,5857.55 Z M 11728.2,5969.6 8711.53,2805.3 7748.74,5969.6 Z m 554.5,-209.47 -328.9,768.57 -34.3,77.52 304.3,122.63 c 289.7,116.71 433.3,448.51 320.1,739.61 v 0 c -15.5,39.96 -54,66.29 -96.9,66.29 h -612.3 v -207.94 h 534.2 c 30.6,-167.09 -59.9,-339.45 -222.8,-405.1 l -310.9,-125.28 -17.6,39.86 c -23.3,52.5 -84.7,76.2 -137.2,52.95 v 0 c -52.5,-23.25 -76.2,-84.66 -53,-137.16 l 135.8,-306.39 114.7,-268.15 H 7685.47 l -129.97,427.17 -198.91,-60.51 136.12,-447.39 -2510.48,-3065.71 76.07,-62.3 -13.69,-141.4 3639.52,-352.2 3297.77,3459.18 112.8,-263.46 1425.4,-2724.52 184.2,96.4 -1421.6,2717.33" /><path
         id="path190"
         style="fill:#f57a5d;fill-opacity:1;fill-rule:nonzero;stroke:none"
         d="m 11890,7665.13 c 0,0 202.6,-17.06 312.8,-59.94 18.4,-7.15 35.5,-17.87 51.2,-30.77 112.7,-92.35 114.7,-268.63 4.8,-364.15 -42.4,-36.8 -97.2,-64.53 -166.2,-64.53 0,0 30.6,-49 -113.4,-79.63 -143.9,-30.63 -278.7,208.28 -278.7,208.28 l -79.6,52.07 269.1,338.67" /><path
         id="path192"
         style="fill:#1e1f2f;fill-opacity:1;fill-rule:nonzero;stroke:none"
         d="m 7077.88,6637.86 15.81,-22.3 c 95.63,-134.81 240.14,-226.94 402.72,-256.72 l 100.68,-18.45 c 0,0 10.82,240.68 251.49,508.39 240.68,267.72 -770.7,-210.92 -770.7,-210.92" /><path
         id="path194"
         style="fill:#eb493a;fill-opacity:1;fill-rule:nonzero;stroke:none"
         d="m 11023.3,1318.6 683.3,104.3 -64.8,423.2 -289.4,-39.2 -371.9,-50.2 42.8,-438.1" /><path
         id="path196"
         style="fill:#e32142;fill-opacity:1;fill-rule:nonzero;stroke:none"
         d="m 11410.3,1427.6 c 0,0 3.9,-1.1 11,-2.8 l 285.3,-1.9 -64.8,423.2 -289.4,-39.2 c 2.1,-9 4.6,-18.4 7.4,-27.9 l 50.5,-351.4" /><path
         id="path198"
         style="fill:#2e2d3f;fill-opacity:1;fill-rule:nonzero;stroke:none"
         d="m 13645.6,100.699 h -2825.9 c 0,0 -13.6,102.102 -15,251.403 -0.2,27.199 -0.2,56.097 0.5,86.097 4.8,208.203 36,475.5 145.8,692.001 0,0 102.1,-198.7 293.2,-248.598 h 0.2 c 115.1,-29.801 262,-5.801 438.3,147.598 l -35.4,101 163.1,59.8 84.1,31 1054.7,-550.102 c 154.6,0 300.1,-50.398 418.4,-137.5 67,-49.398 125.3,-110.597 171.5,-181.296 35.3,-54.102 63.7,-113.704 83.6,-177.7 l 22.9,-73.703" /><path
         id="path200"
         style="fill:#f8d49f;fill-opacity:1;fill-rule:nonzero;stroke:none"
         d="m 13645.6,100.602 h -2825.9 c 0,0 -13.6,102.097 -15,251.398 h 2734.4 c 35.3,-54.098 63.7,-113.699 83.6,-177.699 l 22.9,-73.699" /><path
         id="path202"
         style="fill:#f8d49f;fill-opacity:1;fill-rule:nonzero;stroke:none"
         d="m 10908.5,438.199 h -103.3 c 4.8,208.102 36,475.403 145.8,691.901 0,0 102.1,-198.698 293.2,-248.6 -352.8,-49.898 -335.7,-443.301 -335.7,-443.301" /><path
         id="path204"
         style="fill:#f8d49f;fill-opacity:1;fill-rule:nonzero;stroke:none"
         d="m 12905.1,352 h -966.2 l -110,110.199 h 966 L 12905.1,352" /><path
         id="path206"
         style="fill:#f8d49f;fill-opacity:1;fill-rule:nonzero;stroke:none"
         d="m 12062.6,1182.3 -181.3,-158.6 c -9.6,-8.4 -10.5,-23 -2.1,-32.598 v 0 c 8.4,-9.602 23,-10.5 32.6,-2.102 l 181.2,158.5 c 9.6,8.4 10.6,23 2.2,32.6 v 0 c -8.4,9.6 -23,10.6 -32.6,2.2" /><path
         id="path208"
         style="fill:#f8d49f;fill-opacity:1;fill-rule:nonzero;stroke:none"
         d="m 12229.1,1093.1 -181.2,-158.6 c -9.6,-8.398 -10.6,-23 -2.2,-32.598 v 0 c 8.4,-9.601 23,-10.601 32.6,-2.203 l 181.2,158.601 c 9.6,8.4 10.6,23 2.2,32.6 v 0 c -8.4,9.6 -23,10.6 -32.6,2.2" /><path
         id="path210"
         style="fill:#f8d49f;fill-opacity:1;fill-rule:nonzero;stroke:none"
         d="m 12395.6,1003.9 -181.2,-158.599 c -9.6,-8.399 -10.6,-23 -2.2,-32.602 v 0 c 8.4,-9.597 23,-10.597 32.6,-2.199 l 181.3,158.602 c 9.6,8.398 10.5,23 2.1,32.598 v 0 c -8.4,9.6 -23,10.6 -32.6,2.2" /><path
         id="path212"
         style="fill:#f8d49f;fill-opacity:1;fill-rule:nonzero;stroke:none"
         d="m 12562.2,914.699 -181.3,-158.597 c -9.6,-8.403 -10.6,-23 -2.1,-32.602 v 0 c 8.4,-9.598 23,-10.598 32.5,-2.199 l 181.3,158.597 c 9.6,8.403 10.6,23.004 2.2,32.602 v 0 c -8.4,9.602 -23,10.602 -32.6,2.199" /><path
         id="path214"
         style="fill:#f8d49f;fill-opacity:1;fill-rule:nonzero;stroke:none"
         d="m 12728.7,825.402 -181.3,-158.601 c -9.6,-8.403 -10.5,-22.899 -2.1,-32.5 v 0 c 8.4,-9.602 23,-10.602 32.6,-2.199 l 181.2,158.597 c 9.6,8.403 10.6,23 2.2,32.602 v 0 c -8.4,9.601 -23,10.5 -32.6,2.101" /><path
         id="path216"
         style="fill:#519ea2;fill-opacity:1;fill-rule:nonzero;stroke:none"
         d="m 11647.3,1130.2 35.4,-101 c -176.3,-153.399 -323.2,-177.399 -438.3,-147.598 h -0.2 C 11053.1,931.5 10951,1130.2 10951,1130.2 l -11.8,178.4 -1.6,23.1 -3,45.9 -1.6,23.1 -3.5,53.2 h 824.1 l 11.6,-53.2 4.8,-23.1 9.9,-45.9 4.9,-23.1 25.6,-118.6 -163.1,-59.8" /><path
         id="path218"
         style="fill:#ffffff;fill-opacity:1;fill-rule:nonzero;stroke:none"
         d="m 11770,1377.6 h -835.4 l -1.6,23.1 h 832.2 l 4.8,-23.1" /><path
         id="path220"
         style="fill:#ffffff;fill-opacity:1;fill-rule:nonzero;stroke:none"
         d="m 11784.8,1308.6 h -845.6 l -1.6,23.1 h 842.3 l 4.9,-23.1" /><path
         id="path222"
         style="fill:#e32142;fill-opacity:1;fill-rule:nonzero;stroke:none"
         d="m 8190.27,1386.7 c 0,0 3.88,-1.1 11.04,-2.8 l 285.28,-1.5 -65.39,423.1 -289.35,-39.5 c 2.17,-9 4.68,-18.4 7.48,-27.9 l 50.94,-351.4" /><path
         id="path224"
         style="fill:#2e2d3f;fill-opacity:1;fill-rule:nonzero;stroke:none"
         d="M 10427.2,62.6992 7601.43,59.1016 c 0,0 -13.75,102.0974 -15.33,251.3004 -0.26,27.297 -0.3,56.2 0.35,86.2 4.58,208.199 35.43,475.5 144.9,692.098 0,0 102.37,-198.501 293.5,-248.2 h 0.24 c 115.09,-29.602 262,-5.398 438.08,148.199 l -35.47,100.901 163.03,60.1 84.05,31 1055.4,-548.7 c 154.56,0.199 300.22,-50 418.62,-137 67,-49.301 125.3,-110.5 171.6,-181.098 35.4,-54.004 63.9,-113.601 83.9,-177.601 l 22.9,-73.6018" /><path
         id="path226"
         style="fill:#f8d49f;fill-opacity:1;fill-rule:nonzero;stroke:none"
         d="M 10427.2,62.6016 7601.43,59 c 0,0 -13.75,102.102 -15.33,251.402 l 2734.3,3.399 c 35.4,-54 63.9,-113.602 83.9,-177.5 l 22.9,-73.6994" /><path
         id="path228"
         style="fill:#f8d49f;fill-opacity:1;fill-rule:nonzero;stroke:none"
         d="M 7689.73,396.699 7586.45,396.5 c 4.58,208.199 35.43,475.602 144.9,692.2 0,0 102.37,-198.598 293.5,-248.298 -352.73,-50.3 -335.12,-443.703 -335.12,-443.703" /><path
         id="path230"
         style="fill:#f8d49f;fill-opacity:1;fill-rule:nonzero;stroke:none"
         d="m 9686.46,313 -966.21,-1.199 -110.11,110.101 965.97,1.2 L 9686.46,313" /><path
         id="path232"
         style="fill:#f8d49f;fill-opacity:1;fill-rule:nonzero;stroke:none"
         d="M 8842.89,1142.3 8661.85,983.5 c -9.59,-8.5 -10.55,-23.098 -2.13,-32.602 v -0.097 c 8.41,-9.5 23.01,-10.5 32.6,-2.102 l 181.04,158.801 c 9.59,8.4 10.54,23 2.13,32.6 h -0.01 c -8.41,9.6 -23,10.6 -32.59,2.2" /><path
         id="path234"
         style="fill:#f8d49f;fill-opacity:1;fill-rule:nonzero;stroke:none"
         d="M 9009.53,1053.3 8828.49,894.402 c -9.59,-8.402 -10.54,-23 -2.13,-32.601 v 0 c 8.41,-9.5 23,-10.5 32.59,-2.102 L 9040,1018.5 c 9.58,8.4 10.54,23 2.13,32.6 v 0 c -8.41,9.6 -23.01,10.6 -32.6,2.2" /><path
         id="path236"
         style="fill:#f8d49f;fill-opacity:1;fill-rule:nonzero;stroke:none"
         d="M 9176.17,964.301 8995.13,805.402 C 8985.54,797 8984.58,782.398 8993,772.801 v 0 c 8.41,-9.602 23.01,-10.5 32.6,-2.102 L 9206.64,929.5 c 9.59,8.402 10.54,23 2.13,32.602 h -0.01 c -8.41,9.597 -23,10.597 -32.59,2.199" /><path
         id="path238"
         style="fill:#f8d49f;fill-opacity:1;fill-rule:nonzero;stroke:none"
         d="M 9342.8,875.199 9161.77,716.402 c -9.6,-8.402 -10.55,-23.004 -2.13,-32.601 h 0.01 c 8.41,-9.602 23,-10.5 32.59,-2.102 L 9373.27,840.5 c 9.59,8.402 10.55,23 2.13,32.602 v 0 c -8.41,9.597 -23.01,10.597 -32.6,2.097" /><path
         id="path240"
         style="fill:#f8d49f;fill-opacity:1;fill-rule:nonzero;stroke:none"
         d="M 9509.45,786.199 9328.4,627.398 c -9.58,-8.398 -10.54,-22.996 -2.13,-32.597 v 0 c 8.41,-9.602 23.01,-10.5 32.6,-2.102 L 9539.91,751.5 c 9.59,8.398 10.54,23 2.13,32.602 v 0 c -8.41,9.597 -23,10.5 -32.59,2.097" /><path
         id="path242"
         style="fill:#519ea2;fill-opacity:1;fill-rule:nonzero;stroke:none"
         d="m 8427.7,1089.6 35.47,-100.901 C 8287.09,835.102 8140.18,810.898 8025.09,840.5 h -0.24 c -191.13,49.699 -293.5,248.2 -293.5,248.2 l -12.01,178.4 -1.65,23.1 -3.06,46 -1.64,23.1 -3.55,53.1 824.12,1 11.62,-53.1 4.88,-23.1 9.99,-45.9 4.88,-23.1 25.8,-118.5 -163.03,-60.1" /><path
         id="path244"
         style="fill:#ffffff;fill-opacity:1;fill-rule:nonzero;stroke:none"
         d="m 8550.06,1337.2 -835.43,-1 -1.64,23.1 832.19,1 4.88,-23.1" /><path
         id="path246"
         style="fill:#ffffff;fill-opacity:1;fill-rule:nonzero;stroke:none"
         d="m 8564.93,1268.2 -845.59,-1.1 -1.65,23.1 842.36,1.1 4.88,-23.1" /><path
         id="path248"
         style="fill:#f57a5d;fill-opacity:1;fill-rule:nonzero;stroke:none"
         d="m 11186.1,12497.5 c -41.6,-76.9 -67.7,-160.6 -84.1,-234.9 -1.4,-6.1 -2.6,-12.1 -3.7,-18.1 -24.5,-118.3 -24.5,-209.5 -24.5,-209.5 0,0 119,-320.7 -82.7,-327.2 -29.6,-0.9 -60.8,5.6 -92.5,17.6 -182.9,69.5 -380,319.5 -380,319.5 -281.9,-89.2 -407.6,79.5 -457,315.6 -0.5,2.3 -0.9,4.6 -1.4,6.9 -72.07,358.6 28.7,867.1 28.7,867.1 29.1,-18.9 59.1,-36.2 89.8,-51.7 263.2,-133.3 567.9,-146.7 567.9,-146.7 v 112.5 c 231.3,-6.7 350.3,-373.4 350.3,-373.4 0,0 330.4,247.7 356.7,62.6 26.6,-185 -267.5,-340.3 -267.5,-340.3" /><path
         id="path250"
         style="fill:#2e2d3f;fill-opacity:1;fill-rule:nonzero;stroke:none"
         d="m 11186.1,12497.5 c 0,0 294.1,155.3 267.5,340.3 -26.3,185.1 -356.7,-62.6 -356.7,-62.6 0,0 -119,366.7 -350.3,373.4 v -112.5 c 0,0 -380,16.6 -657.7,198.4 l -140.28,-47.1 c 0,0 -9,169.3 34.43,336.4 42.05,162.9 133.95,323.7 332.25,323.7 0,0 300.6,401.7 750.2,265 19.4,134.4 134.7,237.7 274.4,237.7 65.9,0 126.2,-22.9 173.8,-61.2 63.3,-50.6 103.9,-128.7 103.9,-216.3 0,-101.6 -54.7,-190.1 -135.8,-238.4 432.7,-516.1 105.6,-1425.5 -295.7,-1336.8" /><path
         id="path252"
         style="fill:#519ea2;fill-opacity:1;fill-rule:nonzero;stroke:none"
         d="m 11789.1,11296.6 -142.8,-1889.68 c -12.5,-264.3 -20.1,-519.14 -20.1,-742.78 0,-505.97 -29.4,-883.49 -61,-1144.1 -9.5,-78.09 -19.2,-145.78 -28.2,-203.08 -2.8,-16.4 -5.3,-31.88 -7.8,-46.67 -23.6,-137.01 -42.3,-202.62 -42.3,-202.62 h -448.7 c -63.3,166.81 -174.9,305.2 -315.1,402.01 -140.3,96.57 -309.2,151.79 -487.5,151.79 H 8785.82 c -61,0 -113.44,11.78 -158.73,31.19 -189.21,79.93 -249.75,287.64 -249.75,287.64 l 340.32,358.8 209.08,2135 99.12,1013.1 c 18.25,188.3 123.61,357.2 284.41,456.5 l 749.93,463.7 c 0.5,-2.3 0.9,-4.6 1.4,-6.9 12.5,-59.4 29.6,-114.6 53.1,-162.4 38.4,-78.8 93.6,-137.9 171,-163.6 62.4,-20.3 138.9,-19.4 232.9,10.4 0,0 271,-343.8 472.5,-337.1 201.7,6.5 82.7,327.2 82.7,327.2 0,0 0,91.2 24.5,209.5 128.4,-51.3 147.4,-201.4 147.4,-201.4 l 290.6,-207 c 173.1,-123.2 268.9,-327.9 252.8,-539.5" /><path
         id="path254"
         style="fill:#f8d49f;fill-opacity:1;fill-rule:nonzero;stroke:none"
         d="m 11080,11490 c -283,-8.1 -653.8,316.5 -794.3,544.5 62.4,-20.3 138.9,-19.4 232.9,10.4 0,0 271,-343.8 472.5,-337.1 201.7,6.5 82.7,327.2 82.7,327.2 0,0 0,91.2 24.5,209.5 128.4,-51.3 147.4,-201.4 147.4,-201.4 0,0 130.3,-544.6 -165.7,-553.1" /><path
         id="path256"
         style="fill:#f8d49f;fill-opacity:1;fill-rule:nonzero;stroke:none"
         d="m 11486.9,7067.67 -163.4,-823.19 c -116,0 -204.7,0 -292.9,21.72 -188.5,46.67 -374.3,192.69 -814.2,651.3 -420.25,438.04 -794.54,441.51 -1043.59,276.78 -133.77,-88.26 -231.5,-225.03 -280.72,-368.97 -74.85,-219.25 -172.82,-309.82 -248.13,-346.33 -66.54,-32.34 -115.29,-22.87 -115.29,-22.87 l 98.42,1196.55 c 45.29,-19.41 97.73,-31.19 158.73,-31.19 h 1449.78 c 178.3,0 347.2,-55.22 487.5,-151.79 140.2,-96.81 251.8,-235.2 315.1,-402.01 h 448.7" /><path
         id="path258"
         style="fill:#f8d49f;fill-opacity:1;fill-rule:nonzero;stroke:none"
         d="m 11890,7665.13 -215.5,-309.82 -3.7,-5.54 -54.1,-77.4 -427.4,238.66 c 0,0 -1151.3,1035.97 -1651.92,2102.44 -500.66,1066.73 -436.2,1425.53 -436.2,1425.53 0,470.1 216.71,851.4 483.79,851.4 26.57,0.6 52.68,-2.6 77.87,-9.3 62.61,-16.4 121.29,-54.3 176.28,-108.8 356.48,-351.9 560.68,-1395.2 737.88,-1781.32 215.6,-469.92 951.2,-1994.77 951.2,-1994.77 l 361.8,-331.08" /><path
         id="path260"
         style="fill:#1e1f2f;fill-opacity:1;fill-rule:nonzero;stroke:none"
         d="m 5350.21,2939.1 c 0,-145.4 -117.86,-263.2 -263.23,-263.2 -145.38,0 -263.23,117.8 -263.23,263.2 0,145.4 117.85,263.2 263.23,263.2 145.37,0 263.23,-117.8 263.23,-263.2" /><path
         id="path262"
         style="fill:#df1c3e;fill-opacity:1;fill-rule:nonzero;stroke:none"
         d="m 6455.28,7207.58 h 1752.28 c 179.21,0 327.55,-142.96 329.88,-322.16 0.03,-2.2 0.04,-4.4 0.04,-6.62 l -753.6,-70.18 c 0,0 -325.08,-362.03 -882.89,-158.85 -481.61,175.42 -574.94,287.5 -551.03,467.02 6.96,52.25 52.6,90.79 105.32,90.79" /><path
         id="path264"
         style="fill:#ee284b;fill-opacity:1;fill-rule:nonzero;stroke:none"
         d="m 12233.1,1414.6 -1237.4,-302.4 -203.8,-49.9 -752.2,1897.1 -1035.32,2610.92 -360.42,908.66 c 75.31,36.51 173.28,127.08 248.13,346.33 115.05,336.16 493.73,632.81 979.61,365.97 109.96,-60.31 225.5,-149.49 344.7,-273.78 413.6,-431.35 602.5,-586.15 780.4,-641.83 11.4,-3.46 22.5,-6.69 33.8,-9.47 l 0.9,-3.23 1201.6,-4848.37" /><path
         id="path266"
         style="fill:#ee284b;fill-opacity:1;fill-rule:nonzero;stroke:none"
         d="m 10039.7,2959.4 -971.1,-1619.2 -1109.2,32.6 -230.35,167.1 1275.33,4030.42 321.14,-809.79 714.18,-1801.13" /><path
         id="path268"
         style="fill:#eb493a;fill-opacity:1;fill-rule:nonzero;stroke:none"
         d="m 10518.6,12044.9 c -281.9,-89.2 -407.6,79.5 -457,315.6 -0.5,2.3 -0.9,4.6 -1.4,6.9 -72.07,358.6 28.7,867.1 28.7,867.1 29.1,-18.9 59.1,-36.2 89.8,-51.7 -32.5,-199.9 -164.7,-1167 339.9,-1137.9" /><path
         id="path270"
         style="fill:#eb493a;fill-opacity:1;fill-rule:nonzero;stroke:none"
         d="m 10991.1,11707.8 c -29.6,-0.9 -60.8,5.6 -92.5,17.6 160.6,73.2 175.2,309.6 175.2,309.6 0,0 119,-320.7 -82.7,-327.2" /><path
         id="path272"
         style="fill:#39888e;fill-opacity:1;fill-rule:nonzero;stroke:none"
         d="m 11537,7316.96 c -2.8,-16.4 -5.3,-31.88 -7.8,-46.67 l -376.2,179.28 v -276.32 l -89.6,291.34 c 0,0 -1075.27,978.21 -1530.87,1657.7 -254.84,380.05 -467.63,914.71 -605.79,1311.81 l 99.12,1013.1 c 18.25,188.3 123.61,357.2 284.41,456.5 l 749.93,463.7 c 0.5,-2.3 0.9,-4.6 1.4,-6.9 12.5,-59.4 29.6,-114.6 53.1,-162.4 l -451.86,-317 c -25.19,6.7 -51.3,9.9 -77.87,9.3 -267.08,0 -483.79,-381.3 -483.79,-851.4 0,0 -64.46,-358.8 436.2,-1425.53 C 10038,8547 11189.3,7511.03 11189.3,7511.03 l 347.7,-194.07" /><path
         id="path274"
         style="fill:#e6ac5e;fill-opacity:1;fill-rule:nonzero;stroke:none"
         d="m 11670.8,7349.77 -54.1,-77.4 -427.4,238.66 c 0,0 -1151.3,1035.97 -1651.92,2102.44 -500.66,1066.73 -436.2,1425.53 -436.2,1425.53 0,470.1 216.71,851.4 483.79,851.4 26.57,0.6 52.68,-2.6 77.87,-9.3 62.61,-16.4 121.29,-54.3 176.28,-108.8 -160.58,98.6 -366.89,126.8 -458.15,-274 C 9220.85,10795 9712.51,9594.06 10198.6,8907.88 10684.7,8221.7 11205,7638.56 11205,7638.56 l 323.2,357.65 -214.6,-392.07 357.2,-254.37" /><path
         id="path276"
         style="fill:#e6ac5e;fill-opacity:1;fill-rule:nonzero;stroke:none"
         d="m 11486.9,7067.67 -262,-214.17 -236.8,-506.44 -93.6,611.1 c 0,0 -225.7,451.44 -1067.86,451.44 -321.38,0 -524.92,-96.11 -653.83,-215.32 -133.77,-88.26 -231.5,-225.03 -280.72,-368.97 -74.85,-219.25 -172.82,-309.82 -248.13,-346.33 -66.54,-32.34 -115.29,-22.87 -115.29,-22.87 l 98.42,1196.55 c 45.29,-19.41 97.73,-31.19 158.73,-31.19 h 1449.78 c 178.3,0 347.2,-55.22 487.5,-151.79 140.2,-96.81 251.8,-235.2 315.1,-402.01 h 448.7" /><path
         id="path278"
         style="fill:#df1c3e;fill-opacity:1;fill-rule:nonzero;stroke:none"
         d="m 9301.31,5948.32 1694.39,-4836.12 -203.8,-49.9 -752.2,1897.1 -1035.32,2610.92 -360.42,908.66 c 75.31,36.51 173.28,127.08 248.13,346.33 115.05,336.16 493.73,632.81 979.61,365.97 109.96,-60.31 225.5,-149.49 344.7,-273.78 413.6,-431.35 602.5,-586.15 780.4,-641.83 11.4,-3.46 22.5,-6.69 33.8,-9.47 l 0.9,-3.23 c -56.6,2.31 -252.3,43.66 -753.4,412.63 -210.5,154.97 -406.04,165.18 -572.56,111.02 -345.76,-112.45 -524.45,-495.17 -404.23,-838.3" /><path
         id="path280"
         style="fill:#df1c3e;fill-opacity:1;fill-rule:nonzero;stroke:none"
         d="M 9325.52,4760.53 7959.4,1372.8 l -285.28,1.7 1330.26,4195.82 321.14,-809.79" /><path
         id="path282"
         style="fill:#1e1f2f;fill-opacity:1;fill-rule:nonzero;stroke:none"
         d="m 11480.9,13835.5 c -375.7,387.4 -916.1,12.2 -916.1,12.2 346.6,-134 538.3,-545.3 544.1,-558.2 -555.6,694.5 -979.1,385.4 -1125.85,234.3 42.05,162.9 133.95,323.7 332.25,323.7 0,0 300.6,401.7 750.2,265 19.4,134.4 134.7,237.7 274.4,237.7 65.9,0 126.2,-22.9 173.8,-61.2 -234.3,-193.9 -48.1,-434.6 -32.8,-453.5" /><path
         id="path284"
         style="fill:#eb493a;fill-opacity:1;fill-rule:nonzero;stroke:none"
         d="m 11157.5,12696.5 163.5,116.7 c 0,0 57.1,0 51.9,-57 -5.2,-57.1 -153.1,-179.1 -215.4,-59.7" /><path
         id="path286"
         style="fill:#519ea2;fill-opacity:1;fill-rule:nonzero;stroke:none"
         d="m 10815.4,4897.87 -661.8,-191.65 c -57.8,-16.71 -118.1,16.54 -134.8,74.27 l -341.04,1177.59 870.84,252.18 341,-1177.59 c 16.8,-57.73 -16.5,-118.09 -74.2,-134.8" /><path
         id="path288"
         style="fill:#df1c3e;fill-opacity:1;fill-rule:nonzero;stroke:none"
         d="m 9677.76,5958.08 511.94,-210.73 358.9,462.91 -311.7,-608.12 -559.14,355.94" /><path
         id="path290"
         style="fill:#519ea2;fill-opacity:1;fill-rule:nonzero;stroke:none"
         d="m 10289.9,5798.86 c 15.7,-54.35 -15.6,-111.17 -69.9,-126.91 -54.4,-15.74 -111.2,15.56 -126.9,69.91 -15.8,54.36 15.5,111.18 69.9,126.92 54.3,15.74 111.1,-15.56 126.9,-69.92" /><path
         id="path292"
         style="fill:#df1c3e;fill-opacity:1;fill-rule:nonzero;stroke:none"
         d="m 10599.5,6211.61 249.8,-862.74 c 0,0 -13.8,502.69 -249.8,862.74" /><path
         id="path294"
         style="fill:#df1c3e;fill-opacity:1;fill-rule:nonzero;stroke:none"
         d="m 9653.15,5938.1 237.55,-820.33 c 0,0 -322.55,582.13 -237.55,820.33" /><path
         id="path296"
         style="fill:#519ea2;fill-opacity:1;fill-rule:nonzero;stroke:none"
         d="m 11561.4,2436.9 -661.8,-191.6 c -57.8,-16.7 -118.1,16.5 -134.8,74.2 l -341,1177.6 870.8,252.2 341,-1177.6 c 16.8,-57.7 -16.5,-118.1 -74.2,-134.8" /><path
         id="path298"
         style="fill:#df1c3e;fill-opacity:1;fill-rule:nonzero;stroke:none"
         d="m 10423.8,3497.1 511.9,-210.7 358.9,462.9 -311.7,-608.1 -559.1,355.9" /><path
         id="path300"
         style="fill:#519ea2;fill-opacity:1;fill-rule:nonzero;stroke:none"
         d="m 11035.9,3337.9 c 15.7,-54.3 -15.6,-111.2 -69.9,-126.9 -54.4,-15.7 -111.2,15.6 -126.9,69.9 -15.8,54.4 15.5,111.2 69.9,126.9 54.3,15.8 111.1,-15.5 126.9,-69.9" /><path
         id="path302"
         style="fill:#df1c3e;fill-opacity:1;fill-rule:nonzero;stroke:none"
         d="m 11345.5,3750.7 249.8,-862.8 c 0,0 -13.8,502.7 -249.8,862.8" /><path
         id="path304"
         style="fill:#df1c3e;fill-opacity:1;fill-rule:nonzero;stroke:none"
         d="m 10399.2,3477.2 237.5,-820.4 c 0,0 -322.5,582.2 -237.5,820.4" /></g></g></svg>