<?xml version="1.0" encoding="UTF-8" standalone="no"?>
<svg
   xmlns:dc="http://purl.org/dc/elements/1.1/"
   xmlns:cc="http://creativecommons.org/ns#"
   xmlns:rdf="http://www.w3.org/1999/02/22-rdf-syntax-ns#"
   xmlns:svg="http://www.w3.org/2000/svg"
   xmlns="http://www.w3.org/2000/svg"
   viewBox="0 0 2668 2668"
   height="2668"
   width="2668"
   xml:space="preserve"
   id="svg2"
   version="1.1"><metadata
     id="metadata8"><rdf:RDF><cc:Work
         rdf:about=""><dc:format>image/svg+xml</dc:format><dc:type
           rdf:resource="http://purl.org/dc/dcmitype/StillImage" /></cc:Work></rdf:RDF></metadata><defs
     id="defs6" /><g
     transform="matrix(1.3333333,0,0,-1.3333333,0,2668)"
     id="g10"><g
       transform="scale(0.1)"
       id="g12"><g
         transform="scale(1.2273)"
         id="g14"><path
           id="path16"
           style="fill:#ffffff;fill-opacity:1;fill-rule:nonzero;stroke:none"
           d="M 16300,4.07398 H 4.07398 V 16300 H 16300 V 4.07398" /></g>
           
      <g
         transform="scale(1.05206)"
         id="g22"><path
           id="path24"
           style="fill:#d3613525;fill-opacity:1;fill-rule:nonzero;stroke:none"
           d="m 16300,9218.38 c 0,-3765.47 -3052.5,-6818.04 -6817.97,-6818.04 -3765.45,0 -6817.96,3052.57 -6817.96,6818.04 0,3765.42 3052.51,6817.92 6817.96,6817.92 3765.47,0 6817.97,-3052.5 6817.97,-6817.92" /></g><g
         transform="scale(1.1237)"
         id="g26"><path
           id="path28"
           style="fill:#d3613525;fill-opacity:1;fill-rule:nonzero;stroke:none"
           d="M 16300,652.223 H 1507.23 v 87.299 H 16300 v -87.299" /></g><g
         transform="scale(1.0082)"
         id="g30"><path
           id="path32"
           style="fill:#4b5c77;fill-opacity:1;fill-rule:nonzero;stroke:none"
           d="M 15427.5,7221.66 V 6242.6 c 25.5,138.86 62.6,262.24 109,370.76 92.9,218.01 222.6,377.6 369.5,488.19 293.4,219.5 325.4,366.39 325.4,366.39 68.6,-700.85 4.7,-971.53 -394,-1227.72 -120.1,-77.86 -208.8,-149.68 -273.5,-213.55 -68.2,-65.86 -110.5,-122.1 -136.4,-164.06 v -978.67 c 35.5,191.93 93,354.39 166.8,489.68 85.4,158.5 192.8,279.81 311.7,368.88 293.4,219.89 325.4,366.79 325.4,366.79 68.6,-701.25 4.7,-971.53 -394,-1227.73 -86.2,-55.94 -156.1,-108.61 -212.8,-157.71 -104.5,-90.16 -164,-166.43 -197.1,-219.89 v -979.07 c 44.3,240.63 123.3,434.63 225.5,587.48 73.4,111.78 160,201.55 253,271.47 293.4,219.9 325.4,366.4 325.4,366.4 68.6,-700.95 4.7,-971.14 -394,-1227.73 -57.9,-37.2 -108.2,-73.1 -152.1,-107.82 -143.3,-111.38 -218.8,-206.31 -257.8,-269.39 v -979.07 c 52.6,286.15 154.4,506.45 284.9,669.71 59.1,74.69 124.6,137.27 193.6,189.15 293.4,220 325.4,366.49 325.4,366.49 68.6,-700.95 4.7,-971.13 -394,-1227.83 -32.7,-21.13 -63.1,-41.46 -91.1,-61.79 -183.6,-131.72 -274.5,-244.3 -318.8,-315.31 V 924.913 h -77.1 V 2098.78 c -47.4,73.8 -142.4,187.17 -331.3,319.68 -22.7,15.97 -47,32.34 -73,49.1 -398.3,256.2 -462.6,526.48 -394,1227.73 0,0 32.4,-146.9 325.4,-366.79 63.1,-47.11 122.9,-103.35 177.2,-169.61 133.7,-160.48 239.5,-378 295.7,-662.57 v 961.12 c -41.5,65.07 -120.5,160.78 -267.8,273.36 -40.3,30.75 -85.4,62.69 -136.5,95.42 -398.3,256.19 -462.6,526.87 -394,1227.73 0,0 32.4,-146.9 325.4,-366.4 87.4,-65.46 168.4,-148.88 239,-251.04 104.6,-150.47 186.9,-342.09 233.9,-581.13 v 960.72 c -35.1,55.05 -97.3,132.11 -204.7,222.67 -54.3,45.93 -119.8,95.02 -199.6,146.1 -398.3,256.7 -462.6,526.88 -394,1227.73 0,0 32.4,-146.5 325.4,-366.39 113.3,-85 216.7,-199.96 299.7,-348.45 75.9,-132.91 135.3,-293.39 173.2,-483.73 v 960.72 c -27.9,43.44 -72.2,100.58 -142,166.84 -63.9,60.7 -148.9,129.33 -262.3,201.94 -398.3,256.69 -462.6,526.87 -394,1227.73 0,0 32.4,-146.5 325.4,-366.4 142,-106.52 267.8,-259.77 359.6,-466.97 47.5,-106.52 86.2,-228.32 113.3,-365.2 v 960.72 c -18.4,28.76 -43.8,63.48 -79.8,102.95 -66.6,74.3 -168.9,166.04 -324.5,265.82 -398.3,256.7 -462.6,526.88 -394,1227.73 0,0 32.4,-146.4 325.4,-366.39 174.7,-130.93 324.9,-332.48 417.8,-618.23 21.6,-66.65 40,-137.67 55.1,-213.94 v 961.11 c -5.2,8.43 -11.1,17.16 -18,26.38 -59,83.02 -172,204.33 -386.3,342.39 -398.3,256.3 -462.6,526.49 -394,1227.77 0,0 32.4,-146.9 325.4,-366.8 215.5,-161.64 393.5,-430.29 472.9,-832.2 v 1109.2 c -26.3,68.3 -52.7,166.1 -47,277 11.1,212.4 387.5,483 504.8,405.9 117,-76.6 -201.1,-328.9 -248.6,-413.1 -32.4,-57 -95,-207.1 -132.1,-297.3 V 8959.91 c 76.6,417.08 258.2,693.71 478.5,858.95 293.4,219.94 325.4,366.44 325.4,366.44 68.6,-700.9 4.7,-971.08 -394,-1227.77 -222.7,-143.33 -336.4,-269.4 -393.6,-352.41 -5.9,-8.83 -11.6,-17.16 -16.3,-24.8 v -979.07 c 14.3,77.07 31.9,149.67 53,217.12 92.3,298.55 245.9,507.34 425.5,641.84 293.4,219.89 325.4,366.39 325.4,366.39 68.6,-700.85 4.7,-971.13 -394,-1227.73 -162.5,-104.54 -267,-199.96 -333.7,-276.23 -34.3,-39.08 -59.1,-73.4 -76.2,-100.98" /></g><path
         id="path34"
         style="fill:#2e2d3f;fill-opacity:1;fill-rule:nonzero;stroke:none"
         d="m 15875.5,2119.2 c -185.1,-132.8 -276.8,-246.3 -321.5,-317.9 V 932.5 h -77.7 V 2116 c -47.8,74.4 -143.6,188.7 -334,322.3 l 35.9,746.5 c 134.8,-161.8 241.4,-381.1 298.1,-668 v 969 c -41.8,65.6 -121.5,162.1 -270,275.6 l 34.2,711.5 c 105.5,-151.7 188.4,-344.9 235.8,-585.9 v 968.6 c -35.4,55.5 -98.1,133.2 -206.4,224.5 l 31.8,664.4 c 76.5,-134 136.4,-295.8 174.6,-487.7 v 968.6 c -28.1,43.8 -72.8,101.4 -143.2,168.2 l 29,601.2 c 47.9,-107.4 86.9,-230.2 114.2,-368.2 v 968.6 c -18.5,29 -44.2,64 -80.4,103.8 l 24.9,513.1 c 21.7,-67.2 40.3,-138.8 55.5,-215.7 v 969 c -5.2,8.5 -11.2,17.3 -18.1,26.6 l 18.1,374.2 77.7,-332.8 16.5,-357.7 c -6,-8.9 -11.7,-17.3 -16.5,-25 v -987.1 c 14.5,77.7 32.2,150.9 53.5,218.9 l 23.4,-499.8 c -34.6,-39.4 -59.6,-74 -76.9,-101.8 v -987.1 c 25.8,140 63.2,264.4 109.9,373.8 l 27.7,-591.5 c -68.8,-66.4 -111.4,-123.1 -137.6,-165.4 V 4924 c 35.8,193.5 93.8,357.3 168.2,493.7 l 30.6,-655.1 c -105.4,-90.9 -165.4,-167.8 -198.8,-221.7 v -987.1 c 44.7,242.6 124.4,438.2 227.4,592.3 l 32.6,-703.4 c -144.5,-112.3 -220.6,-208 -260,-271.6 V 2184 c 53.1,288.5 155.7,510.6 287.3,675.2 l 34.2,-740" /><g
         transform="scale(1.06037)"
         id="g36"><path
           id="path38"
           style="fill:#d3613525;fill-opacity:1;fill-rule:nonzero;stroke:none"
           d="m 16300,754.927 c 0,0 -347.8,1157.053 -1103.6,795.953 -755.8,-361.2 -1511.5,1264.09 -2307.4,267.45 C 12093.1,821.792 11210.3,574.329 9905.99,888.75 8601.81,1203.07 8903.75,953.914 7773.43,1034.17 6643.13,1114.43 2736.24,741.536 2736.24,741.536 l 13550.26,13.391 h 13.5" /></g><path
         id="path40"
         style="fill:#f57a5d;fill-opacity:1;fill-rule:nonzero;stroke:none"
         d="m 13284.4,3895.9 276.9,-357.9 c 0,0 118.7,20.1 217.3,-55.3 98.1,-75.4 268.6,-182.7 562.9,45 l -122,487.5 -292.5,377.9 -642.6,-497.2" /><path
         id="path42"
         style="fill:#eb493a;fill-opacity:1;fill-rule:nonzero;stroke:none"
         d="m 13284.4,3895.9 634,273.6 113.7,87.9 -105.1,135.7 -642.6,-497.2" /><path
         id="path44"
         style="fill:#2e2d3f;fill-opacity:1;fill-rule:nonzero;stroke:none"
         d="m 13037.7,1444.3 2342.5,1812.2 -494.1,240 -61.3,47.7 -445.2,346.3 -160.1,124.7 122,-487.5 c -206.8,-160.1 -352.7,-154.3 -455,-110.6 -43.4,18.1 -78.9,42.9 -107.9,65.6 -98.6,75.4 -217.3,55.3 -217.3,55.3 -9.1,-5.9 -17.8,-12.1 -26,-18.4 -102.8,-79.5 -154.1,-210 -130.7,-339.4 l 0.3,-0.3 -451.7,-943.8 c -33.1,-69.7 -55,-142.6 -65.6,-216.7 -30,-201 21.9,-409.4 150.1,-575.1" /><path
         id="path46"
         style="fill:#f8d49f;fill-opacity:1;fill-rule:nonzero;stroke:none"
         d="m 13037.7,1444.3 2342.5,1812.2 -494.1,240 -369.1,-285.6 c 0,0 -66.1,-112.1 -201.5,-286.4 -27.6,-36.1 -58.6,-74.7 -92.3,-114.9 -19.3,-24.2 -40.5,-48.8 -62.2,-74.2 -31,-36.5 -64.4,-74.3 -99.9,-112.7 -21.2,-24 -43.9,-48.1 -66.9,-72.4 -33.7,-35.9 -69.4,-72.7 -107,-109.9 C 13742.8,2296 13573,2142.9 13377,1991.3 l -38.1,-29.5 c -18.7,-14.5 -39,-26.9 -59.8,-36.5 -133.5,-63 -297.6,-27.4 -391.5,94.1 -15,-100.2 -9.7,-202.7 15.5,-300.7 25.3,-97.9 70.4,-191.4 134.6,-274.4" /><path
         id="path48"
         style="fill:#f8d49f;fill-opacity:1;fill-rule:nonzero;stroke:none"
         d="m 13389.4,3760.2 171.9,-222.2 c 0,0 118.7,20.1 217.3,-55.3 98.1,-75.4 268.6,-182.7 562.9,45 l -122,487.5 -187.4,242.2 -642.7,-497.2" /><path
         id="path50"
         style="fill:#1e1f2f;fill-opacity:1;fill-rule:nonzero;stroke:none"
         d="m 13196.1,2204.8 690.4,1212.3 c -43.4,18.1 -78.9,42.9 -107.9,65.6 -148.3,-316.5 -356.4,-304.1 -372.8,-302.6 l 223.1,-61.3 -432.8,-914" /><path
         id="path52"
         style="fill:#eb493a;fill-opacity:1;fill-rule:nonzero;stroke:none"
         d="m 13344.8,3187.7 282.8,-117.7 -33,-79.5 -282.8,117.8 33,79.4" /><path
         id="path54"
         style="fill:#eb493a;fill-opacity:1;fill-rule:nonzero;stroke:none"
         d="m 13277.1,3057.8 282.8,-117.8 -33,-79.4 -282.8,117.7 33,79.5" /><path
         id="path56"
         style="fill:#eb493a;fill-opacity:1;fill-rule:nonzero;stroke:none"
         d="m 13209.4,2927.8 282.8,-117.8 -33.1,-79.5 -282.7,117.8 33,79.5" /><path
         id="path58"
         style="fill:#eb493a;fill-opacity:1;fill-rule:nonzero;stroke:none"
         d="m 13141.7,2797.8 282.8,-117.8 -33.1,-79.4 -282.8,117.7 33.1,79.5" /><path
         id="path60"
         style="fill:#eb493a;fill-opacity:1;fill-rule:nonzero;stroke:none"
         d="m 13074,2667.8 282.8,-117.8 -33.1,-79.4 -282.8,117.7 33.1,79.5" /><path
         id="path62"
         style="fill:#eb493a;fill-opacity:1;fill-rule:nonzero;stroke:none"
         d="m 13006.3,2537.8 282.8,-117.8 -33.1,-79.4 -282.8,117.7 33.1,79.5" /><path
         id="path64"
         style="fill:#1e1f2f;fill-opacity:1;fill-rule:nonzero;stroke:none"
         d="m 13886.5,3417.1 c 207.5,-181 497.4,-42.6 497.4,-42.6 l -42.4,153.2 c -206.8,-160.1 -352.7,-154.3 -455,-110.6" /><path
         id="path66"
         style="fill:#eb493a;fill-opacity:1;fill-rule:nonzero;stroke:none"
         d="m 14390.9,3777 362.4,-288.1 71.5,55.3 -445.2,346.3 v 0 c -28.9,-34.3 -23.8,-85.6 11.3,-113.5" /><path
         id="path68"
         style="fill:#1e1f2f;fill-opacity:1;fill-rule:nonzero;stroke:none"
         d="m 13279.1,1925.3 c 20.8,9.6 41.1,22 59.8,36.5 l 38.1,29.5 c 196,151.6 365.8,304.7 510.2,449.1 37.6,37.2 73.3,74 107,109.9 23,24.3 45.7,48.4 66.9,72.4 35.5,38.4 68.9,76.2 99.9,112.7 21.7,25.4 42.9,50 62.2,74.2 33.7,40.2 64.7,78.8 92.3,114.9 135.4,174.3 201.5,286.4 201.5,286.4 l 369.1,285.6 -458.9,-194.1 c 0,0 -39.1,-135.8 -178.5,-353.5 -24.4,-37.3 -51.3,-77.1 -81.5,-119 -17.8,-24.7 -37,-49.8 -56.9,-76.1 -28.6,-36.8 -59.3,-75.2 -93.4,-114.7 l -0.4,-0.3 c -20.3,-24.4 -41.1,-48.7 -63.9,-73.4 -24.1,-27.3 -49.6,-54.7 -76.2,-82.9 -8.9,-9.6 -18.1,-18.8 -27.2,-28.1 -263.4,-273.3 -457.5,-439.9 -570.1,-529.1" /><path
         id="path70"
         style="fill:#f8d49f;fill-opacity:1;fill-rule:nonzero;stroke:none"
         d="m 13806.3,2961.9 360.9,-132 c 30.2,41.9 57.1,81.7 81.5,119 l -379.5,138.3 -62.9,-125.3" /><path
         id="path72"
         style="fill:#e6ac5e;fill-opacity:1;fill-rule:nonzero;stroke:none"
         d="m 14167.2,2829.9 56,-20.3 c 33.7,40.2 64.7,78.8 92.3,114.9 l -66.8,24.4 c -24.4,-37.3 -51.3,-77.1 -81.5,-119" /><path
         id="path74"
         style="fill:#f8d49f;fill-opacity:1;fill-rule:nonzero;stroke:none"
         d="m 13701,2754.2 315.5,-115.4 0.4,0.3 c 34.1,39.5 64.8,77.9 93.4,114.7 l -346.6,126.1 -62.7,-125.7" /><path
         id="path76"
         style="fill:#e6ac5e;fill-opacity:1;fill-rule:nonzero;stroke:none"
         d="m 14016.9,2639.1 44.2,-16.4 c 35.5,38.4 68.9,76.2 99.9,112.7 l -50.7,18.4 c -28.6,-36.8 -59.3,-75.2 -93.4,-114.7" /><path
         id="path78"
         style="fill:#f8d49f;fill-opacity:1;fill-rule:nonzero;stroke:none"
         d="m 13595.4,2546.9 253.8,-92.5 c 9.1,9.3 18.3,18.5 27.2,28.1 26.6,28.2 52.1,55.6 76.2,82.9 l -294.2,106.9 -63,-125.4" /><path
         id="path80"
         style="fill:#e6ac5e;fill-opacity:1;fill-rule:nonzero;stroke:none"
         d="m 13849.2,2454.4 38,-14 c 37.6,37.2 73.3,74 107,109.9 l -41.6,15.1 c -24.1,-27.3 -49.6,-54.7 -76.2,-82.9 -8.9,-9.6 -18.1,-18.8 -27.2,-28.1" /><path
         id="path82"
         style="fill:#e6ac5e;fill-opacity:1;fill-rule:nonzero;stroke:none"
         d="m 13217.7,1583.5 2162.5,1673 -494.1,240 -369.1,-285.6 c 0,0 -66.1,-112.1 -201.5,-286.4 -27.6,-36.1 -58.6,-74.7 -92.3,-114.9 -19.3,-24.2 -40.5,-48.8 -62.2,-74.2 -31,-36.5 -64.4,-74.3 -99.9,-112.7 -21.2,-24 -43.9,-48.1 -66.9,-72.4 -33.7,-35.9 -69.4,-72.7 -107,-109.9 C 13742.8,2296 13573,2142.9 13377,1991.3 l -38.1,-29.5 c -18.7,-14.5 -39,-26.9 -59.8,-36.5 l -61.4,-341.8" /><path
         id="path84"
         style="fill:#e6ac5e;fill-opacity:1;fill-rule:nonzero;stroke:none"
         d="m 13778.6,3482.7 c 98.1,-75.4 268.6,-182.7 562.9,45 l -122,487.5 -187.4,242.2 -113.7,-87.9 246.7,-318.8 73.4,-244 c 0,0 -262.5,-216.7 -459.9,-124" /><path
         id="path86"
         style="fill:#2e2d3f;fill-opacity:1;fill-rule:nonzero;stroke:none"
         d="m 13412.8,3729.9 26.3,-34 642.7,497.2 -26.3,34 -642.7,-497.2" /><path
         id="path88"
         style="fill:#2e2d3f;fill-opacity:1;fill-rule:nonzero;stroke:none"
         d="m 13453.9,3676.8 26.3,-34 642.7,497.2 -26.3,34 -642.7,-497.2" /><path
         id="path90"
         style="fill:#2e2d3f;fill-opacity:1;fill-rule:nonzero;stroke:none"
         d="m 13494.7,3624.1 26.3,-34 642.7,497.2 -26.3,34 -642.7,-497.2" /><path
         id="path92"
         style="fill:#f57a5d;fill-opacity:1;fill-rule:nonzero;stroke:none"
         d="m 8654.19,2637.3 v -452.5 c 0,0 106.25,-56.8 138.08,-176.8 31.4,-119.6 100.66,-308.8 472.74,-308.8 l 201.74,460.2 v 477.9 h -812.56" /><path
         id="path94"
         style="fill:#eb493a;fill-opacity:1;fill-rule:nonzero;stroke:none"
         d="m 8654.19,2637.3 668.89,-171.6 h 143.67 v 171.6 h -812.56" /><path
         id="path96"
         style="fill:#2e2d3f;fill-opacity:1;fill-rule:nonzero;stroke:none"
         d="m 6958.94,849.203 h 2961.63 l -243.9,492.097 -19.36,75.2 -140.23,546.3 -50.33,196.6 -201.74,-460.2 c -261.53,0 -373.38,93.7 -427.58,190.9 -23.22,40.9 -36.13,82.2 -45.16,117.9 -31.83,120 -138.08,176.8 -138.08,176.8 -10.75,0.9 -21.51,1.3 -31.83,1.3 -129.91,0 -250.35,-71.8 -311.01,-188.4 v -0.4 l -934.73,-470.2 c -68.82,-34.9 -130.76,-79.2 -184.53,-131.2 -146.69,-140.7 -233.15,-337.3 -233.15,-546.697" /><path
         id="path98"
         style="fill:#f8d49f;fill-opacity:1;fill-rule:nonzero;stroke:none"
         d="m 6958.94,849.203 h 2961.63 l -243.9,492.097 h -466.72 c 0,0 -120.87,-48.2 -334.66,-103.3 -43.88,-11.6 -92.05,-23.2 -143.24,-34.4 -30.11,-7.3 -61.95,-13.8 -94.64,-20.6 -46.89,-9.9 -96.35,-19.4 -147.97,-28 -31.4,-6 -64.09,-11.2 -97.22,-16.3 -48.6,-7.8 -99.36,-15.1 -151.84,-21.5 -202.61,-25.9 -430.59,-43.1 -678.36,-43.1 h -48.18 c -23.65,0 -47.31,2.6 -69.68,7.8 -144.1,31.8 -252.07,160.4 -252.07,314 -73.13,-70.1 -131.63,-154.4 -171.64,-247.3 -40,-93 -61.51,-194.498 -61.51,-299.397" /><path
         id="path100"
         style="fill:#f8d49f;fill-opacity:1;fill-rule:nonzero;stroke:none"
         d="m 8654.19,2465.7 v -280.9 c 0,0 106.25,-56.8 138.08,-176.8 31.4,-119.6 100.66,-308.8 472.74,-308.8 l 201.74,460.2 v 306.3 h -812.56" /><path
         id="path102"
         style="fill:#1e1f2f;fill-opacity:1;fill-rule:nonzero;stroke:none"
         d="m 7549.55,1353.7 1287.88,536.4 c -23.22,40.9 -36.13,82.2 -45.16,117.9 -311,-159.6 -468.01,-22.4 -480.06,-11.2 l 138.94,-184.9 -901.6,-458.2" /><path
         id="path104"
         style="fill:#eb493a;fill-opacity:1;fill-rule:nonzero;stroke:none"
         d="m 8268.67,2040.2 151.63,-266.2 -74.77,-42.6 -151.63,266.2 74.77,42.6" /><path
         id="path106"
         style="fill:#eb493a;fill-opacity:1;fill-rule:nonzero;stroke:none"
         d="m 8135.59,1978.8 151.63,-266.2 -74.77,-42.6 -151.63,266.2 74.77,42.6" /><path
         id="path108"
         style="fill:#eb493a;fill-opacity:1;fill-rule:nonzero;stroke:none"
         d="m 8002.51,1917.4 151.59,-266.2 -74.77,-42.6 -151.59,266.2 74.77,42.6" /><path
         id="path110"
         style="fill:#eb493a;fill-opacity:1;fill-rule:nonzero;stroke:none"
         d="m 7869.39,1856.1 151.63,-266.2 -74.78,-42.6 -151.63,266.2 74.78,42.6" /><path
         id="path112"
         style="fill:#eb493a;fill-opacity:1;fill-rule:nonzero;stroke:none"
         d="m 7736.3,1794.6 151.59,-266.1 -74.77,-42.6 -151.59,266.1 74.77,42.6" /><path
         id="path114"
         style="fill:#eb493a;fill-opacity:1;fill-rule:nonzero;stroke:none"
         d="m 7603.18,1733.3 151.63,-266.2 -74.77,-42.6 -151.63,266.2 74.77,42.6" /><path
         id="path116"
         style="fill:#1e1f2f;fill-opacity:1;fill-rule:nonzero;stroke:none"
         d="M 8837.43,1890.1 C 8890.78,1620 9204.79,1552 9204.79,1552 l 60.22,147.2 c -261.53,0 -373.38,93.7 -427.58,190.9" /><path
         id="path118"
         style="fill:#eb493a;fill-opacity:1;fill-rule:nonzero;stroke:none"
         d="m 9456.59,1866.2 110.39,-449.7 h 90.33 l -140.23,546.3 v 0 c -43.81,-9.4 -71.18,-53.1 -60.49,-96.6" /><path
         id="path120"
         style="fill:#1e1f2f;fill-opacity:1;fill-rule:nonzero;stroke:none"
         d="m 7444.16,1081.9 c 22.37,-5.2 46.03,-7.8 69.68,-7.8 h 48.18 c 247.77,0 475.75,17.2 678.36,43.1 52.48,6.4 103.24,13.7 151.84,21.5 33.13,5.1 65.82,10.3 97.22,16.3 51.62,8.6 101.08,18.1 147.97,28 32.69,6.8 64.53,13.3 94.64,20.6 51.19,11.2 99.36,22.8 143.24,34.4 213.79,55.1 334.66,103.3 334.66,103.3 h 466.72 l -481.78,127.3 c 0,0 -113.99,-83.5 -357.46,-170.4 -42.15,-14.6 -87.75,-29.6 -137.22,-44.3 -29.25,-8.6 -59.79,-16.7 -91.62,-25.3 -45.17,-11.6 -92.91,-23.3 -144.1,-33.6 h -0.43 c -30.97,-6.9 -62.37,-13.3 -95.5,-18.9 -35.7,-6.9 -72.69,-12.9 -110.98,-18.9 -12.9,-2.2 -25.8,-3.9 -38.71,-5.6 -375.53,-55.1 -631.04,-68 -774.71,-69.7" /><path
         id="path122"
         style="fill:#f8d49f;fill-opacity:1;fill-rule:nonzero;stroke:none"
         d="m 8495.46,1579.1 204.75,-325.2 c 49.47,14.7 95.07,29.7 137.22,44.3 l -215.5,341.6 -126.47,-60.7" /><path
         id="path124"
         style="fill:#e6ac5e;fill-opacity:1;fill-rule:nonzero;stroke:none"
         d="m 8700.21,1253.9 31.84,-50.3 c 51.19,11.2 99.36,22.8 143.24,34.4 l -37.86,60.2 c -42.15,-14.6 -87.75,-29.6 -137.22,-44.3" /><path
         id="path126"
         style="fill:#f8d49f;fill-opacity:1;fill-rule:nonzero;stroke:none"
         d="M 8285.11,1479.3 8464.06,1195 h 0.43 c 51.19,10.3 98.93,22 144.1,33.6 l -197.01,311.8 -126.47,-61.1" /><path
         id="path128"
         style="fill:#e6ac5e;fill-opacity:1;fill-rule:nonzero;stroke:none"
         d="m 8464.49,1195 24.95,-40 c 51.62,8.6 101.08,18.1 147.97,28 l -28.82,45.6 c -45.17,-11.6 -92.91,-23.3 -144.1,-33.6" /><path
         id="path130"
         style="fill:#f8d49f;fill-opacity:1;fill-rule:nonzero;stroke:none"
         d="m 8074.77,1380 144.1,-228.4 c 12.91,1.7 25.81,3.4 38.71,5.6 38.29,6 75.28,12 110.98,18.9 l -167.33,264.5 -126.46,-60.6" /><path
         id="path132"
         style="fill:#e6ac5e;fill-opacity:1;fill-rule:nonzero;stroke:none"
         d="m 8218.87,1151.6 21.51,-34.4 c 52.48,6.4 103.24,13.7 151.84,21.5 l -23.66,37.4 c -35.7,-6.9 -72.69,-12.9 -110.98,-18.9 -12.9,-2.2 -25.8,-3.9 -38.71,-5.6" /><path
         id="path134"
         style="fill:#e6ac5e;fill-opacity:1;fill-rule:nonzero;stroke:none"
         d="m 7186.5,849.203 h 2734.07 l -243.9,492.097 h -466.72 c 0,0 -120.87,-48.2 -334.66,-103.3 -43.88,-11.6 -92.05,-23.2 -143.24,-34.4 -30.11,-7.3 -61.95,-13.8 -94.64,-20.6 -46.89,-9.9 -96.35,-19.4 -147.97,-28 -31.4,-6 -64.09,-11.2 -97.22,-16.3 -48.6,-7.8 -99.36,-15.1 -151.84,-21.5 -202.61,-25.9 -430.59,-43.1 -678.36,-43.1 h -48.18 c -23.65,0 -47.31,2.6 -69.68,7.8 L 7186.5,849.203" /><path
         id="path136"
         style="fill:#e6ac5e;fill-opacity:1;fill-rule:nonzero;stroke:none"
         d="m 8792.27,2008 c 31.4,-119.6 100.66,-308.8 472.74,-308.8 l 201.74,460.2 v 306.3 h -143.67 v -403.1 l -91.19,-237.8 c 0,0 -340.26,-10.8 -439.62,183.2" /><path
         id="path138"
         style="fill:#2e2d3f;fill-opacity:1;fill-rule:nonzero;stroke:none"
         d="m 8654.19,2427.4 v -43 h 812.56 v 43 h -812.56" /><path
         id="path140"
         style="fill:#2e2d3f;fill-opacity:1;fill-rule:nonzero;stroke:none"
         d="m 8654.19,2360.3 v -43 h 812.56 v 43 h -812.56" /><path
         id="path142"
         style="fill:#2e2d3f;fill-opacity:1;fill-rule:nonzero;stroke:none"
         d="m 8654.19,2293.6 v -43 h 812.56 v 43 h -812.56" /><path
         id="path144"
         style="fill:#4b5c77;fill-opacity:1;fill-rule:nonzero;stroke:none"
         d="m 13940.8,4376.3 -80.6,-59.1 -706.5,-520 -1982,2164 -364.3,397.6 -243.9,439 L 9485.77,8735.1 9270.33,6046.7 9735.6,2649 l -135.93,-18.8 -953.1,-132.7 -575.95,2880.3 -196.1,981 -2.69,27.4 -308.39,2936.7 h 128.41 l -9.14,1713.9 -1.61,275.1 1992.18,427.6 176.76,-222.4 776.86,-978.4 229.4,-289 198.8,115 903.2,-3315.5 1982.5,-2672.9" /><path
         id="path146"
         style="fill:#352644;fill-opacity:1;fill-rule:nonzero;stroke:none"
         d="m 9735.6,2649 -135.93,-18.8 -535.12,3492.8 132.17,2572.4 -257.35,631.8 -653.85,198.8 779.03,-81.1 421.22,-709.8 L 9270.33,6046.7 9735.6,2649" /><path
         id="path148"
         style="fill:#352644;fill-opacity:1;fill-rule:nonzero;stroke:none"
         d="m 13940.8,4376.3 -80.6,-59.1 -2180.8,2671.3 -1013.8,3280 c 0,0 -22.6,107.4 -38.7,270.2 l 229.4,-289 198.8,115 903.2,-3315.5 1982.5,-2672.9" /><g
         transform="scale(1.00648)"
         id="g150"><path
           id="path152"
           style="fill:#d36135;fill-opacity:1;fill-rule:nonzero;stroke:none"
           d="m 7642.31,9262.86 h -365.12 l -96.63,3078.94 -267.96,751.1 -144.66,-643.8 c 0,0 107.29,-107.3 139.32,-198.5 l -391.8,-412.7 c 0,0 -192.72,-772.4 -450.53,-761.7 -114.24,4.8 -186.31,208.7 -231.14,457.5 -57.66,312.2 -73.67,696.1 -79.54,845.5 -10.68,268.5 80.07,359.8 80.07,359.8 l 208.71,2195 c 20.82,221 133.99,423.3 311.75,556.2 l 435.04,325.6 246.09,184.2 179.9,300 16,-371.5 7.48,-174.1 381.13,-2468.8 9.61,-1735.9 1.6,-310.7 10.68,-1976.14" /></g><path
         id="path154"
         style="fill:#b3522d;fill-opacity:1;fill-rule:nonzero;stroke:none"
         d="m 6811.81,12529.8 c 0,0 107.99,-107.9 140.23,-199.8 l -394.35,-415.3 c 0,0 -193.96,-777.4 -453.45,-766.7 -114.98,4.8 -187.51,210.1 -232.64,460.4 105.84,24.2 231.03,8.1 231.03,8.1 l 556.59,752.2 c -256.27,417.4 -787.08,452.9 -787.08,452.9 437.86,91.3 809.66,-146.7 809.66,-146.7 l 94.56,450.8 -362.13,1359.2 c -155.8,640.5 -55.87,935.4 -55.87,935.4 -27.4,-294.9 100.46,-812.9 100.46,-812.9 l 498.59,-1429.6 -145.6,-648" /><g
         transform="scale(1.02847)"
         id="g156"><path
           id="path158"
           style="fill:#d36135;fill-opacity:1;fill-rule:nonzero;stroke:none"
           d="m 10341.6,12397.2 -352.56,436.7 -39.67,690.6 536.43,-586.1 z m 707.9,-1055.7 c -0.5,0.5 -0.5,0.5 -0.5,0.5 l 387.1,1551 c 11.4,45.4 19.8,91.9 25,137.9 25.1,209.4 -11.4,421 -102.8,610.1 -29.9,61.1 -65.4,120.2 -106.6,175.5 l -1380.21,1861.3 c -114.34,154.1 -284.69,256.5 -474.32,285.3 l -703.14,106.5 -204.26,30.9 -368.28,199.5 -67.91,-518.7 -25.08,-193.3 c -155.67,-1163.4 -21.94,-2411.9 -21.94,-2411.9 l 1025.98,-1291.9 372.99,-469.6 299.33,-377.2 95.65,-120.1 400.59,-504.7 354.7,-446.61 193.3,111.81 798.3,460.2 -497.9,803.5" /></g><path
         id="path160"
         style="fill:#b3522d;fill-opacity:1;fill-rule:nonzero;stroke:none"
         d="m 11550.5,13665.6 c -514.7,28 -766.2,-358.9 -766.2,-358.9 l -551.7,602.8 40.8,-710.2 362.6,-449.2 -422.8,-1303.9 -58,-201.5 -75.7,-16.6 -98.37,123.5 146.17,122.5 393.8,1230.3 -1712.82,1857.4 1134.17,-981.1 -32.24,663.6 c -378.23,623.2 -321.82,1330.8 -321.82,1330.8 144.52,-924.7 603.31,-1443.1 603.31,-1443.1 l 570.6,-647.4 c 462.6,281.5 788.2,181 788.2,181" /><g
         transform="scale(1.15962)"
         id="g162"><path
           id="path164"
           style="fill:#f57a5d;fill-opacity:1;fill-rule:nonzero;stroke:none"
           d="m 7120.49,15067.1 25.48,-189 36.6,-270.6 20.38,-151 -60.22,-460.1 -22.24,-171.4 c 0,0 -521.69,-404.9 -837.2,-151.1 l -6.49,151.1 -13.9,322.5 -96.36,446.1 c -0.47,0.5 -0.47,0.5 -0.94,1 -9.26,10.1 -72.74,84.3 -143.63,261.3 -12.5,31.5 -25.48,66.7 -38.45,105.1 -119.53,-14.3 -195.05,357.7 -165.4,435.1 2.77,7.9 6.48,13 11.58,13.9 19.46,4.6 35.68,0.4 48.65,-6.5 -75.52,481.4 41.23,618 41.23,618 0,0 0.93,0.5 3.25,1.9 0,0 0.46,0 0.93,0 52.35,26 586.08,276.6 1107.77,-36.6 l 82.01,-555.5 c 0,0 0,0 0.46,0.5 6.94,6.9 69.5,68.5 142.24,51.8 16.21,-4.1 32.9,-11.5 49.57,-25 86.64,-68.1 50.5,-359 -123.24,-390.5 -18.99,-4.2 -39.84,-4.2 -62.08,-1" /></g><g
         transform="scale(1.07191)"
         id="g166"><path
           id="path168"
           style="fill:#eb493a;fill-opacity:1;fill-rule:nonzero;stroke:none"
           d="m 7770.28,15802.8 c -666.12,-571.9 -1099.16,-15 -1099.16,-15 l 895.67,282.2 136.33,230 27.57,-204.5 39.59,-292.7" /></g><g
         transform="scale(1.07198)"
         id="g170"><path
           id="path172"
           style="fill:#2b1514;fill-opacity:1;fill-rule:nonzero;stroke:none"
           d="m 7769.8,16300 c -14.53,-77.7 -28.07,-147.8 -39.58,-205.5 l -27.57,204.5 c 24.06,-3.5 46.61,-3.5 67.15,1" /></g><g
         transform="scale(1.18698)"
         id="g174"><path
           id="path176"
           style="fill:#571519;fill-opacity:1;fill-rule:nonzero;stroke:none"
           d="m 7145.57,15544.1 c -9.05,-110.4 -30.78,-261.2 -56.57,-417.3 -75.15,17.2 -139.42,-51.2 -139.42,-51.2 l -80.12,542.7 c -513.28,308.3 -1039.24,57.5 -1083.14,35.8 -2.26,-1.4 -3.17,-1.8 -3.17,-1.8 0,0 -114.07,-133.5 -40.28,-603.8 -12.67,6.8 -28.52,10.8 -47.53,6.3 -4.98,-0.9 -8.61,-5.9 -11.32,-13.6 -52.05,122.2 -165.66,459.9 72.88,641.4 0,0 -216.36,339.5 227.67,518.7 243.97,98.7 579.37,-0.4 826.96,-169.7 h 0.45 c 202.78,-138.5 347.17,-324.5 333.59,-487.5" /></g><g
         transform="scale(1.07313)"
         id="g178"><path
           id="path180"
           style="fill:#571519;fill-opacity:1;fill-rule:nonzero;stroke:none"
           d="m 7694.37,16281.5 c 0,0 -308.9,-1122.5 -1030.84,-511.7 l -0.5,0.5 c -8.52,9 -78.11,88.6 -155.72,282.9 l 145.7,39 12.02,19.6 c 66.58,105.1 177.23,174.2 301.39,186.2 13.51,1.5 27.03,2 40.04,2 115.66,0 226.81,-49.6 303.91,-137.7 l 5.5,-6.5 255.33,-7.5 123.17,133.2" /></g><path
         id="path182"
         style="fill:#571519;fill-opacity:1;fill-rule:nonzero;stroke:none"
         d="m 9673.28,11739.5 -1626.3,-349.2 -365.88,-78.4 -1.61,312.7 -9.67,1747.1 -352.98,2287.7 -30.62,197.2 c 365.87,-294.4 970.83,175.1 970.83,175.1 -10.21,-74.1 -18.8,-148.8 -26.33,-223.5 -117.12,-1127.7 3.76,-2257 3.76,-2257 l 1055.19,-1328.7 383.61,-483" /><g
         transform="scale(1.10053)"
         id="g184"><path
           id="path186"
           style="fill:#eb493a;fill-opacity:1;fill-rule:nonzero;stroke:none"
           d="m 7504.43,16166 5.02,-214.4 c 0,0 155.8,3.3 159.15,175.8 3.35,172.6 -127.32,97.2 -164.17,38.6" /></g><g
         transform="scale(1.0924)"
         id="g188"><path
           id="path190"
           style="fill:#eb493a;fill-opacity:1;fill-rule:nonzero;stroke:none"
           d="m 6262.6,16258.4 67.09,-300.8 c 0,0 -60.14,0 -99.47,171.2 -39.33,171.2 32.38,129.6 32.38,129.6" /></g><g
         transform="scale(1.17152)"
         id="g192"><path
           id="path194"
           style="fill:#2b1514;fill-opacity:1;fill-rule:nonzero;stroke:none"
           d="m 7239.86,15749.2 c -9.17,-111.9 -31.19,-264.6 -57.32,-422.8 -76.13,17.4 -141.25,-51.8 -141.25,-51.8 l -81.18,549.8 c -520.05,312.3 -1052.95,58.3 -1097.43,36.3 250.39,439.3 789.25,418.7 1038.73,382.4 h 0.46 c 205.45,-140.3 351.75,-328.8 337.99,-493.9" /></g><g
         transform="scale(1.15962)"
         id="g196"><path
           id="path198"
           style="fill:#eb493a;fill-opacity:1;fill-rule:nonzero;stroke:none"
           d="m 7113.54,15431.3 c -218.69,713 -1155.5,596.7 -1189.78,592.1 52.35,26 586.08,276.6 1107.77,-36.6 l 82.01,-555.5" /></g><path
         id="path200"
         style="fill:#f57a5d;fill-opacity:1;fill-rule:nonzero;stroke:none"
         d="m 6711.88,12080.2 -3.22,-0.6 c 0,0 64.47,-101 -44.06,-145 0,0 80.05,-23.7 92.41,-68.8 2.15,-7.5 2.15,-15.6 0,-24.2 -16.12,-60.7 -387.37,-133.2 -387.37,-133.2 0,0 113.37,-30.1 261.65,13.4 30.62,8.6 62.86,-15.6 60.71,-47.8 -0.54,-9.7 -2.69,-19.4 -6.98,-30.1 -12.9,-31.7 -45.67,-67.2 -117.67,-96.7 0,0 23.11,-44.6 -9.13,-90.8 h -0.53 c -13.97,-20.4 -39.76,-41.4 -82.74,-58.6 -141.31,-56.4 -306.78,-76.8 -306.78,-76.8 0,0 -326.66,173.5 -391.67,250.4 -64.47,76.8 -3.76,201.4 -3.76,201.4 0,0 -4.29,109.1 44.06,153.7 0,0 -3.77,137 76.82,181.6 0,0 7.53,151.5 167.63,214.9 45.13,17.7 102.62,28.5 175.69,26.9 0,0 100.46,84.9 225.65,36.5 67.16,-26.3 166.02,-76.3 242.84,-117.7 9.67,-5.3 19.34,-10.7 28.48,-15.5 75.21,-40.3 61.78,-156.9 -22.03,-173" /><g
         transform="scale(1.01588)"
         id="g202"><path
           id="path204"
           style="fill:#b3522d;fill-opacity:1;fill-rule:nonzero;stroke:none"
           d="m 8176.67,13425.1 549.48,2388.3 -131.16,486.6 206.79,-31.2 109.49,-455.4 -734.6,-2388.3" /></g><path
         id="path206"
         style="fill:#b3522d;fill-opacity:1;fill-rule:nonzero;stroke:none"
         d="m 11876.1,10838 -821,-473.3 -198.8,-115 -364.8,459.4 c 98.9,314.3 343.9,509.8 343.9,509.8 l 341.7,-256.3 186.4,702.3 c 0,0 0,0 0.5,-0.6 l 512.1,-826.3" /><path
         id="path208"
         style="fill:#f57a5d;fill-opacity:1;fill-rule:nonzero;stroke:none"
         d="m 10835.4,11218.9 c 0,0 -93.5,-668.9 -169.8,-950.4 l -686.08,998.8 -0.54,1 234.22,177.9 c 0,0 274,54.2 622.2,-227.3" /><path
         id="path210"
         style="fill:#b3522d;fill-opacity:1;fill-rule:nonzero;stroke:none"
         d="m 7590.84,13274.5 -892.39,2054.5 135.38,589.4 247.69,185.3 -233.72,-768.8 743.04,-2060.4" /><path
         id="path212"
         style="fill:#eb493a;fill-opacity:1;fill-rule:nonzero;stroke:none"
         d="m 6711.88,12080.2 c -291.2,10.2 -535.12,159 -650.63,242.8 45.13,17.7 102.62,28.5 175.69,26.9 0,0 71.99,-98.9 239.62,-131.7 107.45,-21.5 185.89,18.8 228.87,50.5 9.67,-5.3 19.34,-10.7 28.48,-15.5 75.21,-40.3 61.78,-156.9 -22.03,-173" /><path
         id="path214"
         style="fill:#eb493a;fill-opacity:1;fill-rule:nonzero;stroke:none"
         d="m 6567.35,11547.2 c 0,0 23.11,-44.6 -9.13,-90.8 h -0.53 c -124.65,-7.5 -295.5,-14.5 -327.74,2.7 -51.04,26.3 -381.99,241.2 -402.41,254.6 20.96,-9.6 360.51,-164.4 411.55,-177.3 52.11,-13.9 328.26,10.8 328.26,10.8" /><path
         id="path216"
         style="fill:#eb493a;fill-opacity:1;fill-rule:nonzero;stroke:none"
         d="m 6261.65,11937.2 c -76.82,33.4 -276.15,190.2 -288.51,199.9 12.9,-5.4 222.43,-97.8 293.35,-122.5 72.53,-24.7 398.11,-80 398.11,-80 0,0 80.05,-23.7 92.41,-68.8 -145.6,14.5 -435.72,45.6 -495.36,71.4" /><path
         id="path218"
         style="fill:#eb493a;fill-opacity:1;fill-rule:nonzero;stroke:none"
         d="m 6692,11674 c -0.54,-9.7 -2.69,-19.4 -6.98,-30.1 -117.13,-12.9 -274.54,-26.3 -327.73,-9.7 -85.97,26.4 -456.14,252 -479.24,266 l 491.59,-191.8 c 0,0 113.37,-30.1 261.65,13.4 30.62,8.6 62.86,-15.6 60.71,-47.8" /><path
         id="path220"
         style="fill:#2b1514;fill-opacity:1;fill-rule:nonzero;stroke:none"
         d="m 8046.98,11390.3 -365.88,-78.4 -1.61,312.7 -9.67,1747.1 377.16,-1981.4" /><path
         id="path222"
         style="fill:#352644;fill-opacity:1;fill-rule:nonzero;stroke:none"
         d="m 8046.98,11390.3 277.76,-1261.3 -632.89,-806.1 -10.75,1989 365.88,78.4" /><path
         id="path224"
         style="fill:#352644;fill-opacity:1;fill-rule:nonzero;stroke:none"
         d="m 11293.1,6299.7 c 0,-128.4 -45.6,-246.6 -121.4,-338.5 l -364.3,397.6 -243.9,439 c 60.2,23.6 125.7,36.5 194.5,36.5 295.5,0 535.1,-239.1 535.1,-534.6" /><path
         id="path226"
         style="fill:#352644;fill-opacity:1;fill-rule:nonzero;stroke:none"
         d="m 8360.21,5853.3 c 0,-206.9 -117.67,-386.9 -289.59,-475.5 l -196.1,981 -2.69,27.4 c 273.47,-23.6 488.38,-253 488.38,-532.9" /><path
         id="path228"
         style="fill:#b3522d;fill-opacity:1;fill-rule:nonzero;stroke:none"
         d="m 11787.4,13401.8 c -125.7,68.8 -211.1,202 -211.1,355.7 0,104.8 39.7,200.4 105.3,271.9 94,-194.5 131.6,-412.1 105.8,-627.6" /><g
         transform="scale(1.07191)"
         id="g230"><path
           id="path232"
           style="fill:#2b1514;fill-opacity:1;fill-rule:nonzero;stroke:none"
           d="m 7703.12,16300 c 0,0 -309.25,-1123.7 -1032,-512.2 l 653.08,386.4 255.62,-7.5 123.3,133.3" /></g><path
         id="path234"
         style="fill:#2b1514;fill-opacity:1;fill-rule:nonzero;stroke:none"
         d="m 8257.05,16031.7 c -10.21,-74.1 -18.8,-148.8 -26.33,-223.5 -426.58,-269.1 -735.51,-225.6 -913.88,-148.8 l -30.62,197.2 c 365.87,-294.4 970.83,175.1 970.83,175.1" /><path
         id="path236"
         style="fill:#eb493a;fill-opacity:1;fill-rule:nonzero;stroke:none"
         d="m 10835.4,11218.9 c 0,0 -93.5,-668.9 -169.8,-950.4 l -686.08,998.8 590.48,-705.4 76.8,470.6 c -134.3,239.6 -433.6,413.7 -433.6,413.7 0,0 274,54.2 622.2,-227.3" /><path
         id="path238"
         style="fill:#352644;fill-opacity:1;fill-rule:nonzero;stroke:none"
         d="m 9850.04,11517.1 -2167.33,-480.3 -1.61,275.1 1992.18,427.6 176.76,-222.4" /></g></g></svg>