<?xml version="1.0" encoding="UTF-8" standalone="no"?>
<svg
   xmlns:dc="http://purl.org/dc/elements/1.1/"
   xmlns:cc="http://creativecommons.org/ns#"
   xmlns:rdf="http://www.w3.org/1999/02/22-rdf-syntax-ns#"
   xmlns:svg="http://www.w3.org/2000/svg"
   xmlns="http://www.w3.org/2000/svg"
   viewBox="0 0 2582.6267 2350.8132"
   height="2350.8132"
   width="2582.6267"
   xml:space="preserve"
   id="svg2"
   version="1.1"><metadata
     id="metadata8"><rdf:RDF><cc:Work
         rdf:about=""><dc:format>image/svg+xml</dc:format><dc:type
           rdf:resource="http://purl.org/dc/dcmitype/StillImage" /></cc:Work></rdf:RDF></metadata><defs
     id="defs6" /><g
     transform="matrix(1.3333333,0,0,-1.3333333,0,2350.8133)"
     id="g10"><g
       transform="scale(0.1)"
       id="g12"><path
         id="path14"
         style="fill:#d36135;fill-opacity:1;fill-rule:nonzero;stroke:none"
         d="m 6209.71,815.602 v -651.5 H 4906.19 v 651.5 c 0,146.199 48.44,281.198 129.59,389.998 58.69,78.6 135.03,143.7 222.92,188.9 89.49,46.5 191.48,72.8 299.25,72.8 179.94,0 342.88,-72.8 460.92,-190.8 117.71,-118.1 190.84,-281 190.84,-460.898" /><path
         id="path16"
         style="fill:#d36135;fill-opacity:1;fill-rule:nonzero;stroke:none"
         d="m 5024.83,1006.6 c 0,0 -567.49,774.5 -200.29,1462.1 0,0 600.87,-407.2 560.82,-1235.1 l -360.53,-227" /><path
         id="path18"
         style="fill:#2e2d3f;fill-opacity:1;fill-rule:nonzero;stroke:none"
         d="m 5258.7,1394.5 c -87.89,-45.2 -164.23,-110.3 -222.92,-188.9 -104.57,205.9 -328.45,720.1 -162.62,1060.7 0,0 324.27,-241.2 385.54,-871.8" /><path
         id="path20"
         style="fill:#d36135;fill-opacity:1;fill-rule:nonzero;stroke:none"
         d="m 6089.31,1006.6 c 0,0 567.5,774.5 200.29,1462.1 0,0 -600.87,-407.2 -560.81,-1235.1 l 360.52,-227" /><path
         id="path22"
         style="fill:#2e2d3f;fill-opacity:1;fill-rule:nonzero;stroke:none"
         d="m 5855.45,1394.5 c 87.88,-45.2 164.22,-110.3 222.92,-188.9 104.56,205.9 328.44,720.1 162.61,1060.7 0,0 -324.27,-241.2 -385.53,-871.8" /><path
         id="path24"
         style="fill:#f57a5d;fill-opacity:1;fill-rule:nonzero;stroke:none"
         d="m 5752.01,738.301 c 0,-16.403 -2.25,-32.102 -6.42,-46.899 -122.2,23.399 -241.84,41.399 -358.92,54.899 4.17,97.5 84.04,174.801 182.51,174.801 101.04,0 182.83,-81.801 182.83,-182.801" /><path
         id="path26"
         style="fill:#171514;fill-opacity:1;fill-rule:nonzero;stroke:none"
         d="m 5865.69,993.602 c 0,-33 -26.76,-59.801 -59.78,-59.801 -33.01,0 -59.77,26.801 -59.77,59.801 0,32.998 26.76,59.798 59.77,59.798 33.02,0 59.78,-26.8 59.78,-59.798" /><path
         id="path28"
         style="fill:#171514;fill-opacity:1;fill-rule:nonzero;stroke:none"
         d="m 5398.7,1007.3 c 0,-32.999 -26.76,-59.698 -59.77,-59.698 -33.01,0 -59.77,26.699 -59.77,59.698 0,33 26.76,59.8 59.77,59.8 33.01,0 59.77,-26.8 59.77,-59.8" /><path
         id="path30"
         style="fill:#d36135;fill-opacity:1;fill-rule:nonzero;stroke:none"
         d="M 4995.31,1051.3 4745.63,937 l 116.05,-24.598 -112.53,-61.601 188.14,-63.301 58.02,263.8" /><path
         id="path32"
         style="fill:#d36135;fill-opacity:1;fill-rule:nonzero;stroke:none"
         d="M 6093.73,1051.3 6343.4,937 6227.36,912.402 6339.89,850.801 6151.75,787.5 l -58.02,263.8" /><g
         transform="scale(1.09734)"
         id="g34"><path
           id="path36"
           style="fill:#2e2d3f;fill-opacity:1;fill-rule:nonzero;stroke:none"
           d="M 14462.8,2415.39 16038.4,7.65703 H 16300 L 14645.4,2539.6 14462.8,2415.39" /></g><g
         transform="scale(1.09853)"
         id="g38"><path
           id="path40"
           style="fill:#2e2d3f;fill-opacity:1;fill-rule:nonzero;stroke:none"
           d="M 16300,2412.78 14927.6,3.82614 h -289.4 L 16137.8,2538.22 16300,2412.78" /></g><path
         id="path42"
         style="fill:#3e3e52;fill-opacity:1;fill-rule:nonzero;stroke:none"
         d="M 8116.64,2650.5 9845.53,8.40234 h 287.17 L 8316.99,2786.8 8116.64,2650.5" /><path
         id="path44"
         style="fill:#3e3e52;fill-opacity:1;fill-rule:nonzero;stroke:none"
         d="M 10152.1,2650.5 8644.49,4.20313 h -317.9 L 9973.92,2788.3 10152.1,2650.5" /><g
         transform="scale(1.08729)"
         id="g46"><path
           id="path48"
           style="fill:#f39c13;fill-opacity:1;fill-rule:nonzero;stroke:none"
           d="M 16300,4163.66 V 2860.05 h -457.5 v 1581 l 457.5,-277.39" /></g><path
         id="path50"
         style="fill:#f39c13;fill-opacity:1;fill-rule:nonzero;stroke:none"
         d="M 9821.03,4527.1 V 3109.7 h -497.41 v 1719 l 497.41,-301.6" /><path
         id="path52"
         style="fill:#2e2d3f;fill-opacity:1;fill-rule:nonzero;stroke:none"
         d="m 15231.3,24.1016 c 0,0 -40.8,1661.0984 286,2310.0984 0,0 -726.2,-363 -349.5,-2305.5008 l 63.5,-4.5976" /><path
         id="path54"
         style="fill:#2e2d3f;fill-opacity:1;fill-rule:nonzero;stroke:none"
         d="m 15377.4,48.6016 c 0,0 142.4,769.1994 417.8,1082.4984 0,0 -569.7,-175.698 -484.3,-1091.9984 l 66.5,9.5" /><path
         id="path56"
         style="fill:#2e2d3f;fill-opacity:1;fill-rule:nonzero;stroke:none"
         d="m 15070.9,37.8008 c 0,0 -378,923.9022 -325.5,1490.7992 0,0 -360.4,-549.397 255.5,-1494.2992 l 70,3.5" /><g
         transform="scale(1.09853)"
         id="g58"><path
           id="path60"
           style="fill:#f8b633;fill-opacity:1;fill-rule:nonzero;stroke:none"
           d="M 16300,6119.74 V 4121.15 H 8049.83 V 6119.74 H 16300" /></g><g
         transform="scale(1.09853)"
         id="g62"><path
           id="path64"
           style="fill:#f8b633;fill-opacity:1;fill-rule:nonzero;stroke:none"
           d="m 7334.75,2830.88 v -418.1 H 16300 v 418.1 H 7334.75" /></g><g
         transform="scale(1.09853)"
         id="g66"><path
           id="path68"
           style="fill:#f39c13;fill-opacity:1;fill-rule:nonzero;stroke:none"
           d="m 14447.2,2830.88 v -418.1 H 16300 v 418.1 h -1852.8" /></g><g
         transform="scale(1.09853)"
         id="g70"><path
           id="path72"
           style="fill:#f39c13;fill-opacity:1;fill-rule:nonzero;stroke:none"
           d="M 16300,6119.74 V 4121.15 h -377.5 v 1998.59 h 377.5" /></g><g
         transform="scale(1.07309)"
         id="g74"><path
           id="path76"
           style="fill:#f39c13;fill-opacity:1;fill-rule:nonzero;stroke:none"
           d="M 16300,4218.86 H 8240.68 V 6264.83 H 10935.8 L 16300,4218.86" /></g><g
         transform="scale(1.10133)"
         id="g78"><path
           id="path80"
           style="fill:#f8d49f;fill-opacity:1;fill-rule:nonzero;stroke:none"
           d="m 971.168,53.4828 c 0,0 536.852,616.7962 1827.582,262.6792 1290.73,-354.1168 1599.13,1062.258 3049.77,91.345 1450.65,-970.824 2649.99,536.897 5551.28,-342.6743 0,0 1953.2,308.4443 2809.9,-11.3499 0,0 1484.9,194.1262 2090.3,11.3499 L 971.168,53.4828" /></g><path
         id="path82"
         style="fill:#f57a5d;fill-opacity:1;fill-rule:nonzero;stroke:none"
         d="m 1458.62,61 c 0,0 452.96,364.5 852.85,-10.5977 L 1458.62,61" /><path
         id="path84"
         style="fill:#3e3e52;fill-opacity:1;fill-rule:nonzero;stroke:none"
         d="m 4377.78,23.1992 c 0,0 74.94,3047.3008 -524.54,4237.9008 0,0 1332.17,-666 641.11,-4229.6 l -116.57,-8.3008" /><path
         id="path86"
         style="fill:#3e3e52;fill-opacity:1;fill-rule:nonzero;stroke:none"
         d="m 4109.8,68.1016 c 0,0 -261.29,1410.9984 -766.46,1985.8984 0,0 1045.18,-322.3 888.4,-2003.3008 L 4109.8,68.1016" /><path
         id="path88"
         style="fill:#3e3e52;fill-opacity:1;fill-rule:nonzero;stroke:none"
         d="m 4672.09,48.1992 c 0,0 693.39,1694.9008 597.09,2735.0008 0,0 661.29,-1008 -468.69,-2741.3992 l -128.4,6.3984" /><path
         id="path90"
         style="fill:#f57a5d;fill-opacity:1;fill-rule:nonzero;stroke:none"
         d="M 5632.28,41 6337.96,304.902 6796.94,41 Z" /><path
         id="path92"
         style="fill:#f57a5d;fill-opacity:1;fill-rule:nonzero;stroke:none"
         d="m 2548.15,25.8008 c 0,0 277.36,480.0002 1248.13,629.3982 C 4767.04,804.5 5540.46,36.4023 5540.46,36.4023 L 2548.15,25.8008" /><path
         id="path94"
         style="fill:#f57a5d;fill-opacity:1;fill-rule:nonzero;stroke:none"
         d="m 11565.8,49.5 -778.5,813.102 -386.5,-109.403 -745.06,1157.301 -59.98,-1.3 -200.75,-4.4 C 9241.73,1901.4 9104.88,1808 9046,1666.4 v 0 l -508.07,-509.7 -76.57,-157.899 -706.88,-271 -154.73,-318.5 L 6634.99,27 8014.36,76.8008 7995.55,38 11565.8,49.5" /><path
         id="path96"
         style="fill:#f04a25;fill-opacity:1;fill-rule:nonzero;stroke:none"
         d="M 11565.8,49.5 7995.55,38 8537.93,1156.7 9046,1666.4 v 0 c 58.88,141.6 195.73,235 349.01,238.4 l 200.75,4.4 495.84,-1155.598 309.2,-0.403 386.5,109.403 -84.3,-229 862.8,-584.102" /><g
         transform="scale(1.05988)"
         id="g98"><path
           id="path100"
           style="fill:#2e2d3f;fill-opacity:1;fill-rule:nonzero;stroke:none"
           d="m 16300,1192.59 c 0,-188.04 -124.4,-340.509 -277.7,-340.509 -153.4,0 -277.7,152.469 -277.7,340.509 0,187.95 124.3,340.42 277.7,340.42 153.3,0 277.7,-152.47 277.7,-340.42" /></g><g
         transform="scale(1.1741)"
         id="g102"><path
           id="path104"
           style="fill:#2e2d3f;fill-opacity:1;fill-rule:nonzero;stroke:none"
           d="m 16300,2614.25 -22.9,-178.44 -8.8,-68.98 -297.1,-2319.3038 h -1619 l -129.4,1010.8938 -84.3,657.27 -115.1,898.56 H 16300" /></g><g
         transform="scale(1.17245)"
         id="g106"><path
           id="path108"
           style="fill:#1e1f2f;fill-opacity:1;fill-rule:nonzero;stroke:none"
           d="m 16300,2439.24 -8.8,-69.08 -297.6,-2322.5668 h -516.3 V 2515.92 c 354.9,59.36 622.4,22.26 822.7,-76.68" /></g><g
         transform="scale(1.18833)"
         id="g110"><path
           id="path112"
           style="fill:#2e2d3f;fill-opacity:1;fill-rule:nonzero;stroke:none"
           d="m 16300,2832.73 v -249.77 h -2639.5 v 249.77 H 16300" /></g><g
         transform="scale(1.1741)"
         id="g114"><path
           id="path116"
           style="fill:#2e2d3f;fill-opacity:1;fill-rule:nonzero;stroke:none"
           d="m 16300,2614.25 -31.7,-247.42 -2244.9,247.42 H 16300" /></g><g
         transform="scale(1.18833)"
         id="g118"><path
           id="path120"
           style="fill:#1e1f2f;fill-opacity:1;fill-rule:nonzero;stroke:none"
           d="m 16300,2832.73 v -249.77 h -1254.5 l -299.7,249.77 H 16300" /></g><g
         transform="scale(1.07939)"
         id="g122"><path
           id="path124"
           style="fill:#f8b633;fill-opacity:1;fill-rule:nonzero;stroke:none"
           d="m 16300,1555.05 c 0,-283.31 -229.9,-512.98 -513.2,-512.98 -119.2,0 -228.9,40.58 -316,109.23 l -91.6,714.94 c 93.6,122.57 241.3,201.79 407.6,201.79 283.3,0 513.2,-229.67 513.2,-512.98" /></g><path
         id="path126"
         style="fill:#f04a25;fill-opacity:1;fill-rule:nonzero;stroke:none"
         d="M 11827.3,35.4023 12422.8,474.203 13034.9,724 13629.4,64.3984 11827.3,35.4023" /><g
         transform="scale(1.18499)"
         id="g128"><path
           id="path130"
           style="fill:#f8d49f;fill-opacity:1;fill-rule:nonzero;stroke:none"
           d="M 16259.4,0 H 40.6023 C 18.1766,0 0,18.1436 0,40.5925 v 0 C 0,63.038 18.1766,81.1816 40.6023,81.1816 H 16259.4 c 22.5,0 40.6,-18.1436 40.6,-40.5891 v 0 C 16300,18.1436 16281.9,0 16259.4,0" /></g><path
         id="path132"
         style="fill:#d68c39;fill-opacity:1;fill-rule:nonzero;stroke:none"
         d="m 8014.84,96.1016 h 2994.06 c 0,0 14.4,108.1994 15.9,266.3004 0.2,28.899 0.2,59.496 -0.5,91.399 -5.1,220.5 -38.2,503.699 -154.5,733.099 0,0 -108.2,-210.498 -310.6,-263.4 h -0.3 c -121.9,-31.602 -277.5,-6.098 -464.3,156.4 l 37.4,107 -172.79,63.4 -89.1,32.8 -1117.47,-582.799 c -163.77,0 -317.98,-53.403 -443.32,-145.699 -70.98,-52.403 -132.67,-117.2 -181.63,-192.2 C 8090.24,305.199 8060.12,242 8039.07,174.203 l -24.23,-78.1014" /><path
         id="path134"
         style="fill:#fcd7eb;fill-opacity:1;fill-rule:nonzero;stroke:none"
         d="m 8014.84,96 h 2994.06 c 0,0 14.4,108.203 15.9,266.402 H 8127.69 c -37.45,-57.3 -67.57,-120.504 -88.62,-188.3 L 8014.84,96" /><path
         id="path136"
         style="fill:#211c1d;fill-opacity:1;fill-rule:nonzero;stroke:none"
         d="m 10914.9,453.699 h 109.4 c -5.1,220.504 -38.2,503.801 -154.5,733.101 0,0 -108.2,-210.499 -310.6,-263.398 373.8,-52.8 355.7,-469.703 355.7,-469.703" /><path
         id="path138"
         style="fill:#211c1d;fill-opacity:1;fill-rule:nonzero;stroke:none"
         d="m 8799.39,362.402 h 1023.73 l 116.51,116.7 H 8916.16 l -116.77,-116.7" /><path
         id="path140"
         style="fill:#211c1d;fill-opacity:1;fill-rule:nonzero;stroke:none"
         d="m 9692.05,1242.1 192.04,-168 c 10.17,-8.9 11.2,-24.4 2.3,-34.5 h -0.01 c -8.9,-10.2 -24.35,-11.2 -34.53,-2.3 l -192.03,168 c -10.17,8.9 -11.2,24.3 -2.3,34.5 v 0 c 8.9,10.2 24.36,11.2 34.53,2.3" /><path
         id="path142"
         style="fill:#211c1d;fill-opacity:1;fill-rule:nonzero;stroke:none"
         d="m 9515.61,1147.6 192.04,-167.998 c 10.17,-8.903 11.2,-24.403 2.3,-34.602 v 0 c -8.9,-10.098 -24.36,-11.199 -34.53,-2.301 L 9483.38,1110.8 c -10.17,8.9 -11.2,24.3 -2.3,34.5 v 0 c 8.9,10.2 24.36,11.2 34.53,2.3" /><path
         id="path144"
         style="fill:#211c1d;fill-opacity:1;fill-rule:nonzero;stroke:none"
         d="M 9339.17,1053.1 9531.21,885 c 10.17,-8.898 11.2,-24.301 2.3,-34.5 v 0 c -8.9,-10.199 -24.36,-11.199 -34.53,-2.301 L 9306.94,1016.2 c -10.17,8.9 -11.2,24.4 -2.3,34.6 v 0 c 8.9,10.1 24.36,11.2 34.53,2.3" /><path
         id="path146"
         style="fill:#211c1d;fill-opacity:1;fill-rule:nonzero;stroke:none"
         d="m 9162.74,958.5 192.03,-168 c 10.18,-8.898 11.21,-24.398 2.3,-34.5 h -0.01 c -8.9,-10.199 -24.36,-11.199 -34.53,-2.301 l -192.02,168.004 c -10.18,8.899 -11.21,24.297 -2.31,34.496 h 0.01 c 8.9,10.203 24.36,11.203 34.53,2.301" /><path
         id="path148"
         style="fill:#211c1d;fill-opacity:1;fill-rule:nonzero;stroke:none"
         d="m 8986.3,864 192.03,-168 c 10.17,-8.898 11.21,-24.398 2.31,-34.598 v 0 c -8.9,-10.101 -24.36,-11.203 -34.53,-2.3 l -192.04,168.097 c -10.17,8.903 -11.2,24.301 -2.3,34.504 v 0 c 8.89,10.195 24.36,11.199 34.53,2.297" /><path
         id="path150"
         style="fill:#555365;fill-opacity:1;fill-rule:nonzero;stroke:none"
         d="m 10132,1186.9 -37.4,-107 c 186.8,-162.498 342.4,-188.002 464.3,-156.4 h 0.3 c 202.4,52.902 310.6,263.4 310.6,263.4 l 12.5,189 1.7,24.5 3.2,48.7 1.7,24.4 3.7,56.4 h -873.2 l -12.2,-56.4 -5.2,-24.4 -10.47,-48.7 -5.14,-24.5 -27.18,-125.6 172.79,-63.4" /><path
         id="path152"
         style="fill:#ffffff;fill-opacity:1;fill-rule:nonzero;stroke:none"
         d="m 10002,1449.1 h 885.2 l 1.7,24.4 h -881.7 l -5.2,-24.4" /><path
         id="path154"
         style="fill:#ffffff;fill-opacity:1;fill-rule:nonzero;stroke:none"
         d="m 9986.39,1375.9 h 895.91 l 1.7,24.5 h -892.47 l -5.14,-24.5" /><path
         id="path156"
         style="fill:#e6ac5e;fill-opacity:1;fill-rule:nonzero;stroke:none"
         d="m 8769.23,96.1016 h 2994.07 c 0,0 14.4,108.1994 15.9,266.3004 0.2,28.899 0.2,59.496 -0.5,91.399 -5.2,220.5 -38.2,503.699 -154.5,733.099 0,0 -108.2,-210.498 -310.6,-263.4 h -0.3 c -121.9,-31.602 -277.6,-6.098 -464.3,156.4 l 37.4,107 -172.8,63.4 -89.1,32.8 -1117.48,-582.799 c -163.76,0 -317.97,-53.403 -443.31,-145.699 -70.99,-52.403 -132.67,-117.2 -181.63,-192.2 C 8844.63,305.199 8814.51,242 8793.46,174.203 l -24.23,-78.1014" /><path
         id="path158"
         style="fill:#fcd7eb;fill-opacity:1;fill-rule:nonzero;stroke:none"
         d="m 8769.23,96 h 2994.07 c 0,0 14.4,108.203 15.9,266.402 H 8882.08 c -37.45,-57.3 -67.57,-120.504 -88.62,-188.3 L 8769.23,96" /><path
         id="path160"
         style="fill:#211c1d;fill-opacity:1;fill-rule:nonzero;stroke:none"
         d="m 11669.3,453.699 h 109.4 c -5.2,220.504 -38.2,503.801 -154.5,733.101 0,0 -108.2,-210.499 -310.6,-263.398 373.8,-52.8 355.7,-469.703 355.7,-469.703" /><path
         id="path162"
         style="fill:#211c1d;fill-opacity:1;fill-rule:nonzero;stroke:none"
         d="m 9553.78,362.402 h 1023.72 l 116.5,116.7 H 9670.55 l -116.77,-116.7" /><path
         id="path164"
         style="fill:#211c1d;fill-opacity:1;fill-rule:nonzero;stroke:none"
         d="m 10446.4,1242.1 192.1,-168 c 10.1,-8.9 11.2,-24.4 2.3,-34.5 v 0 c -8.9,-10.2 -24.4,-11.2 -34.6,-2.3 l -192,168 c -10.2,8.9 -11.2,24.3 -2.3,34.5 v 0 c 8.9,10.2 24.4,11.2 34.5,2.3" /><path
         id="path166"
         style="fill:#211c1d;fill-opacity:1;fill-rule:nonzero;stroke:none"
         d="m 10270,1147.6 192,-167.998 c 10.2,-8.903 11.2,-24.403 2.3,-34.602 v 0 c -8.9,-10.098 -24.3,-11.199 -34.5,-2.301 l -192,168.101 c -10.2,8.9 -11.2,24.3 -2.3,34.5 v 0 c 8.9,10.2 24.3,11.2 34.5,2.3" /><path
         id="path168"
         style="fill:#211c1d;fill-opacity:1;fill-rule:nonzero;stroke:none"
         d="m 10093.6,1053.1 192,-168.1 c 10.2,-8.898 11.2,-24.301 2.3,-34.5 v 0 c -8.9,-10.199 -24.4,-11.199 -34.5,-2.301 l -192.1,168.001 c -10.1,8.9 -11.2,24.4 -2.3,34.6 v 0 c 8.9,10.1 24.4,11.2 34.6,2.3" /><path
         id="path170"
         style="fill:#211c1d;fill-opacity:1;fill-rule:nonzero;stroke:none"
         d="m 9917.13,958.5 192.07,-168 c 10.1,-8.898 11.2,-24.398 2.3,-34.5 h -0.1 c -8.9,-10.199 -24.3,-11.199 -34.5,-2.301 l -192.01,168.004 c -10.17,8.899 -11.2,24.297 -2.3,34.496 h 0.01 c 8.9,10.203 24.36,11.203 34.53,2.301" /><path
         id="path172"
         style="fill:#211c1d;fill-opacity:1;fill-rule:nonzero;stroke:none"
         d="m 9740.69,864 192.03,-168 c 10.17,-8.898 11.2,-24.398 2.31,-34.598 v 0 c -8.9,-10.101 -24.37,-11.203 -34.54,-2.3 l -192.03,168.097 c -10.17,8.903 -11.21,24.301 -2.31,34.504 v 0 c 8.9,10.195 24.36,11.199 34.54,2.297" /><path
         id="path174"
         style="fill:#555365;fill-opacity:1;fill-rule:nonzero;stroke:none"
         d="m 10886.4,1186.9 -37.4,-107 c 186.7,-162.498 342.4,-188.002 464.3,-156.4 h 0.3 c 202.4,52.902 310.6,263.4 310.6,263.4 l 12.5,189 1.7,24.5 3.2,48.7 1.7,24.4 3.7,56.4 h -873.2 l -12.2,-56.4 -5.2,-24.4 -10.5,-48.7 -5.1,-24.5 -27.2,-125.6 172.8,-63.4" /><path
         id="path176"
         style="fill:#ffffff;fill-opacity:1;fill-rule:nonzero;stroke:none"
         d="m 10756.4,1449.1 h 885.2 l 1.7,24.4 h -881.7 l -5.2,-24.4" /><path
         id="path178"
         style="fill:#ffffff;fill-opacity:1;fill-rule:nonzero;stroke:none"
         d="m 10740.8,1375.9 h 895.9 l 1.7,24.5 h -892.5 l -5.1,-24.5" /><path
         id="path180"
         style="fill:#2e2d3f;fill-opacity:1;fill-rule:nonzero;stroke:none"
         d="M 8528.95,8412.93 C 8669.96,7163 10000.9,1467 10000.9,1467 h 342.7 c 145.1,-382.4 660.9,-389.5 1000.7,-348.8 179.7,21.5 309.9,56.5 309.9,56.5 0,0 10,5222.1 0,6966.02 -10.3,1744.13 -494,2328.68 -494,2328.68 l -67.8,322.2 -37.5,177.2 c 0,0 -1246.19,-480.3 -1880.92,-480.3 -239.17,0 -391.43,68.1 -357.65,255.6 l -126.07,-617.4 c 0,0 -302.55,-463.63 -161.31,-1713.77" /><path
         id="path182"
         style="fill:#1e1f2f;fill-opacity:1;fill-rule:nonzero;stroke:none"
         d="m 10862.1,6567.7 473.1,-4006.2 9.1,-1443.3 c 179.7,21.5 309.9,56.5 309.9,56.5 0,0 10,5222.1 0,6966.02 -10.3,1744.13 -494,2328.68 -494,2328.68 l -67.8,322.2 -503.5,-459.5 -131.2,-3250.3 c 0,0 -58.3,-514.1 404.4,-514.1" /><g
         transform="scale(1.03205)"
         id="g184"><path
           id="path186"
           style="fill:#f57a5d;fill-opacity:1;fill-rule:nonzero;stroke:none"
           d="m 8679.38,16300 c 0,0 22.77,-436.9 157.26,-844.6 130.45,-395.7 374.52,-868.8 791.95,-740 21.59,6.6 43.89,14.9 66.46,24.9 79.45,35.1 164.82,91.5 256.38,173.3 0,0 452.57,134.8 603.37,420.1 l -118.1,277.3 -150.9,102 c 0,0 89.7,318 -110,436.2 -199.95,118.3 -261.19,-175.3 -252.86,-285.4 0,0 -75.38,14.2 -193.79,42.7 -257.33,62.2 -717.7,192.4 -1049.77,393.5" /></g><g
         transform="scale(1.08166)"
         id="g188"><path
           id="path190"
           style="fill:#211c1d;fill-opacity:1;fill-rule:nonzero;stroke:none"
           d="m 8158.92,15259.4 c 68.57,-245.5 210.24,-437 272.48,-512.8 -128.32,389 -150.04,805.9 -150.04,805.9 316.83,-191.9 756.1,-316.2 1001.62,-375.5 112.98,-27.1 184.91,-40.7 184.91,-40.7 -7.95,105 50.48,385.2 241.29,272.3 190.55,-112.7 104.93,-416.2 104.93,-416.2 l 143.95,-97.3 c 368.44,1222.3 -564.87,1574.6 -1277.72,1333.8 -188.75,-63.8 -339.92,-189.8 -435.64,-348 -109.55,-180.4 -146.89,-402.6 -85.78,-621.5" /></g><g
         transform="scale(1.0563)"
         id="g192"><path
           id="path194"
           style="fill:#171514;fill-opacity:1;fill-rule:nonzero;stroke:none"
           d="m 9955.07,15928.4 c 0,-205.3 166.33,-371.7 371.53,-371.7 205.3,0 371.7,166.4 371.7,371.7 0,205.2 -166.4,371.6 -371.7,371.6 -205.2,0 -371.53,-166.4 -371.53,-371.6" /></g><path
         id="path196"
         style="fill:#d36135;fill-opacity:1;fill-rule:nonzero;stroke:none"
         d="m 11425.6,12265.9 66.3,374.3 c 0,0 114.6,-193.3 175.1,-410.5 z M 9174.01,10488.5 c 375.51,0 964.99,168.2 1383.79,305.5 94.7,30.9 180.7,60.5 253.4,85.9 149.8,52.7 243.8,88.9 243.8,88.9 85.7,90.8 145.4,202.9 173.8,324.4 l 57.8,247.9 c 0,0 300.6,-132.7 615.8,-193.8 115.8,-22.6 233.3,-35.3 338.8,-28.2 68.3,4.4 131.2,17.1 185.3,41.1 63.9,27.9 115.3,71.5 147.9,134.7 219.1,425.2 -353.5,3055.7 -500.8,3228.3 -38.7,45.5 -111.2,98.9 -196.9,153 -18.8,11.9 -37.9,23.7 -57.7,35.4 -25,15 -50.9,30.2 -76.9,44.8 -10,5.7 -20.3,11.3 -30.3,16.9 -208.1,115.6 -421.1,212.8 -421.1,212.8 l -289.3,597.7 c -19.6,40.2 -66.9,58.3 -108.2,41.4 -155.7,-294.5 -622.8,-433.5 -622.8,-433.5 -94.5,-84.5 -182.6,-142.7 -264.6,-179 l 47.5,-195.1 c 0,0 -656.53,-109.4 -778.68,-361.7 -59.49,-123.4 -169.15,-1054.6 -266.09,-1975.5 -10.53,-100.4 -21.05,-200.7 -31.09,-300.1 -2.2,-22.5 -4.65,-45.3 -6.85,-67.8 -19.34,-187.8 -37.46,-370.2 -54.11,-540 -56.78,-577.5 -96.44,-1010.1 -96.44,-1010.1 l -3.67,-18.3 c -33.78,-187.5 118.47,-255.6 357.64,-255.6" /><path
         id="path198"
         style="fill:#c296d1;fill-opacity:1;fill-rule:nonzero;stroke:none"
         d="m 7491.77,12887.2 557.15,-234.5 167.92,-70.8 27.91,-11.7 155.68,-65.6 114.81,-48.2 174.78,-73.7 109.42,-46 87.64,-37 83.47,12.7 50.67,7.6 436.71,66.1 130.96,19.8 -580.4,274.5 -92.78,43.8 24.48,701.8 -1444.5,514.1 -3.92,-1052.9" /><path
         id="path200"
         style="fill:#3e3e52;fill-opacity:1;fill-rule:nonzero;stroke:none"
         d="m 7491.77,12887.2 557.15,-234.5 167.92,-70.8 27.91,-11.7 155.68,-65.6 114.81,-48.2 174.78,-73.7 109.42,-46 87.64,-37 83.47,12.7 50.67,7.6 436.71,66.1 130.96,19.8 -580.4,274.5 -92.78,43.8 -263.39,112.6 -126.55,54.1 -136.36,58.2 -283.21,121.2 -614.43,-183.1" /><path
         id="path202"
         style="fill:#f57a5d;fill-opacity:1;fill-rule:nonzero;stroke:none"
         d="m 8967.86,13021.4 c 13.95,0.9 27.41,0.9 41.12,-0.8 0,0 -15.42,0.8 -41.12,0.8 z m -442.09,-130.5 c 108.69,116.3 345.16,130 441.35,130.5 -129.24,-9.8 -259.23,-127.8 -314.8,-184.6 l 263.39,-112.6 673.18,-318.3 -130.96,-19.8 403.91,-188 157.36,437.5 c 0,0 -581.58,546.8 -1023.44,573 -352.73,20.8 -543.68,-178.2 -606.35,-259.5 l 136.36,-58.2" /><path
         id="path204"
         style="fill:#eaa411;fill-opacity:1;fill-rule:nonzero;stroke:none"
         d="m 8967.86,13021.4 c 25.7,0 41.12,-0.8 41.12,-0.8 -13.71,1.7 -27.17,1.7 -41.12,0.8" /><path
         id="path206"
         style="fill:#f04a25;fill-opacity:1;fill-rule:nonzero;stroke:none"
         d="m 8123.34,12360.4 c 30.1,-120.2 147.36,-120.2 147.36,-120.2 135.36,-90.3 222.75,-57.3 222.75,-57.3 35.75,-10.5 69.28,-11.2 99.88,-5.1 104.28,20.1 177.72,116 206.11,158.9 0,0 44.8,38.9 29.63,55.5 -15.18,16.9 -74.67,16.9 -74.67,16.9 0,0 1.47,1.5 3.92,4 16.4,16.6 77.84,85.1 32.56,119.4 -40.15,30.9 -203.91,-41.8 -275.64,-76.1 l -114.81,48.2 c 97.43,116.8 57.77,158.6 13.95,182.1 -40.13,21.1 -136.34,-79.5 -169.63,-116.5 l -27.91,11.7 c 75.89,89.4 59.98,141.8 -0.73,158.2 -62.43,16.6 -167.19,-87.4 -167.19,-87.4 -22.04,-39.9 -53.37,-105.3 -60.96,-166 -11.99,-96.2 135.38,-126.3 135.38,-126.3" /><path
         id="path208"
         style="fill:#b3522d;fill-opacity:1;fill-rule:nonzero;stroke:none"
         d="m 8593.33,12177.8 323.13,-405.4 c 16.64,169.9 34.75,352.3 54.09,540 l -83.47,-12.7 -87.64,37 c -28.39,-42.9 -101.83,-138.8 -206.11,-158.9" /><path
         id="path210"
         style="fill:#eaa411;fill-opacity:1;fill-rule:nonzero;stroke:none"
         d="m 8690.26,10126.7 c 114.08,-400.96 1256.02,-81.8 1946.54,152.3 306,103.5 523.4,190.4 523.4,190.4 l -105.3,499.4 c 0,0 -170.8,-65.9 -418.1,-148.6 -420.8,-141.3 -1063.08,-331.7 -1462.82,-331.7 -239.17,0 -391.43,68.1 -357.65,255.6 l -126.07,-617.4" /><g
         transform="scale(1.03)"
         id="g212"><path
           id="path214"
           style="fill:#f04a25;fill-opacity:1;fill-rule:nonzero;stroke:none"
           d="m 9647.83,14744.7 c 21.63,6.7 43.97,15 66.58,25 79.61,35.2 165.15,91.7 256.9,173.7 0,0 453.49,135 604.59,420.9 l -118.4,277.9 -151.1,102.2 c 0,0 89.9,318.7 -110.2,437 -200.43,118.6 -261.78,-175.6 -253.44,-285.9 0,0 -75.53,14.3 -194.17,42.8 116.5,-284 311.31,-912.4 -100.76,-1193.6" /></g><path
         id="path216"
         style="fill:#1e1f2f;fill-opacity:1;fill-rule:nonzero;stroke:none"
         d="m 9321.49,8402.39 802.71,-2452.79 557.5,-3333.6 -338.1,-1149 159.7,1093.2 -657.8,3400.5 -735.84,2397.09 c 0,0 -312.18,379.07 -345.62,1025.73 0,0 133.79,-747 557.45,-981.13" /><path
         id="path218"
         style="fill:#b3522d;fill-opacity:1;fill-rule:nonzero;stroke:none"
         d="m 10909.8,12365.8 515.8,-99.9 66.3,374.3 -332.4,677.8 c 0,0 185,1426.9 717.2,1558.1 -18.8,12 -37.9,23.8 -57.8,35.5 -125.5,-39.6 -432.7,-211 -622.5,-947.8 -235,-912.6 -283.7,-1557.1 -286.6,-1598" /><path
         id="path220"
         style="fill:#b3522d;fill-opacity:1;fill-rule:nonzero;stroke:none"
         d="m 10811.1,10879.9 c 149.8,52.7 243.8,88.9 243.8,88.9 85.7,90.8 145.4,202.9 173.8,324.3 l 57.8,248 -423.7,120 c -21.1,-253.7 -38,-518.5 -51.7,-781.2" /><path
         id="path222"
         style="fill:#b3522d;fill-opacity:1;fill-rule:nonzero;stroke:none"
         d="m 10053.8,15017.4 c 16.6,-8.3 428.3,-211 1061.6,9.8 0,0 666.6,-265.1 795.8,-434.3 129.3,-169.1 676.4,-2699 543.7,-3044 -67.6,-176 -320.7,-210.2 -552.5,-201.7 279.1,-54.1 569.1,-52.1 672,147.6 219,425.2 -353.5,3055.8 -500.9,3228.3 -38.7,45.6 -111.1,98.9 -196.8,153 -18.8,12 -37.9,23.8 -57.8,35.5 -24.9,15 -50.9,30.1 -76.8,44.8 -10.1,5.7 -20.3,11.3 -30.4,16.9 -208.1,115.6 -421,212.7 -421,212.7 l -289.4,597.8 c -19.5,40.2 -66.8,58.3 -108.2,41.4 -155.6,-294.5 -622.7,-433.5 -622.7,-433.5 l 105.5,-351.3 c 0,0 -161.1,-59 -322.1,-23" /><path
         id="path224"
         style="fill:#f8d49f;fill-opacity:1;fill-rule:nonzero;stroke:none"
         d="m 10557.8,10794 c 49.2,562.3 98.2,925.6 98.2,925.6 l 207.1,-55.8 c 0,-1 -0.3,-1.7 -0.3,-2.7 -21,-253.6 -37.9,-518.5 -51.6,-781.2 -1.3,-21.7 -2.5,-43.5 -3.5,-65.1 -8.3,-163.7 -15.4,-326 -21.3,-484.2 -35,-918.17 -34.7,-1688.28 -34.7,-1689.75 h 1350.5 l 139,2678.25 c 68.3,4.4 131.2,17.1 185.3,41.1 V 7081.8 c 0,-193.4 -156.9,-350.1 -350.3,-350.1 H 10808 c -193.4,0 -350.3,156.7 -350.3,350.1 v 1559.05 c 0,808.3 50.2,1583.05 100.1,2153.15" /><path
         id="path226"
         style="fill:#f8d49f;fill-opacity:1;fill-rule:nonzero;stroke:none"
         d="m 11832.6,14915.8 c -4.4,-1.2 -8.8,-2.5 -13.7,-4.2 -125.5,-39.6 -432.7,-211 -622.5,-947.8 -235,-912.6 -283.7,-1557.1 -286.6,-1598 -0.3,-1.5 -0.3,-2.2 -0.3,-2.2 l -187.5,38.7 c 0,0 0.3,0.5 0.3,1.7 5.4,73.2 184.3,2383.3 989.4,2569.3 11.5,2.7 23.3,5.1 35.3,6.9 9.5,1.4 19.3,1.4 28.9,0 0.2,-0.3 0.2,-0.3 0.2,0 14.2,-2.5 28.1,-7.9 40.4,-16.2 l 21.8,-14.9 c 13,-9.1 9.8,-29.2 -5.7,-33.3" /><path
         id="path228"
         style="fill:#3e3e52;fill-opacity:1;fill-rule:nonzero;stroke:none"
         d="m 10571,7877.22 h 1745 v 627.7 h -1745 v -627.7" /><path
         id="path230"
         style="fill:#3e3e52;fill-opacity:1;fill-rule:nonzero;stroke:none"
         d="m 10693.4,6896.5 h 267.8 c 5.8,0 10.6,4.7 10.6,10.5 v 53.4 c 0,5.8 -4.8,10.5 -10.6,10.5 h -267.8 c -5.8,0 -10.5,-4.7 -10.5,-10.5 V 6907 c 0,-5.8 4.7,-10.5 10.5,-10.5" /><path
         id="path232"
         style="fill:#d98b17;fill-opacity:1;fill-rule:nonzero;stroke:none"
         d="m 10786.4,10330.6 c 224.7,79.3 373.8,138.8 373.8,138.8 l -105.3,499.4 c 0,0 -94.2,-36.2 -243.8,-88.9 -1.2,-21.8 -2.4,-43.5 -3.4,-65.1 -8.3,-163.7 -15.4,-326 -21.3,-484.2" /><g
         transform="scale(1.08166)"
         id="g234"><path
           id="path236"
           style="fill:#171514;fill-opacity:1;fill-rule:nonzero;stroke:none"
           d="m 8244.7,15880.9 c 716.93,186 1038.28,-703.9 1038.28,-703.9 112.98,-27.1 184.91,-40.7 184.91,-40.7 -7.95,105 50.48,385.2 241.29,272.3 190.55,-112.7 104.93,-416.2 104.93,-416.2 l 143.95,-97.3 c 368.44,1222.3 -564.87,1574.6 -1277.72,1333.8 -188.75,-63.8 -339.92,-189.8 -435.64,-348" /></g></g></g></svg>