<?xml version="1.0" encoding="UTF-8" standalone="no"?>
<svg
   xmlns:dc="http://purl.org/dc/elements/1.1/"
   xmlns:cc="http://creativecommons.org/ns#"
   xmlns:rdf="http://www.w3.org/1999/02/22-rdf-syntax-ns#"
   xmlns:svg="http://www.w3.org/2000/svg"
   xmlns="http://www.w3.org/2000/svg"
   viewBox="0 0 2530.8533 2366.7732"
   height="2366.7732"
   width="2530.8533"
   xml:space="preserve"
   id="svg2"
   version="1.1"><metadata
     id="metadata8"><rdf:RDF><cc:Work
         rdf:about=""><dc:format>image/svg+xml</dc:format><dc:type
           rdf:resource="http://purl.org/dc/dcmitype/StillImage" /></cc:Work></rdf:RDF></metadata><defs
     id="defs6" /><g
     transform="matrix(1.3333333,0,0,-1.3333333,0,2366.7733)"
     id="g10"><g
       transform="scale(0.1)"
       id="g12"><path
         id="path14"
         style="fill:#d36135;fill-opacity:1;fill-rule:nonzero;stroke:none"
         d="M 6085.22,799.199 V 160.801 H 4807.83 v 638.398 c 0,143.301 47.46,275.701 126.99,382.201 57.52,77 132.32,140.8 218.45,185.2 87.69,45.5 187.64,71.3 293.25,71.3 176.34,0 336.01,-71.3 451.68,-187 115.35,-115.7 187.02,-275.298 187.02,-451.701" /><path
         id="path16"
         style="fill:#d36135;fill-opacity:1;fill-rule:nonzero;stroke:none"
         d="m 4924.09,986.402 c 0,0 -556.12,758.998 -196.28,1432.898 0,0 588.83,-399.1 549.58,-1210.4 l -353.3,-222.498" /><path
         id="path18"
         style="fill:#2e2d3f;fill-opacity:1;fill-rule:nonzero;stroke:none"
         d="m 5153.27,1366.6 c -86.13,-44.4 -160.93,-108.2 -218.45,-185.2 -102.47,201.8 -321.87,705.7 -159.36,1039.5 0,0 317.77,-236.4 377.81,-854.3" /><path
         id="path20"
         style="fill:#d36135;fill-opacity:1;fill-rule:nonzero;stroke:none"
         d="m 5967.23,986.402 c 0,0 556.12,758.998 196.28,1432.898 0,0 -588.83,-399.1 -549.58,-1210.4 l 353.3,-222.498" /><path
         id="path22"
         style="fill:#2e2d3f;fill-opacity:1;fill-rule:nonzero;stroke:none"
         d="m 5738.05,1366.6 c 86.12,-44.4 160.93,-108.2 218.45,-185.2 102.47,201.8 321.86,705.7 159.36,1039.5 0,0 -317.77,-236.4 -377.81,-854.3" /><path
         id="path24"
         style="fill:#f57a5d;fill-opacity:1;fill-rule:nonzero;stroke:none"
         d="m 5636.69,723.5 c 0,-16.102 -2.2,-31.5 -6.29,-45.898 -119.76,22.898 -237,40.5 -351.72,53.699 4.08,95.597 82.35,171.301 178.85,171.301 99.01,0 179.16,-80.102 179.16,-179.102" /><path
         id="path26"
         style="fill:#171514;fill-opacity:1;fill-rule:nonzero;stroke:none"
         d="m 5748.09,973.699 c 0,-32.398 -26.23,-58.597 -58.58,-58.597 -32.35,0 -58.57,26.199 -58.57,58.597 0,32.301 26.22,58.601 58.57,58.601 32.35,0 58.58,-26.3 58.58,-58.601" /><path
         id="path28"
         style="fill:#171514;fill-opacity:1;fill-rule:nonzero;stroke:none"
         d="m 5290.46,987.102 c 0,-32.301 -26.22,-58.5 -58.57,-58.5 -32.35,0 -58.57,26.199 -58.57,58.5 0,32.398 26.22,58.598 58.57,58.598 32.35,0 58.57,-26.2 58.57,-58.598" /><path
         id="path30"
         style="fill:#d36135;fill-opacity:1;fill-rule:nonzero;stroke:none"
         d="m 4895.16,1030.2 -244.67,-112.001 113.72,-24.101 -110.27,-60.297 184.36,-62.102 56.86,258.501" /><path
         id="path32"
         style="fill:#d36135;fill-opacity:1;fill-rule:nonzero;stroke:none"
         d="m 5971.56,1030.2 244.67,-112.001 -113.72,-24.101 110.27,-60.297 -184.36,-62.102 -56.86,258.501" /><g
         transform="scale(1.07534)"
         id="g34"><path
           id="path36"
           style="fill:#2e2d3f;fill-opacity:1;fill-rule:nonzero;stroke:none"
           d="M 14462.8,2415.34 16038.3,7.71923 H 16300 L 14645.4,2539.67 14462.8,2415.34" /></g><g
         transform="scale(1.0765)"
         id="g38"><path
           id="path40"
           style="fill:#2e2d3f;fill-opacity:1;fill-rule:nonzero;stroke:none"
           d="M 16300,2412.72 14927.7,3.9008 h -289.5 l 1499.6,2534.3192 162.2,-125.5" /></g><path
         id="path42"
         style="fill:#3e3e52;fill-opacity:1;fill-rule:nonzero;stroke:none"
         d="M 7953.91,2597.3 9648.14,8.30078 h 281.37 L 8150.25,2731 7953.91,2597.3" /><path
         id="path44"
         style="fill:#3e3e52;fill-opacity:1;fill-rule:nonzero;stroke:none"
         d="M 9948.53,2597.3 8471.18,4.19922 H 8159.65 L 9773.95,2732.4 9948.53,2597.3" /><g
         transform="scale(1.06549)"
         id="g46"><path
           id="path48"
           style="fill:#f39c13;fill-opacity:1;fill-rule:nonzero;stroke:none"
           d="M 16300,4163.62 V 2860.09 h -457.5 v 1580.96 l 457.5,-277.43" /></g><path
         id="path50"
         style="fill:#f39c13;fill-opacity:1;fill-rule:nonzero;stroke:none"
         d="M 9624.13,4436.3 V 3047.4 H 9136.7 v 1684.5 l 487.43,-295.6" /><path
         id="path52"
         style="fill:#2e2d3f;fill-opacity:1;fill-rule:nonzero;stroke:none"
         d="m 14926,23.6992 c 0,0 -40.1,1627.8008 280.2,2263.8008 0,0 -711.6,-355.8 -342.5,-2259.3984 l 62.3,-4.4024" /><path
         id="path54"
         style="fill:#2e2d3f;fill-opacity:1;fill-rule:nonzero;stroke:none"
         d="m 15069.1,47.6992 c 0,0 139.6,753.7028 409.4,1060.7008 0,0 -558.3,-172.099 -474.5,-1070.0016 l 65.1,9.3008" /><path
         id="path56"
         style="fill:#2e2d3f;fill-opacity:1;fill-rule:nonzero;stroke:none"
         d="m 14768.8,37 c 0,0 -370.4,905.398 -319,1461 0,0 -353.2,-538.398 250.4,-1464.3984 L 14768.8,37" /><g
         transform="scale(1.0765)"
         id="g58"><path
           id="path60"
           style="fill:#f8b633;fill-opacity:1;fill-rule:nonzero;stroke:none"
           d="M 16300,6119.72 V 4121.12 H 8049.84 v 1998.6 H 16300" /></g><g
         transform="scale(1.0765)"
         id="g62"><path
           id="path64"
           style="fill:#f8b633;fill-opacity:1;fill-rule:nonzero;stroke:none"
           d="M 7334.76,2830.83 V 2412.72 H 16300 v 418.11 H 7334.76" /></g><g
         transform="scale(1.0765)"
         id="g66"><path
           id="path68"
           style="fill:#f39c13;fill-opacity:1;fill-rule:nonzero;stroke:none"
           d="M 14447.2,2830.83 V 2412.72 H 16300 v 418.11 h -1852.8" /></g><g
         transform="scale(1.0765)"
         id="g70"><path
           id="path72"
           style="fill:#f39c13;fill-opacity:1;fill-rule:nonzero;stroke:none"
           d="m 16300,6119.72 v -1998.6 h -377.5 v 1998.6 h 377.5" /></g><g
         transform="scale(1.05157)"
         id="g74"><path
           id="path76"
           style="fill:#f39c13;fill-opacity:1;fill-rule:nonzero;stroke:none"
           d="M 16300,4218.83 H 8240.69 V 6264.82 H 10935.9 L 16300,4218.83" /></g><g
         transform="scale(1.07925)"
         id="g78"><path
           id="path80"
           style="fill:#f8d49f;fill-opacity:1;fill-rule:nonzero;stroke:none"
           d="m 971.163,53.4623 c 0,0 536.857,616.8157 1827.587,262.6817 1290.72,-354.0428 1599.13,1062.306 3049.77,91.452 1450.64,-970.949 2649.99,536.856 5551.28,-342.7362 0,0 1953.3,308.4532 2809.9,-11.3975 0,0 1484.9,194.2097 2090.3,11.3975 L 971.163,53.4623" /></g><path
         id="path82"
         style="fill:#f57a5d;fill-opacity:1;fill-rule:nonzero;stroke:none"
         d="m 1429.37,59.8008 c 0,0 443.89,357.1992 835.76,-10.4024 l -835.76,10.4024" /><path
         id="path84"
         style="fill:#3e3e52;fill-opacity:1;fill-rule:nonzero;stroke:none"
         d="m 4290.01,22.6992 c 0,0 73.44,2986.3008 -514.02,4153.0008 0,0 1305.46,-652.7 628.25,-4144.8016 l -114.23,-8.1992" /><path
         id="path86"
         style="fill:#3e3e52;fill-opacity:1;fill-rule:nonzero;stroke:none"
         d="m 4027.41,66.8008 c 0,0 -256.06,1382.6992 -751.1,1945.9992 0,0 1024.22,-315.8 870.59,-1963.1008 l -119.49,17.1016" /><path
         id="path88"
         style="fill:#3e3e52;fill-opacity:1;fill-rule:nonzero;stroke:none"
         d="m 4578.42,47.1992 c 0,0 679.49,1661.0008 585.12,2680.2008 0,0 648.03,-987.7 -459.29,-2686.5016 l -125.83,6.3008" /><path
         id="path90"
         style="fill:#f57a5d;fill-opacity:1;fill-rule:nonzero;stroke:none"
         d="M 5519.36,40.1992 6210.9,298.801 6660.68,40.1992 Z" /><path
         id="path92"
         style="fill:#f57a5d;fill-opacity:1;fill-rule:nonzero;stroke:none"
         d="m 2497.06,25.3008 c 0,0 271.8,470.3982 1223.11,616.8012 C 4671.47,788.398 5429.38,35.6992 5429.38,35.6992 L 2497.06,25.3008" /><path
         id="path94"
         style="fill:#f57a5d;fill-opacity:1;fill-rule:nonzero;stroke:none"
         d="m 11333.9,48.5 -762.8,796.801 -378.8,-107.199 -730.15,1134.098 -58.78,-1.3 -196.72,-4.3 c -150.2,-3.3 -284.31,-94.9 -342.01,-233.6 v 0 L 8366.76,1133.6 8291.72,978.801 7599.01,713.199 7447.39,401.102 6501.96,26.5 l 1351.72,48.6992 -18.43,-38 L 11333.9,48.5" /><path
         id="path96"
         style="fill:#f04a25;fill-opacity:1;fill-rule:nonzero;stroke:none"
         d="M 11333.9,48.5 7835.25,37.1992 8366.76,1133.6 8864.64,1633 v 0 c 57.7,138.7 191.81,230.3 342.01,233.6 l 196.72,4.3 485.94,-1132.4 302.99,-0.398 378.8,107.199 -82.7,-224.403 845.5,-572.398" /><g
         transform="scale(1.03863)"
         id="g98"><path
           id="path100"
           style="fill:#2e2d3f;fill-opacity:1;fill-rule:nonzero;stroke:none"
           d="m 16300,1192.54 c 0,-188.04 -124.3,-340.453 -277.7,-340.453 -153.4,0 -277.7,152.413 -277.7,340.453 0,188.03 124.3,340.45 277.7,340.45 153.4,0 277.7,-152.42 277.7,-340.45" /></g><g
         transform="scale(1.15057)"
         id="g102"><path
           id="path104"
           style="fill:#2e2d3f;fill-opacity:1;fill-rule:nonzero;stroke:none"
           d="m 16300,2614.27 -22.9,-178.43 -8.9,-69.02 -297.1,-2319.2791 h -1618.9 l -129.5,1010.8891 -84.2,657.24 -115.2,898.6 H 16300" /></g><g
         transform="scale(1.14895)"
         id="g106"><path
           id="path108"
           style="fill:#1e1f2f;fill-opacity:1;fill-rule:nonzero;stroke:none"
           d="m 16300,2439.27 -8.9,-69.11 -297.5,-2322.552 h -516.4 V 2515.95 c 355,59.35 622.4,22.28 822.8,-76.68" /></g><g
         transform="scale(1.16448)"
         id="g110"><path
           id="path112"
           style="fill:#2e2d3f;fill-opacity:1;fill-rule:nonzero;stroke:none"
           d="m 16300.3,2832.77 v -249.73 h -2639.5 v 249.73 h 2639.5" /></g><g
         transform="scale(1.15057)"
         id="g114"><path
           id="path116"
           style="fill:#2e2d3f;fill-opacity:1;fill-rule:nonzero;stroke:none"
           d="m 16300,2614.27 -31.8,-247.45 -2244.9,247.45 H 16300" /></g><g
         transform="scale(1.16448)"
         id="g118"><path
           id="path120"
           style="fill:#1e1f2f;fill-opacity:1;fill-rule:nonzero;stroke:none"
           d="m 16300.3,2832.77 v -249.73 h -1254.6 l -299.6,249.73 h 1554.2" /></g><g
         transform="scale(1.05775)"
         id="g122"><path
           id="path124"
           style="fill:#f8b633;fill-opacity:1;fill-rule:nonzero;stroke:none"
           d="m 16300,1555.09 c 0,-283.33 -229.9,-512.97 -513.3,-512.97 -119.2,0 -228.8,40.56 -315.9,109.19 l -91.6,714.92 c 93.5,122.62 241.3,201.75 407.5,201.75 283.4,0 513.3,-229.55 513.3,-512.89" /></g><path
         id="path126"
         style="fill:#f04a25;fill-opacity:1;fill-rule:nonzero;stroke:none"
         d="m 11590.2,34.6992 583.6,429.9998 599.7,244.801 582.7,-646.3984 -1766,-28.4024" /><g
         transform="scale(1.16123)"
         id="g128"><path
           id="path130"
           style="fill:#f8d49f;fill-opacity:1;fill-rule:nonzero;stroke:none"
           d="M 16259.4,0 H 40.602 C 18.1784,0 0,18.1717 0,40.6458 v 0 c 0,22.39 18.1784,40.5616 40.602,40.5616 H 16259.4 c 22.4,0 40.6,-18.1716 40.6,-40.5616 v 0 C 16300,18.1717 16281.8,0 16259.4,0" /></g><path
         id="path132"
         style="fill:#d36135;fill-opacity:1;fill-rule:nonzero;stroke:none"
         d="m 12311.9,10848.1 321.6,-1974.22 -340,-152.47 -478,-213.98 c -0.2,0.49 -0.2,0.98 -0.5,1.46 -11.3,31.13 -191.9,539.26 -357.4,1242.02 -60.3,256.19 -118.8,538.29 -166.6,832.39 -7.9,48.6 -15.5,97.3 -22.6,146.4 L 9869.52,10865 9815.6,10705.9 9452.33,9635.46 9233.44,9350.63 8871.4,8879.51 8552.26,8979.03 7912.5,9178.56 8363.77,11429 c 0,0 -366.7,564 -259.59,1703.6 46.09,489.7 103.68,870.1 154.18,1144.4 22.31,120.8 70.35,232.6 138.74,329.2 115.2,163.5 288.5,283.6 491.22,330.7 l 626.27,145.3 129.43,29.9 168.38,219.9 c 78.69,102.7 197.8,162.5 323.6,167.2 v -138.3 c -43.7,-22 -113.3,-98.8 -100.3,-361.8 1.5,-29.1 3.9,-66.9 6.9,-112 38.7,-541.9 193.4,-2132 193.4,-2132 l 719.6,-244.9 c 0,0 0.3,1.2 0.8,3.7 19.1,101.5 426.2,2269.5 451.7,2407.3 17.9,97.5 -74,180.9 -132.6,222.8 v 126.5 l 5.6,-1.2 c 0,0 0.3,0 0.8,-0.3 185.8,-39.7 323.1,-197.6 337,-387.3 l 4.9,-68.4 c 0,0 79.4,-54.1 197.1,-136.7 305.4,-214 868.7,-619.2 970.4,-765.8 132.6,-190.9 280.2,-2685.7 -349.8,-3025 -39.9,-21.8 -83.1,-34.8 -129.6,-37.7" /><path
         id="path134"
         style="fill:#b3522d;fill-opacity:1;fill-rule:nonzero;stroke:none"
         d="m 11826.3,10470.9 -414,149.7 c 0,0 114.2,-1067.75 402.7,-2111.71 -11.3,31.13 -191.9,539.26 -357.4,1242.02 -60.3,256.19 -118.8,538.29 -166.6,832.39 -7.9,48.6 -15.5,97.3 -22.6,146.4 L 9869.52,10865 8459.11,11134.8 7912.5,9178.56 8363.77,11429 l 2924.03,-664.5 709.3,-186.3 -4.3,-17.9 c -17.8,-73.4 -95.5,-115.1 -166.5,-89.4" /><g
         transform="scale(1.05801)"
         id="g136"><path
           id="path138"
           style="fill:#f57a5d;fill-opacity:1;fill-rule:nonzero;stroke:none"
           d="m 10774.2,15084.2 c -15.5,-107.5 -56.8,-206.9 -117,-291.5 -30.5,-42.9 -65.9,-82 -105.4,-116.3 -5.1,-4.4 -10.2,-8.8 -15.5,-13 -115.4,-95 -263.2,-152 -424.4,-152 -216.86,0 -409.86,103.4 -531.69,263.5 -67.68,88 -113.52,193.2 -130.24,307.9 -196.22,-6.3 -263.88,535.4 -136.69,567.6 4.4,1.4 9.27,1.8 14.37,1.6 54.2,-2.3 90.35,-29 115.14,-62.1 v 419.3 c 0,125.2 79,231.7 189.5,272.7 31.47,11.6 65.59,18.1 101.22,18.1 h 756.69 c 160.8,0 291,-130.2 291,-290.8 v -442.9 c 23.8,43.5 63.9,82.9 130.2,85.7 4.4,0.2 8.6,-0.2 12.3,-1.2 133.4,-27.5 59,-602.3 -149.5,-566.6" /></g><g
         transform="scale(1.08902)"
         id="g140"><path
           id="path142"
           style="fill:#211c1d;fill-opacity:1;fill-rule:nonzero;stroke:none"
           d="m 10737.6,16090.7 -124.9,-885.4 c -3.6,0.9 -7.6,1.3 -12,1.1 -64.3,-2.7 -103.3,-41 -126.4,-83.3 v 430.4 c 0,138.6 -100,254.1 -232.1,277.7 -16.5,3.2 -33.3,4.7 -50.6,4.7 h -735.2 c -155.91,0 -282.44,-126.5 -282.44,-282.4 v -407.4 c -24.09,32.2 -59.2,58 -111.86,60.3 -4.96,0.2 -9.69,-0.2 -13.96,-1.6 l -140.01,784.4 c 827.15,612.7 1414.37,129.9 1414.37,129.9 271.1,95.9 415.1,-28.4 415.1,-28.4" /></g><path
         id="path144"
         style="fill:#f57a5d;fill-opacity:1;fill-rule:nonzero;stroke:none"
         d="m 11275.5,15650.9 v -765.3 c -329.2,-287.7 -629.4,-320.8 -629.4,-320.8 -124.6,51.5 -222.4,137.3 -297.4,229.2 -153.4,187.2 -212.7,400.3 -212.7,400.3 v 437.7 c 7.1,-9.3 14.4,-18.6 22.3,-27.7 7.1,-8.5 14.7,-17.1 22.5,-25.5 0.5,-0.5 1,-1.2 1.7,-1.9 6.2,-6.6 12.8,-13.3 19.2,-19.6 2.7,-2.7 5.6,-5.4 8.3,-7.9 7.3,-7.3 14.9,-14.2 22.8,-21.1 17.9,-15.7 36.5,-30.4 55.9,-44.1 2.7,-1.9 5.6,-4.1 8.6,-5.9 5.8,-4.1 11.7,-8.1 17.6,-12 11,-7.1 22.3,-14 33.8,-20.6 6.4,-3.6 13,-7.3 19.6,-10.8 19.6,-10.2 40,-19.8 60.8,-28.4 6.9,-2.9 13.8,-5.6 20.9,-8.3 7.1,-2.5 14.2,-5.2 21.3,-7.4 6.8,-2.4 14,-4.6 21.1,-7.1 0.2,0 0.2,0 0.5,0 14.4,-4.4 28.9,-8.3 43.8,-11.7 5.4,-1.3 11.1,-2.7 16.9,-3.7 6.4,-1.5 12.5,-2.7 18.9,-3.7 6.4,-1.2 12.8,-2.2 19.4,-3.2 5.1,-1 10.3,-1.5 15.4,-2.2 4.4,-0.7 8.8,-1.2 13.3,-1.7 4.6,-0.5 9.5,-1 14.2,-1.2 6.6,-0.8 13.2,-1.2 19.8,-1.7 h 1.3 c 13.9,-0.8 28.4,-1.3 42.6,-1.3 24.8,0 49.3,1.3 73.3,4 8.3,0.7 16.9,1.7 25.2,2.9 10.8,1.5 21.4,3.2 31.9,5.1 h 0.3 c 1.4,0.3 2.9,0.5 4.4,1 9,1.7 17.9,3.4 26.7,5.7 9.1,1.9 18.1,4.4 26.9,6.8 4,1 7.9,2.2 11.8,3.5 7.6,2.1 15.2,4.4 22.6,7.1 9.3,2.9 18.3,6.1 27.2,9.5 2.7,1 5.4,2 7.8,3.2 7.6,2.7 15.2,5.9 22.8,9.3 1,0.3 2,0.8 2.7,1.2 7.6,3.2 15.5,6.9 23.1,10.6 2.6,1.2 5.4,2.4 8,3.9 7.4,3.7 14.5,7.4 21.6,11.3 1.5,0.7 3.2,1.5 4.7,2.4 6.8,4 13.7,7.6 20.3,11.8 2.2,1 4.2,2.5 6.4,3.7 7.6,4.6 15.2,9.5 22.5,14.4 0.8,0.3 1.5,0.8 2.2,1.5 8.4,5.4 16.7,11.3 24.6,17.2 5.4,3.6 10.7,7.8 15.9,12 5.4,3.9 10.8,8.1 15.9,12.5 l 0.3,0.2 c 5.6,4.4 11,9.1 16.4,13.7 41.7,36.3 79.2,77.8 111.5,123.1" /><path
         id="path146"
         style="fill:#f38a9a;fill-opacity:1;fill-rule:nonzero;stroke:none"
         d="m 9120.69,9365.58 h 10.53 l -4.4,-24.51 z" /><g
         transform="scale(1.05684)"
         id="g148"><path
           id="path150"
           style="fill:#f04a25;fill-opacity:1;fill-rule:nonzero;stroke:none"
           d="m 10548,14679.7 c -115.5,-95.1 -263.5,-152.1 -424.9,-152.1 -217.07,0 -410.29,103.4 -532.26,263.7 -67.74,88.1 -113.63,193.4 -130.37,308.2 -196.45,-6.3 -264.18,536 -136.85,568.3 4.41,1.3 9.28,1.8 14.39,1.6 54.26,-2.4 90.44,-29 115.26,-62.2 v 419.8 c 0,125.3 79.1,232 189.71,273 v -1017.7 c 0,-451.5 449.52,-773.4 872.52,-615.3 10.8,4 21.6,8.2 32.5,12.7" /></g><g
         transform="scale(1.01158)"
         id="g152"><path
           id="path154"
           style="fill:#f04a25;fill-opacity:1;fill-rule:nonzero;stroke:none"
           d="m 11282.9,16199.9 v -311.6 c 0,0 118.1,21.3 131.2,216.5 13.1,195.2 -70.5,164 -131.2,95.1" /></g><path
         id="path156"
         style="fill:#f04a25;fill-opacity:1;fill-rule:nonzero;stroke:none"
         d="M 10348.7,15445.7 V 14794 c -153.4,187.2 -212.7,400.3 -212.7,400.3 v 437.7 c 7.1,-9.3 14.4,-18.6 22.3,-27.7 7.1,-8.5 14.7,-17.1 22.5,-25.5 0.5,-0.5 1,-1.2 1.7,-1.9 6.2,-6.6 12.8,-13.3 19.2,-19.6 2.7,-2.7 5.6,-5.4 8.3,-7.9 7.3,-7.3 14.9,-14.2 22.8,-21.1 17.9,-15.7 36.5,-30.4 55.9,-44.1 2.7,-1.9 5.6,-4.1 8.6,-5.9 5.8,-4.1 11.7,-8.1 17.6,-12 11,-7.1 22.3,-14 33.8,-20.6" /><path
         id="path158"
         style="fill:#f8d49f;fill-opacity:1;fill-rule:nonzero;stroke:none"
         d="m 11408.1,14921.2 c -7.3,-40 -46.8,-250.5 -99.5,-531.9 -133.8,-712.6 -353,-1879.1 -353,-1879.1 l -643.1,218.9 -46.6,15.7 -29.9,10.3 c 0,0 -181.7,1865.8 -200.3,2244 -13,263 56.6,339.8 100.3,361.8 v -166.6 c 0,0 59.3,-213.1 212.7,-400.3 75,-91.9 172.8,-177.7 297.4,-229.2 0,0 300.2,33.1 629.4,320.8 v 258.4 c 58.6,-41.9 150.5,-125.3 132.6,-222.8" /><path
         id="path160"
         style="fill:#f8d49f;fill-opacity:1;fill-rule:nonzero;stroke:none"
         d="m 11457.6,9750.91 c -136.5,-19.86 -305.6,-58.1 -498.8,-129.18 -139,-51.23 -290.4,-119.62 -450.7,-210.56 -632.69,-358.85 -1124.89,-144.37 -1274.66,-60.54 l 218.89,284.83 363.27,1070.44 53.92,159.1 1398.88,-135.3 c 7.1,-49.1 14.7,-97.8 22.6,-146.4 47.8,-294.1 106.3,-576.2 166.6,-832.39" /><path
         id="path162"
         style="fill:#2e2d3f;fill-opacity:1;fill-rule:nonzero;stroke:none"
         d="m 12293.5,8721.41 -16.4,-284.09 -113.3,-1958.02 -314.5,-5431.8 c 0,0.2 -0.2,0.2 -0.5,0.5 -12.7,8.6 -238.7,150.7 -780.7,-207.898 -44.6,-29.602 -91.6,-62.704 -140.6,-99.5 -0.5,-0.204 -1.3,-0.704 -1.8,-1.204 L 10475.5,7964.25 8118.65,858 c 0,0 -6.38,8.898 -18.39,24 -70.35,86.801 -334.34,381.9 -694.18,401.3 -31.13,1.7 -63.24,1.2 -95.84,-1.7 -22.3,-1.7 -44.85,-4.9 -67.89,-9.1 l 1309.91,7706.53 319.14,-99.52 362.04,471.12 c 149.77,-83.83 641.97,-298.31 1274.66,60.54 383.1,217.18 714.5,305.67 949.5,339.74 165.5,-702.76 346.1,-1210.89 357.4,-1242.02 l 0.5,-1.46 478,213.98" /><path
         id="path164"
         style="fill:#f57a5d;fill-opacity:1;fill-rule:nonzero;stroke:none"
         d="m 12158.4,10674.8 c 0,0 -14.2,-171.9 -161.3,-96.6 0,0 7.1,-125.5 -139.7,-71.8 -146.8,53.9 -569.6,258.1 -569.6,258.1 l 64.4,404.7 881.5,-311.6 c 0,0 82.3,-139.7 -75.3,-182.8" /><path
         id="path166"
         style="fill:#f57a5d;fill-opacity:1;fill-rule:nonzero;stroke:none"
         d="m 10121.5,12718.8 c 0,0 -197.56,-141.4 -197.56,-702 0,0 -146.83,-13.3 -226.99,10.8 -79.9,24 -472.09,322.8 -472.09,322.8 0,0 -9.07,26.2 -10.29,60 -0.98,27.2 2.93,59.4 20.82,86.8 0,0 5.4,74.8 61.28,120.1 56.14,45.4 824.83,101.5 824.83,101.5" /><path
         id="path168"
         style="fill:#2e2d3f;fill-opacity:1;fill-rule:nonzero;stroke:none"
         d="M 12925.2,16.3008 H 10803.9 V 300.398 l 121.8,439 c 0.5,-0.3 1,-0.496 1.5,-0.796 282.9,-169.102 570.9,265.798 570.9,265.798 h 364.7 l 455.4,-442.502 c 268.5,0 419.2,-129.199 503.5,-261.5 89,-140 103.5,-284.0972 103.5,-284.0972" /><path
         id="path170"
         style="fill:#f8d49f;fill-opacity:1;fill-rule:nonzero;stroke:none"
         d="M 12925.2,16.3008 H 10803.9 V 300.398 h 2017.8 c 89,-140 103.5,-284.0972 103.5,-284.0972" /><path
         id="path172"
         style="fill:#e6ac5e;fill-opacity:1;fill-rule:nonzero;stroke:none"
         d="m 11342.7,14764.3 -312.1,-708.1 -436.5,425.7 -381.7,-106.6 100.1,-1646.2 -76.5,26 c 0,0 -181.7,1865.8 -200.3,2244 -13,263 56.6,339.8 100.3,361.8 v -166.6 c 0,0 59.3,-213.1 212.7,-400.3 75,-91.9 172.8,-177.7 297.4,-229.2 0,0 300.2,33.1 629.4,320.8 0,0 -149.3,-249.7 -582.4,-403.7 l 301,-312 348.6,594.4" /><path
         id="path174"
         style="fill:#e6ac5e;fill-opacity:1;fill-rule:nonzero;stroke:none"
         d="m 11308.6,14389.3 c -133.8,-712.6 -353,-1879.1 -353,-1879.1 l -643.1,218.9 -46.6,15.7 -0.8,67.4 572.6,-119.6 470.9,1696.7" /><path
         id="path176"
         style="fill:#e6ac5e;fill-opacity:1;fill-rule:nonzero;stroke:none"
         d="m 10441.3,14509.6 -31.5,-1055.2 132.6,1064 z" /><path
         id="path178"
         style="fill:#211c1d;fill-opacity:1;fill-rule:nonzero;stroke:none"
         d="m 10676.2,14066.1 c 0,-27.9 -22.6,-50.5 -50.4,-50.5 -27.9,0 -50.5,22.6 -50.5,50.5 0,27.9 22.6,50.5 50.5,50.5 27.8,0 50.4,-22.6 50.4,-50.5" /><path
         id="path180"
         style="fill:#211c1d;fill-opacity:1;fill-rule:nonzero;stroke:none"
         d="m 10621.1,13578.8 c 0,-27.9 -22.6,-50.5 -50.5,-50.5 -27.9,0 -50.5,22.6 -50.5,50.5 0,27.8 22.6,50.5 50.5,50.5 27.9,0 50.5,-22.7 50.5,-50.5" /><path
         id="path182"
         style="fill:#b3522d;fill-opacity:1;fill-rule:nonzero;stroke:none"
         d="m 10955.6,12510.2 720,-323.6 434.9,1654.5 -302.5,-1474.9 770.5,1399.2 c 0,0 -444.4,-954.9 -642.9,-1370.8 0,0 99.3,18.9 562.5,18.9 0,0 -340.3,-42.6 -548.3,-160.8 0,0 425.4,37.9 713.8,-482.1 0,0 -307.3,434.9 -709.1,312 l 245.8,-505.8 -326.2,449 -918.5,484.4" /><path
         id="path184"
         style="fill:#b3522d;fill-opacity:1;fill-rule:nonzero;stroke:none"
         d="m 11497.4,14943.7 c -18.4,-226.9 -517.5,-2331.3 -541,-2429.8 19.1,101.5 426.2,2269.5 451.7,2407.3 17.9,97.5 -74,180.9 -132.6,222.8 v 108.6 l 5.6,16.7 c 0,0 0.3,0 0.8,-0.3 13.2,-5.4 233.6,-99.8 215.5,-325.3" /><path
         id="path186"
         style="fill:#b3522d;fill-opacity:1;fill-rule:nonzero;stroke:none"
         d="m 11686.6,14154.7 165.7,-161.5 -779,-1483.5 646.4,1471 -190.7,223.7 319.1,82.9 -224.3,526 c 0,0 79.4,-54.1 197.1,-136.7 l 168.2,-443.2 -302.5,-78.7" /><g
         transform="scale(1.08902)"
         id="g188"><path
           id="path190"
           style="fill:#171514;fill-opacity:1;fill-rule:nonzero;stroke:none"
           d="m 10322.5,16119.1 -80.3,-287.9 c -16.5,3.2 -33.3,4.7 -50.6,4.7 h -735.2 c -155.91,0 -282.44,-126.5 -282.44,-282.4 v -407.4 c -24.09,32.2 -59.2,58 -111.86,60.3 -4.96,0.2 -9.69,-0.2 -13.96,-1.6 l -140.01,784.4 c 827.15,612.7 1414.37,129.9 1414.37,129.9" /></g><path
         id="path192"
         style="fill:#b3522d;fill-opacity:1;fill-rule:nonzero;stroke:none"
         d="m 9551.36,14380.4 177.47,94.4 -188.75,90.7 -25.49,516.7 129.43,29.9 5.63,-482.4 237.76,-162.2 -211.53,-120.9 505.92,-1555 -630.44,1588.8" /><path
         id="path194"
         style="fill:#b3522d;fill-opacity:1;fill-rule:nonzero;stroke:none"
         d="m 10121.5,12718.8 c 0,0 -768.69,-56.1 -824.83,-101.5 -55.88,-45.3 -61.28,-120.1 -61.28,-120.1 -17.89,-27.4 -21.8,-59.6 -20.82,-86.8 l -371.6,2172.8 373.4,-1847.9 c 7.08,-35.1 45.74,-53.6 77.51,-37.2 v 0 c 19.35,10 30.78,30.7 28.94,52.4 l -164.63,1947.6 479.45,-1937.4 h 161.05 l -13.24,660.1 336.05,-702" /><path
         id="path196"
         style="fill:#b3522d;fill-opacity:1;fill-rule:nonzero;stroke:none"
         d="m 10136,15499.2 v -138.3 c -43.7,-22 -113.3,-98.8 -100.3,-361.8 1.5,-29.1 3.9,-66.9 6.9,-112 -30.7,51.2 -77.98,103.2 -141.7,109.8 -129.92,13.5 -292.18,-238 -292.18,-238 L 8397.1,14606.2 c 115.2,163.5 288.5,283.6 491.22,330.7 l 626.27,145.3 129.43,29.9 168.38,219.9 c 78.69,102.7 197.8,162.5 323.6,167.2" /><path
         id="path198"
         style="fill:#b3522d;fill-opacity:1;fill-rule:nonzero;stroke:none"
         d="m 12441.5,10885.8 c -39.9,-21.8 -83.1,-34.8 -129.6,-37.7 l -78.2,9.5 -881.5,311.6 -1655.25,858.4 226.99,-10.8 c 0,0 1938.16,-1019 2517.56,-1131" /><path
         id="path200"
         style="fill:#1e1f2f;fill-opacity:1;fill-rule:nonzero;stroke:none"
         d="m 11815,8508.89 -446.1,1036.12 c -453,-77.46 -894.9,-331.4 -894.9,-331.4 l -88.5,-674.08 -55.2,618.69 C 9965.6,8948.39 9357.95,9036.64 9357.95,9036.64 L 8960.38,8572.62 7406.08,1283.3 c -52.7,2.7 -107.36,-0.2 -163.73,-10.8 l 1309.91,7706.53 319.14,-99.52 362.04,471.12 c 149.77,-83.83 641.97,-298.31 1274.66,60.54 383.1,217.18 714.5,305.67 949.5,339.74 165.5,-702.76 346.1,-1210.89 357.4,-1242.02" /><path
         id="path202"
         style="fill:#e6ac5e;fill-opacity:1;fill-rule:nonzero;stroke:none"
         d="M 10023.7,10643.1 9789.85,9640.36 c 0,0 505.45,-110.06 1168.95,-18.63 -139,-51.23 -290.4,-119.62 -450.7,-210.56 -632.69,-358.85 -1124.89,-144.37 -1274.66,-60.54 l 218.89,284.83 363.27,1070.44 53.92,159.1 1398.88,-135.3 c 7.1,-49.1 14.7,-97.8 22.6,-146.4 47.8,-294.1 106.3,-576.2 166.6,-832.39 l -320.6,818.49 -1113.3,73.7" /><path
         id="path204"
         style="fill:#1e1f2f;fill-opacity:1;fill-rule:nonzero;stroke:none"
         d="m 10798.8,7832.12 269.3,-6992.018 c -45.1,-29.903 -92.6,-63.504 -142.4,-100.704 l -450.2,7224.852 c 428.7,103.43 824.5,577 824.5,577 -114.4,-393.91 -501.2,-709.13 -501.2,-709.13" /><path
         id="path206"
         style="fill:#e6ac5e;fill-opacity:1;fill-rule:nonzero;stroke:none"
         d="m 11849.3,1047.5 v -43.1 h -351.2 c 0,0 -288,-434.9 -570.9,-265.798 l 0.3,2 c 49,36.796 96,69.898 140.6,99.5 542,358.598 768,216.498 780.7,207.898 0.3,-0.3 0.5,-0.3 0.5,-0.5" /><path
         id="path208"
         style="fill:#f8d49f;fill-opacity:1;fill-rule:nonzero;stroke:none"
         d="m 11915,857.602 h -305.9 c -13.5,0 -24.5,11 -24.5,24.5 v 0 c 0,13.597 11,24.496 24.5,24.496 h 305.9 c 13.6,0 24.6,-10.899 24.6,-24.496 v 0 c 0,-13.5 -11,-24.5 -24.6,-24.5" /><path
         id="path210"
         style="fill:#f8d49f;fill-opacity:1;fill-rule:nonzero;stroke:none"
         d="m 11987.3,775 h -305.9 c -13.6,0 -24.5,11 -24.5,24.5 v 0 c 0,13.5 10.9,24.5 24.5,24.5 h 305.9 c 13.6,0 24.5,-11 24.5,-24.5 v 0 c 0,-13.5 -10.9,-24.5 -24.5,-24.5" /><path
         id="path212"
         style="fill:#f8d49f;fill-opacity:1;fill-rule:nonzero;stroke:none"
         d="m 12059.6,692.398 h -305.9 c -13.6,0 -24.5,11 -24.5,24.5 v 0 c 0,13.5 10.9,24.504 24.5,24.504 h 305.9 c 13.5,0 24.5,-11.004 24.5,-24.504 v 0 c 0,-13.5 -11,-24.5 -24.5,-24.5" /><path
         id="path214"
         style="fill:#f8d49f;fill-opacity:1;fill-rule:nonzero;stroke:none"
         d="M 12131.9,609.801 H 11826 c -13.6,0 -24.6,10.898 -24.6,24.5 v 0 c 0,13.5 11,24.5 24.6,24.5 h 305.9 c 13.5,0 24.5,-11 24.5,-24.5 v 0 c 0,-13.602 -11,-24.5 -24.5,-24.5" /><path
         id="path216"
         style="fill:#2e2d3f;fill-opacity:1;fill-rule:nonzero;stroke:none"
         d="M 8177.47,300.398 V 16.3008 H 6056.22 c 0,0 14.46,144.0972 103.43,284.0972 84.32,132.301 235.08,261.5 503.48,261.5 l 455.43,442.502 h 364.73 c 0,0 287.78,-434.599 570.64,-266.002 0.24,0.204 0.24,0.204 0.24,0.204 l 1.47,0.796 121.83,-439" /><path
         id="path218"
         style="fill:#f8d49f;fill-opacity:1;fill-rule:nonzero;stroke:none"
         d="M 6056.32,16.3008 H 8177.57 V 300.398 h -2017.8 c -88.99,-140 -103.45,-284.0972 -103.45,-284.0972" /><path
         id="path220"
         style="fill:#f8d49f;fill-opacity:1;fill-rule:nonzero;stroke:none"
         d="m 7066.45,857.602 h 305.94 c 13.54,0 24.51,11 24.51,24.5 v 0 c 0,13.597 -10.97,24.496 -24.51,24.496 h -305.94 c -13.54,0 -24.52,-10.899 -24.52,-24.496 v 0 c 0,-13.5 10.98,-24.5 24.52,-24.5" /><path
         id="path222"
         style="fill:#f8d49f;fill-opacity:1;fill-rule:nonzero;stroke:none"
         d="m 6994.16,775 h 305.94 c 13.54,0 24.52,11 24.52,24.5 v 0 c 0,13.5 -10.98,24.5 -24.52,24.5 h -305.94 c -13.54,0 -24.51,-11 -24.51,-24.5 v 0 c 0,-13.5 10.97,-24.5 24.51,-24.5" /><path
         id="path224"
         style="fill:#f8d49f;fill-opacity:1;fill-rule:nonzero;stroke:none"
         d="m 6921.88,692.398 h 305.94 c 13.54,0 24.51,11 24.51,24.5 v 0 c 0,13.5 -10.97,24.504 -24.51,24.504 h -305.94 c -13.54,0 -24.51,-11.004 -24.51,-24.504 v 0 c 0,-13.5 10.97,-24.5 24.51,-24.5" /><path
         id="path226"
         style="fill:#f8d49f;fill-opacity:1;fill-rule:nonzero;stroke:none"
         d="m 6849.59,609.801 h 305.94 c 13.54,0 24.52,10.898 24.52,24.5 v 0 c 0,13.5 -10.98,24.5 -24.52,24.5 h -305.94 c -13.54,0 -24.51,-11 -24.51,-24.5 v 0 c 0,-13.602 10.97,-24.5 24.51,-24.5" /><path
         id="path228"
         style="fill:#e6ac5e;fill-opacity:1;fill-rule:nonzero;stroke:none"
         d="m 8100.26,882 -46.09,-143.398 c 0,0 0,0 -0.24,-0.204 C 7771.07,569.801 7483.29,1004.4 7483.29,1004.4 h -223.54 l 50.49,277.2 c 32.6,2.9 64.71,3.4 95.84,1.7 359.84,-19.4 623.83,-314.499 694.18,-401.3" /><path
         id="path230"
         style="fill:#2e2d3f;fill-opacity:1;fill-rule:nonzero;stroke:none"
         d="m 12401.8,8437.32 -94.3,-1958.02 h -143.7 l 113.3,1958.02 h 124.7" /><path
         id="path232"
         style="fill:#1e1f2f;fill-opacity:1;fill-rule:nonzero;stroke:none"
         d="M 8569.7,8632.85 H 8368.68 L 8027.33,6683.3 h 216.19 l 326.18,1949.55" /><path
         id="path234"
         style="fill:#1e1f2f;fill-opacity:1;fill-rule:nonzero;stroke:none"
         d="m 10571.1,8172.38 c 0,0 719.8,359.89 837.7,974.17 0,0 -583.3,-757 -837.7,-974.17" /><path
         id="path236"
         style="fill:#f8d49f;fill-opacity:1;fill-rule:nonzero;stroke:none"
         d="m 9717.74,13702.4 v -272.8 h -568.67 v 272.8 h 568.67" /><path
         id="path238"
         style="fill:#2e2d3f;fill-opacity:1;fill-rule:nonzero;stroke:none"
         d="m 9717.74,13802 v -99.6 h -568.67 v 99.6 h 568.67" /><path
         id="path240"
         style="fill:#2e2d3f;fill-opacity:1;fill-rule:nonzero;stroke:none"
         d="m 9476.88,13744 h -69.81 c -7.83,0 -14.18,6.4 -14.18,14.2 v 125.4 c 0,7.9 6.35,14.2 14.18,14.2 h 69.81 c 7.83,0 14.18,-6.3 14.18,-14.2 v -125.4 c 0,-7.8 -6.35,-14.2 -14.18,-14.2" /></g></g></svg>