<?xml version="1.0" encoding="UTF-8" standalone="no"?>
<!-- Created with Inkscape (http://www.inkscape.org/) -->

<svg
   version="1.1"
   id="svg2"
   width="2430.8267"
   height="2496.2534"
   viewBox="0 0 2430.8267 2496.2534"
   sodipodi:docname="boy and gift flat illustration.eps"
   xmlns:inkscape="http://www.inkscape.org/namespaces/inkscape"
   xmlns:sodipodi="http://sodipodi.sourceforge.net/DTD/sodipodi-0.dtd"
   xmlns="http://www.w3.org/2000/svg"
   xmlns:svg="http://www.w3.org/2000/svg">
  <defs
     id="defs6" />
  <sodipodi:namedview
     id="namedview4"
     pagecolor="#ffffff"
     bordercolor="#000000"
     borderopacity="0.25"
     inkscape:showpageshadow="2"
     inkscape:pageopacity="0.0"
     inkscape:pagecheckerboard="0"
     inkscape:deskcolor="#d1d1d1" />
  <g
     id="g8"
     inkscape:groupmode="layer"
     inkscape:label="ink_ext_XXXXXX"
     transform="matrix(1.3333333,0,0,-1.3333333,0,2496.2533)">
    <g
       id="g10"
       transform="scale(0.1)">
      <path
         d="M 5302.89,4753.1 V 3778.4 H 4841.27 V 0.0976563 H 296.469 V 3778.4 H 0 v 974.7 h 5302.89"
         style="fill:#d36135;fill-opacity:1;fill-rule:nonzero;stroke:none"
         id="path12" />
      <path
         d="M 296.469,1970.4 H 2489.47 v 472 H 296.469 v -472"
         style="fill:#e88a65;fill-opacity:1;fill-rule:nonzero;stroke:none"
         id="path14" />
      <path
         d="M 3089.35,3214.4 V 4753.1 H 2489.47 V 2442.4 h 25.74 V 0.0976563 h 462.21 L 3816.78,1479 l 223.3,1735.4 h -950.73"
         style="fill:#e88a65;fill-opacity:1;fill-rule:nonzero;stroke:none"
         id="path16" />
      <path
         d="M 296.566,3778.3 H 4841.32 V 0 H 296.566 L 3736.32,2902.8 296.566,3778.3"
         style="fill:#e88a65;fill-opacity:1;fill-rule:nonzero;stroke:none"
         id="path18" />
      <path
         d="M 4919.65,2870.8 V 2176.6 H 2817.18 V 74.0977 H 2123.01 V 2176.6 H 367.621 c -96.023,0 -182.793,38.7 -245.555,101.5 -62.7691,62.8 -101.5308,149.5 -101.5308,245.6 0,191.5 155.3238,347.1 347.0858,347.1 H 2123.01 v 1854.6 c 0,136.8 111.07,247.8 247.88,247.8 h 198.7 c 136.81,0 247.59,-111 247.59,-247.8 V 2870.8 h 2102.47"
         style="fill:#fffffe;fill-opacity:1;fill-rule:nonzero;stroke:none"
         id="path20" />
      <path
         d="M 4106.02,2870.8 V 2302.4 H 2817.18 v 568.4 h 1288.84"
         style="fill:#bebdba;fill-opacity:1;fill-rule:nonzero;stroke:none"
         id="path22" />
      <path
         d="m 5101.3,7496 -321.06,-435.9 -835.61,646.1 399.44,662.4 58.42,97.2 59.59,98.6 37.02,-62.2 602.2,-1006.2"
         style="fill:#fffffe;fill-opacity:1;fill-rule:nonzero;stroke:none"
         id="path24" />
      <path
         d="m 5101.3,7496 -321.06,-435.9 -835.61,646.1 516.87,-175.2 -117.43,837.6 -9.55,68 c 23.15,10.4 46,20.2 67.97,29.2 33.27,13.9 65.66,26 96.61,36.4 L 5101.3,7496"
         style="fill:#bebdba;fill-opacity:1;fill-rule:nonzero;stroke:none"
         id="path26" />
      <path
         d="m 5199.35,7022.8 c 0,0 -284.9,-454.7 -380.64,-1771.9 -10.99,-149.5 -19.38,-310.1 -24.87,-482.2 L 2030.17,6213.8 684.051,6917.5 c 55.82,86.5 127.554,158.5 209.121,213.4 65.945,44.9 138.548,78.7 214.898,100.7 66.53,18.8 135.65,28.6 205.94,28.6 64.5,0 129.58,-8.4 194.08,-25.4 168.63,-45.1 369.07,-87.9 585.42,-112.5 105.86,-12.2 215.77,-20 327.13,-21.4 465.38,-6.4 964.02,95.4 1360.29,441.3 56.69,49.5 111.35,104.2 163.7,164 0.58,0.6 2.31,0.3 5.21,-0.5 87.93,-26.6 1249.51,-682.9 1249.51,-682.9"
         style="fill:#e88a65;fill-opacity:1;fill-rule:nonzero;stroke:none"
         id="path28" />
      <path
         d="m 5199.35,7022.8 c 0,0 -284.9,-454.7 -380.64,-1771.9 l -1589.65,848.6 c 1287.11,71.8 1481.47,894.6 1481.47,894.6 l -765.9,712.1 5.21,-0.5 c 87.93,-26.6 1249.51,-682.9 1249.51,-682.9"
         style="fill:#d36135;fill-opacity:1;fill-rule:nonzero;stroke:none"
         id="path30" />
      <path
         d="m 4818.71,5250.9 c -10.99,-149.5 -19.38,-310.1 -24.87,-482.2 L 2030.17,6213.8 684.051,6917.5 c 55.82,86.5 127.554,158.5 209.121,213.4 65.945,44.9 138.548,78.7 214.898,100.7 66.53,18.8 135.65,28.6 205.94,28.6 64.5,0 129.58,-8.4 194.08,-25.4 168.63,-45.1 369.07,-87.9 585.42,-112.5 L 1920.26,6798 3229.06,6099.5 4818.71,5250.9"
         style="fill:#fffffe;fill-opacity:1;fill-rule:nonzero;stroke:none"
         id="path32" />
      <path
         d="m 4818.71,5250.9 c -10.99,-149.5 -19.38,-310.1 -24.87,-482.2 L 2030.17,6213.8 c 478.97,-103 873.78,-132.8 1198.89,-114.3 l 1589.65,-848.6"
         style="fill:#bebdba;fill-opacity:1;fill-rule:nonzero;stroke:none"
         id="path34" />
      <path
         d="M 4358.24,0.398438 H 250.484 V 233.199 c 0,90.801 18.508,178.5 52.637,258.602 31.82,75.199 77.52,144 133.922,202.398 72.598,75 163.422,133.102 267.543,166.602 69.992,22.597 145.777,49.5 225.609,81.597 75.775,30.403 155.025,65.402 236.595,105.302 0.29,0.3 0.87,0.3 1.16,0.6 509.63,250.5 1319.21,516 1670.06,1254.1 68.25,142.9 119.17,303.7 147.21,485.6 l 203.35,-169.7 211.42,-166.6 690.71,-545 c 60.16,-216.3 196.68,-762.7 247.59,-1414.899 12.43,-158.5 19.95,-323.403 19.95,-491.402562"
         style="fill:#e88a65;fill-opacity:1;fill-rule:nonzero;stroke:none"
         id="path36" />
      <path
         d="M 4338.29,491.801 H 930.195 v 202.398 h 836.765 c 2026.11,0 1790.96,1168.601 1790.96,1168.601 l -572.7,925.2 203.35,-169.7 211.42,-166.6 690.71,-545 c 60.16,-216.3 196.68,-762.7 247.59,-1414.899"
         style="fill:#d36135;fill-opacity:1;fill-rule:nonzero;stroke:none"
         id="path38" />
      <path
         d="m 16274.3,15558.5 c -0.3,-0.3 -0.9,-0.3 -1.5,-0.6 -6,-1.7 -29.8,-9.8 -68.8,-26 -2,-0.9 -4.4,-1.8 -6.7,-2.6 -111.6,-46.6 -338.4,-154.2 -635.7,-364.8 -150.1,-106.1 -318.2,-238.9 -498.7,-403.2 l -135.9,297.4 -22,48 -42.8,94 c 0,0 -126.1,-114.8 -320.2,-94 -246.1,26 -601.6,270.4 -947.5,1243.7 -25.2,70.9 -50.3,145.8 -75.5,224.7 l 12.7,407.9 c 0,0 94,-225.9 319.9,-251.1 0,0 -106.7,50.3 -144.3,251.1 0,0 288.6,-288.7 903.9,18.8 l 301,-414.2 169.5,514.5 c 0,0 18.8,194.7 282.3,150.7 263.8,-43.9 458.2,-1054.2 458.2,-1054.2 l 301.4,-69.2 150.7,-570.9"
         style="fill:#f6a475;fill-opacity:1;fill-rule:nonzero;stroke:none"
         id="path40" />
      <path
         d="m 16274.3,15558.5 c -0.3,-0.3 -0.9,-0.3 -1.5,-0.6 -6,-1.7 -29.8,-9.8 -68.8,-26 -2,-0.9 -4.4,-1.8 -6.7,-2.6 -111.6,-46.6 -338.4,-154.2 -635.7,-364.8 l -76.7,365.9 c -228.8,-214.9 -422.5,-345.6 -579.9,-423.7 l -42.8,94 c 0,0 -126.1,-114.8 -320.2,-94 220.7,168.9 630.6,508.2 582,658.6 -66.3,204.5 -211.8,822.3 -211.8,822.3 l 169.5,514.5 c 0,0 18.8,194.7 282.3,150.7 263.8,-43.9 458.2,-1054.2 458.2,-1054.2 l 301.4,-69.2 150.7,-570.9"
         style="fill:#f36458;fill-opacity:1;fill-rule:nonzero;stroke:none"
         id="path42" />
      <path
         d="m 4689.52,6449.3 c 0,-184.6 -149.61,-334.2 -334.16,-334.2 -184.56,0 -334.17,149.6 -334.17,334.2 0,184.5 149.61,334.1 334.17,334.1 184.55,0 334.16,-149.6 334.16,-334.1"
         style="fill:#1a1b23;fill-opacity:1;fill-rule:nonzero;stroke:none"
         id="path44" />
      <path
         d="M 13434.2,7695.8 H 11350 L 7173.68,5041.2 5101.3,1109.3 l -833.88,658 -176.72,139.4 -902.13,711.6 c 0,0 2518.39,4580 2869.24,5058.2 350.55,478.4 2231.47,1030.8 2231.47,1030.8 l -1020.15,669.58 -254.81,998.72 -191.48,-276.2 c 0,0 74.33,-340.15 -42.52,-573.85 C 6663.47,9291.84 5101.3,7496 5101.3,7496 l -865.4,973.5 -1089.86,1226.12 c 0,0 2667.36,2582.28 3198.69,2794.88 531.33,212.6 3708.57,-1849.1 3708.57,-1849.1 l 1191.4,307.8 40.2,10.4 22,5.8 1194.8,-1234.49 c 107.6,-1398.51 932.5,-2035.11 932.5,-2035.11"
         style="fill:#2b3038;fill-opacity:1;fill-rule:nonzero;stroke:none"
         id="path46" />
      <path
         d="M 13434.2,7695.8 H 11350 L 7173.68,5041.2 5101.3,1109.3 l -833.88,658 2181.43,3853.8 -27.47,1785.5 412.17,-1442.2 1359.42,1085 -1565.65,659.2 2156.27,-398.3 2197.31,1071.3 -604.2,1084.95 961.2,-1029.95 357.2,68.5 -659.2,1071.36 1071,-1098.86 -82.4,1057.49 c -284.3,467.11 -622.7,1110.71 -779.8,1414.11 l 62.2,16.2 1194.8,-1234.49 c 107.6,-1398.51 932.5,-2035.11 932.5,-2035.11"
         style="fill:#1a1b23;fill-opacity:1;fill-rule:nonzero;stroke:none"
         id="path48" />
      <path
         d="m 16142.1,9426.34 -170.4,80.7 -412.4,-1811.24 h -2125.1 c 0,0 -824.9,636.6 -932.5,2035.11 l -370.2,382.39 -824.6,852.1 -150.1,155.3 c 0,0 600.1,56.4 1210.4,696.2 121,126.4 241.9,275.4 358.7,451.5 343.9,517.7 685.2,1058.3 1019.6,1484.4 354.6,452 701.4,774.3 1033.7,802 l 1478,480.2 288.4,93.7 c 0,0 672.5,-789.1 824.9,-1255.3 152.4,-466.3 -89.7,-3012.7 -1228.4,-4447.06"
         style="fill:#e88a65;fill-opacity:1;fill-rule:nonzero;stroke:none"
         id="path50" />
      <path
         d="m 16115.8,16759.7 7.8,-630.3 -301.4,69.2 c 0,0 -194.4,1010.3 -458.2,1054.2 -263.5,44 -282.3,-150.7 -282.3,-150.7 l -169.5,-514.5 -301,414.2 c -615.3,-307.5 -903.9,-18.8 -903.9,-18.8 37.6,-200.8 144.3,-251.1 144.3,-251.1 -225.9,25.2 -319.9,251.1 -319.9,251.1 l -12.7,-407.9 c 25.2,-78.9 50.3,-153.8 75.5,-224.7 -1196,1100.3 689.8,2908.3 1759.7,2219 1224.6,-182.1 761.6,-1809.7 761.6,-1809.7"
         style="fill:#1a1b23;fill-opacity:1;fill-rule:nonzero;stroke:none"
         id="path52" />
      <path
         d="m 15170.8,17053.1 c 0,0 15.4,129.5 157.3,111 141.8,-18.5 292.9,-407 6.1,-678.3 0,0 138.8,222 55.5,484.1 -83.2,262.1 -218.9,83.2 -218.9,83.2"
         style="fill:#1a1b23;fill-opacity:1;fill-rule:nonzero;stroke:none"
         id="path54" />
      <path
         d="M 4358.24,0.398438 H 250.484 V 233.199 c 0,90.801 18.508,178.5 52.637,258.602 8.391,19.898 17.938,39.301 28.063,58.398 4.046,6.899 7.808,13.899 11.855,20.801 0.867,1.199 1.449,2.301 2.027,3.199 4.914,8.102 9.829,15.899 15.039,23.699 0.583,1.2 1.161,2.102 2.024,3.204 4.629,6.996 9.254,13.898 14.461,20.496 1.445,2.703 3.473,5 5.211,7.3 4.047,5.801 8.09,11.301 12.722,16.5 13.305,17 27.477,33.204 42.52,48.801 72.598,75 163.422,133.102 267.543,166.602 69.992,22.597 145.777,49.5 225.609,81.597 V 491.801 H 4338.29 c 12.43,-158.5 19.95,-323.403 19.95,-491.402562"
         style="fill:#fffffe;fill-opacity:1;fill-rule:nonzero;stroke:none"
         id="path56" />
      <path
         d="m 3803.07,1181.8 c 0,-184.601 -149.61,-334.202 -334.17,-334.202 -184.55,0 -334.16,149.601 -334.16,334.202 0,184.5 149.61,334.2 334.16,334.2 184.56,0 334.17,-149.7 334.17,-334.2"
         style="fill:#1a1b23;fill-opacity:1;fill-rule:nonzero;stroke:none"
         id="path58" />
      <path
         d="m 16085.7,2301.4 h -4407 v 195.2 h 4407 v -195.2"
         style="fill:#1a1b23;fill-opacity:1;fill-rule:nonzero;stroke:none"
         id="path60" />
      <path
         d="m 10071,9322.22 -1781.72,-614.92 -1020.15,669.58 -254.81,998.72 -191.48,-276.2 c 0,0 74.33,-340.15 -42.52,-573.85 C 6663.47,9291.84 5101.3,7496 5101.3,7496 l -865.4,973.5 2006.44,2215 v 1202.1 c 169.2,-810.2 676.82,-837.1 676.82,-837.1 L 6803.17,12296.2 7141.58,11201.1 10071,9322.22"
         style="fill:#1a1b23;fill-opacity:1;fill-rule:nonzero;stroke:none"
         id="path62" />
      <path
         d="m 15878.4,14015.8 -974,-2619.8 -518.6,-496.3 -1978,-298.6 -372.3,611.6 c 0,0 1357.5,-242.1 2197.2,15.4 l -1052.4,190.3 1209.1,33.6 1489,2563.8"
         style="fill:#d36135;fill-opacity:1;fill-rule:nonzero;stroke:none"
         id="path64" />
      <path
         d="m 16142.1,9426.34 -170.4,80.7 -412.4,-1811.24 h -2125.1 c 0,0 -824.9,636.6 -932.5,2035.11 l -370.2,382.39 c 283.5,52.6 769.1,135.9 1106.1,153.6 502.4,26.3 1148.2,632.8 1148.2,632.8 l 1152.1,-817.9 c 727.1,793.3 965.2,1917 965.2,1917 l -740.5,-647.9 753.5,1018.2 c 0,0 185.1,1824.2 66.2,2154.8 -92.3,256.5 -256.3,441.4 -325.1,511.1 l 288.4,93.7 c 0,0 672.5,-789.1 824.9,-1255.3 152.4,-466.3 -89.7,-3012.7 -1228.4,-4447.06"
         style="fill:#d36135;fill-opacity:1;fill-rule:nonzero;stroke:none"
         id="path66" />
      <path
         d="m 18020,14174.5 v 0 c -153.8,43.2 -313.4,-46.5 -356.6,-200.3 L 15907.6,7719.1 h -4525.7 v -12.2 h -34.5 V 91.8008 h 578.5 V 7140.7 h 3946.9 V 91.8008 h 578.5 V 7515.6 l 1769.1,6302.3 c 43.1,153.8 -46.6,313.4 -200.4,356.6"
         style="fill:#1a1b23;fill-opacity:1;fill-rule:nonzero;stroke:none"
         id="path68" />
      <path
         d="m 15570.8,9752.89 c 0,0 -1763.1,-559.09 -3620.6,341.31 l 19.9,261.5 3.2,41.3 11.3,149.6 43.7,573.2 2,25.8 5.2,67.1 c 0,0 1061.5,-426.6 2350.3,-313 l 0.6,-0.6 c 19.4,-21.4 643.3,-707.7 1184.4,-1146.21"
         style="fill:#fffffe;fill-opacity:1;fill-rule:nonzero;stroke:none"
         id="path70" />
      <path
         d="m 15570.8,9752.89 c 0,0 -1763.1,-559.09 -3620.6,341.31 l 19.9,261.5 3.2,41.3 c 1371.6,-596.38 2654.1,-414.74 2654.1,-414.74 l -241.6,917.44 0.6,-0.6 c 19.4,-21.4 643.3,-707.7 1184.4,-1146.21"
         style="fill:#bebdba;fill-opacity:1;fill-rule:nonzero;stroke:none"
         id="path72" />
      <path
         d="m 16653.2,15082.4 c -240.4,-73.2 -453.8,-177.3 -639.2,-293 -588.1,-367.3 -895.5,-853.8 -895.5,-853.8 l -270.5,309.7 -279.1,56.7 135.1,204.8 -61,252.8 284,299.1 135.9,-297.4 c 0,0 0.3,0.3 0.9,0.6 180.2,164 348,296.8 497.8,402.6 297.3,210.6 524.1,318.2 635.7,364.8 2.3,0.8 4.7,1.7 6.7,2.6 31.5,11.5 55.2,20.5 68.8,26 0.6,0.3 1.2,0.3 1.5,0.6 131.3,53.2 239.2,73.1 239.2,73.1 l 59,-231.9 80.7,-317.3"
         style="fill:#fffffe;fill-opacity:1;fill-rule:nonzero;stroke:none"
         id="path74" />
      <path
         d="m 14766.5,14454.4 81.5,-209.1 -279.1,56.7 135.1,204.8 -61,252.8 284,299.1 135.9,-297.4 c 0,0 -209.7,-215.7 -296.4,-306.9"
         style="fill:#bebdba;fill-opacity:1;fill-rule:nonzero;stroke:none"
         id="path76" />
      <path
         d="m 16653.2,15082.4 c -240.4,-73.2 -453.8,-177.3 -639.2,-293 l -129.9,349.4 c -485.1,-127.3 -800.9,-362.1 -820.3,-376.9 180.2,164 348,296.8 497.8,402.6 297.3,210.6 524.1,318.2 635.7,364.8 2.3,0.8 4.7,1.7 6.7,2.6 31.5,11.5 55.2,20.5 68.8,26 0.6,0.3 1.2,0.3 1.5,0.6 131.3,53.2 239.2,73.1 239.2,73.1 l 59,-231.9 80.7,-317.3"
         style="fill:#bebdba;fill-opacity:1;fill-rule:nonzero;stroke:none"
         id="path78" />
      <path
         d="m 16302.2,14783.4 c 0,0 155.4,-125.5 203.2,-460.2 47.8,-334.7 -83.6,-1834.8 -83.6,-1834.8 0,0 107.5,1858.7 -119.6,2295"
         style="fill:#d36135;fill-opacity:1;fill-rule:nonzero;stroke:none"
         id="path80" />
      <path
         d="m 15154.2,14743.4 c 0,0 327.3,228.7 674.2,283.9 0,0 -429.7,-216.8 -674.2,-283.9"
         style="fill:#bebdba;fill-opacity:1;fill-rule:nonzero;stroke:none"
         id="path82" />
      <path
         d="m 14291.3,11652 1355.5,2154.8 c 0,0 -1051.4,-1190.3 -1355.5,-2154.8"
         style="fill:#d36135;fill-opacity:1;fill-rule:nonzero;stroke:none"
         id="path84" />
      <path
         d="m 14617.1,10896.2 876.7,-655.9 c 0,0 -422.1,604 -876.7,655.9"
         style="fill:#d36135;fill-opacity:1;fill-rule:nonzero;stroke:none"
         id="path86" />
      <path
         d="m 4207.03,2076.7 1976.59,3496.4 c 0,0 -1278.97,-1503.2 -1976.59,-3496.4"
         style="fill:#1a1b23;fill-opacity:1;fill-rule:nonzero;stroke:none"
         id="path88" />
      <path
         d="m 7918.57,7651.5 c 30.61,-6.2 838.61,-202 838.61,-202 l 1775.12,844.7 c 0,0 -1469.07,-557 -1744.52,-648.9 -275.45,-91.8 -869.21,6.2 -869.21,6.2"
         style="fill:#1a1b23;fill-opacity:1;fill-rule:nonzero;stroke:none"
         id="path90" />
      <path
         d="M 7284.16,11254 10021.6,9510.29 c 0,0 -1912.46,1574.91 -2737.44,1743.71"
         style="fill:#1a1b23;fill-opacity:1;fill-rule:nonzero;stroke:none"
         id="path92" />
      <path
         d="M 4358.24,0.398438 H 250.484 V 233.199 c 0,90.801 18.508,178.5 52.637,258.602 8.391,19.898 17.938,39.301 28.063,58.398 4.046,6.899 7.808,13.899 11.855,20.801 0.867,1.199 1.449,2.301 2.027,3.199 4.914,8.102 9.829,15.899 15.039,23.699 0.583,1.2 1.161,2.102 2.024,3.204 4.629,6.996 9.254,13.898 14.461,20.496 1.445,2.703 3.473,5 5.211,7.3 4.047,5.801 8.09,11.301 12.722,16.5 13.305,17 27.477,33.204 42.52,48.801 H 930.195 V 491.801 H 4338.29 c 12.43,-158.5 19.95,-323.403 19.95,-491.402562"
         style="fill:#bebdba;fill-opacity:1;fill-rule:nonzero;stroke:none"
         id="path94" />
      <path
         d="M 3007.24,2057.7 C 2564.12,1329.8 1841.66,1010 1487.29,891.102 1362.35,849.098 1224.86,873.199 1121.67,955.098 v 0 c 12.43,30.703 27.47,61.602 45.12,92.602 h 0.02 c 509.56,250.7 1320.09,516 1671.2,1254.7 l 117.67,-59.9 c 67.94,-34.6 91.2,-119.6 51.56,-184.8"
         style="fill:#d36135;fill-opacity:1;fill-rule:nonzero;stroke:none"
         id="path96" />
      <path
         d="m 1183.63,1160 c 286.35,106.1 1121.35,457.9 1522.65,1080.4 35.78,55.5 106.87,76.3 167.31,49.7 l 27.47,-12 c 79.06,-34.8 105.84,-133.8 54.75,-203.4 C 2751.34,1796 2205.52,1170.4 1268.61,903.602 1187.76,880.5 1105.42,935.199 1096.34,1018.8 v 0 c -6.7,61.6 29.18,119.7 87.29,141.2"
         style="fill:#1a1b23;fill-opacity:1;fill-rule:nonzero;stroke:none"
         id="path98" />
      <path
         d="m 3864.05,7302.6 c -350.25,-320 -983.63,-411.6 -1254.61,-436.8 -100.88,-9.3 -202.01,26.8 -269.69,102.2 -54.25,60.4 -42.04,92.7 -42.04,92.7 l 122.93,40.2 c 465.38,-6.4 964.02,95.4 1360.29,441.3 l 48.86,-22 c 86.47,-39 104.3,-153.7 34.26,-217.6"
         style="fill:#d36135;fill-opacity:1;fill-rule:nonzero;stroke:none"
         id="path100" />
      <path
         d="m 2315.65,7111.9 v 0 c 20.5,38.1 59.09,62.9 102.27,65.4 197.76,11.5 782.07,70.7 1202.99,372.5 47.61,34.1 111.98,32.5 156.2,-5.9 l 30.2,-26.2 c 62.93,-54.7 55.89,-154.8 -14.56,-199.4 -218.57,-138.3 -694.49,-379.9 -1364.38,-390.5 -95.64,-1.5 -158.07,99.9 -112.72,184.1"
         style="fill:#1a1b23;fill-opacity:1;fill-rule:nonzero;stroke:none"
         id="path102" />
      <path
         d="m 12703.8,10218.4 c 0,0 994.8,-266.85 1790.6,-174.6 l -1790.6,174.6"
         style="fill:#bebdba;fill-opacity:1;fill-rule:nonzero;stroke:none"
         id="path104" />
      <path
         d="m 13370,12594.4 c -414.7,-561.7 -849.5,-944.7 -971.2,-854.7 -20,14.7 -30.1,40.7 -31.6,77.2 121,126.4 241.9,275.4 358.7,451.5 343.9,517.7 685.2,1058.3 1019.6,1484.4 69.1,36.4 122.6,45.4 154.4,21.9 122.1,-89.9 -115.4,-618.3 -529.9,-1180.3"
         style="fill:#bebdba;fill-opacity:1;fill-rule:nonzero;stroke:none"
         id="path106" />
      <path
         d="m 2036.7,6819.3 1419.87,-756.1 c 0,0 -802.29,594.5 -1419.87,756.1"
         style="fill:#d36135;fill-opacity:1;fill-rule:nonzero;stroke:none"
         id="path108" />
      <path
         d="m 3005.69,1936.2 c 0,0 -521.86,-743 -1327.11,-1005.7 0,0 898.56,114.1 1327.11,1005.7"
         style="fill:#d36135;fill-opacity:1;fill-rule:nonzero;stroke:none"
         id="path110" />
      <path
         d="m 10681.9,12022.8 -209.4,1083 c -31.6,163.6 103.7,311.4 269.5,294.2 l 487.6,-50.4 c 161.2,-16.7 292.9,-136.3 324.9,-295.2 l 426.1,-2113.8 c 0,0 -1119.9,677.5 -1298.7,1082.2"
         style="fill:#1a1b23;fill-opacity:1;fill-rule:nonzero;stroke:none"
         id="path112" />
      <path
         d="m 10704.1,13048.8 c 0,-38.8 -18.5,-70.3 -41.4,-70.3 -22.8,0 -41.4,31.5 -41.4,70.3 0,38.9 18.6,70.4 41.4,70.4 22.9,0 41.4,-31.5 41.4,-70.4"
         style="fill:#fffffe;fill-opacity:1;fill-rule:nonzero;stroke:none"
         id="path114" />
      <path
         d="m 14855.3,16485.9 160.3,-658.3 c 0,0 -203.6,268.5 -160.3,658.3"
         style="fill:#f36458;fill-opacity:1;fill-rule:nonzero;stroke:none"
         id="path116" />
      <path
         d="m 11481.9,10636.5 c 0,0 -963.2,-282.9 -1107.5,-463.6 -144.6,-180.52 -307.2,-505.63 -307.2,-505.63 l -13.9,974.13 1191.4,307.8 40.2,10.4 197,-323.1"
         style="fill:#1a1b23;fill-opacity:1;fill-rule:nonzero;stroke:none"
         id="path118" />
      <path
         d="m 12028.3,11119.8 -43.7,-573.2 -14.5,-190.9 -257.1,74 -282,81 c -901,314.4 -964,963.4 -878.7,1416.7 13.3,71.7 50.9,129.3 101.5,168.9 l 0.3,0.3 c 103.2,81.5 259.7,87.3 368.2,-15.6 170.6,-161.4 339.8,-298.5 350.3,-306.6 -4.4,10.1 -185.2,440.2 -78.7,485.6 28.3,12.1 77.5,-3.5 156.2,-61.9 376.3,-279.7 472.6,-1031.7 472.6,-1031.7 l 105.6,-46.6"
         style="fill:#f6a475;fill-opacity:1;fill-rule:nonzero;stroke:none"
         id="path120" />
      <path
         d="m 12028.3,11119.8 -43.7,-573.2 -14.5,-190.9 -257.1,74 98,700.5 c 0,0 -108.1,291.9 -254.2,686.7 -92.6,249.9 -198.1,380.6 -262.9,443.1 28.3,12.1 77.5,-3.5 156.2,-61.9 376.3,-279.7 472.6,-1031.7 472.6,-1031.7 l 105.6,-46.6"
         style="fill:#f36458;fill-opacity:1;fill-rule:nonzero;stroke:none"
         id="path122" />
      <path
         d="m 11448.3,11598.5 c 0,0 -297.3,242.1 -535.6,397.7 -127.9,83.6 -209.2,101.2 -258.6,100.4 103.2,81.5 259.7,87.3 368.2,-15.6 170.6,-161.4 339.8,-298.5 350.3,-306.6 l 75.7,-175.9"
         style="fill:#f36458;fill-opacity:1;fill-rule:nonzero;stroke:none"
         id="path124" />
      <path
         d="m 11755.4,7423.6 c 0,-73.7 -59.6,-133.3 -133.3,-133.3 -73.6,0 -133.3,59.6 -133.3,133.3 0,73.6 59.7,133.2 133.3,133.2 73.7,0 133.3,-59.6 133.3,-133.2"
         style="fill:#bebdba;fill-opacity:1;fill-rule:nonzero;stroke:none"
         id="path126" />
      <path
         d="m 16291.1,7423.6 c 0,-73.7 -59.7,-133.3 -133.3,-133.3 -73.6,0 -133.3,59.6 -133.3,133.3 0,73.6 59.7,133.2 133.3,133.2 73.6,0 133.3,-59.6 133.3,-133.2"
         style="fill:#bebdba;fill-opacity:1;fill-rule:nonzero;stroke:none"
         id="path128" />
      <path
         d="m 11755.4,2397.2 c 0,-73.6 -59.6,-133.3 -133.3,-133.3 -73.6,0 -133.3,59.7 -133.3,133.3 0,73.6 59.7,133.3 133.3,133.3 73.7,0 133.3,-59.7 133.3,-133.3"
         style="fill:#bebdba;fill-opacity:1;fill-rule:nonzero;stroke:none"
         id="path130" />
      <path
         d="m 16291.1,2397.2 c 0,-73.6 -59.7,-133.3 -133.3,-133.3 -73.6,0 -133.3,59.7 -133.3,133.3 0,73.6 59.7,133.3 133.3,133.3 73.6,0 133.3,-59.7 133.3,-133.3"
         style="fill:#bebdba;fill-opacity:1;fill-rule:nonzero;stroke:none"
         id="path132" />
      <path
         d="m 2123.01,2870.8 v -694.2 h -415.35 v 694.2 h 415.35"
         style="fill:#bebdba;fill-opacity:1;fill-rule:nonzero;stroke:none"
         id="path134" />
    </g>
  </g>
</svg>
