<?xml version="1.0" encoding="UTF-8" standalone="no"?>
<svg
   xmlns:dc="http://purl.org/dc/elements/1.1/"
   xmlns:cc="http://creativecommons.org/ns#"
   xmlns:rdf="http://www.w3.org/1999/02/22-rdf-syntax-ns#"
   xmlns:svg="http://www.w3.org/2000/svg"
   xmlns="http://www.w3.org/2000/svg"
   viewBox="0 0 2482.2534 2482.2534"
   height="2482.2534"
   width="2482.2534"
   xml:space="preserve"
   id="svg2"
   version="1.1"><metadata
     id="metadata8"><rdf:RDF><cc:Work
         rdf:about=""><dc:format>image/svg+xml</dc:format><dc:type
           rdf:resource="http://purl.org/dc/dcmitype/StillImage" /></cc:Work></rdf:RDF></metadata><defs
     id="defs6"><clipPath
       id="clipPath24"
       clipPathUnits="userSpaceOnUse"><path
         id="path22"
         d="M 18616.9,9308.43 C 18616.9,4167.5 14449.4,0 9308.47,0 4167.55,0 0,4167.5 0,9308.43 c 0,5140.87 4167.55,9308.47 9308.47,9308.47 5140.93,0 9308.43,-4167.6 9308.43,-9308.47 z" /></clipPath></defs><g
     transform="matrix(1.3333333,0,0,-1.3333333,0,2482.2533)"
     id="g10"><g
       transform="scale(0.1)"
       id="g12"><g
         transform="scale(1.14214)"
         id="g14"><path
           id="path16"
           style="fill:#fcd5bb;fill-opacity:1;fill-rule:nonzero;stroke:none"
           d="M 16300,8149.98 C 16300,3648.85 12651.2,0 8150.02,0 3648.89,0 0,3648.85 0,8149.98 0,12651.1 3648.89,16300 8150.02,16300 12651.2,16300 16300,12651.1 16300,8149.98" /></g><g
         id="g18"><g
           clip-path="url(#clipPath24)"
           id="g20"><path
             id="path26"
             style="fill:#f2b787;fill-opacity:1;fill-rule:nonzero;stroke:none"
             d="m 14677.4,3098 c -87.5,-303.5 -852.3,-1347 -1490.6,-1804.3 -187.2,-134.2 -363.3,-217.7 -508.7,-217.7 -111.4,0 -218.1,28.9 -317.9,77.1 -474.2,227.4 -798.6,881.1 -798.6,881.1 L 9403.72,2456.6 C 8015.61,2456.6 7102.75,2683 7102.75,2683 6951.9,2479.3 6838.69,2456.6 6838.69,2456.6 l -158.33,-769.4 c 0,0 -286.75,-211.2 -792.18,45.3 -498.44,252.9 -307.19,1151.5 -301.96,1176.5 0,0.2 0.25,0.2 0.25,0.5 -82.78,381.2 97,709.1 155.84,802.8 10.97,17.5 17.71,27 17.71,27 6.23,18.7 12.46,36.6 18.7,53.8 2.49,6.8 4.98,13.5 7.73,20.2 0.75,2.5 1.74,5 2.74,7.5 2.74,7 5.49,13.7 8.23,20.5 2,4.7 3.99,9.4 5.98,13.9 5.74,14.2 11.97,27.7 18.2,40.9 4,8.7 8.23,17.5 12.22,25.7 0.75,1 1.25,2 1.75,3 2.24,4.5 4.24,8.7 6.48,13 0.75,1 1.25,2.2 1.75,3.2 7.48,14.2 15.21,27.7 22.69,40.6 0,0.5 0.25,0.8 0.5,1 8.47,14.3 16.7,27.5 25.18,40.2 0.5,1 1.25,2 2,3 4.24,6.2 8.47,12.2 12.46,17.9 v 0.3 c 10.23,14.2 20.45,27.4 30.67,39.6 3.74,4.5 7.23,8.8 10.72,12.7 6.49,7.5 13.22,14.5 19.45,21.2 l 9.98,10 c 13.71,13.5 27.18,25.2 40.14,35.4 4.24,3.5 8.48,6.8 12.72,10 8.48,6.2 16.95,12 24.94,17 4.23,2.4 8.22,4.9 11.96,7.2 3.99,2.5 7.98,4.5 11.72,6.5 7.48,4 14.96,7.7 21.94,10.7 3.5,1.7 6.98,3.2 10.23,4.5 3.49,1.5 6.73,2.7 9.97,3.7 3.25,1.3 6.23,2.3 9.23,3.3 0.25,0.2 0.74,0.2 1.24,0.5 5.49,1.7 10.48,3.2 15.21,4.4 1.5,0.3 3.25,0.8 4.49,1 3,0.8 5.99,1.5 8.73,2 18.95,3.8 29.92,3.5 29.92,3.5 0,0 0.25,4.3 1,12.5 1.5,19.7 4.74,63.1 9.72,128.2 0.25,6.4 0.75,13.4 1.25,20.4 0.5,5.2 0.75,10.7 1.25,16.2 1.24,18.5 2.74,38.4 3.99,59.6 4.73,62.8 9.72,137.4 15.71,223.2 0.74,11.9 1.74,24.2 2.74,36.6 1.99,29.9 3.99,61.1 6.23,93.8 0.25,5.7 0.75,11.4 1.25,17.2 3.74,57.3 7.98,118.2 12.21,183 3.5,53.6 7.24,110 10.98,168.6 3.24,48.1 6.48,98 9.72,149.3 2,31.7 3.99,63.9 5.99,96.8 17.7,278 37.15,598.2 57.6,953.2 4.48,75.3 8.97,152.4 13.21,231.2 6.98,120.2 13.72,244.1 20.7,371.5 51.11,940 154.84,1755.39 235.63,2287.75 0,0 0.25,-0.5 0.99,-1.25 193.25,-204.71 458.06,-331.63 813.13,-225.16 607.66,182.28 1029.55,769.74 1261.94,1187.86 73.06,131.9 127.42,246.9 162.83,327.2 184.01,-8 288.24,71.5 288.24,71.5 75.3,-83.2 181.53,-122.9 296.97,-135.6 162.33,-18.2 342.11,15.7 478.25,53.1 46.13,12.5 87.02,25.4 120.68,36.9 1,0.3 2,0.5 3,1 29.4,8.5 59.6,19.5 90,33.2 1.3,0.5 2.3,1 3.5,1.5 0,0 71.3,-232.2 230.2,-448.4 0,0 0,-0.2 0.2,-0.5 0.2,-0.5 0.7,-0.7 0.7,-1.2 2.5,-3 4.8,-6.5 7.3,-9.5 236.1,-314.9 659.3,-586.94 1319,-42.4 0,0 -566.2,194.5 -47.6,954.3 l 641.8,-329.7 666.3,-349 c -1.8,1.5 -8.3,6.7 -19,16.2 l 401.7,-206.5 C 15054.4,9608.66 14534,3882.7 14534,3882.7 c 0,0 256.4,-392.5 143.4,-784.7" /><path
             id="path28"
             style="fill:#dc844c;fill-opacity:1;fill-rule:nonzero;stroke:none"
             d="M 6818.13,5762.9 7023.85,8998.33 6565.65,5940.5 Z" /><path
             id="path30"
             style="fill:#dc844c;fill-opacity:1;fill-rule:nonzero;stroke:none"
             d="M 9403.72,2456.6 C 8015.61,2456.6 7102.75,2683 7102.75,2683 6951.9,2479.3 6838.69,2456.6 6838.69,2456.6 l -158.33,-769.4 c 0,0 -286.75,-211.2 -792.18,45.3 -498.44,252.9 -307.19,1151.5 -301.96,1176.5 0,0.2 0.25,0.2 0.25,0.5 0,0 -94.5,-1047.6 733.33,-993.9 l 131.16,988.6 c 0,0 -87.28,65.8 -201.23,178.3 -162.57,160.3 -378.76,415.9 -471.01,710.6 2.49,6.8 4.98,13.5 7.73,20.2 0.75,2.5 1.74,5 2.74,7.5 2.74,7 5.49,13.7 8.23,20.5 2,4.7 3.99,9.4 5.98,13.9 5.74,14.2 11.97,27.7 18.2,40.9 4,8.7 8.23,17.5 12.22,25.7 0.75,1 1.25,2.2 1.5,3.2 2.49,4.5 4.49,8.8 6.73,12.8 0.75,1 1.25,2.2 1.75,3.2 7.48,14.2 14.96,27.9 22.69,40.6 0,0.5 0.25,0.8 0.5,1 8.22,14.3 16.7,27.7 25.18,40.2 0.5,1 1.25,2 2,3 4.24,6.2 8.22,12.2 12.46,18.2 10.23,14.2 20.45,27.4 30.67,39.6 3.74,4.5 7.23,8.8 10.72,12.7 6.49,7.5 13.22,14.5 19.45,21.2 l 9.98,10 c 13.71,13.5 27.18,25.2 40.14,35.4 4.24,3.5 8.48,6.8 12.72,10 8.48,6.2 16.95,12 24.94,17 4.23,2.4 8.22,4.9 11.96,7.2 3.99,2.5 7.98,4.5 11.72,6.5 7.48,4 14.96,7.7 21.94,10.7 3.5,1.7 6.98,3.2 10.23,4.5 3.49,1.5 6.73,2.7 9.97,3.7 3.25,1.3 6.23,2.3 9.23,3.3 0.25,0.2 0.74,0.2 1.24,0.5 5.49,1.7 10.48,3.2 15.21,4.4 1.5,0.3 3.25,0.8 4.49,1 3,0.8 5.99,1.5 8.73,2 18.95,3.8 29.92,3.5 29.92,3.5 0,0 0.25,4.3 1,12.5 1.5,19.7 4.74,63.1 9.72,128.2 0.25,6.4 0.75,13.4 1.25,20.4 12.47,5 24.93,10 37.65,14.7 7.73,3.3 15.71,6.2 23.69,9 263.06,98.2 571.01,160.8 784.2,196.2 33.91,5.8 65.57,10.5 94,15 102.98,15.2 167.31,22.2 167.31,22.2 l 953.25,-314.2 561.78,-185.3 -1925.95,-78.3 V 3095 c 0,0 1307.08,-638.4 2505.93,-638.4" /><path
             id="path32"
             style="fill:#dc844c;fill-opacity:1;fill-rule:nonzero;stroke:none"
             d="m 13152.9,4181.1 c 0,0 955,-562 -7.7,-2375.8 14.9,36.9 831.5,2057.4 -353.6,2359.6 l -1102.1,455.6 -266.6,110.2 -300.4,-1378.4 c 0,0 15.4,-60.8 44.1,-163.1 67.3,-239.6 208,-707.1 395,-1155 0,0 -1194.4,716.4 -1932.96,2607.7 l 144.62,1168.7 c 0,0 1621.54,224.9 2063.14,1493.1 441.5,1268.4 722.3,2247.86 722.3,2247.86 l 24.2,-4920.86 c 0,0 1468.7,31.9 1966.6,-1492.6 -15.7,32.7 -534.9,1114.1 -1396.6,1043" /><g
             transform="scale(1.03473)"
             id="g34"><path
               id="path36"
               style="fill:#22211b;fill-opacity:1;fill-rule:nonzero;stroke:none"
               d="m 11238.1,10716.6 c -501.2,-734.3 46,-922.26 46,-922.26 -637.6,-526.29 -1046.6,-263.38 -1274.8,40.97 -159.03,212.09 -230.35,444.09 -230.35,444.09 -87.27,184.1 -48.42,484.4 164.87,1075.3 205.78,570.6 -58.37,1222.7 -1028.29,1467.3 -34.22,8.9 -69.4,16.8 -105.31,24.6 -28.2,6 -55.91,12.5 -82.9,19.5 -961.49,248.2 -1336.22,1149.7 -1359.58,1207.8 -0.73,1.9 -0.97,2.9 -0.97,2.9 -4.58,-0.5 -9.16,-1.3 -13.49,-2 -10.86,-1.2 -21.46,-2.9 -31.82,-4.6 -554.96,-89.1 -884.86,-671.1 -690.64,-1198.3 92.78,-251.9 183.88,-480.3 273.27,-687.3 19.76,-45.8 39.53,-90.6 59.04,-134.2 505.09,-1128.5 950.42,-1581.3 1278.14,-1746.1 7.96,-4.1 15.91,-8 23.63,-11.6 15.65,-7.2 31.08,-14 46.02,-20 7.71,-3.2 15.18,-6 22.41,-8.7 14.7,-5.5 29.16,-10.6 43.37,-14.7 5.55,-1.9 10.85,-3.4 16.15,-4.8 29.64,-8.4 57.83,-14.5 84.58,-18.3 16.63,-2.7 32.53,-4.4 47.96,-5.3 5.29,-0.5 10.6,-0.7 15.91,-1 -142.67,-323.39 -604.63,-1232.59 -1376.95,-1464.17 -343.87,-103.13 -600.04,20.24 -786.79,218.81 -6.02,6.51 -12.05,13.01 -17.35,19.52 -302.91,337.37 -415.93,868 -422.92,901.49 -0.24,0.49 -0.24,1.21 -0.24,1.69 1089.94,-34.22 823.9,1072.86 823.9,1072.86 -961.25,171.5 -1124.4,2137.2 -231.82,3579 892.58,1442 1562.26,1081.5 1562.26,1081.5 1570.45,669.4 2034.11,-1081.5 2883.81,-1768.1 849.7,-686.5 952.5,-1338.8 943.9,-2334.6 -7.5,-888.7 463.6,-1360.3 564.6,-1451.4 0.2,0 0.2,0 0.2,-0.2 10.3,-9.2 16.6,-14.2 18.4,-15.7 l -644,337.4 -617.1,323.1 c -1,-1.4 -2.2,-3.1 -3.1,-4.5" /></g><path
             id="path38"
             style="fill:#181613;fill-opacity:1;fill-rule:nonzero;stroke:none"
             d="m 8837.96,10574.9 c -147.62,-334.6 -625.62,-1275.43 -1424.77,-1515.06 -355.82,-106.71 -620.88,20.95 -814.12,226.41 -6.23,6.74 -12.47,13.47 -17.95,20.2 513.4,-343.6 1290.86,54.86 1290.86,890.45 0,1209.5 -876.2,1154.2 -876.2,1154.2 0,0 -615.39,701.2 -524.38,2010.7 84.53,1218.1 1008.36,1209.1 1137.28,1201.9 -11.23,-1.3 -22.2,-3 -32.92,-4.8 -574.24,-92.2 -915.6,-694.4 -714.63,-1240 96,-260.5 190.26,-496.9 282.76,-711.1 20.45,-47.4 40.9,-93.7 61.09,-138.9 522.63,-1167.7 983.43,-1636.2 1322.54,-1806.8 8.23,-4.2 16.46,-8.2 24.44,-11.9 16.2,-7.5 32.16,-14.5 47.62,-20.7 7.98,-3.3 15.71,-6.2 23.19,-9 15.21,-5.7 30.17,-11 44.88,-15.2 5.74,-2 11.22,-3.5 16.71,-5 30.67,-8.7 59.84,-15 87.52,-18.9 17.2,-2.8 33.66,-4.5 49.62,-5.5 5.48,-0.5 10.97,-0.8 16.46,-1" /><path
             id="path40"
             style="fill:#f2b787;fill-opacity:1;fill-rule:nonzero;stroke:none"
             d="m 12936.5,10410.1 -666.3,349 647.1,-332.6 c 0.2,0 0.2,0 0.2,-0.2 10.7,-9.5 17.2,-14.7 19,-16.2" /><path
             id="path42"
             style="fill:#db5c39;fill-opacity:1;fill-rule:nonzero;stroke:none"
             d="m 10289.2,11749.1 c -39.2,-108.5 -72.6,-207.5 -100.8,-297.8 -130.1,-420.1 -144.1,-658 -69.8,-814.8 -1.2,-0.5 -2.2,-1 -3.5,-1.5 -10.5,-4.3 -42.6,-17.2 -90,-33.2 -1,-0.5 -2,-0.7 -3,-1 -121.93,-41.4 -340.6,-103 -543.32,-94.2 -136.14,5.7 -265.06,43.1 -352.58,139.8 0,0 -104.23,-79.5 -288.24,-71.5 -86.53,3.7 -191,26.9 -310.44,87.2 -411.67,207 -1002.87,853.6 -1666.39,2656.8 -200.97,545.6 140.39,1147.8 714.63,1240 15.21,2.5 30.92,4.8 46.88,6.8 0,0 400.95,-1042.3 1493.59,-1272.9 127.16,-27 243.86,-60.1 349.83,-98.8 805.94,-294.2 1017.84,-904.9 823.14,-1444.9" /><path
             id="path44"
             style="fill:#22211b;fill-opacity:1;fill-rule:nonzero;stroke:none"
             d="M 8775.9,4441.9 5550.14,7338.8 c -86.05,77.3 -197.63,120 -313.28,120 H 2697.78 c -114.43,0 -219.86,-62.1 -275.43,-162.1 v 0 h 264.47 L 5772.84,4429.6 8632.19,4328 8823.8,4156 v 0 c 52.67,94.8 32.8,213.4 -47.9,285.9" /><path
             id="path46"
             style="fill:#406444;fill-opacity:1;fill-rule:nonzero;stroke:none"
             d="m 8823.74,4155.9 -1216.31,43.4 -114.2,4 h -0.25 l -853.52,30.4 -181.02,6.5 -114.45,4 -661.27,23.4 -1340.49,1245.5 -125.42,116.5 -1794.55,1667.1 h 2724.52 c 115.65,0 227.22,-42.7 313.27,-120 L 8823.74,4155.9" /><path
             id="path48"
             style="fill:#2e502f;fill-opacity:1;fill-rule:nonzero;stroke:none"
             d="m 8823.74,4155.9 -1216.31,43.4 -114.2,4 h -0.25 l -853.52,30.4 -181.02,6.5 -114.45,4 -661.27,23.4 -1340.49,1245.5 425.63,286.5 4055.88,-1643.7" /><path
             id="path50"
             style="fill:#22211b;fill-opacity:1;fill-rule:nonzero;stroke:none"
             d="m 7607.43,4199.3 -114.2,4 h -0.25 l -3322.3,3093.4 h 109.71 L 7607.43,4199.3" /><path
             id="path52"
             style="fill:#22211b;fill-opacity:1;fill-rule:nonzero;stroke:none"
             d="m 6458.44,4240.2 -114.45,4 -3278.42,3052.5 h 109.72 L 6458.44,4240.2" /><path
             id="path54"
             style="fill:#ca4124;fill-opacity:1;fill-rule:nonzero;stroke:none"
             d="m 10289.2,11749.1 c -220.7,-611.5 -260.9,-922.1 -170.6,-1112.6 -1.2,-0.5 -2.2,-1 -3.5,-1.5 -30.4,-13.7 -60.6,-24.7 -90,-33.2 -1,-0.5 -2,-0.7 -3,-1 -33.66,-11.5 -74.55,-24.4 -120.68,-36.9 -83.28,251.4 -64.08,492.5 -64.08,492.5 -294.23,-258.6 -695.18,-404.2 -710.64,-409.7 1362.2,854.5 319.41,2174.3 319.41,2174.3 -1427.51,696.2 -1800.53,1680.8 -1822.47,1741.7 24.18,-60.1 411.92,-992.9 1406.81,-1249.7 27.93,-7.3 56.6,-14 85.78,-20.2 37.15,-8 73.56,-16.2 108.96,-25.5 1003.61,-253.1 1276.91,-927.8 1064.01,-1518.2" /><path
             id="path56"
             style="fill:#f2b787;fill-opacity:1;fill-rule:nonzero;stroke:none"
             d="m 8703.94,12140.5 c -67.51,-82 -169.83,-127.1 -288.13,-127.1 -254.22,0 -501.51,207.1 -551.26,461.7 -23.93,121.8 1.15,235.4 70.62,319.9 67.51,82 169.85,127.2 288.15,127.2 72.76,0 145.58,-16.6 216.6,-49.5 45.33,-20.6 88.82,-47.9 129.32,-81 107.9,-87.8 180.91,-205.3 205.58,-330.9 23.85,-122.1 -1.33,-235.9 -70.88,-320.3 z m -1094.99,-346.9 c -67.52,-82 -169.83,-127.1 -288.1,-127.1 -254.24,0 -501.6,207.1 -551.4,461.6 -2,10.2 -3.14,20.3 -4.45,30.3 l 439.98,310.5 c -15.32,34.3 -30.8,69.4 -46.31,105 243.31,-15.6 473.31,-215.7 521.12,-460.1 23.86,-122 -1.29,-235.7 -70.84,-320.2 z m -768.64,654.7 c 61.21,74.3 151.18,118 255.55,125.5 l -309.44,-218.7 c 13.13,33.7 30.83,65.1 53.89,93.2 z m 1783.91,394.6 600.97,424.4 c -35.4,9.3 -71.81,17.5 -108.96,25.5 -29.18,6.2 -57.85,12.9 -85.78,20.2 l -540.31,-381.7 c -6.33,3.1 -12.59,6.5 -18.98,9.4 -80.77,37.4 -164.16,56.3 -247.84,56.3 -141.08,0 -263.93,-54.9 -345.92,-154.5 -75.65,-92 -107.55,-211.2 -92.48,-339.4 -94.47,-8.2 -156.06,-42.1 -191.16,-69.5 -120.69,131 -291.41,216.6 -465.37,216.6 -141.03,0 -263.85,-54.8 -345.84,-154.4 -84.02,-102.1 -114.75,-237.7 -86.51,-382 56.32,-287.9 336.6,-522.1 624.81,-522.1 141.04,0 263.86,54.8 345.85,154.4 84.02,102 114.74,237.7 86.5,382 -17.57,89.8 -56.95,174.4 -111.55,248.3 26.66,20.4 76.43,47.5 157.21,53 69.78,-273.3 339.36,-490.8 616.95,-490.8 141.06,0 263.9,54.8 345.87,154.3 84.04,102.1 114.77,237.8 86.54,382.2 -27.42,139.7 -107,269.7 -224,367.8" /><g
             transform="scale(1.03473)"
             id="g58"><path
               id="path60"
               style="fill:#181613;fill-opacity:1;fill-rule:nonzero;stroke:none"
               d="m 11238.1,10716.6 c -501.2,-734.3 46,-922.26 46,-922.26 -637.6,-526.29 -1046.6,-263.38 -1274.8,40.97 -159.03,212.09 -230.35,444.09 -230.35,444.09 -87.27,184.1 -48.42,484.4 164.87,1075.3 205.78,570.6 -58.37,1222.7 -1028.29,1467.3 -34.22,8.9 -69.4,16.8 -105.31,24.6 -28.2,6 -55.91,12.5 -82.9,19.5 -961.49,248.2 -1336.22,1149.7 -1359.58,1207.8 0,0 412.3,1018.6 723.65,1556.7 1570.45,669.4 2034.11,-1081.5 2883.81,-1768.1 849.7,-686.5 952.5,-1338.8 943.9,-2334.6 -7.5,-888.7 463.6,-1360.3 564.6,-1451.4 0.2,0 0.2,0 0.2,-0.2 10.3,-9.2 16.6,-14.2 18.4,-15.7 l -644,337.4 -617.1,323.1 c -1,-1.4 -2.2,-3.1 -3.1,-4.5" /></g><path
             id="path62"
             style="fill:#406444;fill-opacity:1;fill-rule:nonzero;stroke:none"
             d="m 11689.5,4620.5 -266.6,110.2 -300.4,-1378.4 -374.8,323.6 c 35.2,-245.1 140.9,-484.2 418.9,-486.7 12,-0.2 24.2,0.3 36.9,1 511.7,31.9 503.4,1076.7 486,1430.3" /><path
             id="path64"
             style="fill:#22211b;fill-opacity:1;fill-rule:nonzero;stroke:none"
             d="m 10738.1,3720.3 c 0,0 94.7,-356.8 384.4,-368 289.6,-11.2 247.5,1164.2 247.5,1164.2 l -631.9,-796.2" /><path
             id="path66"
             style="fill:#db5c39;fill-opacity:1;fill-rule:nonzero;stroke:none"
             d="m 11504.5,3892.9 c -103.8,-645.1 -382,-540.6 -382,-540.6 l -374.8,323.6 -1119.06,966 c 0,0 -185.52,44.4 -326.4,103.7 -140.88,59.4 -311.18,689.5 -311.18,689.5 l -274.54,207.7 c 0,0 -437.35,96.5 -645.06,96.5 -79.29,0 -112.95,29.2 -124.42,65.3 -14.96,45.4 5.73,101.5 15.96,124.4 2.74,6.8 4.74,10.5 4.74,10.5 0,0 -0.5,0 -1.75,-0.2 -7.48,-1.3 -36.9,-5.3 -67.82,-2.3 -2,0 -3.99,0.3 -5.99,0.8 -31.42,3.7 -62.83,15.9 -72.8,46.1 -22.2,66.8 326.14,674.7 430.12,682.2 103.73,7.5 630.1,-7.5 630.1,-7.5 0,0 -0.5,0 -1.25,0.3 l -1.5,0.2 -478.99,110.7 c 0,0 -581.73,-263.3 -782.45,-250.1 -20.2,1.3 -36.41,5.5 -48.13,13 -126.16,81.6 734.08,652.3 837.81,630.1 l 0.75,-0.2 c 95.5,-20.2 485.98,-76.6 558.54,-87.1 l 11.71,-1.7 v 59.3 c -296.47,22.2 -333.62,430.2 -333.62,430.2 158.58,-36.7 334.87,-62.1 461.79,-77.6 104.72,-12.9 175.79,-18.9 175.79,-18.9 l 244.86,-615.4 c 118.44,0 370.53,-1149.3 370.53,-1149.3 l 1416.76,-901.1 110.7,-70.3 0.3,-0.3 c 8.7,-9.4 182.8,-208.2 81.3,-837.5" /><path
             id="path68"
             style="fill:#ca4124;fill-opacity:1;fill-rule:nonzero;stroke:none"
             d="m 9171.58,6629 -293.23,29.9 -1.5,0.2 -478.99,110.7 c 0,0 -581.73,-263.3 -782.45,-250.1 l 775.72,347.9 780.45,-238.6" /><path
             id="path70"
             style="fill:#ca4124;fill-opacity:1;fill-rule:nonzero;stroke:none"
             d="m 8976.09,7073.8 v 59.3 c -296.47,22.2 -333.62,430.2 -333.62,430.2 0,0 145.87,-317.7 496.45,-397.5 l 139.13,33.4 -121.18,-82.3 17.95,-64.5 270.05,-121 c -17.21,5.3 -291.99,90.8 -468.78,142.4" /><path
             id="path72"
             style="fill:#ca4124;fill-opacity:1;fill-rule:nonzero;stroke:none"
             d="m 7957.9,5941.6 330.38,540.1 1153.69,-340.9 c 0,0 -1004.24,233.4 -1038.32,236 -34.09,2.6 -445.75,-435.2 -445.75,-435.2" /><path
             id="path74"
             style="fill:#ca4124;fill-opacity:1;fill-rule:nonzero;stroke:none"
             d="m 7967.74,5939.5 c 0,0 356.03,109.6 393.72,118.3 37.69,8.7 530.56,8.7 837.88,-240.7 0,0 -321.82,142.1 -469.68,153.7 -147.86,11.6 -761.92,-31.3 -761.92,-31.3" /><path
             id="path76"
             style="fill:#ca4124;fill-opacity:1;fill-rule:nonzero;stroke:none"
             d="m 11504.5,3892.9 c -103.8,-645.1 -382,-540.6 -382,-540.6 146.9,-7.4 215.9,129.9 244.8,304.3 60.9,367.8 -75.2,740.9 -347.6,995.4 L 9895.44,5702.1 11422.9,4730.7 c 0,0 185.6,-192.8 81.6,-837.8" /><path
             id="path78"
             style="fill:#406444;fill-opacity:1;fill-rule:nonzero;stroke:none"
             d="M 6733.22,4118 6591.59,3099 c 0,0 -433.37,-313.7 -849.28,613.3 10.97,17.5 17.71,27 17.71,27 6.23,18.7 12.46,36.6 18.7,53.8 27.43,74.8 57.35,136.9 87.77,188.5 l 866.73,136.4" /><path
             id="path80"
             style="fill:#22211b;fill-opacity:1;fill-rule:nonzero;stroke:none"
             d="m 6367.92,3208.2 c 0,0 -341.11,11.6 -589.2,584.9 l 48.89,142.5 540.31,-727.4" /><path
             id="path82"
             style="fill:#db5c39;fill-opacity:1;fill-rule:nonzero;stroke:none"
             d="m 6733.22,4118 -88.02,-619.6 c 0,0 -35.91,-290.2 -277.28,-290.2 l -639.07,665.2 c 0,0 -583.97,-179.5 -740.31,-84.7 -156.59,94.5 -78.3,192.2 -270.8,286.9 -192.49,94.6 12.97,228.2 -150.1,306.5 -163.07,78.3 -211.94,215.2 -136.89,362 0,0 -254.34,384.8 -283.76,616.4 -17.2,134.4 28.67,220.7 69.82,269.1 0,0 269.04,261 443.34,236.9 53.36,-7.5 88.51,-32.2 107.71,-66.9 44.14,-78.8 6.74,-207.9 -85.77,-298.7 -75.8,-74.3 -110.71,-141.6 -126.92,-185.7 l 289.24,-268.6 c 95.75,74.1 232.89,180 395.47,305.2 299.47,230.2 458.05,119.2 475.5,-8.2 1.5,-9.2 2,-18.2 1.75,-27.4 -2.25,-112.5 -424.14,-432.9 -576.49,-544.9 l 84.28,-78.3 c 435.61,325.7 990.15,424.7 1032.54,318.7 43.89,-109.7 -32.91,-175.5 -32.91,-175.5 l 0.25,-0.3 c 3.99,-4 39.4,-42.9 25.68,-92.2 -2.49,-10 -7.48,-20.2 -14.96,-31 -6.23,-8.9 -20.45,-24.2 -39.65,-44.4 -0.24,0 -0.24,0 -0.24,-0.2 -95.25,-98 -320.91,-306.9 -425.64,-403.4 l 869.47,-31 93.76,-115.7" /><path
             id="path84"
             style="fill:#ca4124;fill-opacity:1;fill-rule:nonzero;stroke:none"
             d="m 4844.41,5046.6 -89.76,-74.8 -286,312.9 -161.58,-30.4 127.92,84.3 c 35.9,151.8 255.58,383.2 332.87,461 44.14,-78.8 6.74,-207.9 -85.77,-298.7 -75.8,-74.3 -110.71,-141.6 -126.92,-185.7 l 289.24,-268.6" /><path
             id="path86"
             style="fill:#ca4124;fill-opacity:1;fill-rule:nonzero;stroke:none"
             d="m 5140.64,4771.3 84.28,-78.3 c -219.68,-167.8 -534.1,-253.1 -534.1,-253.1 l 1024.56,903.7 c 1.5,-9.2 2,-18.2 1.75,-27.4 -2.25,-112.5 -424.14,-432.9 -576.49,-544.9" /><path
             id="path88"
             style="fill:#ca4124;fill-opacity:1;fill-rule:nonzero;stroke:none"
             d="m 6250.48,4743.7 c -171.55,-66.6 -512.65,-199.3 -668,-263.4 -208.7,-86.2 -554.3,-377.7 -565.02,-386.7 8.98,11 299.97,361.6 555.05,464.3 259.07,104.2 652.04,278.3 652.04,278.3 l 0.25,-0.3 c 3.99,-4 39.4,-42.9 25.68,-92.2" /><path
             id="path90"
             style="fill:#ca4124;fill-opacity:1;fill-rule:nonzero;stroke:none"
             d="m 6733.22,4118 -88.02,-619.6 c 0,0 -35.91,-290.2 -277.28,-290.2 133.9,58.3 131.91,219.4 131.91,219.4 l -629.1,653.5 -443.59,-104.9 c 278.77,343.8 629.6,598.1 768.49,691.9 -95.25,-98 -320.91,-306.9 -425.64,-403.4 l 869.47,-31 93.76,-115.7" /><path
             id="path92"
             style="fill:#dc844c;fill-opacity:1;fill-rule:nonzero;stroke:none"
             d="M 9423.17,10510.8 C 7761.03,7839.5 6636.22,9238.63 6600.06,9285 c 193.25,-204.71 458.06,-331.63 813.13,-225.16 607.66,182.28 1029.55,769.74 1261.94,1187.86 73.06,131.9 127.42,246.9 162.83,327.2 184.01,-8 288.24,71.5 288.24,71.5 75.3,-83.2 181.53,-122.9 296.97,-135.6" /><path
             id="path94"
             style="fill:#2e502f;fill-opacity:1;fill-rule:nonzero;stroke:none"
             d="m 10348.8,10188.1 c -950.56,-371.99 -1480.67,-89.2 -1673.67,59.6 73.06,131.9 127.42,246.9 162.83,327.2 184.01,-8 288.24,71.5 288.24,71.5 181.28,-200.7 542.33,-146.3 775.22,-82.5 46.13,12.5 87.02,25.4 120.68,36.9 1,0.3 2,0.5 3,1 29.4,8.5 59.6,19.5 90,33.2 1.3,0.5 2.3,1 3.5,1.5 0,0 71.3,-232.2 230.2,-448.4" /><path
             id="path96"
             style="fill:#dc844c;fill-opacity:1;fill-rule:nonzero;stroke:none"
             d="m 14677.4,3098 c -87.5,-303.5 -852.3,-1347 -1490.6,-1804.3 -187.2,-134.2 -363.3,-217.7 -508.7,-217.7 -111.4,0 -218.1,28.9 -317.9,77.1 246.1,22.4 535.9,201.9 822.6,444.8 692.2,586 1366.7,1540.2 1366.7,1540.2 -112.2,834.3 -690.9,1299.9 -690.9,1299.9 93.7,1837.9 230.9,2483 -157.4,4121.7 -160.3,675.93 -670.2,1214.53 -1336.7,1410.76 l -0.8,0.25 c -1396.1,-901.89 -1988.5,168.09 -2014,215.69 2.5,-3 4.8,-6.5 7.3,-9.5 236.1,-314.9 659.3,-586.94 1319,-42.4 0,0 -566.2,194.5 -47.6,954.3 l 641.8,-329.7 666.3,-349 c -1.8,1.5 -8.3,6.7 -19,16.2 l 401.7,-206.5 C 15054.4,9608.66 14534,3882.7 14534,3882.7 c 0,0 256.4,-392.5 143.4,-784.7" /><path
             id="path98"
             style="fill:#181613;fill-opacity:1;fill-rule:nonzero;stroke:none"
             d="M 13207.5,-247 H 6680.36 v 1934.2 l 158.33,769.4 c 0,0 113.21,22.7 264.06,226.4 0,0 912.86,-226.4 2300.97,-226.4 l 2157.88,-422.4 c 0,0 324.4,-653.7 798.6,-881.1 99.8,-48.2 206.5,-77.1 317.9,-77.1 145.4,0 321.5,83.5 508.7,217.7 l 20.7,-1540.7" /></g></g></g></g></svg>