<?xml version="1.0" encoding="UTF-8" standalone="no"?>
<!-- Created with Inkscape (http://www.inkscape.org/) -->

<svg
   version="1.1"
   id="svg2"
   width="2668"
   height="2668"
   viewBox="0 0 2668 2668"
   sodipodi:docname="boy very child with smoky flat illustration.eps"
   xmlns:inkscape="http://www.inkscape.org/namespaces/inkscape"
   xmlns:sodipodi="http://sodipodi.sourceforge.net/DTD/sodipodi-0.dtd"
   xmlns="http://www.w3.org/2000/svg"
   xmlns:svg="http://www.w3.org/2000/svg">
  <defs
     id="defs6" />
  <sodipodi:namedview
     id="namedview4"
     pagecolor="#ffffff"
     bordercolor="#000000"
     borderopacity="0.25"
     inkscape:showpageshadow="2"
     inkscape:pageopacity="0.0"
     inkscape:pagecheckerboard="0"
     inkscape:deskcolor="#d1d1d1" />
  <g
     id="g8"
     inkscape:groupmode="layer"
     inkscape:label="ink_ext_XXXXXX"
     transform="matrix(1.3333333,0,0,-1.3333333,0,2668)">
    <g
       id="g10"
       transform="scale(0.1)">
 
      <path
         d="M 19045.5,3212.1 H 964.551 v 106.8 H 19045.5 v -106.8"
         style="fill:#f2c17a;fill-opacity:1;fill-rule:nonzero;stroke:none"
         id="path16" />
      <path
         d="M 16040.8,10334.6 V 9260.9 c 28,152.3 68.7,287.6 119.5,406.6 102,239 244.2,414.1 405.3,535.4 321.7,240.7 356.8,401.8 356.8,401.8 75.3,-768.7 5.2,-1065.4 -432.1,-1346.4 -131.7,-85.4 -228.9,-164.2 -299.8,-234.2 -74.8,-72.2 -121.2,-134 -149.7,-179.9 V 7770.9 c 39,210.5 102,388.7 183,537.1 93.6,173.8 211.4,306.8 341.8,404.4 321.7,241.2 356.8,402.3 356.8,402.3 75.3,-769.1 5.2,-1065.4 -432.1,-1346.4 -94.5,-61.3 -171.1,-119.1 -233.3,-172.9 -114.6,-98.9 -179.9,-182.5 -216.2,-241.2 V 6280.5 c 48.6,263.9 135.3,476.7 247.3,644.3 80.6,122.6 175.5,221 277.5,297.6 321.7,241.2 356.8,401.9 356.8,401.9 75.3,-768.7 5.2,-1065 -432.1,-1346.4 -63.4,-40.7 -118.6,-80.1 -166.7,-118.2 -157.2,-122.1 -239.9,-226.3 -282.8,-295.5 V 4790.5 c 57.8,313.9 169.4,555.5 312.5,734.5 64.8,81.9 136.6,150.6 212.3,207.5 321.7,241.1 356.8,401.8 356.8,401.8 75.3,-768.6 5.2,-1065 -432.1,-1346.4 -35.8,-23.2 -69.1,-45.5 -99.8,-67.9 -201.3,-144.4 -301.1,-267.8 -349.7,-345.7 v -945.1 h -84.5 v 1287.3 c -52.1,81 -156.2,205.3 -363.3,350.6 -24.9,17.6 -51.6,35.5 -80.1,53.9 -436.8,281 -507.3,577.3 -432,1346.4 0,0 35.5,-161.1 356.7,-402.3 69.2,-51.6 134.9,-113.3 194.4,-186 146.6,-176 262.6,-414.5 324.3,-726.6 v 1054 c -45.5,71.4 -132.2,176.4 -293.7,299.9 -44.2,33.7 -93.6,68.7 -149.7,104.6 -436.8,281 -507.3,577.7 -432,1346.4 0,0 35.5,-161.1 356.7,-401.8 95.9,-71.8 184.8,-163.3 262.2,-275.4 114.7,-165 204.9,-375.1 256.5,-637.3 v 1053.6 c -38.5,60.4 -106.8,144.9 -224.5,244.2 -59.5,50.4 -131.3,104.2 -218.9,160.2 -436.8,281.5 -507.3,577.8 -432,1346.5 0,0 35.5,-160.7 356.7,-401.9 124.3,-93.2 237.7,-219.3 328.8,-382.1 83.1,-145.8 148.3,-321.7 189.9,-530.5 v 1053.6 c -30.6,47.7 -79.2,110.3 -155.8,182.9 -70,66.6 -163.3,141.9 -287.6,221.5 -436.8,281.5 -507.3,577.8 -432,1346.4 0,0 35.5,-160.6 356.7,-401.8 155.9,-116.9 293.7,-284.9 394.4,-512.1 52.1,-116.9 94.6,-250.4 124.3,-400.5 v 1053.6 c -20.1,31.5 -48.1,69.6 -87.5,112.9 -73.1,81.4 -185.2,182.1 -355.9,291.5 -436.8,281.5 -507.3,577.8 -432,1346.4 0,0 35.5,-160.6 356.7,-401.8 191.8,-143.6 356.3,-364.6 458.3,-678 23.7,-73.1 43.8,-151 60.4,-234.6 v 1054 c -5.7,9.2 -12.2,18.8 -19.7,28.9 -64.7,91 -188.6,224.1 -423.7,375.5 -436.8,281 -507.3,577.4 -432,1346.4 0,0 35.5,-161 356.7,-402.2 236.4,-177.3 431.6,-471.9 518.7,-912.7 v 1216.4 c -28.9,74.9 -57.8,182.1 -51.6,303.8 12.2,232.9 425,529.7 553.7,445.2 128.2,-84.1 -220.6,-360.7 -272.7,-453.1 -35.5,-62.6 -104.2,-227.1 -144.9,-326.1 v -1548.2 c 84.1,457.5 283.2,760.8 524.8,942 321.7,241.2 356.8,401.8 356.8,401.8 75.3,-768.6 5.2,-1064.9 -432.1,-1346.4 -244.2,-157.1 -369,-295.4 -431.5,-386.5 -6.6,-9.6 -12.7,-18.8 -18,-27.1 v -1073.7 c 15.8,84.4 35,164.1 58.2,238.1 101.1,327.4 269.7,556.3 466.6,703.8 321.7,241.2 356.8,401.9 356.8,401.9 75.3,-768.7 5.2,-1065 -432.1,-1346.5 -178.1,-114.6 -292.8,-219.3 -365.9,-302.9 -37.6,-42.9 -64.8,-80.5 -83.6,-110.7"
         style="fill:#4b5c77;fill-opacity:1;fill-rule:nonzero;stroke:none"
         id="path18" />
      <path
         d="m 16390.5,4720 c -201.3,-144.4 -301.1,-267.8 -349.7,-345.7 v -945.1 h -84.5 v 1287.3 c -52.1,81 -156.2,205.3 -363.3,350.6 l 39,812 c 146.6,-176 262.6,-414.5 324.3,-726.6 v 1054 c -45.5,71.4 -132.2,176.4 -293.7,299.9 l 37.2,773.8 c 114.7,-165 204.9,-375.1 256.5,-637.3 v 1053.6 c -38.5,60.4 -106.8,144.9 -224.5,244.2 l 34.6,722.7 c 83.1,-145.8 148.3,-321.7 189.9,-530.5 v 1053.6 c -30.6,47.7 -79.2,110.3 -155.8,182.9 l 31.5,654 c 52.1,-116.9 94.6,-250.4 124.3,-400.5 v 1053.6 c -20.1,31.5 -48.1,69.6 -87.5,112.9 l 27.1,558.1 c 23.7,-73.1 43.8,-151 60.4,-234.6 v 1054 c -5.7,9.2 -12.2,18.8 -19.7,28.9 l 19.7,407 84.5,-362 18,-389.1 c -6.6,-9.6 -12.7,-18.8 -18,-27.1 v -1073.7 c 15.8,84.4 35,164.1 58.2,238.1 l 25.4,-543.7 c -37.6,-42.9 -64.8,-80.5 -83.6,-110.7 V 9260.9 c 28,152.3 68.7,287.6 119.5,406.6 l 30.2,-643.4 c -74.8,-72.2 -121.2,-134 -149.7,-179.9 V 7770.9 c 39,210.5 102,388.7 183,537.1 l 33.2,-712.6 c -114.6,-98.9 -179.9,-182.5 -216.2,-241.2 V 6280.5 c 48.6,263.9 135.3,476.7 247.3,644.3 l 35.5,-765.1 c -157.2,-122.1 -239.9,-226.3 -282.8,-295.5 V 4790.5 c 57.8,313.9 169.4,555.5 312.5,734.5 l 37.2,-805"
         style="fill:#2e2d3f;fill-opacity:1;fill-rule:nonzero;stroke:none"
         id="path20" />
      <path
         d="m 17922.5,3285.7 c 0,0 -401.1,1334.6 -1272.8,918 -871.7,-416.6 -1743.4,1458 -2661.4,308.6 -918,-1149.5 -1936.2,-1434.9 -3440.5,-1072.3 -1504.25,362.6 -1959.38,-100.3 -3263.07,-7.7 -1303.69,92.5 -5006.48,-162 -5006.48,-162 L 17907,3285.7 h 15.5"
         style="fill:#f2c17a;fill-opacity:1;fill-rule:nonzero;stroke:none"
         id="path22" />
      <path
         d="M 5334.59,8503.7 5955.31,7344 5786.52,7240.5 5154.91,8433 l 179.68,70.7"
         style="fill:#1e1f2f;fill-opacity:1;fill-rule:nonzero;stroke:none"
         id="path24" />
      <path
         d="m 6922.68,7187.4 v -295.3 l 462.78,119 v 308.5 l -462.78,-132.2"
         style="fill:#1e1f2f;fill-opacity:1;fill-rule:nonzero;stroke:none"
         id="path26" />
      <path
         d="m 7169.21,14789.8 c 0,0 -2.05,-147.3 -44.47,-299.5 -20.79,-74.2 -51.39,-149.6 -95.85,-210 l -0.41,-0.4 c -23.66,-31.4 -51.4,-59.2 -83.21,-79.6 -50.58,-32.6 -112.18,-48.5 -187.23,-38.7 -22.44,2.8 -45.68,6.1 -68.94,9.8 -333.25,53.8 -727.7,185.2 -837.02,223.1 -17.53,6.1 -29.36,22.8 -29.36,41.2 0,24.9 19.98,44 44.05,44 1.64,0 3.27,-0.4 4.89,-0.4 l 617.57,-75.8 c 39.57,-4.9 78.73,-1.3 115.43,9.8 59.97,17.5 112.99,54.6 148.89,105.6 15.91,22 28.56,47.3 37.12,74.2 16.73,53.5 28.14,118.3 28.96,196.7 h 349.58"
         style="fill:#571519;fill-opacity:1;fill-rule:nonzero;stroke:none"
         id="path28" />
      <path
         d="M 17742.5,9960.1 16063.4,6921 l -354.1,511.2 -0.4,0.2 -12,17.8 -66.7,62.5 -481,453.6 -173.1,163.2 586.8,-53.9 c 111,201 120.6,345.8 89,452.2 -2.5,8.9 -5.3,17.4 -8.4,26.1 -3.3,8.4 -6.8,16.4 -10.3,24.3 -6.9,15.5 -14.9,29.7 -23.2,43.2 -0.2,0.5 -0.6,0.7 -0.7,1.3 -3.8,5.8 -7.2,11.4 -11.2,16.9 -7.4,11.1 -15.5,21.6 -23.5,31.6 -8,10 -16,19.1 -24.3,27.9 -12.6,13.4 -24.7,25.3 -36.6,36.5 -88.5,85.3 -101,199.3 -102.7,232.5 -0.3,6.2 -0.4,9.5 -0.4,9.5 5.4,11.4 11.2,22.7 17.1,33.4 73.6,133.2 215.4,216.1 369.5,212.5 l 0.4,-0.2 15,10.3 83.8,57.2 57.9,39.8 83.5,56.8 57.9,39.8 83.6,56.8 58.1,40.1 83.5,56.9 57.9,39.7 83.2,57.1 58.3,39.5 83.7,57.2 206.1,141.1 c 74.8,50.9 154.7,89.3 239.2,114.8 l 0.2,0.4 c 14,4.3 27.9,8.3 42.5,11.9 28.8,7.4 57.7,13.4 87.2,18 29.6,4.6 58.8,7.6 88.4,9 44.1,2.1 88.8,1.2 133,-3.1 29.6,-2.9 58.8,-7.4 88.2,-13.4 43.6,-8.7 86.7,-20.9 129.4,-36.5 42.6,-15.6 84,-34.3 124.3,-56.6"
         style="fill:#2e2d3f;fill-opacity:1;fill-rule:nonzero;stroke:none"
         id="path30" />
      <path
         d="m 17742.5,9959.8 -1679.1,-3039 -366.7,529.2 264.6,479 c 0,0 118,96.7 295.7,284.8 36.8,38.5 76,81.3 116.5,127.5 24.6,26.8 49.2,55.8 74.8,85.4 36.8,42.5 74.5,87.9 112.6,136 24,28.8 47.8,59.4 71.9,90.5 35.5,45.5 71.8,93.4 108.2,143.6 141.3,193.3 288.2,417.5 428.7,671.7 l 27.3,49.5 c 13.4,24.2 24.2,50 31.6,75.9 49,165.9 -21.7,349.6 -179.3,436.7 113.4,35.3 233.1,47.5 351.1,35.9 118,-11.7 234.4,-47.2 342.1,-106.7"
         style="fill:#f8d49f;fill-opacity:1;fill-rule:nonzero;stroke:none"
         id="path32" />
      <path
         d="m 15609.1,8622.3 0.2,0.4 112.5,88.8 1168.1,928.3 -286.2,-194.1 -33.4,-22.6 -108.2,-73.5 -84,-56.6 -58.2,-39.6 -83.4,-56.4 -58.2,-39.6 -83.6,-56.8 -58.2,-39.6 -84,-56.7 -43.9,-29.7 -110.9,247.2 c 4.2,-16.8 45.5,-207.8 -186.1,-411.2 -28.3,-24.9 -60.7,-49.9 -97.9,-75 12,-11.3 24.1,-23.1 36.7,-36.6 8.2,-8.7 16.2,-17.8 24.2,-27.8 8,-10 16.1,-20.6 23.5,-31.7 3.8,-5.8 7.2,-11.4 11,-17.2"
         style="fill:#1e1f2f;fill-opacity:1;fill-rule:nonzero;stroke:none"
         id="path34" />
      <path
         d="m 15777.8,9291.1 187.2,-306.5 86.1,52.6 -187.2,306.5 -86.1,-52.6"
         style="fill:#eb493a;fill-opacity:1;fill-rule:nonzero;stroke:none"
         id="path36" />
      <path
         d="m 15916.2,9392.9 187.2,-306.5 86.1,52.5 -187.2,306.6 -86.1,-52.6"
         style="fill:#eb493a;fill-opacity:1;fill-rule:nonzero;stroke:none"
         id="path38" />
      <path
         d="m 16054.6,9494.6 187.2,-306.4 86.2,52.5 -187.3,306.5 -86.1,-52.6"
         style="fill:#eb493a;fill-opacity:1;fill-rule:nonzero;stroke:none"
         id="path40" />
      <path
         d="m 16193.1,9596.5 187.2,-306.6 86.1,52.6 -187.2,306.5 -86.1,-52.5"
         style="fill:#eb493a;fill-opacity:1;fill-rule:nonzero;stroke:none"
         id="path42" />
      <path
         d="m 16331.6,9698.2 187.1,-306.5 86.1,52.6 -187.1,306.5 -86.1,-52.6"
         style="fill:#eb493a;fill-opacity:1;fill-rule:nonzero;stroke:none"
         id="path44" />
      <path
         d="m 16470,9800 187.2,-306.5 86.1,52.6 -187.2,306.5 -86.1,-52.6"
         style="fill:#eb493a;fill-opacity:1;fill-rule:nonzero;stroke:none"
         id="path46" />
      <path
         d="m 15562.9,8075.6 185.1,-21.7 c 0,0 108.3,359.6 -138,567.4 8.2,-13.8 16.2,-28 23.2,-43.1 3.5,-8 7,-16 10.3,-24.3 2.8,-8.5 5.9,-17.3 8.4,-26.1 31.6,-106.5 22,-251.2 -89,-452.2"
         style="fill:#1e1f2f;fill-opacity:1;fill-rule:nonzero;stroke:none"
         id="path48" />
      <path
         d="m 15282.8,7973.5 398.8,-368.2 -51.2,-92.7 -481.1,453.6 v 0 c 34.5,39.6 95,42.9 133.5,7.3"
         style="fill:#eb493a;fill-opacity:1;fill-rule:nonzero;stroke:none"
         id="path50" />
      <path
         d="m 17228.6,9593.9 c -7.4,-25.9 -18.2,-51.7 -31.6,-75.9 l -27.3,-49.5 c -140.5,-254.2 -287.4,-478.4 -428.7,-671.7 -36.4,-50.2 -72.7,-98.1 -108.2,-143.6 -24.1,-31.1 -47.9,-61.7 -71.9,-90.5 -38.1,-48.1 -75.8,-93.5 -112.6,-136 -25.6,-29.6 -50.2,-58.6 -74.8,-85.4 -40.5,-46.2 -79.7,-89 -116.5,-127.5 -177.7,-188.1 -295.7,-284.8 -295.7,-284.8 l -264.6,-479 142.5,566.6 c 0,0 150.2,69.7 377.4,270.2 39,35 80.2,73.3 123.3,115.7 25.4,25.2 51.1,51.9 78,79.6 37.5,39.8 76.5,82.2 116.1,128.9 l 0.3,0.4 c 24.6,27.9 49,56.5 73.5,87.3 27.3,32.7 54.5,67.3 82.4,103.1 9.5,12.1 18.6,24.3 27.7,36.6 269.4,354.1 427.5,609 510.7,755.5"
         style="fill:#1e1f2f;fill-opacity:1;fill-rule:nonzero;stroke:none"
         id="path52" />
      <path
         d="m 16122.3,8797 217.6,-394.5 c -43.1,-42.4 -84.3,-80.7 -123.3,-115.7 l -228.2,414.8 133.9,95.4"
         style="fill:#f8d49f;fill-opacity:1;fill-rule:nonzero;stroke:none"
         id="path54" />
      <path
         d="m 16339.9,8402.5 33.6,-61.2 c -40.5,-46.2 -79.7,-89 -116.5,-127.5 l -40.4,73 c 39,35 80.2,73.3 123.3,115.7"
         style="fill:#e6ac5e;fill-opacity:1;fill-rule:nonzero;stroke:none"
         id="path56" />
      <path
         d="m 16344,8956.3 190.3,-344.9 -0.3,-0.4 c -39.6,-46.7 -78.6,-89.1 -116.1,-128.9 l -208.3,379 134.4,95.2"
         style="fill:#f8d49f;fill-opacity:1;fill-rule:nonzero;stroke:none"
         id="path58" />
      <path
         d="m 16534,8611 26.9,-48.3 c -38.1,-48.1 -75.8,-93.5 -112.6,-136 l -30.4,55.4 c 37.5,39.8 76.5,82.2 116.1,128.9"
         style="fill:#e6ac5e;fill-opacity:1;fill-rule:nonzero;stroke:none"
         id="path60" />
      <path
         d="m 16565.2,9115.8 152.7,-277.4 c -9.1,-12.3 -18.2,-24.5 -27.7,-36.6 -27.9,-35.8 -55.1,-70.4 -82.4,-103.1 l -176.6,321.7 134,95.4"
         style="fill:#f8d49f;fill-opacity:1;fill-rule:nonzero;stroke:none"
         id="path62" />
      <path
         d="m 16717.9,8838.4 23.1,-41.6 c -36.4,-50.2 -72.7,-98.1 -108.2,-143.6 l -25,45.5 c 27.3,32.7 54.5,67.3 82.4,103.1 9.5,12.1 18.6,24.3 27.7,36.6"
         style="fill:#e6ac5e;fill-opacity:1;fill-rule:nonzero;stroke:none"
         id="path64" />
      <path
         d="m 17613.5,9726.3 -1550.1,-2805.5 -366.7,529.2 264.6,479 c 0,0 118,96.7 295.7,284.8 36.8,38.5 76,81.3 116.5,127.5 24.6,26.8 49.2,55.8 74.8,85.4 36.8,42.5 74.5,87.9 112.6,136 24,28.8 47.8,59.4 71.9,90.5 35.5,45.5 71.8,93.4 108.2,143.6 141.3,193.3 288.2,417.5 428.7,671.7 l 27.3,49.5 c 13.4,24.2 24.2,50 31.6,75.9 l 384.9,132.4"
         style="fill:#e6ac5e;fill-opacity:1;fill-rule:nonzero;stroke:none"
         id="path66" />
      <path
         d="m 15245.7,9070.1 -0.4,-1.2 -377.3,-733.4 -58.4,-113.8 -322.2,-627.4 -13.5,-26.1 -41.2,-80.3 -39.9,-77.5 -1380.8,837.4 -496.4,600 V 5668.2 l -134.2,-186.4 25.7,-392.8 h -1794 l 72.2,434.4 -128.9,186 -10.6,1907.8 H 5980.58 l -493.16,946.7 c 0,0 580.45,674.7 1071.16,1135.6 l 876.99,500.9 c 0.41,0 0.41,0 0.41,0 l 0.4,0.5 c 361.81,157.8 524.56,-80.8 558.83,-140.8 4.49,-8.2 6.93,-13 6.93,-13 h 387.92 l 341.01,98.3 372,185.2 1355.03,674.6 299,148.9 79.6,39.6 c 62,31 126.4,54.2 192.1,69.7 50.6,13.1 102,20.8 153.8,24.5 183.9,13 370.3,-29.4 533.9,-126 l 601.3,-356.5 2927.9,-1735.3"
         style="fill:#fab240;fill-opacity:1;fill-rule:nonzero;stroke:none"
         id="path68" />
      <path
         d="m 14473.9,7568.2 -81.1,-157.8 -1380.8,837.4 -496.4,600 -1459.9,913.3 H 8114.31 l -909.62,-901 c 39.57,45.2 684.05,773.7 790.52,1200 4.49,-8.2 6.93,-13 6.93,-13 h 387.92 l 341.01,98.3 372,185.2 1355.03,674.6 299,148.9 79.6,39.6 c 62,31 126.4,54.2 192.1,69.7 -249.6,-294.5 -514.8,-662.8 -455.6,-840.7 107.2,-321.8 741.9,232.5 643.6,786.9 0,0 384.3,-402.6 241.5,-1046.3 l 1153.2,-1108.7 500.5,-661.2 1361.9,-825.2"
         style="fill:#ef6b2d;fill-opacity:1;fill-rule:nonzero;stroke:none"
         id="path70" />
      <path
         d="m 13723.4,3303.2 h -3472.1 l 276.2,557.2 v 0.4 l 9.8,19.2 22.4,88.5 164.4,640.4 59.1,230.4 236.6,-539.6 c 229.7,0 361,61.6 438.9,140.7 6.5,6.6 12.7,13.1 18.8,20 5.7,7 11,13.9 16.3,20.8 10.2,13.5 18.7,27.3 26.5,41.2 0.4,0.4 0.4,0.8 0.8,1.2 3.3,6.2 6.5,11.9 9.4,18 6.1,11.8 11.4,24 16.3,35.9 4.9,11.8 9,23.2 12.7,34.7 5.7,17.5 10.2,33.8 14.2,49.7 31.9,118.7 125.7,184.8 153.8,202.3 5.3,3.3 8.2,4.9 8.2,4.9 12.6,0.8 25.3,1.3 37.5,1.3 152.2,0 293.3,-84.1 364.7,-220.7 v -0.4 l 16.3,-8.2 90.5,-45.7 62.9,-31.4 90.1,-45.7 62.8,-31.4 90.2,-45.7 63.2,-31.4 90.2,-45.7 62.7,-31.4 90.2,-45.2 62.8,-31.8 90.6,-45.7 223.1,-112.2 c 80.8,-40.8 153,-92.2 216.2,-153.8 h 0.4 c 10.6,-10.2 20.8,-20.4 31,-31.4 20.4,-21.6 39.6,-44.1 57.9,-67.7 18.4,-23.7 35.1,-47.7 50.6,-73 23.3,-37.6 44,-77.1 61.6,-117.9 11.8,-27.3 22,-55.1 31,-83.6 13.5,-42.5 23.7,-86.1 30.6,-131 6.9,-44.8 10.6,-90.1 10.6,-136.2"
         style="fill:#2e2d3f;fill-opacity:1;fill-rule:nonzero;stroke:none"
         id="path72" />
      <path
         d="m 13723.1,3303.1 h -3472 L 10537,3880 h 547.2 c 0,0 141.7,-56.4 392.3,-121 51.4,-13.6 107.9,-27.2 167.9,-40.3 35.3,-8.6 72.6,-16.2 111,-24.2 54.9,-11.6 112.9,-22.7 173.5,-32.8 36.8,-7.1 75.1,-13.1 113.9,-19.2 57,-9.1 116.5,-17.6 178,-25.2 237.6,-30.3 504.8,-50.4 795.3,-50.4 h 56.5 c 27.7,0 55.5,3 81.7,9 168.9,37.4 295.5,188.1 295.5,368.2 85.7,-82.2 154.3,-181.1 201.2,-290 46.9,-108.9 72.1,-227.9 72.1,-351"
         style="fill:#f8d49f;fill-opacity:1;fill-rule:nonzero;stroke:none"
         id="path74" />
      <path
         d="m 11520.7,4523.6 h 0.4 l 132.2,-55.5 1377.4,-573.5 -308.3,156.7 -35.9,18.3 -116.7,59.2 -90.1,46 -62.8,31.9 -89.8,45.7 -62.8,31.8 -90.2,45.7 -62.8,31.8 -90.1,46.1 -47.3,24 162.7,216.6 c -12.6,-11.8 -159.9,-140.3 -449.9,-35.9 -35.5,12.7 -73,29 -113,49.4 -4.1,-15.9 -8.6,-32.2 -14.3,-49.8 -3.6,-11.4 -7.7,-22.8 -12.6,-34.6 -4.9,-11.9 -10.2,-24.1 -16.3,-35.9 -3.3,-6.2 -6.6,-11.9 -9.8,-18"
         style="fill:#1e1f2f;fill-opacity:1;fill-rule:nonzero;stroke:none"
         id="path76" />
      <path
         d="m 12187.7,4699.4 -177.8,-312.1 87.7,-49.9 177.7,312.1 -87.6,49.9"
         style="fill:#eb493a;fill-opacity:1;fill-rule:nonzero;stroke:none"
         id="path78" />
      <path
         d="m 12343.7,4627.5 -177.8,-312.1 87.7,-50 177.7,312.1 -87.6,50"
         style="fill:#eb493a;fill-opacity:1;fill-rule:nonzero;stroke:none"
         id="path80" />
      <path
         d="m 12499.7,4555.5 -177.7,-312.1 87.6,-49.9 177.8,312.1 -87.7,49.9"
         style="fill:#eb493a;fill-opacity:1;fill-rule:nonzero;stroke:none"
         id="path82" />
      <path
         d="m 12655.8,4483.6 -177.8,-312.1 87.7,-50 177.7,312.1 -87.6,50"
         style="fill:#eb493a;fill-opacity:1;fill-rule:nonzero;stroke:none"
         id="path84" />
      <path
         d="m 12811.8,4411.6 -177.7,-312.1 87.6,-49.9 177.8,312 -87.7,50"
         style="fill:#eb493a;fill-opacity:1;fill-rule:nonzero;stroke:none"
         id="path86" />
      <path
         d="m 12967.9,4339.6 -177.8,-312 87.7,-50 177.7,312.1 -87.6,49.9"
         style="fill:#eb493a;fill-opacity:1;fill-rule:nonzero;stroke:none"
         id="path88" />
      <path
         d="m 11019.8,4299.7 70.6,-172.6 c 0,0 367.1,79.2 429.9,395.3 -8.2,-13.9 -16.7,-27.7 -26.5,-41.2 -5.3,-6.9 -10.6,-13.9 -16.3,-20.8 -6.2,-6.5 -12.3,-13.5 -18.8,-20 -77.9,-79.1 -209.3,-140.7 -438.9,-140.7"
         style="fill:#1e1f2f;fill-opacity:1;fill-rule:nonzero;stroke:none"
         id="path90" />
      <path
         d="m 10795,4495.4 -129.4,-527.1 h -105.9 l 164.4,640.4 v 0 c 51.3,-11 83.4,-62.3 70.9,-113.3"
         style="fill:#eb493a;fill-opacity:1;fill-rule:nonzero;stroke:none"
         id="path92" />
      <path
         d="m 13154.3,3575.9 c -26.2,-6 -54,-9 -81.7,-9 h -56.5 c -290.5,0 -557.7,20.1 -795.3,50.4 -61.5,7.6 -121,16.1 -178,25.2 -38.8,6.1 -77.1,12.1 -113.9,19.2 -60.6,10.1 -118.6,21.2 -173.5,32.8 -38.4,8 -75.7,15.6 -111,24.2 -60,13.1 -116.5,26.7 -167.9,40.3 -250.6,64.6 -392.3,121 -392.3,121 H 10537 l 564.8,149.3 c 0,0 133.6,-97.8 419.1,-199.7 49.4,-17.1 102.9,-34.8 160.8,-51.9 34.3,-10.1 70.1,-19.7 107.5,-29.8 52.9,-13.6 108.9,-27.2 168.9,-39.3 h 0.5 c 36.3,-8.1 73.1,-15.7 112,-22.2 41.8,-8.1 85.2,-15.1 130.1,-22.2 15.1,-2.5 30.2,-4.5 45.4,-6.6 440.2,-64.5 739.8,-79.6 908.2,-81.7"
         style="fill:#1e1f2f;fill-opacity:1;fill-rule:nonzero;stroke:none"
         id="path94" />
      <path
         d="m 11921.8,4158.9 -240.1,-381.2 c -57.9,17.1 -111.4,34.8 -160.8,51.9 l 252.6,400.4 148.3,-71.1"
         style="fill:#f8d49f;fill-opacity:1;fill-rule:nonzero;stroke:none"
         id="path96" />
      <path
         d="m 11681.7,3777.7 -37.3,-59 c -60,13.1 -116.5,26.7 -167.9,40.3 l 44.4,70.6 c 49.4,-17.1 102.9,-34.8 160.8,-51.9"
         style="fill:#e6ac5e;fill-opacity:1;fill-rule:nonzero;stroke:none"
         id="path98" />
      <path
         d="m 12168.4,4041.9 -209.8,-333.3 h -0.5 c -60,12.1 -116,25.7 -168.9,39.3 l 230.9,365.6 148.3,-71.6"
         style="fill:#f8d49f;fill-opacity:1;fill-rule:nonzero;stroke:none"
         id="path100" />
      <path
         d="m 11958.1,3708.6 -29.2,-46.9 c -60.6,10.1 -118.6,21.2 -173.5,32.8 l 33.8,53.4 c 52.9,-13.6 108.9,-27.2 168.9,-39.3"
         style="fill:#e6ac5e;fill-opacity:1;fill-rule:nonzero;stroke:none"
         id="path102" />
      <path
         d="m 12415,3925.4 -168.9,-267.8 c -15.2,2.1 -30.3,4.1 -45.4,6.6 -44.9,7.1 -88.3,14.1 -130.1,22.2 l 196.1,310.1 148.3,-71.1"
         style="fill:#f8d49f;fill-opacity:1;fill-rule:nonzero;stroke:none"
         id="path104" />
      <path
         d="m 12246.1,3657.6 -25.3,-40.3 c -61.5,7.6 -121,16.1 -178,25.2 l 27.8,43.9 c 41.8,-8.1 85.2,-15.1 130.1,-22.2 15.1,-2.5 30.2,-4.5 45.4,-6.6"
         style="fill:#e6ac5e;fill-opacity:1;fill-rule:nonzero;stroke:none"
         id="path106" />
      <path
         d="M 13456.4,3303.1 H 10251.1 L 10537,3880 h 547.2 c 0,0 141.7,-56.4 392.3,-121 51.4,-13.6 107.9,-27.2 167.9,-40.3 35.3,-8.6 72.6,-16.2 111,-24.2 54.9,-11.6 112.9,-22.7 173.5,-32.8 36.8,-7.1 75.1,-13.1 113.9,-19.2 57,-9.1 116.5,-17.6 178,-25.2 237.6,-30.3 504.8,-50.4 795.3,-50.4 h 56.5 c 27.7,0 55.5,3 81.7,9 l 302.1,-272.8"
         style="fill:#e6ac5e;fill-opacity:1;fill-rule:nonzero;stroke:none"
         id="path108" />
      <path
         d="m 5615.91,13991.5 c -73.43,-81.2 -173.36,-153.4 -304.3,-213.8 -8.56,-4 -17.13,-8.1 -26.1,-11.8 l -75.87,-399.7 c 0,0 0,0 -0.41,0.4 -11.83,5.3 -268.8,120.7 -646.11,193.3 -208.86,40 -454.41,66.9 -715.88,54.3 l -80.76,258.2 298.59,385 -50.59,313.7 c 0,0 -141.95,177.5 20.39,324.3 161.95,146.8 587.39,-136.6 587.39,-136.6 v 506.1 l 156.64,121.6 -531.51,410.4 708.94,217.8 c 0,0 0,-0.4 0.41,-0.8 31.41,-32.7 1281.63,-1338 659.17,-2022.4"
         style="fill:#f57a5d;fill-opacity:1;fill-rule:nonzero;stroke:none"
         id="path110" />
      <path
         d="m 4956.33,16014.7 -708.94,-217.8 531.51,-410.4 -156.64,-121.6 v -506.1 c 0,0 -385.87,256.9 -562.5,154.5 -8.97,-4.9 -17.13,-11 -24.89,-17.9 -162.34,-146.8 -20.39,-324.3 -20.39,-324.3 l 50.59,-313.7 -298.59,-385 -1028.73,777.4 c 0,0 99.12,436.1 397.71,695.9 0,0 -206.41,684.9 799.07,1151.5 0.41,0 0.82,0.4 1.23,0.4 258.61,119.6 596.76,224.8 1038.52,300.3 l -17.95,-783.2"
         style="fill:#571519;fill-opacity:1;fill-rule:nonzero;stroke:none"
         id="path112" />
      <path
         d="m 2687.34,15112.6 c 0,0 51.44,163.7 378.76,247.8 0,0 -383.44,102.9 -378.76,-247.8"
         style="fill:#571519;fill-opacity:1;fill-rule:nonzero;stroke:none"
         id="path114" />
      <path
         d="m 10838.7,12184.5 c 0,0 -1.6,1.2 -4.9,3.2 -49.8,36.3 -94.2,43.7 -133.8,30.6 -0.4,-0.4 -0.8,-0.4 -1.6,-0.4 -186.8,-62.4 -266.4,-564.1 -266.4,-564.1 h -352 c 0,0 -307.55,-277.8 -580.04,-312.5 -272.89,-34.6 -396.89,64.5 -396.89,64.5 l -1512.91,-406.7 -153.78,-798.2 c 0,0 0,0 -0.4,-0.5 l -877.4,-500.9 C 6067.87,9238.6 5487.42,8563.9 5487.42,8563.9 l -1765.81,2474.8 c -327.14,1269.8 15.09,1795.6 15.09,1795.6 l 39.57,401.7 -55.89,366.7 126.86,11.5 c 733,35.1 1343.63,-239.5 1361.99,-247.6 0.41,-0.4 0.41,-0.4 0.41,-0.4 l 375.67,-303.1 c 0.82,-0.4 1.23,-0.8 1.23,-0.8 l 1116.03,-208 c 0,0 0,0 0.4,0.4 21.62,18.7 42.43,35 63.22,49.7 48.96,35.1 95.45,60 139.92,76.7 184.78,69.8 328.36,-0.4 412.38,-65.7 50.18,-39.1 79.14,-76.2 82.81,-80.7 l 0.41,-0.4 v -178.7 c 35.08,-1.6 70.97,-2.8 107.28,-4.9 1083.38,-49.4 2759.01,-191.3 3037.21,-272.9 287.6,-84 292.5,-193.3 292.5,-193.3"
         style="fill:#4b5c77;fill-opacity:1;fill-rule:nonzero;stroke:none"
         id="path116" />
      <path
         d="m 12294.8,10956.3 -519.5,469.1 -936.6,759.1 c -287.6,218.2 -406.7,-530.7 -406.7,-530.7 149.3,-208 91,-476.4 26.1,-648.6 -39.1,-104 -80.7,-172.9 -80.7,-172.9 236.1,-12.3 337.7,182.3 379.7,321.8 23.3,76.7 28.6,136.7 28.6,136.7 200.7,151.7 339.3,55.8 396.9,-2.9 93,6.6 186.6,-1.1 277.6,-22.7 l 377.2,-470.9 c 20.4,-25.5 54.3,-35.9 85.4,-26.4 48.4,14.7 71,70.1 46.8,114.5 l -104.7,191.5 452.9,-268.5 c 29.2,49.3 19.5,112.4 -23,150.9"
         style="fill:#f57a5d;fill-opacity:1;fill-rule:nonzero;stroke:none"
         id="path118" />
      <path
         d="m 10698.4,12217.9 c -186.8,-62.4 -266.4,-564.1 -266.4,-564.1 h -352 c 0,0 -307.55,-277.8 -580.04,-312.5 -272.89,-34.6 -396.89,64.5 -396.89,64.5 l -1512.91,-406.7 c 155.42,983.9 -188.45,1142.1 -188.45,1142.1 v 514.4 c 35.08,-1.6 70.97,-2.8 107.28,-4.9 v -475.6 c 235.36,-175 295.73,-329.6 295.73,-329.6 h 1386.06 c 121.14,524.6 693.02,558.4 693.02,558.4 -457.66,-121.1 -511.51,-551.9 -511.51,-551.9 h 962.21 c 130.6,282.3 266.4,357.4 363.9,365.9"
         style="fill:#2e2d3f;fill-opacity:1;fill-rule:nonzero;stroke:none"
         id="path120" />
      <path
         d="m 7436.38,10200.9 c 0,0 0,0 -0.4,-0.5 l -877.4,-500.9 C 6067.87,9238.6 5487.42,8563.9 5487.42,8563.9 l -1765.81,2474.8 c -327.14,1269.8 15.09,1795.6 15.09,1795.6 l 39.57,401.7 -55.89,366.7 126.86,11.5 c 733,35.1 1343.63,-239.5 1361.99,-247.6 0.41,-0.4 0.41,-0.4 0.41,-0.4 l 375.67,-303.1 c -33.44,17.9 -663.65,354.1 -1423.57,240.3 0,0 890.04,7.7 1288.16,-398.2 0,0 -530.69,187.3 -647.76,-242.3 -117.47,-429.5 1467.64,-2170.8 2131.7,-2553.4 l 502.54,91.4"
         style="fill:#2e2d3f;fill-opacity:1;fill-rule:nonzero;stroke:none"
         id="path122" />
      <path
         d="m 6702.97,12854.7 v -886.8 c 0,0 691.11,-57.3 877.31,-451.2 0,0 -365.24,322.3 -751.97,207.7 l 451.18,-1332.1 -658.86,1382.2 c 0,0 -580.09,866.6 -1210.31,1267.6 0,0 551.44,-250.6 945.33,-687.5 h 179.04 l 168.28,500.1"
         style="fill:#2e2d3f;fill-opacity:1;fill-rule:nonzero;stroke:none"
         id="path124" />
      <path
         d="m 4297.77,14844.4 287.84,-317 c 0,0 -218.61,-145.7 -448.16,83.9 -229.54,229.5 58.3,316.9 160.32,233.1"
         style="fill:#eb493a;fill-opacity:1;fill-rule:nonzero;stroke:none"
         id="path126" />
      <path
         d="m 5615.91,13991.5 c -73.43,-81.2 -173.36,-153.4 -304.3,-213.8 -191.71,-13.8 -440.13,63.7 -748.49,341.1 v -558.9 c -208.86,40 -454.41,66.9 -715.88,54.3 l -80.76,258.2 298.59,385 -50.59,313.7 c 0,0 310.83,-356.1 680.39,-189.3 0,0 324.69,-666.1 921.04,-390.3"
         style="fill:#eb493a;fill-opacity:1;fill-rule:nonzero;stroke:none"
         id="path128" />
      <path
         d="m 4974.28,16797.9 -726.89,-1001 708.94,217.8 z"
         style="fill:#2b1514;fill-opacity:1;fill-rule:nonzero;stroke:none"
         id="path130" />
      <path
         d="m 4065.07,14257.4 -298.59,-385 -1028.73,777.4 c 0,0 99.12,436.1 397.71,695.9 0,0 -206.41,684.9 799.07,1151.5 -307.56,-261 -553.12,-649.8 -371.18,-1184.9 -2.86,26.9 -41.61,418.1 214.14,690.6 0,0 -290.43,-493.6 282.27,-1089.6 -8.97,-4.9 -17.13,-11 -24.89,-17.9 -162.34,-146.8 -20.39,-324.3 -20.39,-324.3 l 50.59,-313.7"
         style="fill:#2b1514;fill-opacity:1;fill-rule:nonzero;stroke:none"
         id="path132" />
      <path
         d="m 12381.4,5481.8 h -1196 V 5089 h -572.3 l 72.2,434.4 -128.9,186 -10.6,1907.8 H 5980.58 l -493.16,946.7 c 0,0 580.45,674.7 1071.16,1135.6 l 876.99,500.9 c 0.41,0 0.41,0 0.41,0 L 6165.77,8854.8 v 0 c 297.16,-560.2 879.43,-910.5 1513.56,-910.5 h 2809.37 c 0,0 372,633.5 1250.7,1139.7 -23.7,-20.4 -775.5,-682 -775.5,-1796.8 0,-1132.4 0,-1631.2 0,-1631.2 l 1417.5,-174.2"
         style="fill:#ef6b2d;fill-opacity:1;fill-rule:nonzero;stroke:none"
         id="path134" />
      <path
         d="m 12923.1,6530.9 1.2,-6.1 c 0,0 -1.2,2 -1.2,6.1"
         style="fill:#ef6b2d;fill-opacity:1;fill-rule:nonzero;stroke:none"
         id="path136" />
      <path
         d="M 10545.8,7617.2 5714.43,6991.5 c 0,0 -32.49,440.1 266.15,625.7 h 4565.22"
         style="fill:#eb493a;fill-opacity:1;fill-rule:nonzero;stroke:none"
         id="path138" />
      <path
         d="m 5191.69,8160.1 -848.44,1424 -104.42,175.4 -704.45,1181.7 c 0,0 307.15,355.7 816.62,-469.1 315.31,-510.3 735.86,-1172.7 1010.78,-1603.5 154.19,-241.9 77.1,-562.9 -170.09,-708.5"
         style="fill:#eb493a;fill-opacity:1;fill-rule:nonzero;stroke:none"
         id="path140" />
      <path
         d="m 11735.7,5089 v -219.9 c 0,0 -2.9,-1.6 -8.2,-4.9 -28.1,-17.5 -121.9,-83.6 -153.8,-202.3 -4,-15.9 -8.5,-32.2 -14.2,-49.7 -3.7,-11.5 -7.8,-22.9 -12.7,-34.7 -4.9,-11.9 -10.2,-24.1 -16.3,-35.9 -2.9,-6.1 -6.1,-11.8 -9.4,-18 -0.4,-0.4 -0.4,-0.8 -0.8,-1.2 -7.8,-13.9 -16.3,-27.7 -26.5,-41.2 -5.3,-6.9 -10.6,-13.8 -16.3,-20.8 -6.1,-6.9 -12.3,-13.4 -18.8,-20 -77.9,-79.1 -209.2,-140.7 -438.9,-140.7 l -236.6,539.6 V 5089 h 952.5"
         style="fill:#f8d49f;fill-opacity:1;fill-rule:nonzero;stroke:none"
         id="path142" />
      <path
         d="m 15562.6,8075.7 -586.5,53.8 -166.5,92.2 58.4,113.8 377.3,733.4 165.2,-91.4 c 0,0 0,-3.2 0.4,-9.3 1.6,-33.1 14.3,-147.3 102.8,-232.6 11.8,-11 24,-22.8 36.3,-36.2 8.6,-9 16.3,-18 24.5,-28.2 7.7,-9.8 15.9,-20.4 23.6,-31.4 3.7,-5.7 7.4,-11 11,-17.1 0,-0.4 0.4,-0.9 0.8,-1.3 8.2,-13.4 16.4,-27.7 23.3,-43.2 3.3,-7.8 6.9,-15.9 10.2,-24.1 2.9,-8.9 5.7,-17.1 8.1,-26.1 31.9,-106.4 22.1,-251.2 -88.9,-452.3"
         style="fill:#f8d49f;fill-opacity:1;fill-rule:nonzero;stroke:none"
         id="path144" />
      <path
         d="m 7314.01,13185.1 c -10.19,-38 -2.04,-177.1 4.48,-269.7 -84.02,65.3 -227.6,135.5 -412.38,65.7 -44.47,-16.7 -90.96,-41.6 -139.92,-76.7 l -45.68,279.4 23.66,539.7 -241.88,-85.3 c 0,0 -62,50.2 -14.69,100 47.31,50.1 132.57,121.1 132.57,121.1 l -235.77,-62 c 0,0 -44.06,91.4 62,138.7 106.06,46.9 285.94,112.2 285.94,112.2 l -43.24,123.2 -84.44,241.9 c -13.04,37.9 4.09,79.5 39.98,96.6 31.01,15.1 70.56,24.9 108.91,9 21.22,-9 42.02,-26.1 61.19,-55.1 l 130.53,-263.5 c 31.81,20.4 59.55,48.2 83.21,79.6 l 0.41,0.4 c 44.46,60.4 75.06,135.8 95.85,210 21.62,-9.7 53.85,-24.8 90.96,-43.6 94.64,-46.9 217.83,-114.6 256.57,-164.4 34.27,-44.4 78.33,-173.3 112.18,-286.3 35.9,-120 22.84,-248.9 -36.71,-359 -92.59,-170.1 -223.94,-414.8 -233.73,-451.9"
         style="fill:#f57a5d;fill-opacity:1;fill-rule:nonzero;stroke:none"
         id="path146" />
      <path
         d="m 6744.17,13723.5 -241.88,-85.3 c 0,0 -62,50.2 -14.69,100 47.31,50.1 132.57,121.1 132.57,121.1 l -235.77,-62 c 0,0 -44.06,91.4 62,138.7 106.06,46.9 285.94,112.2 285.94,112.2 0,0 19.58,-105.3 11.83,-324.7"
         style="fill:#eb493a;fill-opacity:1;fill-rule:nonzero;stroke:none"
         id="path148" />
      <path
         d="m 6945.27,14200.3 c 31.81,20.4 59.55,48.2 83.21,79.6 l 0.41,0.4 c 44.46,60.4 75.06,135.8 95.85,210 21.62,-9.7 53.85,-24.8 90.96,-43.6 -7.34,-30.2 -17.54,-63.2 -31.41,-88.5 0,0 154.6,-106.1 194.17,-169.7 39.57,-63.6 -217.41,-449.1 -433.19,11.8"
         style="fill:#eb493a;fill-opacity:1;fill-rule:nonzero;stroke:none"
         id="path150" />
      <path
         d="m 10150.6,3303.2 h -205.61 l -518.85,3996.6 c -6.94,50.6 -24.89,90.6 -47.33,105.3 -6.11,3.6 -15.49,8.1 -31.4,3.6 L 5521.28,6315.2 C 5417.26,6285.4 5311.2,6276 5207.6,6285.8 L 4601.05,3303.2 h -208.44 l 615.53,3025.4 c -83.63,29 -163.17,71 -236.59,126 -216.19,163.2 -340.19,412 -340.19,682.9 v 1003 c 0,75.9 -14.28,150.1 -43.24,220.7 l -363.84,891.3 c -70.17,171.3 -6.94,367.1 149.29,465.8 l 65.26,41.2 104.42,-175.4 -60.78,-38.3 c -72.6,-45.7 -101.97,-136.7 -69.34,-216.2 l 363.85,-891.3 c 38.76,-95 58.34,-195 58.34,-297.8 v -1003 c 0,-206.4 94.62,-395.7 259.01,-519.7 164.79,-124.4 372.82,-163.2 571.06,-106.4 l 3826.14,1093.1 c 68.93,20 139.5,9.8 198.65,-28.5 51.79,-33.9 117.88,-104.4 138.27,-248.8 l 522.15,-4024"
         style="fill:#1e1f2f;fill-opacity:1;fill-rule:nonzero;stroke:none"
         id="path152" />
    </g>
  </g>
</svg>
