<?xml version="1.0" encoding="UTF-8" standalone="no"?>
<svg
   xmlns:dc="http://purl.org/dc/elements/1.1/"
   xmlns:cc="http://creativecommons.org/ns#"
   xmlns:rdf="http://www.w3.org/1999/02/22-rdf-syntax-ns#"
   xmlns:svg="http://www.w3.org/2000/svg"
   xmlns="http://www.w3.org/2000/svg"
   viewBox="0 0 2666.6667 2666.6667"
   height="2666.6667"
   width="2666.6667"
   xml:space="preserve"
   id="svg2"
   version="1.1"><metadata
     id="metadata8"><rdf:RDF><cc:Work
         rdf:about=""><dc:format>image/svg+xml</dc:format><dc:type
           rdf:resource="http://purl.org/dc/dcmitype/StillImage" /></cc:Work></rdf:RDF></metadata><defs
     id="defs6" /><g
     transform="matrix(1.3333333,0,0,-1.3333333,0,2666.6667)"
     id="g10"><g
       transform="scale(0.1)"
       id="g12"><g
         transform="scale(1.18869)"
         id="g18"><path
           id="path20"
           style="fill:#d3613525;fill-opacity:1;fill-rule:nonzero;stroke:none"
           d="m 2306.4,4230.46 c 0,0 -2422.08,3048.5 -417.6,3612.23 2004.48,563.81 208.8,1920.97 187.92,3132.01 -20.88,1211 1310.07,1214.8 2651.77,0 965.03,-873.8 1941.98,19.5 3063.48,611.8 1312.36,693.1 2899.53,-207.6 2968.33,-1690.13 61,-1317.49 -214.4,-2473.9 1798.2,-2032.82 C 15607,8531.74 16300,5253.61 15151.6,4209.6 l -12845.2,20.86" /></g><path
         id="path22"
         style="fill:#d36135db;fill-opacity:1;fill-rule:nonzero;stroke:none"
         d="M 9555.4,7797.7 H 7498.93 c -114.75,0 -207.77,93.1 -207.77,207.8 v 0 c 0,114.8 93.02,207.8 207.77,207.8 H 9555.4 c 114.75,0 207.77,-93 207.77,-207.8 v 0 c 0,-114.7 -93.02,-207.8 -207.77,-207.8" /><path
         id="path24"
         style="fill:#2f1925;fill-opacity:1;fill-rule:nonzero;stroke:none"
         d="M 8369.1,7489.2 H 7349.59 c -16.3,0 -29.51,13.2 -29.51,29.5 V 7641 c 0,16.3 13.21,29.5 29.51,29.5 H 8369.1 c 16.3,0 29.51,-13.2 29.51,-29.5 v -122.3 c 0,-16.3 -13.21,-29.5 -29.51,-29.5" /><path
         id="path26"
         style="fill:#2f1925;fill-opacity:1;fill-rule:nonzero;stroke:none"
         d="M 9703.07,7192.5 H 7349.59 c -16.3,0 -29.51,13.2 -29.51,29.5 v 122.3 c 0,16.3 13.21,29.5 29.51,29.5 h 2353.48 c 16.3,0 29.51,-13.2 29.51,-29.5 V 7222 c 0,-16.3 -13.21,-29.5 -29.51,-29.5" /><path
         id="path28"
         style="fill:#2f1925;fill-opacity:1;fill-rule:nonzero;stroke:none"
         d="M 9703.07,6899.8 H 7349.59 c -16.3,0 -29.51,13.2 -29.51,29.5 v 122.3 c 0,16.3 13.21,29.5 29.51,29.5 h 2353.48 c 16.3,0 29.51,-13.2 29.51,-29.5 v -122.3 c 0,-16.3 -13.21,-29.5 -29.51,-29.5" /><path
         id="path30"
         style="fill:#2f1925;fill-opacity:1;fill-rule:nonzero;stroke:none"
         d="M 9703.07,6607.1 H 7349.59 c -16.3,0 -29.51,13.2 -29.51,29.5 v 122.3 c 0,16.3 13.21,29.5 29.51,29.5 h 2353.48 c 16.3,0 29.51,-13.2 29.51,-29.5 v -122.3 c 0,-16.3 -13.21,-29.5 -29.51,-29.5" /><path
         id="path32"
         style="fill:#2f1925;fill-opacity:1;fill-rule:nonzero;stroke:none"
         d="M 9703.07,6314.4 H 7349.59 c -16.3,0 -29.51,13.2 -29.51,29.5 v 122.3 c 0,16.3 13.21,29.5 29.51,29.5 h 2353.48 c 16.3,0 29.51,-13.2 29.51,-29.5 v -122.3 c 0,-16.3 -13.21,-29.5 -29.51,-29.5" /><path
         id="path34"
         style="fill:#2f1925;fill-opacity:1;fill-rule:nonzero;stroke:none"
         d="M 9703.07,6021.7 H 7349.59 c -16.3,0 -29.51,13.2 -29.51,29.5 v 122.3 c 0,16.3 13.21,29.5 29.51,29.5 h 2353.48 c 16.3,0 29.51,-13.2 29.51,-29.5 v -122.3 c 0,-16.3 -13.21,-29.5 -29.51,-29.5" /><path
         id="path36"
         style="fill:#1b1c1f;fill-opacity:1;fill-rule:nonzero;stroke:none"
         d="m 8893.01,8809.9 c -428.1,-428.1 -1121.85,-429 -1551.04,-2.4 l -2.39,2.4 c -428.98,429 -429.2,1124.7 -0.22,1553.7 428.97,428.9 1124.67,428.7 1553.65,-0.2 l 2.39,-2.4 c 426.59,-429.2 425.72,-1123 -2.39,-1551.1" /><path
         id="path38"
         style="fill:#2f1925;fill-opacity:1;fill-rule:nonzero;stroke:none"
         d="m 13253.3,5145 h -153.6 v 1710 l 153.6,10 V 5145" /><path
         id="path40"
         style="fill:#2f1925;fill-opacity:1;fill-rule:nonzero;stroke:none"
         d="m 12531.7,5145 h -153.6 v 1710 h 153.6 V 5145" /><path
         id="path42"
         style="fill:#2f1925;fill-opacity:1;fill-rule:nonzero;stroke:none"
         d="M 13423,5028.1 H 9761.98 v 203.7 H 13423 v -203.7" /><path
         id="path44"
         style="fill:#2f1925;fill-opacity:1;fill-rule:nonzero;stroke:none"
         d="m 13355.6,7142.6 h -2590.2 c -77.2,0 -136.9,67.7 -127.1,144.3 l 329.8,2592.2 c 8.1,64 62.6,112 127.1,112 h 2590.2 c 77.2,0 136.8,-67.8 127.1,-144.4 l -329.8,-2592.2 c -8.2,-64 -62.6,-111.9 -127.1,-111.9" /><path
         id="path46"
         style="fill:#2f1925;fill-opacity:1;fill-rule:nonzero;stroke:none"
         d="m 13326.9,7081.1 h -2673.6 c -40.7,0 -79.3,-17.8 -105.8,-48.7 L 9587.33,5912 h 2779.17 c 44,0 85.8,19.2 114.5,52.6 l 884.6,1032.4 c 28.3,33 4.8,84.1 -38.7,84.1" /><path
         id="path48"
         style="fill:#d89fcd;fill-opacity:1;fill-rule:nonzero;stroke:none"
         d="m 13603,9777.7 -300.4,-2361.8 c -3.4,-27.7 -26.7,-47.9 -54.4,-47.9 h -2360.9 c -33.1,0 -58.6,28.8 -54.3,61.7 l 9.2,72.5 46,361.2 70.7,556 174.5,1372.2 c 3.4,27.3 26.7,47.9 54.3,47.9 h 2361 c 33.1,0 58.6,-29.2 54.3,-61.8" /><path
         id="path50"
         style="fill:#fef1f9;fill-opacity:1;fill-rule:nonzero;stroke:none"
         d="m 10772.9,7000.1 c 0,-11.1 -24.3,-20.1 -54.3,-20.1 -30,0 -54.4,9 -54.4,20.1 0,11.1 24.4,20.1 54.4,20.1 30,0 54.3,-9 54.3,-20.1" /><path
         id="path52"
         style="fill:#fef1f9;fill-opacity:1;fill-rule:nonzero;stroke:none"
         d="m 11924.7,7000.1 c 0,-11.1 -24.4,-20.1 -54.4,-20.1 -30,0 -54.4,9 -54.4,20.1 0,11.1 24.4,20.1 54.4,20.1 30,0 54.4,-9 54.4,-20.1" /><path
         id="path54"
         style="fill:#fef1f9;fill-opacity:1;fill-rule:nonzero;stroke:none"
         d="m 12130.3,7000.1 c 0,-11.1 -24.3,-20.1 -54.3,-20.1 -30,0 -54.4,9 -54.4,20.1 0,11.1 24.4,20.1 54.4,20.1 30,0 54.3,-9 54.3,-20.1" /><path
         id="path56"
         style="fill:#fef1f9;fill-opacity:1;fill-rule:nonzero;stroke:none"
         d="m 12336,7000.1 c 0,-11.1 -24.3,-20.1 -54.3,-20.1 -30.1,0 -54.4,9 -54.4,20.1 0,11.1 24.3,20.1 54.4,20.1 30,0 54.3,-9 54.3,-20.1" /><path
         id="path58"
         style="fill:#fef1f9;fill-opacity:1;fill-rule:nonzero;stroke:none"
         d="m 12541.7,7000.1 c 0,-11.1 -24.3,-20.1 -54.4,-20.1 -30,0 -54.3,9 -54.3,20.1 0,11.1 24.3,20.1 54.3,20.1 30.1,0 54.4,-9 54.4,-20.1" /><path
         id="path60"
         style="fill:#fef1f9;fill-opacity:1;fill-rule:nonzero;stroke:none"
         d="m 12747.4,7000.1 c 0,-11.1 -24.4,-20.1 -54.4,-20.1 -30,0 -54.3,9 -54.3,20.1 0,11.1 24.3,20.1 54.3,20.1 30,0 54.4,-9 54.4,-20.1" /><path
         id="path62"
         style="fill:#fef1f9;fill-opacity:1;fill-rule:nonzero;stroke:none"
         d="m 12953.1,7000.1 c 0,-11.1 -24.4,-20.1 -54.4,-20.1 -30,0 -54.4,9 -54.4,20.1 0,11.1 24.4,20.1 54.4,20.1 30,0 54.4,-9 54.4,-20.1" /><path
         id="path64"
         style="fill:#fef1f9;fill-opacity:1;fill-rule:nonzero;stroke:none"
         d="m 13158.7,7000.1 c 0,-11.1 -24.3,-20.1 -54.3,-20.1 -30,0 -54.4,9 -54.4,20.1 0,11.1 24.4,20.1 54.4,20.1 30,0 54.3,-9 54.3,-20.1" /><path
         id="path66"
         style="fill:#fef1f9;fill-opacity:1;fill-rule:nonzero;stroke:none"
         d="m 10625.1,6936 h 2499.3 l -515,-594.5 h -2487.9 l 503.6,594.5" /><path
         id="path68"
         style="fill:#fef1f9;fill-opacity:1;fill-rule:nonzero;stroke:none"
         d="m 10851.2,6260 h 745.6 l -153.6,-177.3 H 10701 l 150.2,177.3" /><path
         id="path70"
         style="fill:#d89fcd;fill-opacity:1;fill-rule:nonzero;stroke:none"
         d="m 13359.7,7077.6 h -2667.6 c -18.9,0 -34.2,15.3 -34.2,34.1 v 0 c 0,18.9 15.3,34.1 34.2,34.1 h 2667.6 c 18.9,0 34.2,-15.2 34.2,-34.1 v 0 c 0,-18.8 -15.3,-34.1 -34.2,-34.1" /><g
         transform="scale(1.12225)"
         id="g72"><path
           id="path74"
           style="fill:#415fb5;fill-opacity:1;fill-rule:nonzero;stroke:none"
           d="m 14228.4,6193.74 c 0,0 531.9,1322.62 2071.6,972.7 0,0 -1476.7,-83.94 -2001.5,-1035.7 l -70.1,63" /></g><g
         transform="scale(1.06875)"
         id="g76"><path
           id="path78"
           style="fill:#233343;fill-opacity:1;fill-rule:nonzero;stroke:none"
           d="m 14553.5,6455.74 c 0,0 863.6,422.26 786.9,988.44 -76.8,566.17 -403.1,1583.43 959.6,1698.52 0,0 -1420.2,0 -1247.5,-978.81 172.7,-978.8 86.3,-1209.16 -499,-1708.15" /></g><g
         transform="scale(1.07891)"
         id="g80"><path
           id="path82"
           style="fill:#415fb5;fill-opacity:1;fill-rule:nonzero;stroke:none"
           d="m 14806.1,6303.38 c 0,0 -96.7,1166.91 698.7,1798.75 795.2,631.75 -349.4,1479.06 -349.4,1479.06 0,0 735.9,-832.49 -44.6,-1404.73 -780.4,-572.33 -304.7,-1873.08 -304.7,-1873.08" /></g><g
         transform="scale(1.05718)"
         id="g84"><path
           id="path86"
           style="fill:#415fb5;fill-opacity:1;fill-rule:nonzero;stroke:none"
           d="m 14917.5,6558.4 c 21.3,121.46 1382.5,2093.6 -1035.7,2389.29 0,0 1271.5,-266.56 779.3,-2512.35 l 256.4,123.06" /></g><path
         id="path88"
         style="fill:#233343;fill-opacity:1;fill-rule:nonzero;stroke:none"
         d="m 15771.2,6787.6 c 0,0 -1232.6,685.9 -457.3,2534.9 0,0 -526.8,-1670 586.5,-2445.4 l -129.2,-89.5" /><g
         transform="scale(1.01625)"
         id="g90"><path
           id="path92"
           style="fill:#d89fcd;fill-opacity:1;fill-rule:nonzero;stroke:none"
           d="m 16269,4935.98 h -1414.7 c 0,0 52.3,313.41 488,313.41 l -35.2,267.06 c 0,0 -383.1,145.34 -446.9,528.51 -36.9,221.89 46.4,421.94 123.5,551.34 65.6,110.7 81.6,243.35 45.1,366.35 l 514.4,5.51 v 0.39 l 18.7,-0.39 18.2,0.39 v -0.39 l 514.9,-5.51 c -36.9,-123 -20.9,-255.65 44.6,-366.35 77.1,-129.4 160.4,-329.45 123.5,-551.34 -63.8,-383.17 -446.9,-528.51 -446.9,-528.51 l -35.2,-267.06 c 435.7,0 488,-313.41 488,-313.41" /></g><g
         transform="scale(1.00347)"
         id="g94"><path
           id="path96"
           style="fill:#c56cb7;fill-opacity:1;fill-rule:nonzero;stroke:none"
           d="m 16017.6,5586.7 -368.2,-273.15 h 332.6 c 0,0 -244,0 -326.3,-314.71 h -612.2 c 0,0 53,317.4 494.1,317.4 l -35.5,270.46 c 0,0 -388.1,147.19 -452.7,535.24 -37.3,224.72 47.1,427.32 125.1,558.36 66.5,112.11 82.6,246.45 45.6,371.02 l 521,5.58 v 0.39 l 19,-0.39 18.4,0.39 v -0.39 l 521.5,-5.58 -281.3,-97.77 c -440,-153.06 -665.2,-656.72 -460.3,-1074.96 82.2,-167.72 222.8,-291.89 459.2,-291.89" /></g><path
         id="path98"
         style="fill:#f89d8b;fill-opacity:1;fill-rule:nonzero;stroke:none"
         d="m 7387.41,11792.8 c -124.4,-1351.6 -960.52,-1151.9 -960.52,-1151.9 l -404.86,-853.9 -880.04,564.2 -784.21,503.2 160.34,610 h 458.92 l 170.48,1109.5 c 0,0 -15.98,272.2 186.76,373.5 202.73,101.4 373.52,-80.1 373.52,-80.1 l 304.1,-298.6 h 287.82 l 47.92,153.9 46.69,148.7 86.93,278.9 c 66.34,1.5 129.01,22.7 181.53,59 52.22,36.2 94.61,87.2 119.49,148.9 l 125.64,309.3 c -378.74,309.4 -581.48,394.8 -581.48,394.8 682.84,-111.8 895.71,-358.2 895.71,-358.2 72.8,-362.1 121.03,-681.9 149.29,-964.2 2.15,-21.8 4.3,-43.3 6.14,-64.8 31.95,-350.2 32.26,-640.8 9.83,-882.2" /><path
         id="path100"
         style="fill:#ce5041;fill-opacity:1;fill-rule:nonzero;stroke:none"
         d="m 6426.89,10640.9 -772.23,814.3 -512.67,-1104 -784.21,503.2 160.34,610 h 458.92 l 170.48,1109.5 c 0,0 -15.98,272.2 186.76,373.5 202.73,101.4 373.52,-80.1 373.52,-80.1 l 304.1,-298.6 h 136.69 l 278.3,-1927.8" /><g
         transform="scale(1.0434)"
         id="g102"><path
           id="path104"
           style="fill:#d89fcd;fill-opacity:1;fill-rule:nonzero;stroke:none"
           d="m 15530.8,7707.4 v 0 c -60,9.97 -100.5,66.71 -90.5,126.71 l 632.7,3789.69 c 9.9,59.9 66.7,100.4 126.6,90.4 v 0 c 60,-10 100.4,-66.7 90.4,-126.7 l -632.6,-3789.72 c -10,-59.9 -66.7,-100.34 -126.6,-90.38" /></g><path
         id="path106"
         style="fill:#2f1925;fill-opacity:1;fill-rule:nonzero;stroke:none"
         d="m 12012.6,5300.7 v 0 c -5.8,46.3 26.6,88.6 72.8,95.1 l 1738.1,242.7 c 62,8.7 119.3,-34.5 128,-96.5 v 0 l -1938.9,-241.3" /><path
         id="path108"
         style="fill:#d89fcd;fill-opacity:1;fill-rule:nonzero;stroke:none"
         d="m 11588.6,5143.4 v 0 c -7.8,62.6 36.1,120 98.7,128.7 l 2507,350.2 21.3,-152.1 -2627,-326.8" /><path
         id="path110"
         style="fill:#c56cb7;fill-opacity:1;fill-rule:nonzero;stroke:none"
         d="m 14273.9,5051.2 h -2685.3 v 92.2 h 2593.2 v 585.5 c 0,25.4 20.6,46 46.1,46 v 0 c 25.4,0 46,-20.6 46,-46 v -677.7" /><path
         id="path112"
         style="fill:#f89d8b;fill-opacity:1;fill-rule:nonzero;stroke:none"
         d="m 12234.9,5480.7 c -8.6,-35.9 -32.6,-76.8 -64.5,-107.8 -63.6,-62.4 -158.2,-87.2 -223.9,39 l -47.3,55.9 c 0,0 -95,-34.4 -224,-21.5 0,0 -288.4,-309.9 -843.8,-434.6 h -525.2 l 8.9,200.2 29.8,669.4 c 0,0 628.4,434.6 718.7,426 90.7,-8.6 159.5,-81.7 159.5,-81.7 0,0 710.5,90.3 775,-120.4 0,0 258.3,-228.2 202.4,-482.3 0,0 60.2,-34.4 34.4,-142.2" /><path
         id="path114"
         style="fill:#d36135db;fill-opacity:1;fill-rule:nonzero;stroke:none"
         d="M 10405.4,6079.4 V 4972 H 2770.62 c 0,0 0,359.4 0,2836.5 0,2476.7 1418.22,3156.8 1418.22,3156.8 L 4357.78,10854.4 6022.03,9787 c 164.65,-151.8 316.39,-429.2 451.85,-762.1 421.44,-1037.1 684.69,-2612.8 684.69,-2612.8 l 102.29,-83 308.4,-249.7 h 2836.14" /><path
         id="path116"
         style="fill:#2f1925;fill-opacity:1;fill-rule:nonzero;stroke:none"
         d="m 7222.15,13704 c 0,0 609.74,333.6 152.36,734.8 -433.43,379.9 -2299.38,702.9 -2675.14,311.6 93.94,181.3 236,319.7 236,319.7 -148.29,-115.7 -251.09,-232.9 -322.62,-342.8 -169.77,24.9 -405.27,12 -698.27,-119.8 0,0 313.12,101.4 569.2,39.6 -294.8,-81.6 -880.5,-375.6 -917.17,-1426.3 l 951.62,-1756.4 h 458.91 l 170.47,1109.5 c 0,0 -15.97,272.2 186.77,373.5 156.04,78.1 293.34,-11.6 348.03,-56.8 1.23,-1.2 2.46,-2.1 3.68,-3.1 14.13,-11.9 21.81,-20.2 21.81,-20.2 l 304.1,-298.6 25.5,-781.1 -281.68,-244.5 671.16,-902.2 c 0,0 836.13,-199.7 960.53,1151.9 -160.34,0 -307.79,-87.9 -383.97,-228.9 l -51.59,-95.2 c -238.37,126 -416.84,341 -496.7,598.4 l -155.43,501.6 75.57,242.7 28.25,89.3 77.71,249.5 c 132.71,3.1 250.96,84.8 301.04,207.9 l 125.63,309.3 c -378.75,309.4 -581.48,394.8 -581.48,394.8 682.85,-111.8 895.71,-358.2 895.71,-358.2" /><path
         id="path118"
         style="fill:#d36135;fill-opacity:1;fill-rule:nonzero;stroke:none"
         d="m 7158.57,6412.1 -747.35,818.6 -868.99,951.9 -555.67,1746 1272,-2059.3 900.01,-1457.2" /><path
         id="path120"
         style="fill:#2f1925;fill-opacity:1;fill-rule:nonzero;stroke:none"
         d="m 5621.18,12060.9 c -0.62,0.4 -1.23,0.7 -2.46,1 -31.64,11 -287.82,110.5 -322.22,461.3 -35.02,359.4 311.47,292.8 339.11,286.6 0.62,-0.3 1.23,-0.3 1.54,-0.3 -8.29,0 -218.71,-3.1 -224.85,-301.3 -5.84,-293.4 194.44,-437.1 208.88,-447.3" /><path
         id="path122"
         style="fill:#c23c34;fill-opacity:1;fill-rule:nonzero;stroke:none"
         d="m 5494.31,12416.9 c 41.47,-253.4 120.11,-347.4 127.17,-356 h -0.3 c -14.44,10.2 -214.72,153.9 -208.88,447.3 6.14,298.2 216.56,301.3 224.85,301.3 0.31,0 0.31,0 0.31,0 0,0 -187.07,-126.8 -143.15,-392.6" /><path
         id="path124"
         style="fill:#2f1925;fill-opacity:1;fill-rule:nonzero;stroke:none"
         d="m 7561.58,12754.5 -46.08,-411 c -3.99,-33.7 -34.4,-58 -67.88,-54.3 -33.79,4 -58.06,34.4 -54.37,67.9 l 37.78,337.5 -55.9,6.2 -999.54,110.6 h -0.31 l 19.05,59.9 9.21,29.5 1040.7,-114.9 c 10.44,23.9 35.63,39.6 62.97,36.5 33.79,-3.7 58.05,-34.1 54.37,-67.9" /><path
         id="path126"
         style="fill:#ce5041;fill-opacity:1;fill-rule:nonzero;stroke:none"
         d="m 7377.58,12675 -1077.86,-106.3 75.87,242.7 999.54,-110.6 c 0.92,-8.6 1.84,-17.2 2.45,-25.8" /><path
         id="path128"
         style="fill:#ce5041;fill-opacity:1;fill-rule:nonzero;stroke:none"
         d="m 12170.4,5372.9 c -63.6,-62.4 -158.2,-87.2 -223.9,39 l -47.3,55.9 c 0,0 -95,-34.4 -224,-21.5 0,0 -288.4,-309.9 -843.8,-434.6 h -525.2 l 8.9,200.2 c 25.5,2.2 53.1,3.4 83.5,3.4 673.6,0 1226.2,317 1226.2,317 154.6,-4 356.7,27.7 356.7,27.7 l 188.9,-187.1" /><path
         id="path130"
         style="fill:#d36135;fill-opacity:1;fill-rule:nonzero;stroke:none"
         d="M 10405.4,6079.4 V 4972 H 2770.62 c 0,0 0,359.4 0,2836.5 0,2476.7 1418.22,3156.8 1418.22,3156.8 l 168.94,-110.9 1664.25,-1067.4 -1390.87,477 c 0,0 -739.67,-478.6 -739.67,-1740.1 0,-1261.3 2870.83,-3288.3 2870.83,-3288.3 H 10155 l 250.4,843.8" /><path
         id="path132"
         style="fill:#ce5041;fill-opacity:1;fill-rule:nonzero;stroke:none"
         d="m 11552.4,5725.3 c 0,0 446.6,72.5 485.2,68 38.5,-4.5 162.9,-170.4 162.9,-170.4 0,0 -85.8,220.3 -124.4,261.1 -38.5,40.8 -523.7,-158.7 -523.7,-158.7" /><path
         id="path134"
         style="fill:#ce5041;fill-opacity:1;fill-rule:nonzero;stroke:none"
         d="m 11468.6,6024.6 c 0,0 390.9,87.8 529.5,80.6 0,0 -296.4,106.6 -529.5,-80.6" /><path
         id="path136"
         style="fill:#fef1f9;fill-opacity:1;fill-rule:nonzero;stroke:none"
         d="m 7158.57,6412.1 -747.35,818.6 c -44.23,118.8 -81.4,246 -109.97,379.6 -18.73,87.6 -32.86,174.2 -42.69,259 -57.44,488.4 27.33,920.6 215.32,1155.6 28.88,-71.3 57.14,-145 84.48,-220.9 269.39,-743 463.52,-1665.2 550.14,-2116.7 32.87,-171.7 50.07,-275.2 50.07,-275.2" /><path
         id="path138"
         style="fill:#d36135;fill-opacity:1;fill-rule:nonzero;stroke:none"
         d="m 14103.5,5018.1 h -1632.3 c 0,0 47.3,337 656.4,337 344.7,0 611.6,-107.8 778.4,-201.5 52.5,-29.5 95.2,-57.5 127.2,-80.5 46.1,-32.9 70.3,-55 70.3,-55" /><g
         transform="scale(1.14717)"
         id="g140"><path
           id="path142"
           style="fill:#2f1925;fill-opacity:1;fill-rule:nonzero;stroke:none"
           d="M 16246.5,4297.46 H 1973.32 c -29.57,0 -53.54,23.98 -53.54,53.61 v 0 c 0,29.55 23.97,53.53 53.54,53.53 H 16246.5 c 29.5,0 53.5,-23.98 53.5,-53.53 v 0 c 0,-29.63 -24,-53.61 -53.5,-53.61" /></g><path
         id="path144"
         style="fill:#fef1f9;fill-opacity:1;fill-rule:nonzero;stroke:none"
         d="m 12090.8,9839.5 -1202.6,-1976.1 70.7,556 865.6,1420.1 h 266.3" /><path
         id="path146"
         style="fill:#fef1f9;fill-opacity:1;fill-rule:nonzero;stroke:none"
         d="M 12969,9839.5 11407.4,7368 h -520.1 c -33.1,0 -58.6,28.8 -54.3,61.7 l 9.2,72.5 1460.3,2337.3 h 666.5" /><g
         transform="scale(1.12617)"
         id="g148"><path
           id="path150"
           style="fill:#2f1925;fill-opacity:1;fill-rule:nonzero;stroke:none"
           d="m 15515.2,7399.94 93,546.89 c 11.1,65.54 13,131.07 6.6,195.27 57.2,-3.47 113.4,-11.81 167.5,-31.52 231.3,-84.27 356.8,-346.13 354.6,-580.73 -2.4,-274.39 -145.1,-529.14 -304.4,-743.5 -126.4,-170.22 -271.8,-314.16 -454.6,-411.21 34,343.55 79.7,685.68 137.3,1024.8 z m -460.9,999.31 32.7,196.24 c 104.1,-37.91 194.5,-105.84 261,-197.84 38.3,-52.83 66.5,-110.73 84.4,-171.37 -133,8.08 -339.6,47.86 -378.1,172.97 z m 251.8,-3412.62 c 2,432.26 23.1,865.85 63,1297.67 111.8,49.9 217.4,114.99 313.7,205.29 310.9,292.15 617.2,774.05 516.3,1218.11 -44.5,195.62 -168.9,383.25 -356.2,466.19 -77.4,34.27 -158.4,44.75 -240.7,48.3 -20.9,96.7 -61.8,188.87 -121.6,271.54 -92.1,127.16 -219.6,218.8 -366.3,265.32 l 77.5,464.42 c 21.2,126.34 -58.3,246.18 -180,277.85 l 227,1359.38 c 11.2,66.9 -34,130.2 -100.9,141.3 -66.8,11.2 -130.1,-34 -141.3,-100.8 L 14291,6673.85 c -11.1,-66.86 34,-130.09 100.9,-141.28 v 0 c 66.8,-11.1 130,34.01 141.2,100.88 l 223.6,1339.22 c 125.3,-9.5 239.4,78.06 260.5,204.32 l 18.7,112.15 c 25.1,-31.79 57.1,-59.49 94.8,-81.15 99.1,-57.19 208.5,-62.87 319.2,-63.32 7.5,-55.85 6.7,-113.12 -3.1,-170.4 l -92.9,-546.9 c -63.3,-372.23 -112.4,-748.01 -147.4,-1125.31 -192.4,-65.18 -394.6,-95.28 -591.9,-141.72 -193.4,-45.29 -387.6,-107.18 -547.7,-228.83 -168.2,-128.22 -272.7,-311.5 -384.3,-487.14 -269.2,-422.76 -799.9,-858.92 -1334.6,-868.16 46.6,-26.19 84.6,-51.06 113,-71.48 351.3,45.02 681,253.96 944.2,485.01 191.2,168.27 315.4,369.83 453.1,580.37 152.2,232.38 339.3,382.98 604.9,465.38 243.3,75.21 498.5,108.78 735.9,184.61 -35.2,-404.02 -54.1,-809.47 -56.6,-1213.76 -11.9,0.44 -23.8,0.71 -35.9,0.71 -403.5,0 -733.4,-240.19 -758,-543.43 h 1515.9 c -20.3,251.29 -250.5,459.17 -558.4,523.01" /></g><path
         id="path152"
         style="fill:#2f1925;fill-opacity:1;fill-rule:nonzero;stroke:none"
         d="m 7108.5,6687.3 -312.08,795.3 -236.53,-264.5 187.99,445.4 -180.92,737.2 -194.75,-347.7 186.15,751 c 269.39,-743 463.52,-1665.2 550.14,-2116.7" /><path
         id="path154"
         style="fill:#d89fcd;fill-opacity:1;fill-rule:nonzero;stroke:none"
         d="m 9214.78,9586.7 c 0,-605.4 -489.94,-1096.6 -1095.06,-1098.4 h -3.38 c -606.67,0 -1098.76,491.8 -1098.76,1098.4 0,606.7 492.09,1098.5 1098.76,1098.5 h 3.38 c 605.12,-1.9 1095.06,-493 1095.06,-1098.5" /><path
         id="path156"
         style="fill:#d36135db;fill-opacity:1;fill-rule:nonzero;stroke:none"
         d="M 8119.72,10685.2 V 8488.3 h -3.38 c -301.95,0 -575.95,121.9 -774.38,319.1 l -2.46,2.5 c -6.76,6.8 -13.21,13.5 -19.66,20.3 -6.76,6.7 -12.9,13.8 -19.35,20.9 -50.07,55.6 -93.69,115.2 -130.55,177.5 -4.61,7.7 -9.21,15.7 -13.51,23.7 -4.61,7.6 -8.91,15.6 -12.91,23.6 -3.99,7.7 -7.98,15.7 -11.98,23.4 -8.29,16.5 -15.97,33.1 -23.34,50 -10.44,24.3 -20.27,48.9 -28.87,74.1 -5.84,16.8 -11.06,33.7 -16.28,50.6 -4.92,16.9 -9.53,34.1 -13.83,51.3 -3.99,17.2 -7.98,34.4 -11.36,51.6 -8.47,42.6 -13.97,86 -17.13,130.2 -0.03,0.4 -0.07,0.9 -0.1,1.4 -1.82,25.9 -3.05,51.9 -3.05,78.2 0,17.9 0.31,35.4 1.54,52.9 2.15,53.4 8.6,105.9 18.74,156.9 1.84,8.9 3.68,17.5 5.53,26.1 1.84,8.6 3.68,17.2 5.83,25.8 4.3,17.2 8.91,34.1 13.83,51.3 4.91,16.6 10.44,33.2 15.97,49.8 3.07,8.6 6.14,17.2 9.52,25.8 5.84,15.4 11.98,30.4 18.12,45.5 7.99,18.1 16.28,35.9 24.88,53.7 3.38,6.5 6.46,12.9 10.14,19.4 26.73,51.9 58.36,102 94.3,150.2 4.92,6.7 10.14,13.5 15.36,20.3 4.3,5.2 8.6,10.4 12.9,15.6 5.84,7.4 11.67,14.5 17.82,21.5 18.12,21.2 37.47,42.1 57.44,62.1 12.59,12.6 25.19,24.6 38.09,36.2 5.84,5.2 11.36,10.5 17.2,15.4 14.13,12.3 28.57,24.6 43.31,35.9 6.76,5.2 13.83,10.8 20.89,16 30.1,22.4 61.13,43.3 92.77,62.3 5.83,3.4 11.67,6.8 17.81,10.2 30.72,18.1 62.36,34.1 94.61,48.5 8.29,3.7 16.28,7.4 24.57,10.8 16.59,7 33.49,13.8 50.38,19.9 8.29,3.1 16.59,5.9 24.88,8.6 8.6,3.1 17.2,5.9 25.8,8.3 8.6,2.8 17.21,5.2 25.81,7.7 8.6,2.5 17.51,4.9 26.1,7.1 8.91,2.4 17.82,4.6 26.73,6.4 8.6,2.2 17.51,4 26.42,5.9 9.21,1.8 18.12,3.6 27.03,5.2 5.22,0.9 10.44,1.8 15.66,2.8 6.76,0.9 13.83,2.1 20.89,3 8.6,1.3 17.2,2.5 26.11,3.4 8.6,1.2 16.89,2.2 25.5,3.1 16.58,1.5 33.17,2.4 49.76,3.4 7.37,0.6 14.74,0.9 22.11,0.9 12.6,0.3 25.19,0.6 37.79,0.6" /><path
         id="path158"
         style="fill:#2f1925;fill-opacity:1;fill-rule:nonzero;stroke:none"
         d="m 8895.33,10360.8 -775.61,-775.6 v 1100 c 279.83,-0.9 559.66,-108.1 773.15,-321.9 l 2.46,-2.5" /><path
         id="path160"
         style="fill:#d36135db;fill-opacity:1;fill-rule:nonzero;stroke:none"
         d="M 10736.3,10476.7 H 9459.33 c -71.25,0 -129.01,57.7 -129.01,129 v 0 c 0,71.2 57.76,129 129.01,129 h 1276.97 c 71.2,0 129,-57.8 129,-129 v 0 c 0,-71.3 -57.8,-129 -129,-129" /><path
         id="path162"
         style="fill:#2f1925;fill-opacity:1;fill-rule:nonzero;stroke:none"
         d="M 9999.65,10285.1 H 9366.6 c -10.12,0 -18.32,8.2 -18.32,18.3 v 76 c 0,10.1 8.2,18.3 18.32,18.3 h 633.05 c 10.15,0 18.35,-8.2 18.35,-18.3 v -76 c 0,-10.1 -8.2,-18.3 -18.35,-18.3" /><path
         id="path164"
         style="fill:#2f1925;fill-opacity:1;fill-rule:nonzero;stroke:none"
         d="M 10828,10100.9 H 9366.6 c -10.12,0 -18.32,8.2 -18.32,18.3 v 75.9 c 0,10.1 8.2,18.3 18.32,18.3 H 10828 c 10.1,0 18.3,-8.2 18.3,-18.3 v -75.9 c 0,-10.1 -8.2,-18.3 -18.3,-18.3" /><path
         id="path166"
         style="fill:#2f1925;fill-opacity:1;fill-rule:nonzero;stroke:none"
         d="M 10828,9919.1 H 9366.6 c -10.12,0 -18.32,8.2 -18.32,18.3 v 76 c 0,10.1 8.2,18.3 18.32,18.3 H 10828 c 10.1,0 18.3,-8.2 18.3,-18.3 v -76 c 0,-10.1 -8.2,-18.3 -18.3,-18.3" /><path
         id="path168"
         style="fill:#2f1925;fill-opacity:1;fill-rule:nonzero;stroke:none"
         d="M 10828,9737.4 H 9366.6 c -10.12,0 -18.32,8.2 -18.32,18.3 v 75.9 c 0,10.1 8.2,18.3 18.32,18.3 H 10828 c 10.1,0 18.3,-8.2 18.3,-18.3 v -75.9 c 0,-10.1 -8.2,-18.3 -18.3,-18.3" /><path
         id="path170"
         style="fill:#2f1925;fill-opacity:1;fill-rule:nonzero;stroke:none"
         d="M 10828,9555.6 H 9366.6 c -10.12,0 -18.32,8.2 -18.32,18.3 v 76 c 0,10.1 8.2,18.3 18.32,18.3 H 10828 c 10.1,0 18.3,-8.2 18.3,-18.3 v -76 c 0,-10.1 -8.2,-18.3 -18.3,-18.3" /><path
         id="path172"
         style="fill:#2f1925;fill-opacity:1;fill-rule:nonzero;stroke:none"
         d="M 10828,9373.9 H 9366.6 c -10.12,0 -18.32,8.2 -18.32,18.3 v 75.9 c 0,10.1 8.2,18.3 18.32,18.3 H 10828 c 10.1,0 18.3,-8.2 18.3,-18.3 v -75.9 c 0,-10.1 -8.2,-18.3 -18.3,-18.3" /></g></g></svg>