<?xml version="1.0" encoding="UTF-8" standalone="no"?>
<!-- Created with Inkscape (http://www.inkscape.org/) -->

<svg
   version="1.1"
   id="svg2"
   width="2666.6667"
   height="2666.6667"
   viewBox="0 0 2666.6667 2666.6667"
   sodipodi:docname="people work hard flat illustration.eps"
   xmlns:inkscape="http://www.inkscape.org/namespaces/inkscape"
   xmlns:sodipodi="http://sodipodi.sourceforge.net/DTD/sodipodi-0.dtd"
   xmlns="http://www.w3.org/2000/svg"
   xmlns:svg="http://www.w3.org/2000/svg">
  <defs
     id="defs6" />
  <sodipodi:namedview
     id="namedview4"
     pagecolor="#ffffff"
     bordercolor="#000000"
     borderopacity="0.25"
     inkscape:showpageshadow="2"
     inkscape:pageopacity="0.0"
     inkscape:pagecheckerboard="0"
     inkscape:deskcolor="#d1d1d1" />
  <g
     id="g8"
     inkscape:groupmode="layer"
     inkscape:label="ink_ext_XXXXXX"
     transform="matrix(1.3333333,0,0,-1.3333333,0,2666.6667)">
    <g
       id="g10"
       transform="scale(0.1)">
      <path
         d="M 20000,0 H 0 V 20000 H 20000 V 0"
         style="fill:#ffffff;fill-opacity:1;fill-rule:nonzero;stroke:none"
         id="path12" />
      <path
         d="m 17524.9,5415.3 -14634.05,24.9 c 0,0 -288.5,363.2 -608.23,881.3 -694.34,1125.7 -1536.409,2983.9 107.84,3446.3 2401.49,675.4 250.3,2301.5 225.19,3752.4 -5.7,331.2 73.02,587.2 217.16,767.4 482.03,603.6 1695.96,360.5 2924.67,-735.7 11.6,-10.4 23.42,-20.9 35.24,-31.7 524.65,-475.3 1002.04,-503.9 1461.49,-344.8 1171.93,405.4 2229.05,2032.3 3666.49,594.9 566.4,-566.4 860.4,-1195.1 1073.4,-1787.3 539.8,-1499.5 560.9,-2764.1 3179.4,-2190.3 624,136.8 1143.6,135.5 1569.5,33.2 2065.9,-496.6 1922.6,-3373.8 781.9,-4410.6"
         style="fill:#cae1f5;fill-opacity:1;fill-rule:nonzero;stroke:none"
         id="path14" />
      <path
         d="M 16743,9825.9 16501.8,7898 2282.62,6321.5 c -694.34,1125.7 -1536.409,2983.9 107.84,3446.3 2401.49,675.4 250.3,2301.5 225.19,3752.4 -5.7,331.2 73.02,587.2 217.16,767.4 l 2924.67,-735.7 c 11.6,-10.4 23.42,-20.9 35.24,-31.7 524.65,-475.3 1002.04,-503.9 1461.49,-344.8 L 11994.1,11983 c 539.8,-1499.5 560.9,-2764.1 3179.4,-2190.3 624,136.8 1143.6,135.5 1569.5,33.2"
         style="fill:#ebf6fd;fill-opacity:1;fill-rule:nonzero;stroke:none"
         id="path16" />
      <path
         d="m 7582.59,6951.2 c 0,0 -608.1,1849.3 441.49,3007.1 0,0 -849.66,-1449.4 33.32,-3057.1 l -474.81,50"
         style="fill:#415fb5;fill-opacity:1;fill-rule:nonzero;stroke:none"
         id="path18" />
      <path
         d="m 7250.1,6889 c 0,0 -416.54,2304.4 -1720.93,1867.5 0,0 1244.32,867.8 2023.52,-1792.1 L 7250.1,6889"
         style="fill:#233343;fill-opacity:1;fill-rule:nonzero;stroke:none"
         id="path20" />
      <path
         d="m 7997.77,7052.8 c 0,0 -139.29,1205.3 1041.71,1901.8 0,0 -987.2,-1168.9 -987.2,-1926 l -54.51,24.2"
         style="fill:#233343;fill-opacity:1;fill-rule:nonzero;stroke:none"
         id="path22" />
      <path
         d="m 8052.37,7006.8 c 0,0 173.22,1230.4 1391.7,1343.9 0,0 -860.1,-179.2 -1075.13,-1385.8 l -316.57,41.9"
         style="fill:#415fb5;fill-opacity:1;fill-rule:nonzero;stroke:none"
         id="path24" />
      <path
         d="m 7415.7,7083.6 c 0,0 579.96,790.8 601.05,2246 0,0 221.43,-1254.8 -253.07,-2362 l -347.98,116"
         style="fill:#233343;fill-opacity:1;fill-rule:nonzero;stroke:none"
         id="path26" />
      <path
         d="m 7862.42,7002.2 c 0,0 -1111.61,712.1 -1293.98,2596.7 0,0 -78.16,-1624 781.6,-2657.5 l 512.38,60.8"
         style="fill:#415fb5;fill-opacity:1;fill-rule:nonzero;stroke:none"
         id="path28" />
      <path
         d="M 8551.5,7199.7 H 6875.26 v -397.8 h 39.16 l 134.62,-1367.2 h 1328.68 l 134.62,1367.2 h 39.16 v 397.8"
         style="fill:#d89fcd;fill-opacity:1;fill-rule:nonzero;stroke:none"
         id="path30" />
      <path
         d="M 6875.26,7199.7 8551.5,6801.9 H 7077.54 L 7342.26,5664.8 8377.72,5434.7 H 7049.04 l -134.62,1367.2 h -39.16 v 397.8"
         style="fill:#c56cb7;fill-opacity:1;fill-rule:nonzero;stroke:none"
         id="path32" />
      <path
         d="M 11394.7,5450.2 13285,5952.9 V 5438.2"
         style="fill:none;stroke:#c56cb7;stroke-width:30;stroke-linecap:butt;stroke-linejoin:miter;stroke-miterlimit:10;stroke-dasharray:none;stroke-opacity:1"
         id="path34" />
      <path
         d="m 14375,6655 v 0 c -21.2,52.9 4.3,113 57,134.5 l 1579.1,644.7 c 42,17.2 90,-3.2 106.8,-45.3 v 0 L 14375,6655"
         style="fill:#d89fcd;fill-opacity:1;fill-rule:nonzero;stroke:none"
         id="path36" />
      <path
         d="m 17019.6,10851.6 c 0,-3 -0.2,-5.9 -0.6,-9.1 l -426.1,-3406.7 -146.7,18.4 55.5,443.8 358,2860.9 12.6,102 c 5.1,40.3 42,69 82.5,63.9 37.2,-4.6 64.8,-36.5 64.8,-73.2"
         style="fill:#c56cb7;fill-opacity:1;fill-rule:nonzero;stroke:none"
         id="path38" />
      <path
         d="m 5829.81,9541.8 c -222.02,-58.2 -414.92,0.6 -431.17,5.7 l -1.05,0.4 -189.52,-286.4 -956.04,-4 -628.7,-2.5 368.91,1198.7 h 316.14 c 553.15,1422.5 1132.9,829.9 1132.9,829.9 l 163.77,-501.9 224.76,449.1 c 355.61,0 289.76,592.8 289.76,592.8 h 355.61 C 6693.4,10101.7 6217.29,9643.5 5829.81,9541.8"
         style="fill:#f89d8b;fill-opacity:1;fill-rule:nonzero;stroke:none"
         id="path40" />
      <path
         d="m 5829.81,11230.8 v -1689 c -222.02,-58.2 -414.92,0.6 -431.17,5.7 l -1.05,0.4 -316.86,410.5 c -114.04,147.7 -344.67,119.2 -419.38,-51.8 L 4471.94,9473 c 0,0 -89.9,-96.6 -219.91,-215.5 l -628.7,-2.5 368.91,1198.7 h 316.14 c 553.15,1422.5 1132.9,829.9 1132.9,829.9 l 163.77,-501.9 224.76,449.1"
         style="fill:#ce5041;fill-opacity:1;fill-rule:nonzero;stroke:none"
         id="path42" />
      <path
         d="m 4314.23,5435.9 -886.97,3730.8 v 2157.7 c 0,56 -45.43,101.4 -101.47,101.4 v 0 c -56.04,0 -101.46,-45.4 -101.46,-101.4 V 5439.3 l 1089.9,-3.4"
         style="fill:#1b1c1f;fill-opacity:1;fill-rule:nonzero;stroke:none"
         id="path44" />
      <path
         d="m 9247.26,5445.9 -1998.39,-4.1 -2934.58,-5.9 -887.02,3730.9 c 0,0 467.68,895.2 1830.61,99.4 l 49.8,-208.9 c 0,0 1405.35,-1357.5 2568.21,-2424.1 79.98,-73.7 158.7,-145.6 235.95,-215.9 C 8606.53,5968 9032.2,5597 9247.26,5445.9"
         style="fill:#d72f23;fill-opacity:1;fill-rule:nonzero;stroke:none"
         id="path46" />
      <path
         d="m 13139.8,5955.1 c -87.4,-39.7 -142.9,31.9 -142.9,31.9 0,0 -5.7,-6.6 -15.6,-13.3 -29.1,-19.7 -95.8,-39.7 -167,108.7 0,0 -333.6,-39.9 -349.4,-39.9 -0.5,0 -1.7,-0.4 -3.6,-1.1 l -0.7,-0.2 c -69,-25.3 -947.8,-429.9 -1178.7,-429.9 -238.2,0 -4011.08,-180.2 -4011.08,-180.2 l -1691.52,825.8 1350.05,929.2 802.18,-619.4 c 0,0 102.36,-20.9 274.36,-52.7 614.14,-113.8 2117.41,-366.8 3029.31,-304.6 0,0 896.1,533.3 968.9,540.1 149.5,13.7 254.1,-87.4 254.1,-87.4 0,0 460.7,-16 524.3,-47.7 63.5,-31.9 95.4,-95.4 95.4,-95.4 0,0 254.1,-254.1 277.9,-452.7 0,0 71.3,-71.3 -16,-111.2"
         style="fill:#f89d8b;fill-opacity:1;fill-rule:nonzero;stroke:none"
         id="path48" />
      <path
         d="m 17026.5,5602.5 c 0,-39.5 -32,-71.5 -71.5,-71.5 -39.5,0 -71.5,32 -71.5,71.5 0,39.5 32,71.5 71.5,71.5 39.5,0 71.5,-32 71.5,-71.5"
         style="fill:#fef1f9;fill-opacity:1;fill-rule:nonzero;stroke:none"
         id="path50" />
      <path
         d="m 6753.05,13017.9 c 317.12,-192.5 410.98,-617.5 207.61,-927.8 -181.42,-276.7 -485.48,-266.5 -485.48,-266.5 h -355.61 c 0,0 65.85,-592.8 -289.76,-592.8 l -224.76,-449.1 -163.77,501.9 c 0,0 -579.75,592.6 -1132.9,-829.9 h -316.14 c -368.28,1775.6 128.31,1921.4 128.31,1921.4 0,0 97.29,514.1 839.96,668.4 742.88,154.3 1057.13,-205.6 1057.13,-205.6 143.93,295.2 470.72,340.6 735.41,180"
         style="fill:#1b1c1f;fill-opacity:1;fill-rule:nonzero;stroke:none"
         id="path52" />
      <path
         d="m 5373.29,10318.1 c -560.73,526.1 -532.58,928.8 -259.79,980.7 272.78,52 575.88,-757.7 575.88,-757.7 -153.71,-223 -316.09,-223 -316.09,-223 z m 1135.43,292.4 c -439.34,-150.5 -794.42,195.6 -980.99,463.4 -186.57,267.8 -349.07,361.1 -535.63,228.7 -186.57,-132.4 -246.76,-337 126.38,-981 258.9,-446.8 394.66,-690.8 453.53,-798.3 24.2,-44.2 67.07,-75.3 116.69,-84.2 559.4,-100.6 447.81,175.5 735.76,380 300.92,213.6 84.26,791.4 84.26,791.4"
         style="fill:#d72f23;fill-opacity:1;fill-rule:nonzero;stroke:none"
         id="path54" />
      <path
         d="m 5286.54,11204.6 c 0,0 19.72,101.4 -64.8,123.9 -84.52,22.6 -467.69,-436.6 -138.05,-676.1 0,0 -129.6,112.7 -45.08,332.4 84.52,219.8 214.12,340.9 247.93,219.8"
         style="fill:#1b1c1f;fill-opacity:1;fill-rule:nonzero;stroke:none"
         id="path56" />
      <path
         d="m 13736.6,5405.8 -54.2,64.7 2081.9,1744.9 54.2,-64.7 -2081.9,-1744.9"
         style="fill:#1b1c1f;fill-opacity:1;fill-rule:nonzero;stroke:none"
         id="path58" />
      <path
         d="m 15492.2,5393.2 -1881.5,880.3 35.8,76.5 1881.5,-880.3 -35.8,-76.5"
         style="fill:#1b1c1f;fill-opacity:1;fill-rule:nonzero;stroke:none"
         id="path60" />
      <path
         d="M 16632.7,7367.8 13579,6111.2 l -40.4,68 c -35.5,86.3 5.6,185 91.9,220.5 l 2603.4,1071.1 115,47.3 23,9.5 c 86.3,35.5 226.5,-36.8 260.8,-159.8"
         style="fill:#c56cb7;fill-opacity:1;fill-rule:nonzero;stroke:none"
         id="path62" />
      <path
         d="m 14095,6117.5 c 0,0 389.1,84.2 665.9,-332.9 l -665.9,332.9"
         style="fill:#1b1c1f;fill-opacity:1;fill-rule:nonzero;stroke:none"
         id="path64" />
      <path
         d="m 8005.89,6514 c -172,31.8 -274.36,52.7 -274.36,52.7 l -802.18,619.4 -1215.41,1164.6 2050.73,-1690.9 111.22,-26.6 c 43.68,-40.3 87.16,-80 130,-119.2"
         style="fill:#bf2124;fill-opacity:1;fill-rule:nonzero;stroke:none"
         id="path66" />
      <path
         d="m 7248.87,5441.8 -2934.58,-5.9 -887.02,3730.9 c 0,0 467.68,895.2 1830.61,99.4 0,0 -701.73,93.3 -1078.44,-465.2 6.96,7.6 239.11,253.3 993.59,253.3 0,0 -1091.31,-130 -980.93,-1227.9 L 5744.54,6540.3 6929.35,7186.1 5579.3,6256.9 7248.87,5441.8"
         style="fill:#bf2124;fill-opacity:1;fill-rule:nonzero;stroke:none"
         id="path68" />
      <path
         d="m 16348.9,7518.1 -115,-47.3 c -2.9,7.4 -4.6,15.4 -4.6,23.9 0,34.2 27.8,62 62.2,62 26,0 48.1,-16 57.4,-38.6"
         style="fill:#d89fcd;fill-opacity:1;fill-rule:nonzero;stroke:none"
         id="path70" />
      <path
         d="m 11279,5702.1 1181.6,339.1 c -69,-25.3 -947.8,-429.9 -1178.7,-429.9 -238.2,0 -4011.08,-180.2 -4011.08,-180.2 l -1691.52,825.8 1350.05,929.2 -487.72,-860.4 876.95,-380.3 c 334.06,-144.8 693.9,-220.8 1058,-223.3 l 2902.42,-20"
         style="fill:#ce5041;fill-opacity:1;fill-rule:nonzero;stroke:none"
         id="path72" />
      <path
         d="m 12981.3,5973.7 c -29.1,-19.7 -95.8,-39.7 -167,108.7 0,0 -333.6,-39.9 -349.4,-39.9 l 397.1,123.2 119.3,-192"
         style="fill:#ce5041;fill-opacity:1;fill-rule:nonzero;stroke:none"
         id="path74" />
      <path
         d="m 12340.9,6271.1 406.9,54.7 409.2,-249.5 -380.7,315.1 -435.4,-120.3"
         style="fill:#ce5041;fill-opacity:1;fill-rule:nonzero;stroke:none"
         id="path76" />
      <path
         d="m 12245.4,6477.5 602.3,50.7 c 0,0 -310.4,60.7 -602.3,-50.7"
         style="fill:#ce5041;fill-opacity:1;fill-rule:nonzero;stroke:none"
         id="path78" />
      <path
         d="m 11114.9,5482.3 v 0 c -12,45 14.7,91.3 59.7,103.3 l 2144.6,574.7 c 45.1,12 91.4,-14.7 103.4,-59.7 v 0 c 12.1,-45.1 -14.6,-91.3 -59.7,-103.4 l -2144.6,-574.6 c -45,-12.1 -91.3,14.6 -103.4,59.7"
         style="fill:#1b1c1f;fill-opacity:1;fill-rule:nonzero;stroke:none"
         id="path80" />
      <path
         d="m 16471.7,7363.9 -219.8,-97.3 c -14.7,-6.5 -31.9,0.1 -38.4,14.8 l -26,59 c -6.5,14.7 0.1,31.8 14.8,38.3 l 219.8,97.3 c 14.7,6.5 31.9,-0.2 38.3,-14.8 l 26.1,-59 c 6.5,-14.7 -0.2,-31.8 -14.8,-38.3"
         style="fill:#fef1f9;fill-opacity:1;fill-rule:nonzero;stroke:none"
         id="path82" />
      <path
         d="m 13926.3,6313.5 -219.8,-97.3 c -14.7,-6.5 -31.9,0.2 -38.4,14.9 l -26,59 c -6.5,14.6 0.1,31.8 14.8,38.2 l 219.8,97.3 c 14.7,6.5 31.9,-0.1 38.3,-14.8 l 26.1,-59 c 6.5,-14.7 -0.2,-31.8 -14.8,-38.3"
         style="fill:#1b1c1f;fill-opacity:1;fill-rule:nonzero;stroke:none"
         id="path84" />
      <path
         d="m 14262.9,6466 -219.8,-97.3 c -14.7,-6.5 -31.8,0.2 -38.3,14.8 l -26.1,59 c -6.5,14.7 0.2,31.8 14.8,38.3 l 219.9,97.3 c 14.6,6.5 31.8,-0.1 38.3,-14.8 l 26,-59 c 6.5,-14.7 -0.1,-31.8 -14.8,-38.3"
         style="fill:#1b1c1f;fill-opacity:1;fill-rule:nonzero;stroke:none"
         id="path86" />
      <path
         d="m 16130.1,7255.1 c 0,-34.7 -28.2,-62.9 -62.9,-62.9 -34.7,0 -62.8,28.2 -62.8,62.9 0,34.7 28.1,62.8 62.8,62.8 34.7,0 62.9,-28.1 62.9,-62.8"
         style="fill:#1b1c1f;fill-opacity:1;fill-rule:nonzero;stroke:none"
         id="path88" />
      <path
         d="m 14367,5979 c 0,-15.8 -12.8,-28.6 -28.5,-28.6 -15.8,0 -28.6,12.8 -28.6,28.6 0,15.7 12.8,28.5 28.6,28.5 15.7,0 28.5,-12.8 28.5,-28.5"
         style="fill:#c56cb7;fill-opacity:1;fill-rule:nonzero;stroke:none"
         id="path90" />
      <path
         d="m 16859.7,10758.9 -358,-2860.9 v 0 c -32.3,5.4 -54.6,35.4 -50.5,67.9 l 346.6,2747.3 c 3.8,30.1 32,50.9 61.9,45.7 v 0"
         style="fill:#d89fcd;fill-opacity:1;fill-rule:nonzero;stroke:none"
         id="path92" />
      <path
         d="m 11859.9,5450.7 h -906.6 l -84.4,1396 h 1096.5 l -105.5,-1396"
         style="fill:#d89fcd;fill-opacity:1;fill-rule:nonzero;stroke:none"
         id="path94" />
      <path
         d="m 15530.2,5786.3 c -68,0 -138.1,19.9 -211.6,67 -79.5,51 -121.4,121.5 -124.5,209.5 -16.9,466.7 1079.1,1292.4 1125.8,1327.3 l 25.3,-33.8 c -11.3,-8.4 -1125.1,-847.3 -1109,-1292 2.7,-74.4 37.1,-131.8 105.2,-175.4 238.2,-152.7 437.2,12.1 667.8,202.8 267.5,221.4 570.7,472.2 996.1,238.5 l -20.3,-37 c -400.3,219.9 -679.2,-10.9 -948.9,-234 -168.3,-139.2 -329.8,-272.9 -505.9,-272.9"
         style="fill:#fef1f9;fill-opacity:1;fill-rule:nonzero;stroke:none"
         id="path96" />
      <path
         d="m 17163.9,5969.6 h -432.4 v 144.6 h 432.4 v -144.6"
         style="fill:#1b1c1f;fill-opacity:1;fill-rule:nonzero;stroke:none"
         id="path98" />
      <path
         d="m 17329.8,5466.2 h -773.3 v 517.7 h 773.3 v -517.7"
         style="fill:#d89fcd;fill-opacity:1;fill-rule:nonzero;stroke:none"
         id="path100" />
      <path
         d="m 16556.5,5983.9 773.3,-517.7 h -773.3 z"
         style="fill:#c56cb7;fill-opacity:1;fill-rule:nonzero;stroke:none"
         id="path102" />
      <path
         d="m 17259.8,6567.3 v -365.5 c 0,-46.2 -29.2,-85.9 -70.3,-101.3 -11.8,-4.4 -24.7,-7 -38.2,-7 H 16744 c -60,0 -108.3,48.6 -108.3,108.3 v 365.5 h 624.1"
         style="fill:#fef1f9;fill-opacity:1;fill-rule:nonzero;stroke:none"
         id="path104" />
      <path
         d="m 17189.5,6100.5 c -11.8,-4.4 -24.7,-7 -38.2,-7 H 16744 c -60,0 -108.3,48.6 -108.3,108.3 v 365.5 h 624.1 l -454.6,-86.7 c 0,0 -22.4,-320.4 384.3,-380.1"
         style="fill:#d89fcd;fill-opacity:1;fill-rule:nonzero;stroke:none"
         id="path106" />
      <path
         d="m 17174.8,6461.1 h -453.4 c -6.2,0 -11.3,5.1 -11.3,11.3 v 25.1 c 0,6.2 5.1,11.2 11.3,11.2 h 453.4 c 6.2,0 11.3,-5 11.3,-11.2 v -25.1 c 0,-6.2 -5.1,-11.3 -11.3,-11.3"
         style="fill:#1b1c1f;fill-opacity:1;fill-rule:nonzero;stroke:none"
         id="path108" />
      <path
         d="m 11965.4,6846.7 -930.4,-167.1 824.9,-1228.9 h -906.6 l -84.4,1396 h 1096.5"
         style="fill:#c56cb7;fill-opacity:1;fill-rule:nonzero;stroke:none"
         id="path110" />
      <path
         d="M 18518.7,5390 H 1992.97 c -23.31,0 -42.21,18.9 -42.21,42.2 v 0 c 0,23.3 18.9,42.2 42.21,42.2 H 18518.7 c 23.3,0 42.2,-18.9 42.2,-42.2 v 0 c 0,-23.3 -18.9,-42.2 -42.2,-42.2"
         style="fill:#1b1c1f;fill-opacity:1;fill-rule:nonzero;stroke:none"
         id="path112" />
      <path
         d="m 11738.9,6160.5 c 0,-168.5 -136.5,-305 -304.9,-305 -168.5,0 -305,136.5 -305,305 0,168.4 136.5,304.9 305,304.9 168.4,0 304.9,-136.5 304.9,-304.9"
         style="fill:#fef1f9;fill-opacity:1;fill-rule:nonzero;stroke:none"
         id="path114" />
    </g>
  </g>
</svg>
