<?xml version="1.0" encoding="UTF-8" standalone="no"?>
<svg
   xmlns:dc="http://purl.org/dc/elements/1.1/"
   xmlns:cc="http://creativecommons.org/ns#"
   xmlns:rdf="http://www.w3.org/1999/02/22-rdf-syntax-ns#"
   xmlns:svg="http://www.w3.org/2000/svg"
   xmlns="http://www.w3.org/2000/svg"
   viewBox="0 0 2300.6799 1844.04"
   height="1844.04"
   width="2300.6799"
   xml:space="preserve"
   id="svg2"
   version="1.1"><metadata
     id="metadata8"><rdf:RDF><cc:Work
         rdf:about=""><dc:format>image/svg+xml</dc:format><dc:type
           rdf:resource="http://purl.org/dc/dcmitype/StillImage" /></cc:Work></rdf:RDF></metadata><defs
     id="defs6" /><g
     transform="matrix(1.3333333,0,0,-1.3333333,0,1844.04)"
     id="g10"><g
       transform="scale(0.1)"
       id="g12"><path
         id="path14"
         style="fill:#f8d49f;fill-opacity:1;fill-rule:nonzero;stroke:none"
         d="m 15230.2,6971.75 c 0,-3787.85 -3070.7,-6858.547 -6858.54,-6858.547 -3787.87,0 -6858.55,3070.697 -6858.55,6858.547 0,3787.85 3070.68,6858.55 6858.55,6858.55 3787.84,0 6858.54,-3070.7 6858.54,-6858.55" /><path
         id="path16"
         style="fill:#519ea2;fill-opacity:1;fill-rule:nonzero;stroke:none"
         d="m 9671.67,7210.07 c 21.7,-196.2 65.4,-571.81 65.4,-571.81 L 9165.84,840.703 9088.57,57.9023 h 0.87 c -0.29,-1.4023 -0.58,-3.2031 -0.58,-4.6015 H 3762.65 L 6902.94,6769.93 c 84.5,180.57 247.99,311.94 442.74,355.35 l 1388.7,309.63 480.36,107.07 349.57,164.36 c 69.16,-106.78 146.13,-196.19 231.78,-261.88 0,0 0,0 0.29,-0.58 0,0 -146.42,-37.91 -124.71,-233.81" /><path
         id="path18"
         style="fill:#39888e;fill-opacity:1;fill-rule:nonzero;stroke:none"
         d="m 8822.06,6355.83 112.86,-5452.131 -433.19,5414.511 232.65,1116.7 480.36,107.07 -392.68,-1186.15" /><path
         id="path20"
         style="fill:#39888e;fill-opacity:1;fill-rule:nonzero;stroke:none"
         d="m 9088.57,57.9023 h 0.87 c -0.29,-1.4023 -0.58,-3.2031 -0.58,-4.6015 H 5403.69 L 6998.72,5156.96 7124.02,6912.3 7155.27,5125.71 7103.19,1427.2 9165.84,840.703 9088.57,57.9023" /><path
         id="path22"
         style="fill:#f7fcf0;fill-opacity:1;fill-rule:nonzero;stroke:none"
         d="m 11647.8,2565.9 c -12.4,-271.1 -3.5,-761.3 12.4,-1265.1 13.9,-453.499 33.6,-917.597 48.4,-1242.8977 H 9088.57 l 648.5,6580.3577 c 0,0 -43.7,375.61 -65.4,571.81 -21.71,195.9 124.71,233.81 124.71,233.81 8.97,-30.09 306.12,-987.64 853.92,-1041.45 283.3,-28.07 645.6,366.63 933.3,760.75 240.1,329.31 427.9,658.05 474,739.93 6.9,12.74 10.7,19.4 10.7,19.4 v 399.62 c 60.7,-91.73 166.1,-254.94 255.2,-412.07 80.1,-140.63 147.3,-276.64 157.4,-351.59 27.2,-201.4 -364.9,-1012.81 -364.9,-1012.81 0,0 -435.5,-3266.46 -468.2,-3979.76" /><path
         id="path24"
         style="fill:#f8d49f;fill-opacity:1;fill-rule:nonzero;stroke:none"
         d="m 11594,3259.8 c -598.4,1033.67 -735,2259.17 -735,2259.17 l 321.2,384 384,-423.36 399.6,658.32 C 11810.7,5170.85 11685.4,4119.55 11594,3259.8 Z m 522,3285.86 c 0,0 392.1,811.41 364.9,1012.81 -10.1,74.95 -77.3,210.96 -157.4,351.59 -89.1,157.13 -194.5,320.34 -255.2,412.07 v -399.62 c 0,0 -3.8,-6.66 -10.7,-19.4 -46.1,-81.88 -233.9,-410.62 -474,-739.93 v 0 c 288.5,-326.9 319.9,-807.41 76.4,-1169.1 l -135.2,-200.79 -353.9,329.31 -248,234.68 c -249.1,-211.82 -365.2,-52.38 -365.2,-52.38 l -756.68,-864.35 86.23,1151.99 c -195.91,665.85 -90.87,851.34 -90.87,851.34 0,0 -146.42,-37.91 -124.71,-233.81 21.7,-196.2 65.4,-571.81 65.4,-571.81 L 9088.57,57.9023 H 9793.2 V 4225.13 c 0,610.9 226,1200.2 634.6,1654.39 v 0 l 78.4,-149.02 c 114.3,-1415.91 530.7,-2399.2 1025.3,-3079.8 -70.4,-709.6 -108.5,-1183 -108.5,-1183 l 235.2,-172.4 2,5.5 c -15.9,503.8 -24.8,994 -12.4,1265.1 32.7,713.3 468.2,3979.76 468.2,3979.76" /><path
         id="path26"
         style="fill:#f57a5d;fill-opacity:1;fill-rule:nonzero;stroke:none"
         d="m 11827.2,9297.61 c -75.5,-660.64 -479.5,-1042.62 -656,-1180.07 -50.9,-39.64 -83.1,-59.03 -83.1,-59.03 l -268.8,440.43 H 9572.99 l -89.71,-223.98 c 0,0 -204.3,330.75 -390.65,905.45 -22.57,135.14 -41.38,267.67 -57.01,393.55 -4.63,36.75 -8.97,72.92 -13.02,108.51 -54.69,476.03 -64.82,833.43 -64.82,833.43 0,0 -34.44,603 234.39,864.3 0,0 355.93,-403.9 1979.03,-51.5 71.8,15.7 146.1,32.7 223.1,51.5 l 2,-267.9 5.2,-635.2 c 0,0 522.6,-328.4 425.7,-1179.49" /><path
         id="path28"
         style="fill:#f57a5d;fill-opacity:1;fill-rule:nonzero;stroke:none"
         d="m 12068.3,8870.49 v -947.98 c 0,0 -776.1,-1418.51 -1330.6,-1516.04 -29.8,-5.49 -59,-6.94 -87.4,-4.04 -547.8,53.81 -844.95,1011.36 -853.92,1041.45 12.16,-10.13 311.92,-265.93 582.82,-265.93 240.2,0 1048.4,127.03 1508.5,1162.99 69.2,155.1 130.2,330.75 180.6,529.55" /><path
         id="path30"
         style="fill:#f04a25;fill-opacity:1;fill-rule:nonzero;stroke:none"
         d="m 12483.5,10186.9 c -582.5,-126.2 -415.2,-1316.41 -415.2,-1316.41 0,0 329.3,-47.17 524.9,618.97 195.9,665.84 -109.7,697.44 -109.7,697.44" /><path
         id="path32"
         style="fill:#211c1d;fill-opacity:1;fill-rule:nonzero;stroke:none"
         d="m 12483.5,10186.9 c -582.5,-126.2 -415.2,-1316.41 -415.2,-1316.41 -13.1,-51.79 -27,-102.15 -41.7,-151.05 -6.4,-21.42 -12.7,-42.25 -19.4,-63.09 -13,-40.8 -26.6,-80.44 -40.5,-118.92 -5.5,-15.92 -11.6,-31.55 -17.4,-47.18 -4.9,-12.44 -9.5,-24.89 -14.4,-37.04 -7.3,-17.93 -14.2,-35.59 -21.7,-53.24 -8.4,-19.97 -16.8,-39.64 -25.5,-59.03 -7,-15.63 -13.9,-31.26 -21.1,-46.59 -29.8,-63.95 -60.8,-124.15 -93.2,-180.86 -7.8,-13.6 -15.6,-27.2 -23.5,-40.51 -8.1,-13.6 -16.2,-27.21 -24.5,-40.52 -7.6,-12.15 -15.4,-24.3 -22.9,-36.46 -23.5,-36.17 -47.5,-70.6 -71.8,-103.59 -29.2,-40.52 -59.3,-78.72 -90,-114.59 -7.5,-8.68 -14.7,-17.08 -22.3,-25.47 -8.9,-10.42 -17.9,-20.25 -26.9,-30.1 -17.6,-19.67 -35.8,-38.77 -54.4,-57 -8.9,-9.26 -18.2,-18.23 -27.5,-27.2 -11.8,-11.57 -23.7,-22.86 -35.8,-33.57 -10.5,-9.84 -21.2,-19.1 -31.9,-28.36 -44.8,-39.35 -90.3,-74.94 -135.4,-106.78 -8.1,-5.78 -15.9,-11.28 -24,-16.78 -10.4,-7.24 -21.1,-14.47 -31.8,-21.13 -9.6,-6.36 -19.4,-12.73 -29,-18.51 -14.5,-9.27 -29.2,-18.24 -43.7,-26.33 -8.9,-5.51 -18.2,-10.71 -27.2,-15.63 -19.1,-10.71 -37.9,-20.84 -56.7,-30.1 -10.1,-5.2 -20.5,-10.42 -30.7,-15.05 -20.2,-9.84 -40.2,-19.09 -60.2,-27.49 -9.8,-4.34 -19.9,-8.68 -29.8,-12.44 -9.5,-4.05 -19.4,-8.1 -29.2,-11.57 -3.5,-1.45 -6.9,-2.89 -10.7,-4.05 -11.6,-4.64 -22.9,-8.69 -34.1,-12.73 -32.5,-11.29 -64,-21.14 -94.4,-29.52 -8.7,-2.61 -17.3,-4.92 -25.7,-6.95 -2.6,-0.86 -5.2,-1.44 -7.8,-2.02 -14.2,-3.77 -28.1,-6.95 -41.7,-10.13 -35.6,-8.11 -69.2,-14.18 -99.9,-18.52 -6.3,-1.16 -12.4,-2.03 -18.2,-2.61 -8.1,-1.16 -15.6,-2.03 -23.1,-2.89 -4.7,-0.58 -9,-1.16 -13.1,-1.45 -6.3,-0.86 -12.4,-1.44 -18.5,-1.73 -6.1,-0.58 -11.8,-1.16 -17.6,-1.45 -11.3,-0.87 -22,-1.45 -32.1,-1.74 -5,-0.29 -9.9,-0.29 -14.5,-0.29 -4.9,-0.28 -9.3,-0.28 -13.6,-0.28 -270.9,0 -570.66,255.8 -582.82,265.93 -0.29,0.58 -0.29,0.58 -0.29,0.58 -85.65,65.69 -162.62,155.1 -231.78,261.88 -237.87,366.93 -383.42,940.46 -471.68,1474.07 186.35,-574.7 390.65,-905.45 390.65,-905.45 l 89.71,223.98 h 1246.31 l 268.8,-440.43 c 0,0 641.9,388.34 739.1,1239.1 96.9,851.09 -425.7,1179.49 -425.7,1179.49 l -7.2,903.1 c -1603.13,-389.2 -2092.45,-90.5 -2184.77,-15.6 -1.15,0.9 -2.31,2 -3.47,2.9 -2.89,2.6 -5.2,4.9 -7.23,6.4 -2.61,2.6 -4.34,4.3 -5.5,5.2 -0.29,0.3 -0.87,0.8 -0.87,0.8 l -0.29,0.3 c -268.83,-261.3 -234.39,-864.3 -234.39,-864.3 -705.2,1355.4 493.67,1668.8 493.67,1668.8 0,0 0,0 0.29,0.3 102.15,188.7 588.26,963 2091.56,501.2 1504.5,-462.4 940.2,-2499.3 940.2,-2499.3" /><path
         id="path34"
         style="fill:#519ea2;fill-opacity:1;fill-rule:nonzero;stroke:none"
         d="m 11705.7,57.9023 h 2.9 c -0.3,9 -0.9,18.1993 -1.2,27.5 L 10418.5,51 c -450.23,882 0,1591.5 0,1591.5 h 1231.9 c -7.5,318.3 -11,610.3 -6.1,819.2 0.9,37.6 2.1,72.4 3.5,104.2 5.8,127.3 24.6,335.7 51.2,592.1 123,1182.06 417,3387.66 417,3387.66 l 0.3,0.58 c 11.6,23.73 391.5,814.01 364.6,1012.23 -10.1,74.95 -77.3,210.96 -157.4,351.59 h 4.9 l 430.3,-401.36 347.5,-115.75 2198.7,-731.25 c 283.3,-94.33 479.2,-353.32 493.1,-651.38 L 16073.5,53.3008 h -4367.8 v 4.6015" /><path
         id="path36"
         style="fill:#f04a25;fill-opacity:1;fill-rule:nonzero;stroke:none"
         d="m 11171.2,8117.54 v 3211.16 c 71.8,15.7 146.1,32.7 223.1,51.5 l 7.2,-903.1 c 0,0 522.6,-328.4 425.7,-1179.49 -75.5,-660.64 -479.5,-1042.62 -656,-1180.07" /><path
         id="path38"
         style="fill:#f04a25;fill-opacity:1;fill-rule:nonzero;stroke:none"
         d="m 12068.3,8870.49 v -947.98 c 0,0 -776.1,-1418.51 -1330.6,-1516.04 252.9,221.95 212.1,771.48 212.1,771.48 -783.3,-238.45 -1153.42,265.93 -1153.42,265.93 12.16,-10.13 311.92,-265.93 582.82,-265.93 240.2,0 1048.4,127.03 1508.5,1162.99 69.2,155.1 130.2,330.75 180.6,529.55" /><path
         id="path40"
         style="fill:#f04a25;fill-opacity:1;fill-rule:nonzero;stroke:none"
         d="m 11396.3,11112.3 c -52.9,-10.2 -108.5,-19.4 -166.9,-27.5 -2175.26,-305.9 -2037.23,295.4 -2037.23,295.4 0,0 355.93,-403.9 1979.03,-51.5 71.8,15.7 146.1,32.7 223.1,51.5 l 2,-267.9" /><path
         id="path42"
         style="fill:#171514;fill-opacity:1;fill-rule:nonzero;stroke:none"
         d="m 12483.5,10186.9 c -582.5,-126.2 -415.2,-1316.41 -415.2,-1316.41 -13.1,-51.79 -27,-102.15 -41.7,-151.05 -6.4,-21.42 -12.7,-42.25 -19.4,-63.09 -13,-40.8 -26.6,-80.44 -40.5,-118.92 -5.5,-15.92 -11.6,-31.55 -17.4,-47.18 -4.9,-12.44 -9.5,-24.89 -14.4,-37.04 -7.3,-17.93 -14.2,-35.59 -21.7,-53.24 -8.4,-19.97 -16.8,-39.64 -25.5,-59.03 -7,-15.63 -13.9,-31.26 -21.1,-46.59 -29.8,-63.95 -60.8,-124.15 -93.2,-180.86 -7.8,-13.6 -15.6,-27.2 -23.5,-40.51 -8.1,-13.6 -16.2,-27.21 -24.5,-40.52 -7.6,-12.15 -15.4,-24.3 -22.9,-36.46 -23.5,-36.17 -47.5,-70.6 -71.8,-103.59 -29.2,-40.52 -59.3,-78.72 -90,-114.59 -7.5,-8.68 -14.7,-17.08 -22.3,-25.47 -8.9,-10.42 -17.9,-20.25 -26.9,-30.1 -17.6,-19.67 -35.8,-38.77 -54.4,-57 -8.9,-9.26 -18.2,-18.23 -27.5,-27.2 -11.8,-11.57 -23.7,-22.86 -35.8,-33.57 -10.5,-9.84 -21.2,-19.1 -31.9,-28.36 -44.8,-39.35 -90.3,-74.94 -135.4,-106.78 -8.1,-5.78 -15.9,-11.28 -24,-16.78 -10.4,-7.24 -21.1,-14.47 -31.8,-21.13 -9.6,-6.36 -19.4,-12.73 -29,-18.51 -14.5,-9.27 -29.2,-18.24 -43.7,-26.33 -8.9,-5.51 -18.2,-10.71 -27.2,-15.63 -19.1,-10.71 -37.9,-20.84 -56.7,-30.1 -10.1,-5.2 -20.5,-10.42 -30.7,-15.05 -20.2,-9.84 -40.2,-19.09 -60.2,-27.49 -9.8,-4.34 -19.9,-8.68 -29.8,-12.44 -9.5,-4.05 -19.4,-8.1 -29.2,-11.57 -3.5,-1.45 -6.9,-2.89 -10.7,-4.05 -11.6,-4.64 -22.9,-8.69 -34.1,-12.73 -32.5,-11.29 -64,-21.14 -94.4,-29.52 -8.7,-2.61 -17.3,-4.92 -25.7,-6.95 -2.6,-0.86 -5.2,-1.44 -7.8,-2.02 -14.2,-3.77 -28.1,-6.95 -41.7,-10.13 -35.6,-8.11 -69.2,-14.18 -99.9,-18.52 -6.3,-1.16 -12.4,-2.03 -18.2,-2.61 -8.1,-1.16 -15.6,-2.03 -23.1,-2.89 -4.7,-0.58 -9,-1.16 -13.1,-1.45 -6.3,-0.86 -12.4,-1.44 -18.5,-1.73 -6.1,-0.58 -11.8,-1.16 -17.6,-1.45 -11.3,-0.87 -22,-1.45 -32.1,-1.74 -5,-0.29 -9.9,-0.29 -14.5,-0.29 -4.9,-0.28 -9.3,-0.28 -13.6,-0.28 -270.9,0 -570.66,255.8 -582.82,265.93 795.22,-547.21 1291.72,614.63 1291.72,614.63 0,0 641.9,388.34 739.1,1239.1 96.9,851.09 -425.7,1179.49 -425.7,1179.49 l -7.2,903.1 c -1603.13,-389.2 -2092.45,-90.5 -2184.77,-15.6 -1.15,0.9 -2.31,2 -3.47,2.9 -2.89,2.6 -5.2,4.9 -7.23,6.4 -2.61,2.6 -4.34,4.3 -5.5,5.2 -0.29,0.3 -0.87,0.8 -0.87,0.8 1058.24,-385.7 2272.14,417.3 2272.14,417.3 -414.4,414.4 -1135.8,383.7 -1135.8,383.7 744.3,138.4 1266.3,-122.7 1266.3,-122.7 -957.5,1003 -2120.21,143.9 -2143.36,126.8 102.15,188.7 588.26,963 2091.56,501.2 1504.5,-462.4 940.2,-2499.3 940.2,-2499.3" /><path
         id="path44"
         style="fill:#39888e;fill-opacity:1;fill-rule:nonzero;stroke:none"
         d="m 13528.8,1642.5 c 0,0 -178.1,791.4 71.3,1931.5 0,0 -8.9,-596.8 53.4,-1131.2 l 1006.6,3019.66 -160.4,-855.14 c 0,0 498.9,694.8 1184.8,1122.37 0,0 -864.1,-721.52 -1247.1,-1603.38 L 14063.3,2433.9 c 0,0 1656.8,133.6 1745.9,-1541.099 0,0 -124.7,1549.999 -1754.8,1273.799 l -525.6,-524.1" /><path
         id="path46"
         style="fill:#39888e;fill-opacity:1;fill-rule:nonzero;stroke:none"
         d="m 12286.7,1651.8 802.5,4609.12 -330.5,1247.78 347.5,-115.75 232.7,-1079.07 -1052.2,-4662.08" /><path
         id="path48"
         style="fill:#39888e;fill-opacity:1;fill-rule:nonzero;stroke:none"
         d="m 11705.7,57.9023 h 2.9 c -0.3,9 -0.9,18.1993 -1.2,27.5 L 10418.5,51 c -450.23,882 0,1591.5 0,1591.5 h 391 c 31.5,-34.1 58.7,-72 80.4,-114.3 160.3,-310.5 257.6,-573.501 257.6,-573.501 h 2817 C 12581,1273 11893.5,2090.2 11644.3,2461.7 c 0.9,37.6 2.1,72.4 3.5,104.2 5.8,127.3 24.6,335.7 51.2,592.1 461.9,-543.5 1153.5,-1004.5 1803.4,-1357.5 40.2,-22 80.2,-43.4 120.1,-64.5 861.2,-454.6 1617.3,-712.7 1617.3,-712.7 l -28.7,951.7 -4.6,149.3 -91.7,3033.24 -3.8,127.03 -15,498.59 c -8.7,283.88 -198.2,530.14 -470.5,610.87 l -2098.9,622.45 -410.3,-470.24 c 11.6,23.73 391.5,814.01 364.6,1012.23 -10.1,74.95 -77.3,210.96 -157.4,351.59 h 4.9 l 430.3,-401.36 347.5,-115.75 2198.7,-731.25 c 283.3,-94.33 479.2,-353.32 493.1,-651.38 L 16073.5,53.3008 h -4367.8 v 4.6015" /><path
         id="path50"
         style="fill:#2e2d3f;fill-opacity:1;fill-rule:nonzero;stroke:none"
         d="m 16009.2,1558 -769.4,-534.7 c 0,0 -4095.2,-469.398 -4629.7,4734.11 l -208.6,351.88 156.2,195.61 c 0,0 195.6,-39.06 365.2,52.38 l 248,-234.68 -261,-287.06 c 0,0 404.3,-4160.04 4277.5,-3495.04 l 821.8,-782.5" /><path
         id="path52"
         style="fill:#1e1f2f;fill-opacity:1;fill-rule:nonzero;stroke:none"
         d="m 16009.2,1558 c 0,0 -2320.2,-202.8 -3692.4,1128.6 -1372.2,1331.09 -1551.9,3144.31 -1551.9,3144.31 l -40.8,163.5 -114,-237 -208.6,351.88 156.2,195.61 c 0,0 195.6,-39.06 365.2,52.38 l 248,-234.68 -261,-287.06 c 0,0 404.3,-4160.04 4277.5,-3495.04 l 821.8,-782.5" /><path
         id="path54"
         style="fill:#f57a5d;fill-opacity:1;fill-rule:nonzero;stroke:none"
         d="m 11027.1,293.699 -428.9,137.203 c -165.5,-68 -342.9,-76.402 -483.2,-66.601 C 9959.88,375.102 9849.63,408 9849.63,408 l -931.49,-80.098 c 0,0 -125.88,-137.199 -320.05,-68.601 -155.97,55 -91.15,224 -59.62,288.801 4.64,8.398 9.27,16.8 13.9,25.8 0,0 -17.65,160 -74.66,137.098 -57.29,-22.797 -474,-628.8008 -474,-628.8008 L 7902.43,420.203 7823.72,682.102 7730.83,992 l -59.61,198.8 -10.41,34.4 c 0,0 440.14,320.1 691.6,485.9 251.46,165.8 416.99,28.6 416.99,28.6 274.32,142.7 451.71,-45.7 657.45,-85.9 159.16,-31 947.15,-89.1 1296.15,-113.7 102.4,-7.5 166.9,-11.9 166.9,-11.9 571.5,-731.497 137.2,-1234.501 137.2,-1234.501" /><path
         id="path56"
         style="fill:#f04a25;fill-opacity:1;fill-rule:nonzero;stroke:none"
         d="m 9062.82,1292.7 c -10.71,-13.1 -359.98,-433.2 -510.45,-718.798 0,0 -17.65,160 -74.66,137.098 0,0 331.91,446.2 585.11,581.7" /><path
         id="path58"
         style="fill:#f04a25;fill-opacity:1;fill-rule:nonzero;stroke:none"
         d="M 10115,364.301 C 9959.88,375.102 9849.63,408 9849.63,408 l -931.49,-80.098 c 0,0 353.61,441.301 513.92,503.2 144.4,55.898 286.48,-354.5 682.94,-466.801" /><path
         id="path60"
         style="fill:#f04a25;fill-opacity:1;fill-rule:nonzero;stroke:none"
         d="m 8643.81,1691.1 c -24.89,-15.6 -819.51,-514.2 -901.11,-672.5 -4.34,-8.4 -8.39,-17.3 -11.87,-26.6 l -59.61,198.8 972.59,500.3" /><path
         id="path62"
         style="fill:#f04a25;fill-opacity:1;fill-rule:nonzero;stroke:none"
         d="m 9014.5,1608.1 c -18.23,-9 -610.87,-300.1 -740.51,-506.7 -86.81,-137.998 -262.17,-470.201 -371.56,-681.197 l -78.71,261.899 c 127.91,183.699 311.08,445.898 386.9,545.998 119.8,158.3 783.33,373.3 803.88,380" /><path
         id="path64"
         style="fill:#f04a25;fill-opacity:1;fill-rule:nonzero;stroke:none"
         d="m 11027.1,293.699 -428.9,137.203 c 238.2,577.898 193.6,926.898 124.8,1109.198 102.4,-7.5 166.9,-11.9 166.9,-11.9 571.5,-731.497 137.2,-1234.501 137.2,-1234.501" /><path
         id="path66"
         style="fill:#f8d49f;fill-opacity:1;fill-rule:nonzero;stroke:none"
         d="m 12058.9,2795.5 c -299.6,411.1 -747.5,797.2 -1261.2,1087.08 -327.8,185 -513,423.32 -550.4,708.34 -81,617.31 532,1363.86 1060.5,1881.43 674.1,660.14 1066.3,1567.91 1081.9,2498.6 h 8.8 v 434.56 c 24,25.17 38.8,59.16 38.8,96.68 0,77.46 -62.8,140.25 -140.2,140.25 -77.5,0 -140.3,-62.79 -140.3,-140.25 0,-74.23 57.7,-134.83 130.7,-139.76 v -391.48 h 15.4 c -15.6,-907.5 -398.3,-1792.66 -1055.8,-2436.57 -472.3,-462.51 -792.6,-883.68 -959.2,-1259.72 1.2,58.11 4.1,114.9 7.1,170.81 25.4,493.09 49.5,958.69 -1126.56,1922.3 -427.69,350.44 -644.72,730.67 -645.01,1130.01 -0.29,502.64 346.67,910.37 512.19,1076.18 -4.63,36.75 -8.97,72.92 -13.02,108.51 -143.82,-131.95 -585.98,-586.85 -585.98,-1184.11 0,-426.83 227.73,-829.92 676.84,-1197.72 1142.14,-935.83 1120.14,-1359.76 1094.74,-1850.55 -6.5,-124.13 -12.7,-252.16 -0.9,-392.71 -50.1,-169.71 -65.6,-329.12 -46,-477.76 41.1,-313.55 240.9,-573.51 593.8,-772.62 942,-531.7 1785,-1490.8 1573.7,-2295.4 C 12221.1,1101.8 11856.3,775.102 11244.6,540.5 10529.3,266.301 9492.33,127.199 8162.54,127.199 V 40.4023 c 3198.16,0 4076.56,787.9997 4250.16,1449.0977 103.7,394.6 -18.6,846.2 -353.8,1306" /><path
         id="path68"
         style="fill:#f39c13;fill-opacity:1;fill-rule:nonzero;stroke:none"
         d="M 10652.8,87.7031 H 7849.91 V 378.301 H 10652.8 V 87.7031" /><path
         id="path70"
         style="fill:#f8b633;fill-opacity:1;fill-rule:nonzero;stroke:none"
         d="M 8162.53,83.8008 H 1480.07 L 636.008,4121.21 c -34.254,163.84 90.797,317.73 258.18,317.73 H 7037.72 c 124.87,0 232.63,-87.56 258.18,-209.78 L 8162.53,83.8008" /><path
         id="path72"
         style="fill:#211c1d;fill-opacity:1;fill-rule:nonzero;stroke:none"
         d="m 5163.02,1822.8 h -1050.1 c -336.53,0 -627.53,234.6 -698.89,563.5 v 0 h 1050.1 c 336.53,0 627.53,-234.6 698.89,-563.5 v 0" /><g
         transform="scale(1.05859)"
         id="g74"><path
           id="path76"
           style="fill:#f8d49f;fill-opacity:1;fill-rule:nonzero;stroke:none"
           d="M 16245.4,0 H 54.6718 C 24.4761,0 0,24.4687 0,54.6977 v 0 C 0,84.9266 24.4761,109.392 54.6718,109.392 H 16245.4 c 30.2,0 54.7,-24.4654 54.7,-54.6943 v 0 C 16300.1,24.4687 16275.6,0 16245.4,0" /></g></g></g></svg>