<?xml version="1.0" encoding="UTF-8" standalone="no"?>
<svg
   xmlns:dc="http://purl.org/dc/elements/1.1/"
   xmlns:cc="http://creativecommons.org/ns#"
   xmlns:rdf="http://www.w3.org/1999/02/22-rdf-syntax-ns#"
   xmlns:svg="http://www.w3.org/2000/svg"
   xmlns="http://www.w3.org/2000/svg"
   viewBox="0 0 2410.6133 1541.2267"
   height="1541.2267"
   width="2410.6133"
   xml:space="preserve"
   id="svg2"
   version="1.1"><metadata
     id="metadata8"><rdf:RDF><cc:Work
         rdf:about=""><dc:format>image/svg+xml</dc:format><dc:type
           rdf:resource="http://purl.org/dc/dcmitype/StillImage" /></cc:Work></rdf:RDF></metadata><defs
     id="defs6" /><g
     transform="matrix(1.3333333,0,0,-1.3333333,0,1541.2267)"
     id="g10"><g
       transform="scale(0.1)"
       id="g12"><g
         transform="scale(1.06233)"
         id="g14"><path
           id="path16"
           style="fill:#53c399;fill-opacity:1;fill-rule:nonzero;stroke:none"
           d="M 15235.6,50.7363 H 5177.86 l 16.77,52.7147 h 4672.5 l -391.88,1943.919 -552.46,2740.59 -0.3,1.18 H 6755.55 c 149.45,162.68 464.23,461.27 894.02,633.07 0,0 171.22,355.08 1651.83,538.36 l 258.57,157.38 C 9582,5346.6 9970.96,4992.13 10404.5,4912.1 h 0.7 c 360.9,-66.78 752.8,56.48 990.5,287.42 532.5,516.88 300.9,1242.33 300.9,1242.33 l 467.8,-260.95 305.9,24.42 208,-110.02 1590.7,-281.53 c 0,0 477.1,-379.2 868.6,-1798.62 0,0 281.6,-110.03 195.9,-770.77 0,0 966.5,-2838.571 -97.9,-3193.6437" /></g><g
         transform="scale(1.01556)"
         id="g18"><path
           id="path20"
           style="fill:#32908b;fill-opacity:1;fill-rule:nonzero;stroke:none"
           d="m 14736.4,2082.88 c 189,-94.17 542,-523.45 565.6,-552.39 -24.9,28.32 -427.3,481.61 -787.1,513.3 -371.4,32.63 -508.3,-169.26 -508.3,-169.26 L 13133.2,1737.61 14240.4,578.399 C 14099.7,717.832 12941.2,1860.39 12690.1,1848.38 12422.9,1835.46 12017,1622.52 12017,1622.52 L 11826.6,53.0727 H 9277.07 l -22.47,55.1423 h 1066.9 L 9911.59,2141.65 h 1142.91 c 795.4,1705.12 1983,3042.82 2055.9,3124.36 -359.7,-447.74 -678.2,-994.58 -936.4,-1503.56 -191.4,-377.58 -349.9,-734.55 -466.8,-1015.19 -147.4,-353.59 -229,-585.91 -229,-585.91 295.1,0 551.1,50.15 770.9,128.62 456.3,162.48 756.4,446.21 925.9,651.77 118.6,143.4 173.3,248.96 173.3,248.96 -162.7,1310 124,2079 124,2079 -58.8,-912.41 195.5,-1622.64 195.5,-1622.64 47.9,812.71 468.9,1208.13 533,1263.84 -490.6,-447.44 -187.8,-1466.03 -187.8,-1466.03 456.4,338.82 1739.9,410.52 1739.9,410.52 0,0 -1511.9,-280.04 -1622.6,-527.76 -110.8,-247.72 0,-677.62 0,-677.62 1273.3,237.88 1709.1,-380.96 1720.2,-397.27 -521.4,429.89 -1485.5,319.11 -1694.1,169.25 -208.6,-149.87 -65.2,-319.42 -65.2,-319.42 1866,508.36 2200.8,-533.6 2208.8,-559.76 -495.4,840.1 -1563.6,540.07 -1563.6,540.07" /></g><path
         id="path22"
         style="fill:#f6a475;fill-opacity:1;fill-rule:nonzero;stroke:none"
         d="m 12425.6,7785.88 v -942.54 c 0,0 246,-770.67 -319.7,-1319.76 -166.2,-161.58 -403.8,-273.46 -656.3,-310.64 -130.6,-19.69 -265.3,-18.75 -395.9,5.31 -461,84.69 -874.5,461.28 -897.9,1281 -0.6,24.07 -0.9,48.44 -0.9,73.44 0,0 -485.67,174.39 -656.93,1248.51 -11.88,75 -22.2,154.69 -30.95,238.76 -49.37,481.58 -39.37,1115.37 81.26,1947.64 h 1827.92 c 0,0 360.3,-872.59 824.4,-1171.66 95.9,-61.88 196.3,-99.07 298.8,-99.07 0,0 188.4,-57.5 327.8,213.13 0,0 327.8,-942.54 -401.6,-1164.12" /><path
         id="path24"
         style="fill:#f36458;fill-opacity:1;fill-rule:nonzero;stroke:none"
         d="m 10623,6277.99 c 0,0 -54.4,-760.35 430.7,-1059.74 -461,84.69 -874.5,461.28 -897.9,1281 -0.6,24.07 -0.9,48.44 -0.9,73.44 0,0 -485.67,174.39 -656.93,1248.51 -11.88,75 -22.2,154.69 -30.95,238.76 -49.37,481.58 -39.37,1115.37 81.26,1947.64 H 11376.2 L 9793.61,9692.85 c 0,0 -324.09,-3090.78 952.59,-3090.78 1276.6,0 1594.1,1231 1594.1,1231 l 85.3,-47.19 c 0,0 -215,-1488.51 -1802.6,-1507.89" /><path
         id="path26"
         style="fill:#fffffe;fill-opacity:1;fill-rule:nonzero;stroke:none"
         d="m 12588.4,113.898 v -0.296 C 12555.3,63 12531.6,36.6992 12531.6,36.6992 l -335.1,29.6992 -140.6,12.5 h 176.3 c 0,44.9996 -8.5,88.2036 -24.4,127.4996 C 12157.2,336.102 12030.9,428 11883.1,428 h -271.9 c 1.9,166 -18.1,477.801 -172.5,700 -102.5,147.2 -263.5,254.7 -516,254.7 0,0 -15.6,37.5 238.5,84.4 254,46.9 1042.8,180.66 1042.8,180.66 0,0 461.3,-66.89 555.1,-661.959 67.8,-432.199 -82.9,-737.199 -170.7,-871.903" /><path
         id="path28"
         style="fill:#f6a475;fill-opacity:1;fill-rule:nonzero;stroke:none"
         d="M 11611.2,428 H 10418 l -215,1065.4 72.5,20.3 647.2,-131 c 634.4,0 691.6,-679.098 688.5,-954.7" /><path
         id="path30"
         style="fill:#fffffe;fill-opacity:1;fill-rule:nonzero;stroke:none"
         d="m 12922.5,6566.13 c -27.8,-328.77 -180.6,-1730.4 -1667.9,-1730.4 -443.4,0 -744.4,133.13 -948.8,320.02 -480.64,439.39 -424.69,1176.31 -424.69,1176.31 l 274.69,167.19 c 1.3,-45.94 3.8,-90.32 7.5,-133.44 0.9,-9.69 1.9,-19.07 2.8,-28.75 2.2,-22.19 4.7,-43.76 7.5,-65.01 2.5,-20.31 5.3,-40 8.5,-59.69 0.6,-2.81 0.9,-5.31 1.5,-8.12 1.6,-10.63 3.5,-21.26 5.6,-31.88 2.2,-12.5 4.7,-25 7.2,-37.19 2.5,-12.19 5,-24.37 7.8,-36.25 2.9,-11.88 5.7,-23.75 8.8,-35.63 36.6,-145.32 89.7,-270.32 155,-375.95 4.4,-7.51 9.1,-14.69 13.8,-21.88 6.5,-10.31 13.1,-20.31 20,-30 2.8,-4.06 5.6,-8.13 8.7,-12.19 10.9,-15.62 22.5,-30.62 34.1,-45 8.1,-10.32 16.2,-20.32 25,-30 1.2,-1.88 2.8,-3.44 4.7,-5.32 8.1,-9.68 16.5,-19.06 25.3,-28.12 12.8,-13.44 25.6,-26.26 38.7,-38.75 11.6,-10.94 22.8,-21.26 34.7,-31.25 8.8,-7.5 17.5,-15.01 26.3,-21.88 3.7,-3.13 7.5,-5.94 11.2,-8.75 10.3,-8.13 20.6,-15.94 31,-23.44 1.2,-0.94 2.8,-1.88 4,-2.81 12.5,-8.76 25,-17.51 37.8,-25.32 11.9,-7.81 24.1,-15.31 36.3,-22.19 1.2,-0.94 2.2,-1.56 3.4,-2.19 11.9,-6.87 23.8,-13.43 36,-19.68 5.3,-2.82 10.6,-5.32 15.9,-8.13 8.8,-4.37 17.5,-8.75 26.3,-12.5 40.3,-19.06 81.5,-35 123.7,-48.12 14.1,-4.38 28.1,-8.44 42.5,-12.2 14.1,-4.06 28.5,-7.5 42.5,-10.62 14.4,-3.44 28.5,-6.25 42.8,-8.75 h 0.3 c 383.5,-70.94 800.1,59.69 1052.9,305.33 565.7,549.09 319.7,1319.76 319.7,1319.76 l 496.9,-277.21" /><path
         id="path32"
         style="fill:#f36458;fill-opacity:1;fill-rule:nonzero;stroke:none"
         d="m 12408.7,7964.01 c 99.4,423.15 90.7,772.86 90.7,772.86 0,0 110,-33.44 224,70.94 12.5,-160.01 37.9,-775.98 -314.7,-843.8" /><path
         id="path34"
         style="fill:#32908b;fill-opacity:1;fill-rule:nonzero;stroke:none"
         d="m 10305.8,5155.75 -826.9,-69.38 -0.31,1.25 h -2302 c 158.76,172.82 493.16,490.02 949.74,672.53 0,0 181.89,377.21 1754.78,571.91 0,0 -55.95,-736.92 424.69,-1176.31" /><path
         id="path36"
         style="fill:#bebdba;fill-opacity:1;fill-rule:nonzero;stroke:none"
         d="m 11052.7,5218.25 -746.9,-62.5 c -480.64,439.39 -424.69,1176.31 -424.69,1176.31 l 274.69,167.19 c 1.3,-45.94 3.8,-90.32 7.5,-133.44 0.9,-9.69 1.6,-19.38 2.8,-28.75 2.2,-22.19 4.7,-43.76 7.5,-65.01 2.5,-20.31 5.3,-40 8.5,-59.69 0.6,-2.81 0.9,-5.31 1.5,-8.12 1.6,-10.63 3.5,-21.26 5.6,-31.88 2.2,-12.5 4.7,-25 7.2,-37.19 2.5,-12.19 5,-24.37 7.8,-36.25 2.9,-11.88 5.7,-23.75 8.8,-35.63 36.6,-145.32 89.7,-270.32 155,-375.95 4.4,-7.51 9.1,-14.69 13.8,-21.88 6.5,-10.31 13.1,-20.31 20,-30 2.8,-4.06 5.9,-8.13 8.7,-12.19 10.9,-15.62 22.5,-30.62 34.1,-45 8.1,-10.32 16.5,-20.32 25,-30 1.2,-1.88 2.8,-3.44 4.7,-5.32 8.1,-9.68 16.8,-19.06 25.3,-28.12 12.8,-13.44 25.6,-26.26 38.7,-38.75 11.6,-10.94 22.8,-21.26 34.7,-31.25 8.5,-7.5 17.5,-14.7 26.3,-21.88 3.7,-3.13 7.5,-5.94 11.2,-8.75 10.3,-8.13 20.6,-15.94 31,-23.44 1.2,-0.94 2.8,-1.88 4,-2.81 12.5,-8.76 25,-17.19 37.8,-25.32 11.9,-7.81 24.1,-15.31 36.3,-22.19 1.2,-0.94 2.2,-1.56 3.4,-2.19 11.9,-6.87 23.8,-13.43 36,-19.68 5.3,-2.82 10.6,-5.32 15.9,-8.13 8.8,-4.37 17.5,-8.44 26.3,-12.5 40.3,-18.75 81.8,-34.69 123.7,-48.12 14.1,-4.38 28.1,-8.44 42.5,-12.2 14.1,-3.74 28.5,-7.18 42.5,-10.62 14.4,-3.13 28.5,-5.94 42.8,-8.75" /><path
         id="path38"
         style="fill:#1a1b23;fill-opacity:1;fill-rule:nonzero;stroke:none"
         d="m 10011.7,7357.87 c 0,0 134.4,39.03 247.2,203.82 h 420.6 c 0,0 234.2,-130.1 516,-190.81 0,0 -654.8,-576.76 -1183.8,-13.01 z M 11079,11559.2 c -1917.61,0 -1707.29,-1120.7 -1707.29,-1120.7 -608.48,-600.95 -70.01,-1994.46 95.31,-2378.54 -49.37,481.58 -39.37,1115.37 81.26,1947.64 h 1827.92 c 0,0 360.3,-872.59 824.4,-1171.66 -77.5,-976.31 -476.9,-1211.63 -843.8,-1211.63 -341.3,0 -654.7,203.76 -654.7,203.76 h -493.5 c -400.93,-378.77 -628.76,-134.69 -710.63,-6.87 171.26,-1074.12 656.93,-1248.51 656.93,-1248.51 1549.4,-364.08 2075.7,631.91 2253.8,1391.32 99.4,423.15 90.7,772.86 90.7,772.86 0,0 110,-33.44 224,70.94 35.4,32.5 71,78.13 103.8,142.19 0,0 327.8,-942.54 -401.6,-1164.12 v -262.2 c 1480.1,1392.26 542.5,4035.52 -1346.6,4035.52" /><path
         id="path40"
         style="fill:#f36458;fill-opacity:1;fill-rule:nonzero;stroke:none"
         d="M 11611.2,428 H 11294 c -38.8,918.5 -371.3,954.7 -371.3,954.7 634.4,0 691.6,-679.098 688.5,-954.7" /><path
         id="path42"
         style="fill:#bebdba;fill-opacity:1;fill-rule:nonzero;stroke:none"
         d="m 12588.4,113.898 v -0.296 C 12454.4,94.1992 12309,75.5 12196.5,66.3984 12010.3,52 11914.6,65.1992 12112.2,149.199 c 36.5,15.699 68.1,34.699 95.6,57.199 69.1,56.403 111.3,132.403 134.6,218.004 114.4,420.7 -262.5,813.898 -692.2,740.098 -94.9,-16.3 -173.5,-29.9 -211.5,-36.5 -102.5,147.2 -263.5,254.7 -516,254.7 0,0 -15.6,37.5 238.5,84.4 254,46.9 1042.8,180.66 1042.8,180.66 0,0 461.3,-66.89 555.1,-661.959 67.8,-432.199 -82.9,-737.199 -170.7,-871.903" /><path
         id="path44"
         style="fill:#1a1b23;fill-opacity:1;fill-rule:nonzero;stroke:none"
         d="m 14697.2,946.301 102,1023.789 c 197.8,-78.73 338.2,-271.76 338.2,-497.29 0,-262.7 -190.3,-481.3 -440.2,-526.499 z m 601.6,526.499 c 0,309.68 -203.1,572.71 -483.1,663.16 l 13.7,137.8 h -1390.5 l 187.5,-1882.959 h 1015.5 l 38.8,389.699 c 347.3,39.301 618.1,334.7 618.1,692.3" /><path
         id="path46"
         style="fill:#fffffe;fill-opacity:1;fill-rule:nonzero;stroke:none"
         d="m 14501.1,1385.8 c 0,-188.6 -152.9,-341.6 -341.6,-341.6 -188.6,0 -341.6,153 -341.6,341.6 0,188.7 153,341.63 341.6,341.63 188.7,0 341.6,-152.93 341.6,-341.63" /><path
         id="path48"
         style="fill:#fffffe;fill-opacity:1;fill-rule:nonzero;stroke:none"
         d="M 11553,372.199 H 10211.1 V 561 h 1281.5 c 33.4,0 60.4,-27 60.4,-60.398 V 372.199" /><path
         id="path50"
         style="fill:#1a1b23;fill-opacity:1;fill-rule:nonzero;stroke:none"
         d="M 12232.2,78.8984 H 10337.1 V 428 h 1546 c 192.8,0 349.1,-156.602 349.1,-349.1016" /><path
         id="path52"
         style="fill:#2b3038;fill-opacity:1;fill-rule:nonzero;stroke:none"
         d="M 10482.1,109.898 H 2630.11 L 1626.62,5087.62 H 9478.59 L 10203,1493.4 10418,428 l 27.2,-135.602 36.9,-182.5" /><path
         id="path54"
         style="fill:#1a1b23;fill-opacity:1;fill-rule:nonzero;stroke:none"
         d="M 10482.1,109.898 H 2630.11 L 1626.62,5087.62 4821.47,3291.9 7058.47,2034.33 10482.1,109.898" /><path
         id="path56"
         style="fill:#1a1b23;fill-opacity:1;fill-rule:nonzero;stroke:none"
         d="m 7058.47,2034.33 -2237,1257.57 c 169.39,292.2 486.59,481.28 879.43,481.28 661.28,0 1286.31,-535.97 1396.63,-1196.94 32.5,-195.01 16.56,-379.39 -39.06,-541.91" /><path
         id="path58"
         style="fill:#32908b;fill-opacity:1;fill-rule:nonzero;stroke:none"
         d="M 7058.47,2034.33 C 6925.65,1645.25 6565.94,1379 6099.97,1379 c -661.28,0 -1286.62,535.96 -1396.63,1197.24 -44.69,268.45 2.19,515.96 118.13,715.66 l 2237,-1257.57" /><path
         id="path60"
         style="fill:#fffffe;fill-opacity:1;fill-rule:nonzero;stroke:none"
         d="m 13704.8,4352.21 c 0,0 -1,-8.37 -3,-24.05 -1.8,-15.63 -3.4,-38.7 -5.5,-67.72 -1.7,-29.11 -2.4,-64.42 -2.6,-104.61 0.3,-40.25 2.3,-85.45 5.8,-134.34 4.2,-48.89 10.8,-101.45 20.1,-156.37 3.6,-27.6 10.8,-55.38 17.1,-83.83 5.9,-28.54 13.8,-57.2 22.2,-86.2 4.1,-14.52 8.2,-29.15 12.4,-43.89 5,-14.46 10.1,-29.02 15.2,-43.67 10,-29.32 20,-59.01 33,-87.85 23,-58.88 52.5,-115.94 81.7,-173 16.4,-27.68 32.7,-55.36 48.9,-82.94 l 26.1,-44.86 24.4,-43.11 c 8.1,-14.46 16.4,-28.24 24.2,-43.09 7,-16.2 14.1,-32.32 21.1,-48.34 6.9,-16.01 13.8,-31.92 20.6,-47.72 7.1,-15.66 10.4,-32.35 15.6,-48.26 9.3,-32.14 20,-63.1 23.3,-95.87 2.4,-16.02 4.8,-31.87 7.1,-47.52 2.3,-15.63 1.4,-31.73 2.1,-47.17 0.3,-15.54 1,-30.78 0.7,-45.79 -1.7,-15.12 -3.1,-29.97 -5.1,-44.45 -2.3,-29.13 -11.7,-56.34 -18.3,-82.34 -2.9,-13.15 -8.8,-25.18 -13.5,-37.14 -5,-11.87 -9.5,-23.57 -14.8,-34.53 -12.8,-20.92 -22.8,-41.62 -36,-58.71 -13,-17.21 -24.1,-33.67 -37.6,-46.51 -12.3,-13.7 -24.5,-25.18 -36.1,-34.96 -22.4,-20.25 -42.7,-32.61 -56.1,-41.12 -13.8,-8.14 -21.5,-11.51 -21.5,-11.51 0,0 6.2,5.76 17,17.12 10.7,11.47 25.7,28.88 42.3,52.31 8.5,11.53 17.2,24.7 25.4,39.82 9,14.46 16.8,31.17 25.1,48.71 8.8,17.3 13.9,37.65 21.6,57.53 4.2,21.24 11.7,42.38 14.4,65.63 2,23.33 6.8,46.89 4.7,72.13 -0.5,12.51 -0.2,25.1 -0.2,37.86 -1.2,12.83 -3.4,25.86 -5,38.98 -2.2,13.11 -2.6,26.42 -6.1,39.7 -3.5,13.24 -7.1,26.63 -10.8,40.17 -5.9,27.16 -16.8,54.09 -27.4,81.41 -5.6,13.48 -9.6,27.87 -16.4,40.87 -6.5,13.1 -13.1,26.28 -19.8,39.56 -6.5,13.25 -13.1,26.59 -19.7,39.99 -7.8,13.76 -16.9,27.85 -25.4,41.86 -34.4,56.84 -69.4,114.58 -104.4,172.32 -31.3,62.14 -62.7,124.36 -85,189.31 -13.3,31.62 -22.4,64.4 -31.5,96.74 -4.6,16.11 -9.1,32.13 -13.7,48.04 -3.3,16.21 -6.6,32.3 -9.9,48.27 -6.4,31.91 -13.3,63.13 -15.8,94.43 -3.4,31.1 -7.8,61.3 -8.5,91.08 -4.4,59.21 -2.7,115.4 0.9,166.77 3.2,51.44 10.4,98.12 18.2,139.02 7.6,40.96 17.3,75.97 25.7,104.49 17.3,57.01 32.8,87.35 32.8,87.35" /><path
         id="path62"
         style="fill:#fffffe;fill-opacity:1;fill-rule:nonzero;stroke:none"
         d="m 14126.7,3320.24 c 0,0 -18.5,20.4 -46.2,59.82 -27.7,39.33 -64.5,97.81 -101,172.31 -18.1,37.27 -37.1,78.15 -53.5,122.84 -17.3,44.39 -33.6,92.09 -47.2,142.38 -13.1,50.4 -26.9,102.7 -35,157.02 -9,54.13 -15,109.65 -19.1,165.35 -2.3,55.8 -2.8,111.7 0.3,166.6 1.1,27.47 3,54.68 6.8,81.38 2.9,26.77 6.5,53.1 11.3,78.83 4.2,25.79 8.3,51.14 14.8,75.49 5.8,24.46 11.2,48.38 18.4,71.22 7,22.84 12.3,45.44 20.3,66.46 7.8,21.03 15.2,41.35 22.4,60.85 15.9,38.38 30.7,73.38 46.2,103.21 15.5,29.86 28.5,55.99 41.4,76.4 25.1,41.09 40.2,63.86 40.2,63.86 0,0 -8,-26.45 -23.2,-71.49 -8.2,-22.27 -14.8,-50.62 -24.9,-81.81 -9.7,-31.4 -17.7,-67.72 -28.3,-106.39 -8.5,-39.36 -18.1,-81.64 -25.9,-126.77 -4.6,-22.39 -7.5,-45.74 -10.6,-69.51 -3.4,-23.72 -6.8,-47.9 -9,-72.68 -3,-24.65 -4.9,-49.82 -6.1,-75.34 -1.8,-25.47 -2.4,-51.28 -3.4,-77.28 -1.9,-52 -0.1,-104.9 2.8,-157.65 2.9,-52.77 7.5,-105.53 15,-157.12 7.3,-51.62 15.4,-102.41 25.6,-151.21 10.9,-48.59 21,-95.88 33.4,-140.08 12.1,-44.27 24.7,-85.95 37,-124.33 50.1,-153.09 97.5,-252.36 97.5,-252.36" /><path
         id="path64"
         style="fill:#32908b;fill-opacity:1;fill-rule:nonzero;stroke:none"
         d="m 11136.1,2363.87 c 0,0 464.3,1099.18 1310.9,2054.99 0,0 -1051.4,-757.82 -1310.9,-2054.99" /><path
         id="path66"
         style="fill:#32908b;fill-opacity:1;fill-rule:nonzero;stroke:none"
         d="m 14410.9,4026.41 c 0,0 485.9,485.81 1449,238.64 0,0 -947.2,576.37 -1449,-238.64" /><g
         transform="scale(1.01518)"
         id="g68"><path
           id="path70"
           style="fill:#32908b;fill-opacity:1;fill-rule:nonzero;stroke:none"
           d="m 15358.8,1871.51 c 0,0 941.2,-190.54 814.1,-1328.063 0,0 -126.9,866.153 -814.1,1328.063" /></g><path
         id="path72"
         style="fill:#f36458;fill-opacity:1;fill-rule:nonzero;stroke:none"
         d="m 12105.9,5523.58 c -166.2,-161.58 -403.8,-273.46 -656.3,-310.64 1049.1,506.58 976,1630.4 976,1630.4 0,0 246,-770.67 -319.7,-1319.76" /><path
         id="path74"
         style="fill:#2b3038;fill-opacity:1;fill-rule:nonzero;stroke:none"
         d="m 13386.3,3083.76 c 0,-32.5 -1.9,-64.69 -6.3,-96.25 -172.2,-208.76 -476.9,-496.9 -940.3,-661.91 -250.3,55.32 -455,231.57 -550.4,464.4 118.8,285.01 279.7,647.53 474.1,1030.99 77.2,26.25 159.7,40 245.7,40 429.4,0 777.2,-347.83 777.2,-777.23" /><path
         id="path76"
         style="fill:#1a1b23;fill-opacity:1;fill-rule:nonzero;stroke:none"
         d="M 12363.4,3820.99 C 12169,3437.53 12008.1,3075.01 11889.3,2790 c -37.2,90.63 -57.5,189.69 -57.5,293.76 0,343.46 222.9,634.73 531.6,737.23" /><path
         id="path78"
         style="fill:#1a1b23;fill-opacity:1;fill-rule:nonzero;stroke:none"
         d="m 13380,2987.51 c -47.1,-383.77 -374,-680.66 -770.9,-680.66 -58.2,0 -115,6.25 -169.4,18.75 463.4,165.01 768.1,453.15 940.3,661.91" /><path
         id="path80"
         style="fill:#fffffe;fill-opacity:1;fill-rule:nonzero;stroke:none"
         d="m 12798.7,3366.77 c 0,-55.62 -45.1,-100.7 -100.7,-100.7 -55.6,0 -100.7,45.08 -100.7,100.7 0,55.61 45.1,100.69 100.7,100.69 55.6,0 100.7,-45.08 100.7,-100.69" /><path
         id="path82"
         style="fill:#fffffe;fill-opacity:1;fill-rule:nonzero;stroke:none"
         d="m 12371.6,3366.77 c 0,-55.62 -45.1,-100.7 -100.7,-100.7 -55.6,0 -100.7,45.08 -100.7,100.7 0,55.61 45.1,100.69 100.7,100.69 55.6,0 100.7,-45.08 100.7,-100.69" /><path
         id="path84"
         style="fill:#fffffe;fill-opacity:1;fill-rule:nonzero;stroke:none"
         d="m 12193.3,2773.98 c 0,0 630.4,-99.07 882.6,580.9 0,0 13.5,-959.16 -882.6,-580.9" /><path
         id="path86"
         style="fill:#fffffe;fill-opacity:1;fill-rule:nonzero;stroke:none"
         d="m 14813.4,118.301 h -1381.8 c -50,0 -90.6,40.597 -90.6,90.597 V 401.5 h 1563 V 208.898 c 0,-50 -40.6,-90.597 -90.6,-90.597" /><g
         transform="scale(1.10918)"
         id="g88"><path
           id="path90"
           style="fill:#2b3038;fill-opacity:1;fill-rule:nonzero;stroke:none"
           d="M 16229.6,0 H 70.4386 C 31.5373,0 0,31.4633 0,70.4139 v 0 C 0,109.269 31.5373,140.824 70.4386,140.824 H 16229.6 c 38.9,0 70.4,-31.555 70.4,-70.4101 v 0 C 16300,31.4633 16268.5,0 16229.6,0" /></g></g></g></svg>