<?xml version="1.0" encoding="UTF-8" standalone="no"?>
<!-- Created with Inkscape (http://www.inkscape.org/) -->

<svg
   version="1.1"
   id="svg2"
   width="2666.6667"
   height="2666.6667"
   viewBox="0 0 2666.6667 2666.6667"
   sodipodi:docname="boy go to work use scooter flat illustration.eps"
   xmlns:inkscape="http://www.inkscape.org/namespaces/inkscape"
   xmlns:sodipodi="http://sodipodi.sourceforge.net/DTD/sodipodi-0.dtd"
   xmlns="http://www.w3.org/2000/svg"
   xmlns:svg="http://www.w3.org/2000/svg">
  <defs
     id="defs6" />
  <sodipodi:namedview
     id="namedview4"
     pagecolor="#ffffff"
     bordercolor="#000000"
     borderopacity="0.25"
     inkscape:showpageshadow="2"
     inkscape:pageopacity="0.0"
     inkscape:pagecheckerboard="0"
     inkscape:deskcolor="#d1d1d1" />
  <g
     id="g8"
     inkscape:groupmode="layer"
     inkscape:label="ink_ext_XXXXXX"
     transform="matrix(1.3333333,0,0,-1.3333333,0,2666.6667)">
    <g
       id="g10"
       transform="scale(0.1)">
    
      <path
         d="m 6378.7,2617 c 624.69,-169.4 895.87,314.8 895.87,314.8 C 6519.14,3251.4 6378.7,2617 6378.7,2617"
         style="fill:#141417;fill-opacity:1;fill-rule:nonzero;stroke:none"
         id="path14" />
      <path
         d="m 5293.98,2931.8 c 0,0 271.19,-484.2 895.87,-314.8 0,0 -140.43,634.4 -895.87,314.8"
         style="fill:#141417;fill-opacity:1;fill-rule:nonzero;stroke:none"
         id="path16" />
      <path
         d="m 6378.7,3384.6 c 624.69,-169.4 895.87,314.8 895.87,314.8 C 6519.14,4019 6378.7,3384.6 6378.7,3384.6"
         style="fill:#141417;fill-opacity:1;fill-rule:nonzero;stroke:none"
         id="path18" />
      <path
         d="m 5300.69,3699.4 c 0,0 271.18,-484.2 895.87,-314.8 0,0 -140.43,634.4 -895.87,314.8"
         style="fill:#141417;fill-opacity:1;fill-rule:nonzero;stroke:none"
         id="path20" />
      <path
         d="M 6378.7,4152.2 C 7003.39,3982.8 7274.57,4467 7274.57,4467 6519.14,4786.6 6378.7,4152.2 6378.7,4152.2"
         style="fill:#141417;fill-opacity:1;fill-rule:nonzero;stroke:none"
         id="path22" />
      <path
         d="m 5300.69,4467 c 0,0 271.18,-484.2 895.87,-314.8 0,0 -140.43,634.4 -895.87,314.8"
         style="fill:#141417;fill-opacity:1;fill-rule:nonzero;stroke:none"
         id="path24" />
      <path
         d="m 6378.7,4919.8 c 624.69,-169.4 895.87,314.8 895.87,314.8 -755.43,319.6 -895.87,-314.8 -895.87,-314.8"
         style="fill:#141417;fill-opacity:1;fill-rule:nonzero;stroke:none"
         id="path26" />
      <path
         d="m 5300.69,5234.6 c 0,0 271.18,-484.2 895.87,-314.8 0,0 -140.43,634.4 -895.87,314.8"
         style="fill:#141417;fill-opacity:1;fill-rule:nonzero;stroke:none"
         id="path28" />
      <path
         d="m 6378.7,5687.5 c 624.69,-169.5 895.87,314.7 895.87,314.7 -755.43,319.6 -895.87,-314.7 -895.87,-314.7"
         style="fill:#141417;fill-opacity:1;fill-rule:nonzero;stroke:none"
         id="path30" />
      <path
         d="m 5300.69,6002.2 c 0,0 271.18,-484.2 895.87,-314.7 0,0 -140.43,634.3 -895.87,314.7"
         style="fill:#141417;fill-opacity:1;fill-rule:nonzero;stroke:none"
         id="path32" />
      <path
         d="m 6378.7,6455.1 c 624.69,-169.5 895.87,314.7 895.87,314.7 -755.43,319.6 -895.87,-314.7 -895.87,-314.7"
         style="fill:#141417;fill-opacity:1;fill-rule:nonzero;stroke:none"
         id="path34" />
      <path
         d="m 5300.69,6769.8 c 0,0 271.18,-484.2 895.87,-314.7 0,0 -140.43,634.3 -895.87,314.7"
         style="fill:#141417;fill-opacity:1;fill-rule:nonzero;stroke:none"
         id="path36" />
      <path
         d="m 6378.7,7222.7 c 624.69,-169.5 895.87,314.7 895.87,314.7 C 6519.14,7857 6378.7,7222.7 6378.7,7222.7"
         style="fill:#141417;fill-opacity:1;fill-rule:nonzero;stroke:none"
         id="path38" />
      <path
         d="m 5300.69,7537.4 c 0,0 271.18,-484.2 895.87,-314.7 0,0 -140.43,634.3 -895.87,314.7"
         style="fill:#141417;fill-opacity:1;fill-rule:nonzero;stroke:none"
         id="path40" />
      <path
         d="m 6558.46,8034.4 c 0,147.6 -119.67,267.3 -267.3,267.3 -147.62,0 -267.29,-119.7 -267.29,-267.3 0,-138.7 105.51,-252.6 240.59,-266 V 2146.7 h 50.32 v 5621.5 c 136.55,11.9 243.68,126.5 243.68,266.2"
         style="fill:#141417;fill-opacity:1;fill-rule:nonzero;stroke:none"
         id="path42" />
      <path
         d="m 15153.7,16288 c -3.7,-336.7 -78.9,-632 -255.6,-695.7 -249.2,-89.5 -405.6,127.4 -405.6,127.4 l -252.8,-338.2 c -11.5,63.7 -31.8,149 -68.3,242.7 -67.8,177.1 -190.5,385.7 -411.9,540.7 -36,25.3 -74.3,48.9 -115.8,71 l 334,440.6 c 0,0 -18.5,269 150.4,291.6 168.4,23 309.5,-259.8 309.5,-259.8 l 66.9,48 72,51.2 257.4,183.6 c -154.5,49.9 -186.8,323.4 -186.8,323.4 l 196.1,45.7 182.2,-223.3 c 82.6,-232.5 131.9,-556.4 128.3,-848.9"
         style="fill:#f6a0b0;fill-opacity:1;fill-rule:nonzero;stroke:none"
         id="path44" />
      <path
         d="m 14521.1,16174.5 -162.8,-246.3 -186.9,-304 c -67.8,177.1 -190.5,385.7 -411.9,540.7 -36,25.3 -74.3,48.9 -115.8,71 l 334,440.6 c 0,0 -18.5,269 150.4,291.6 168.4,23 309.5,-259.8 309.5,-259.8 l 66.9,48 c 9.3,-183.1 16.6,-581.8 16.6,-581.8"
         style="fill:#d3647c;fill-opacity:1;fill-rule:nonzero;stroke:none"
         id="path46" />
      <path
         d="m 13989.2,15135.1 -137,-312.8 c 23.1,-123.6 -2.3,-298.9 -62.3,-507 -54,-185.9 -135.6,-398.1 -234.8,-624.2 -100.1,-227.9 -218.2,-469.7 -344.2,-711.9 -89,-171.1 -182.2,-343.2 -275.4,-510.7 -95.5,-171.1 -191,-338.1 -283.3,-495.5 -371.8,-636.2 -685.5,-1118.3 -685.5,-1118.3 0,0 -293.5,0 -454.5,11.6 -148.5,10.6 -1362.8,934.6 -1545.5,1073.5 -13.84,10.6 -21.68,16.6 -23.07,17.5 -0.46,0.5 -0.46,1 -0.46,1 l 1076.33,1902.6 c 0,0.4 0,0.4 0,0.4 l 301.3,532.4 21.2,37.9 c 0,0 -96.4,120.8 -84.9,259.7 0.9,14.3 3.2,28.6 6.9,43.4 38.8,155.9 663.9,537 663.9,537 299,397.2 563.8,614 776.5,730.8 336.7,185 542.5,119 542.5,119 44.7,-4.6 87.2,-12 126.9,-22.2 514.8,-130.1 599.3,-686.9 612.6,-889.9 3.3,-46.1 2.8,-74.3 2.8,-74.3"
         style="fill:#d36135;fill-opacity:1;fill-rule:nonzero;stroke:none"
         id="path48" />
      <path
         d="m 12749.6,15560.9 667.1,-506.5 -699.4,-1632.3 218.2,-953.6 c -95.5,-171.1 -191,-338.1 -283.3,-495.5 -257,307.3 -887.6,1089.3 -1277.5,1786.8 l -474.3,-957 c -243,-490.3 -133.1,-1082.2 269.7,-1452.5 l 317.2,-291.7 479.4,-203.9 c 0,0 -293.5,0 -454.5,11.6 -148.5,10.6 -1362.8,934.6 -1545.5,1073.5 -13.84,10.6 -21.68,16.6 -23.07,17.5 -0.46,0.5 -0.46,1 -0.46,1 l 1076.33,1902.6 c 0,0.4 0,0.4 0,0.4 l 301.3,532.4 21.2,37.9 c 0,0 -96.4,120.8 -84.9,259.7 0.9,14.3 3.2,28.6 6.9,43.4 38.8,155.9 663.9,537 663.9,537 299,397.2 563.8,614 776.5,730.8 336.7,185 542.5,119 542.5,119 44.7,-4.6 87.2,-12 126.9,-22.2 514.8,-130.1 599.3,-686.9 612.6,-889.9 0,0 -175.7,1034.8 -1236.8,351.5"
         style="fill:#b3522d;fill-opacity:1;fill-rule:nonzero;stroke:none"
         id="path50" />
      <path
         d="m 14198.1,9370.5 c -4.9,5.5 -495.4,549.4 -253.3,1259.3 273.5,801.8 276.7,1343.8 9.3,1611.1 l 14.9,14.9 c 277.3,-277.3 275.9,-811.4 -4.3,-1632.8 -238.1,-698.2 244,-1232.9 248.9,-1238.2 l -15.5,-14.3"
         style="fill:#141925;fill-opacity:1;fill-rule:nonzero;stroke:none"
         id="path52" />
      <path
         d="m 14375.8,9436.9 -711.5,2852 61.2,15.2 711.5,-2851.9 -61.2,-15.3"
         style="fill:#141925;fill-opacity:1;fill-rule:nonzero;stroke:none"
         id="path54" />
      <path
         d="m 3788.28,7509.5 590.32,116 105.42,-711.6 -911.84,-231.9 c 0,0 -52.7,511.3 216.1,827.5"
         style="fill:#d07f1a;fill-opacity:1;fill-rule:nonzero;stroke:none"
         id="path56" />
      <path
         d="m 11527.8,4541.6 -77.4,-501.6 774.4,29.5 135.8,290.3 22.8,292.4 -855.6,-110.6"
         style="fill:#d07f1a;fill-opacity:1;fill-rule:nonzero;stroke:none"
         id="path58" />
      <path
         d="m 14031.7,3349 h -2734.9 l 31.3,286.5 62.3,564.2 c 0,0 501.5,-110.2 678.2,-27.6 176.2,83 292,187.7 292,187.7 0,0 728.1,-419.3 915.8,-446.6 141.7,-20.7 500.6,-55.3 667.1,-280.9 54.5,-72.5 88.2,-164.7 88.2,-283.3"
         style="fill:#d36135;fill-opacity:1;fill-rule:nonzero;stroke:none"
         id="path60" />
      <path
         d="m 14031.7,3349 h -2734.9 l 31.3,286.5 c 394.5,9.2 2026.8,0.5 2615.4,-3.2 54.5,-72.5 88.2,-164.7 88.2,-283.3"
         style="fill:#fef1f9;fill-opacity:1;fill-rule:nonzero;stroke:none"
         id="path62" />
      <path
         d="m 2299.07,5315.8 815.9,2610.2 264.08,-115.3 519.93,-227.7 c 0,0 -254.85,-445.8 -228.75,-639 26.69,-193 92.09,-334.7 92.09,-334.7 0,0 -617.44,-569.8 -699.43,-740.9 -62.08,-129 -202.18,-461.2 -467.18,-552.9 -85.37,-30.4 -183.48,-35 -296.64,0.3"
         style="fill:#d36135;fill-opacity:1;fill-rule:nonzero;stroke:none"
         id="path64" />
      <path
         d="m 2299.07,5315.8 815.9,2610.2 264.08,-115.3 c -108.87,-379.3 -604.19,-1934.5 -783.34,-2495.2 -85.37,-30.4 -183.48,-35 -296.64,0.3"
         style="fill:#fef1f9;fill-opacity:1;fill-rule:nonzero;stroke:none"
         id="path66" />
      <path
         d="m 17007.1,3081.9 c 0,-483.6 -392.1,-875.7 -875.7,-875.7 -483.7,0 -875.8,392.1 -875.8,875.7 0,483.7 392.1,875.8 875.8,875.8 483.6,0 875.7,-392.1 875.7,-875.8"
         style="fill:#fef1f9;fill-opacity:1;fill-rule:nonzero;stroke:none"
         id="path68" />
      <path
         d="m 16837.6,3081.9 c 0,-390 -316.2,-706.2 -706.2,-706.2 -390.1,0 -706.2,316.2 -706.2,706.2 0,390.1 316.1,706.2 706.2,706.2 390,0 706.2,-316.1 706.2,-706.2"
         style="fill:#141417;fill-opacity:1;fill-rule:nonzero;stroke:none"
         id="path70" />
      <path
         d="m 9498.76,3081.9 c 0,-483.6 -392.09,-875.7 -875.76,-875.7 -483.67,0 -875.76,392.1 -875.76,875.7 0,483.7 392.09,875.8 875.76,875.8 483.67,0 875.76,-392.1 875.76,-875.8"
         style="fill:#fef1f9;fill-opacity:1;fill-rule:nonzero;stroke:none"
         id="path72" />
      <path
         d="m 9329.21,3081.9 c 0,-390 -316.18,-706.2 -706.21,-706.2 -390.03,0 -706.21,316.2 -706.21,706.2 0,390.1 316.18,706.2 706.21,706.2 390.03,0 706.21,-316.1 706.21,-706.2"
         style="fill:#141417;fill-opacity:1;fill-rule:nonzero;stroke:none"
         id="path74" />
      <path
         d="m 13558.8,8199.2 c -40.2,-390.8 -960.1,-2569.3 -960.1,-2569.3 l -74.7,-896.8 -51.7,5.5 -17.1,-246.8 H 11449 c 126.4,937 793.5,3649.7 793.5,3649.7 L 10776.4,9682 c 0,0 -1999.99,-2241.7 -2408.28,-2304.9 -408.3,-63.3 -4012.36,-649.6 -4012.36,-649.6 l -201.15,988.6 3868.42,833.7 1298.7,2109.3 0.46,0.5 c -59.05,104.2 -52.13,235.7 -7.38,374.1 137.48,427.2 628.36,924.6 628.36,924.6 0,0 0,-0.5 0.46,-1 1.39,-0.9 9.23,-6.9 23.07,-17.5 182.7,-138.9 1397,-1062.9 1545.5,-1073.5 161,-11.6 454.5,-11.6 454.5,-11.6 0,0 1632.2,-2264.8 1592.1,-2655.5"
         style="fill:#141925;fill-opacity:1;fill-rule:nonzero;stroke:none"
         id="path76" />
      <path
         d="m 8129.65,3457.1 c 114.72,153.5 297.28,253.5 503.21,253.5 317.17,0 579.51,-236.4 621.93,-542.1 l 467.85,-79.5 c -3.84,597.8 -491.14,1082.9 -1089.78,1082.9 -382.53,0 -719.41,-198.2 -913.97,-497.2 l 410.76,-217.6"
         style="fill:#b3522d;fill-opacity:1;fill-rule:nonzero;stroke:none"
         id="path78" />
      <path
         d="m 16647.4,3457.1 c -114.7,153.5 -297.2,253.5 -503.2,253.5 -317.1,0 -579.5,-236.4 -621.9,-542.1 l -467.8,-79.5 c 3.8,597.8 491.1,1082.9 1089.7,1082.9 382.6,0 719.5,-198.2 914,-497.2 l -410.8,-217.6"
         style="fill:#b3522d;fill-opacity:1;fill-rule:nonzero;stroke:none"
         id="path80" />
      <path
         d="m 14254.5,15265.2 -268.1,-55.8 c -13.3,203 -97.8,759.8 -612.6,889.9 l 59.9,53.6 134.3,120.4 c 0,0 4.6,-1.9 12.5,-6 21.6,-9.7 42.9,-20.3 63.2,-31.4 41.5,-22.1 79.8,-45.7 115.8,-71 338.6,-237.2 446.5,-598.9 480.2,-783.4 12.9,-71.5 14.8,-116.3 14.8,-116.3"
         style="fill:#fef1f9;fill-opacity:1;fill-rule:nonzero;stroke:none"
         id="path82" />
      <path
         d="m 15026.8,16326.3 126.9,-38.3 c -3.7,-336.7 -78.9,-632 -255.6,-695.7 -32.8,-11.5 -63.7,-18 -93.2,-20.3 -194.2,-16.1 -312.4,147.7 -312.4,147.7 l -247.7,329.8 c 324.8,398.2 192.8,658.8 192.8,658.8 0,0 -141.1,282.8 -309.5,259.8 -168.9,-22.6 -150.4,-291.6 -150.4,-291.6 l -334,-440.6 c -24.5,13.4 -49.4,25.8 -75.7,37.4 l -134.3,-120.4 c -718.7,1464.7 516.8,1891 1131.3,1674.7 591,-207.7 729.8,55.3 741.4,79.8 0.9,1.4 0.9,1.8 0.9,1.8 122.7,-483.5 -281.9,-772.3 -281.9,-772.3 l -182.2,223.3 -196.1,-45.7 c 0,0 32.3,-273.5 186.8,-323.4 l -257.4,-183.6 c 189.6,-286.5 -21.7,-750.6 -21.7,-750.6 l 228.9,-143.9 c 165.6,143.9 243.1,413.3 243.1,413.3"
         style="fill:#141925;fill-opacity:1;fill-rule:nonzero;stroke:none"
         id="path84" />
      <path
         d="m 11320.8,14393.7 -371.9,-394.4 c 31.8,-42 56.8,-88.6 70.6,-138 0,0 0,0 0,-0.4 L 9943.17,11958.3 c 0,0 -490.88,-497.4 -628.36,-924.6 l -157.32,-118.1 -516.71,562.9 c -49.37,53.9 -73.82,125.9 -67.36,198.3 l 7.38,87.2 -87.66,-78.9 -70.12,52.6 131.48,1320.4 c 0,0 1748.5,1093 1958.4,1145.6 l 744.2,487.6 c -11.5,-138.9 84.9,-259.7 84.9,-259.7 l -21.2,-37.9"
         style="fill:#f1b242;fill-opacity:1;fill-rule:nonzero;stroke:none"
         id="path86" />
      <path
         d="m 16113.7,3005.8 c -72.9,-22.6 -150.8,18.4 -173.4,91.3 l -347.9,1118.8 c -0.4,0.2 -0.6,0.2 -1,0.4 -568.3,-236.7 -708.6,-1063.8 -709,-1101.2 l -3.2,-250.5 -250.6,-0.9 h -5556 c -468.73,0 -919.01,181.7 -1256.26,507.4 h 6698.86 c 53.9,376.1 242.6,1064.4 895.9,1320.4 l -1230,4519.4 h -0.4 l -59.1,217.8 376.5,102.3 c 60.1,16.4 122.1,-19.1 138.4,-79.3 v 0 c 16.3,-60.1 -19.2,-122 -79.3,-138.4 l -64.7,-17.5 1346.7,-4940.6 365.4,-1176 c 22.6,-72.9 -18,-150.4 -90.9,-173.4"
         style="fill:#141417;fill-opacity:1;fill-rule:nonzero;stroke:none"
         id="path88" />
      <path
         d="M 11019.5,13860.9 9943.17,11958.3 c 0,0 -490.88,-497.4 -628.36,-924.6 l -157.32,-118.1 185.46,1346.7 1676.55,1598.6"
         style="fill:#141417;fill-opacity:1;fill-rule:nonzero;stroke:none"
         id="path90" />
      <path
         d="M 10512.9,14203.7 8692.45,12968.2 8580.8,11764 l -87.66,-78.9 -70.12,52.6 131.48,1320.4 c 0,0 1748.5,1093 1958.4,1145.6"
         style="fill:#141417;fill-opacity:1;fill-rule:nonzero;stroke:none"
         id="path92" />
      <path
         d="m 14249,16789.8 c 0,0 -76,132.7 -132.4,67.4 -81.4,-94.2 -36.2,-378.1 173.4,-380.5 0,0 -130.1,74.7 -142.1,204.7 -12.1,130 43.3,122.8 101.1,108.4"
         style="fill:#141417;fill-opacity:1;fill-rule:nonzero;stroke:none"
         id="path94" />
      <path
         d="m 14067.6,12310.7 c -67.3,-169.7 -179.4,-308.1 -263.4,-346.4 -84,-37.9 -139.8,-18 -174.4,12 -36.9,31.3 -50.7,74.7 -50.7,74.7 164.2,99.6 289.7,216.4 289.7,307.3 0,90.8 -86.3,164.2 -242.2,30 -9.7,-8.4 -19.4,-16.7 -28.6,-24 -94.1,-76.6 -226.1,-83.5 -329,-19.9 -81.6,50.3 -161.4,100.1 -161.4,100.1 l 199.3,329 89,-50.8 31.8,-18.4 c 21.7,18 43,34.6 63.3,49.8 306.3,229.3 717.4,-87.2 576.6,-443.4"
         style="fill:#f6a0b0;fill-opacity:1;fill-rule:nonzero;stroke:none"
         id="path96" />
      <path
         d="m 13849.7,12289.5 c 0,-92.1 -74.7,-166.7 -166.8,-166.7 -92.1,0 -166.8,74.6 -166.8,166.7 0,92.1 74.7,166.8 166.8,166.8 92.1,0 166.8,-74.7 166.8,-166.8"
         style="fill:#141925;fill-opacity:1;fill-rule:nonzero;stroke:none"
         id="path98" />
      <path
         d="m 16690.6,4822 -324.9,193.2 c -118,70.2 -270.5,31.4 -340.7,-86.6 -62,-104.2 -38.7,-235.2 48.9,-312.7 -207.5,-212.3 -297.4,-416.6 -301.4,-425.8 l 84.7,-36.6 c 0.9,2.1 90.7,205.3 295.2,410.2 l 284.2,-169 254,427.3"
         style="fill:#141417;fill-opacity:1;fill-rule:nonzero;stroke:none"
         id="path100" />
      <path
         d="m 8707.11,3081.9 c 0,-46.4 -37.66,-84.1 -84.11,-84.1 -46.46,0 -84.11,37.7 -84.11,84.1 0,46.5 37.65,84.2 84.11,84.2 46.45,0 84.11,-37.7 84.11,-84.2"
         style="fill:#141417;fill-opacity:1;fill-rule:nonzero;stroke:none"
         id="path102" />
      <path
         d="m 9342.95,12262.3 -185.46,-1346.7 -516.71,562.9 c -49.37,53.9 -73.82,125.9 -67.36,198.3 l 7.38,87.2 111.65,1204.2 650.5,-705.9"
         style="fill:#d07f1a;fill-opacity:1;fill-rule:nonzero;stroke:none"
         id="path104" />
      <path
         d="m 11755.4,4661.1 699.8,-169.3 H 11449 c 126.4,937 793.5,3649.7 793.5,3649.7 l -1466.1,1540.5 990.9,1058.8 c -15.6,-37.9 -523.6,-1248 -523.6,-1266.5 0,-18.4 1230,-1273.3 1230,-1273.3 l 168.4,143.5 -174.9,-512.1 636.7,181.3 -680.5,-349.7 -668,-3002.9"
         style="fill:#141417;fill-opacity:1;fill-rule:nonzero;stroke:none"
         id="path106" />
      <path
         d="m 11966.7,10854.7 -561.1,-150.8 -1162.6,703 -642.15,-642.1 529.15,95.5 -624.65,-442.9 -1197.67,-1978.3 147.63,-243.2 -407.83,104.3 -3635.9,-989.1 -55.82,-583.6 -201.15,988.6 3868.42,833.7 1298.7,2109.3 0.46,0.5 c -59.05,104.2 -52.13,235.7 -7.38,374.1 137.48,427.2 628.36,924.6 628.36,924.6 0,0 0,-0.5 0.46,-1 1.39,-0.9 9.23,-6.9 23.07,-17.5 182.7,-138.9 1397,-1062.9 1545.5,-1073.5 161,-11.6 454.5,-11.6 454.5,-11.6"
         style="fill:#141417;fill-opacity:1;fill-rule:nonzero;stroke:none"
         id="path108" />
     
      <path
         d="m 13629.8,11976.3 c -36.9,31.3 -50.7,74.7 -50.7,74.7 164.2,99.6 289.7,216.4 289.7,307.3 0,90.8 -86.3,164.2 -242.2,30 -9.7,-8.4 -19.4,-16.7 -28.6,-24 -94.1,-76.6 -226.1,-83.5 -329,-19.9 -81.6,50.3 -161.4,100.1 -161.4,100.1 l 199.3,329 89,-50.8 -14.3,-133.4 c -6.5,-60.9 60,-101.9 111.7,-69.2 101.4,64.3 246.6,127.1 376,74.8 210.8,-85.8 101.9,-530.1 -239.5,-618.6"
         style="fill:#d3647c;fill-opacity:1;fill-rule:nonzero;stroke:none"
         id="path112" />
      <path
         d="m 13210.9,12979.2 c 85.4,-132.8 141.2,-207.6 141.2,-207.6 l -152.3,-243.6 -95.9,-153.6 c -57.2,28.6 -113.5,60 -168.4,94.1 -915.8,565.6 -1529.9,1828.4 -1588.9,1952.9 -3.2,6.9 -4.6,10.2 -4.6,10.2 0,0 -96.4,120.8 -84.9,259.7 0.9,14.3 3.2,28.6 6.9,43.4 38.8,155.9 663.9,537 663.9,537 299,397.2 563.8,614 776.5,730.8 19.3,0.9 38.2,1.8 56.7,2.3 396.8,6 648.7,-279.1 698,-598.4 45.2,-283.7 -70.1,-594.2 -385.7,-751.5 -296.6,-148.1 -548.5,-229.3 -548.5,-229.3 196.5,-633.5 506.5,-1167.7 686,-1446.4"
         style="fill:#d36135;fill-opacity:1;fill-rule:nonzero;stroke:none"
         id="path114" />
      <path
         d="m 13199.8,12528 -95.9,-153.6 c -57.2,28.6 -113.5,60 -168.4,94.1 -915.8,565.6 -1529.9,1828.4 -1588.9,1952.9 -3.2,6.9 -4.6,10.2 -4.6,10.2 0,0 -96.4,120.8 -84.9,259.7 0.9,14.3 3.2,28.6 6.9,43.4 38.8,155.9 663.9,537 663.9,537 299,397.2 563.8,614 776.5,730.8 19.3,0.9 38.2,1.8 56.7,2.3 396.8,6 648.7,-279.1 698,-598.4 -235.3,132.9 -705.8,218.7 -1442.6,-415.7 -3.7,-2.9 -7.3,-5.8 -10.9,-8.8 -283.1,-228.5 -359.5,-628.9 -182.3,-946.6 263.6,-472.5 737.4,-1171.7 1376.5,-1507.3"
         style="fill:#b3522d;fill-opacity:1;fill-rule:nonzero;stroke:none"
         id="path116" />
      <path
         d="M 8724.93,12878.4 10613.5,14144.5 8779.61,12718.6 Z"
         style="fill:#d07f1a;fill-opacity:1;fill-rule:nonzero;stroke:none"
         id="path118" />
      <path
         d="m 8463.72,8509.3 1112.64,1814.5 c 0,0 -365.17,-970 -1112.64,-1814.5"
         style="fill:#141417;fill-opacity:1;fill-rule:nonzero;stroke:none"
         id="path120" />
      <path
         d="M 11160.9,9669.7 12339,8465.5 11226,9838.9 Z"
         style="fill:#141417;fill-opacity:1;fill-rule:nonzero;stroke:none"
         id="path122" />
      <path
         d="m 12511.1,7511.2 -562.2,-2529.7 c 0,0 537.4,1471.5 562.2,2529.7"
         style="fill:#141417;fill-opacity:1;fill-rule:nonzero;stroke:none"
         id="path124" />
      <path
         d="m 14486.5,17686.4 c 0,0 130.1,-93.7 368.2,-115.3 0,0 -514.6,-58.7 -491,-422.9 4.1,-64 27,-125 58.8,-180.6 78.1,-136.7 263.8,-545.4 -37,-934.7 0,0 171.2,-333.1 419.4,-460.9 -194.2,-16.1 -312.4,147.7 -312.4,147.7 l -247.7,329.8 c 324.8,398.2 192.8,658.8 192.8,658.8 0,0 -141.1,282.8 -309.5,259.8 -168.9,-22.6 -150.4,-291.6 -150.4,-291.6 l -334,-440.6 c -24.5,13.4 -49.4,25.8 -75.7,37.4 l -134.3,-120.4 c -718.7,1464.7 516.8,1891 1131.3,1674.7 591,-207.7 729.8,55.3 741.4,79.8 -8.8,-26.3 -139.8,-359.9 -819.9,-221"
         style="fill:#141417;fill-opacity:1;fill-rule:nonzero;stroke:none"
         id="path126" />
      <path
         d="m 11342,14431.6 -21.2,-37.9 -371.9,-394.4 109.8,425.3 c 0,0 -530.1,-209.9 -545.8,-220.9 l 744.2,487.6 c -11.5,-138.9 84.9,-259.7 84.9,-259.7"
         style="fill:#d07f1a;fill-opacity:1;fill-rule:nonzero;stroke:none"
         id="path128" />
      <path
         d="m 4598.44,7228.6 2391.74,604.9 c 0,0 -1501.79,-611.9 -2391.74,-604.9"
         style="fill:#141417;fill-opacity:1;fill-rule:nonzero;stroke:none"
         id="path130" />
      <path
         d="m 12508.5,4256.5 v 0 c -37.5,-55.5 -19,-131.3 40,-163.2 l 107.2,-58 c 52.5,-28.4 118,-11.3 149.8,39.2 l 0.4,0.6 c 35.2,55.7 15.6,129.6 -42.5,160.6 l -107.6,57.4 c -51.2,27.3 -114.8,11.5 -147.3,-36.6"
         style="fill:#fef1f9;fill-opacity:1;fill-rule:nonzero;stroke:none"
         id="path132" />
      <path
         d="m 12915.7,4063.1 v 0 c -37.6,-55.6 -19,-131.3 40,-163.2 l 107.2,-58 c 52.4,-28.4 117.9,-11.3 149.8,39.2 l 0.4,0.6 c 35.2,55.7 15.6,129.6 -42.5,160.6 l -107.6,57.3 c -51.2,27.4 -114.8,11.6 -147.3,-36.5"
         style="fill:#fef1f9;fill-opacity:1;fill-rule:nonzero;stroke:none"
         id="path134" />
      <path
         d="m 3101.16,5971.5 v 0 c 42.21,-52 120.13,-56.3 167.8,-9.2 l 86.67,85.7 c 42.43,41.9 45.11,109.5 6.12,154.7 l -0.47,0.6 c -43.07,49.8 -119.44,52.6 -166.03,6 l -86.2,-86.2 c -41.05,-41 -44.45,-106.5 -7.89,-151.6"
         style="fill:#fef1f9;fill-opacity:1;fill-rule:nonzero;stroke:none"
         id="path136" />
      <path
         d="m 3404.7,6304.8 v 0 c 42.22,-52.1 120.13,-56.4 167.8,-9.2 l 86.68,85.6 c 42.43,42 45.1,109.6 6.11,154.8 l -0.47,0.5 c -43.07,49.9 -119.44,52.7 -166.03,6.1 l -86.2,-86.2 c -41.05,-41.1 -44.45,-106.5 -7.89,-151.6"
         style="fill:#fef1f9;fill-opacity:1;fill-rule:nonzero;stroke:none"
         id="path138" />
      <path
         d="m 13789.9,14315.3 c -54,-185.9 -135.6,-398.1 -234.8,-624.2 l -327.6,137 253.8,621 308.6,-133.8"
         style="fill:#fef1f9;fill-opacity:1;fill-rule:nonzero;stroke:none"
         id="path140" />
      <path
         d="m 11432,3872 h 522.8 l 410.2,-152.8 h -285.6 l -136.7,84.4 h -518.8 l 8.1,68.4"
         style="fill:#fef1f9;fill-opacity:1;fill-rule:nonzero;stroke:none"
         id="path142" />
      <path
         d="m 3581.91,7665.6 -165.49,-495.9 -274.82,-340.8 90.39,270.9 123.39,102.9 164.23,492.2 62.3,-29.3"
         style="fill:#fef1f9;fill-opacity:1;fill-rule:nonzero;stroke:none"
         id="path144" />
      <path
         d="m 11475.3,13816.9 -501,-1048.8 588.4,920.6 z"
         style="fill:#b3522d;fill-opacity:1;fill-rule:nonzero;stroke:none"
         id="path146" />
      <path
         d="m 11585,13281.2 593.2,-867.9 c 0,0 -412,324.1 -593.2,867.9"
         style="fill:#b3522d;fill-opacity:1;fill-rule:nonzero;stroke:none"
         id="path148" />
      <path
         d="m 18701.5,2143.3 c 0,-14.5 -5.9,-27.7 -15.4,-37.2 -9.7,-9.4 -22.7,-15.3 -37.2,-15.3 H 1351.07 c -28.99,0 -52.53,23.5 -52.53,52.5 0,14.5 5.88,27.7 15.34,37.2 9.46,9.5 22.69,15.3 37.19,15.3 H 18648.9 c 29,0 52.6,-23.5 52.6,-52.5"
         style="fill:#141417;fill-opacity:1;fill-rule:nonzero;stroke:none"
         id="path150" />
      <path
         d="M 4649.19,2195.8 H 2804.41 c 19.33,731.9 424.85,1316.4 922.39,1316.4 497.55,0 903.06,-584.5 922.39,-1316.4"
         style="fill:#141417;fill-opacity:1;fill-rule:nonzero;stroke:none"
         id="path152" />
      <path
         d="M 5346.16,2195.8 H 4183.52 c 12.18,461.2 267.76,829.6 581.32,829.6 313.57,0 569.14,-368.4 581.32,-829.6"
         style="fill:#141417;fill-opacity:1;fill-rule:nonzero;stroke:none"
         id="path154" />
      <path
         d="M 6159.87,2195.8 H 5710.6 c 4.7,178.3 103.46,320.6 224.63,320.6 121.17,0 219.93,-142.3 224.64,-320.6"
         style="fill:#141417;fill-opacity:1;fill-rule:nonzero;stroke:none"
         id="path156" />
      <path
         d="m 2517.46,2195.8 h -449.27 c 4.7,178.3 103.46,320.6 224.63,320.6 121.17,0 219.93,-142.3 224.64,-320.6"
         style="fill:#141417;fill-opacity:1;fill-rule:nonzero;stroke:none"
         id="path158" />
    </g>
  </g>
</svg>
